%FSLAX46Y46*%
%MOMM*%
%AMPS28*
21,1,0.600000,1.550000,0.000000,0.000000,0.000000*
%
%ADD28PS28*%
%AMPS14*
21,1,0.600000,1.550000,0.000000,0.000000,90.000000*
%
%ADD14PS14*%
%AMPS29*
21,1,0.600000,1.550000,0.000000,0.000000,180.000000*
%
%ADD29PS29*%
%AMPS15*
21,1,0.600000,1.550000,0.000000,0.000000,270.000000*
%
%ADD15PS15*%
%AMPS20*
21,1,1.600000,3.200000,0.000000,0.000000,90.000000*
%
%ADD20PS20*%
%AMPS21*
21,1,1.600000,3.200000,0.000000,0.000000,270.000000*
%
%ADD21PS21*%
%AMPS25*
21,1,1.450000,1.000000,0.000000,0.000000,0.000000*
%
%ADD25PS25*%
%AMPS23*
21,1,1.450000,1.000000,0.000000,0.000000,90.000000*
%
%ADD23PS23*%
%AMPS24*
21,1,1.450000,1.000000,0.000000,0.000000,180.000000*
%
%ADD24PS24*%
%AMPS22*
21,1,1.450000,1.000000,0.000000,0.000000,270.000000*
%
%ADD22PS22*%
%AMPS19*
21,1,1.500000,2.800000,0.000000,0.000000,0.000000*
%
%ADD19PS19*%
%AMPS18*
21,1,1.500000,2.800000,0.000000,0.000000,180.000000*
%
%ADD18PS18*%
%AMPS26*
21,1,1.800000,1.100000,0.000000,0.000000,0.000000*
%
%ADD26PS26*%
%AMPS16*
21,1,1.800000,1.100000,0.000000,0.000000,90.000000*
%
%ADD16PS16*%
%AMPS27*
21,1,1.800000,1.100000,0.000000,0.000000,180.000000*
%
%ADD27PS27*%
%AMPS17*
21,1,1.800000,1.100000,0.000000,0.000000,270.000000*
%
%ADD17PS17*%
%AMPS11*
21,1,1.000000,0.900000,0.000000,0.000000,0.000000*
%
%ADD11PS11*%
%AMPS12*
21,1,1.000000,0.900000,0.000000,0.000000,90.000000*
%
%ADD12PS12*%
%AMPS10*
21,1,1.000000,0.900000,0.000000,0.000000,180.000000*
%
%ADD10PS10*%
%AMPS13*
21,1,1.000000,0.900000,0.000000,0.000000,270.000000*
%
%ADD13PS13*%
G01*
%LPD*%
G01*
%LPD*%
G75*
D10*
X41130000Y40760000D03*
D11*
X41130000Y39160000D03*
D11*
X16725000Y38350000D03*
D10*
X16725000Y39950000D03*
D12*
X38400000Y33000000D03*
D13*
X36800000Y33000000D03*
D12*
X13540000Y26560000D03*
D13*
X11940000Y26560000D03*
D11*
X7825000Y26880000D03*
D10*
X7825000Y28480000D03*
D11*
X30706667Y31114999D03*
D10*
X30706667Y32714999D03*
D10*
X21700000Y55400000D03*
D11*
X21700000Y53800000D03*
D14*
X38856667Y41864997D03*
D14*
X38856667Y39324997D03*
D14*
X38856667Y38054997D03*
D15*
X33516667Y38054997D03*
D15*
X33516667Y40594997D03*
D14*
X38856667Y40594997D03*
D15*
X33516667Y41864997D03*
D15*
X33516667Y39324997D03*
D16*
X39980000Y35430000D03*
D17*
X36980000Y35430000D03*
D10*
X16725000Y36510000D03*
D11*
X16725000Y34910000D03*
D18*
X28706667Y40594997D03*
D19*
X28706667Y35894999D03*
D12*
X34896667Y35964997D03*
D13*
X33296667Y35964997D03*
D20*
X39400000Y14800000D03*
D21*
X34400000Y14800000D03*
D10*
X3965000Y28480000D03*
D11*
X3965000Y26880000D03*
D11*
X10080000Y26840000D03*
D10*
X10080000Y28440000D03*
D12*
X21700000Y51940000D03*
D13*
X20100000Y51940000D03*
D22*
X12945000Y42460000D03*
D23*
X14845000Y42460000D03*
D10*
X14845000Y39950000D03*
D11*
X14845000Y38350000D03*
D24*
X19100000Y49900000D03*
D25*
X19100000Y48000000D03*
D10*
X16695000Y32330000D03*
D11*
X16695000Y30730000D03*
D26*
X24130000Y52400000D03*
D27*
X24130000Y55400000D03*
D11*
X8705000Y34470000D03*
D10*
X8705000Y36070000D03*
D28*
X14605000Y30730000D03*
D28*
X12065000Y30730000D03*
D28*
X10795000Y30730000D03*
D29*
X10795000Y36070000D03*
D29*
X13335000Y36070000D03*
D28*
X13335000Y30730000D03*
D29*
X14605000Y36070000D03*
D29*
X12065000Y36070000D03*
D17*
X5525000Y30840000D03*
D16*
X8525000Y30840000D03*
D11*
X43010000Y35760000D03*
D10*
X43010000Y37360000D03*
D10*
X22900000Y49600000D03*
D11*
X22900000Y48000000D03*
D13*
X11345000Y38350000D03*
D12*
X12945000Y38350000D03*
D13*
X11345000Y40230000D03*
D12*
X12945000Y40230000D03*
D13*
X37256667Y43954997D03*
D12*
X38856667Y43954997D03*
D16*
X37400000Y9200000D03*
D17*
X34400000Y9200000D03*
D16*
X26900000Y9200000D03*
D17*
X23900000Y9200000D03*
D21*
X23900000Y14800000D03*
D20*
X28900000Y14800000D03*
D10*
X5895000Y28480000D03*
D11*
X5895000Y26880000D03*
D11*
X28706667Y31114999D03*
D10*
X28706667Y32714999D03*
D13*
X40200000Y33000000D03*
D12*
X41800000Y33000000D03*
D12*
X13540000Y28440000D03*
D13*
X11940000Y28440000D03*
D10*
X43010000Y40760000D03*
D11*
X43010000Y39160000D03*
D20*
X15080000Y21480000D03*
D21*
X10080000Y21480000D03*
M02*
