%FSLAX46Y46*%
%MOMM*%
%AMPS12*
1,1,2.100000,0.000000,0.000000*
%
%ADD12PS12*%
%AMPS10*
1,1,2.200000,0.000000,0.000000*
%
%ADD10PS10*%
%AMPS11*
1,1,1.400000,0.000000,0.000000*
%
%ADD11PS11*%
%AMPS13*
1,1,1.400000,0.000000,0.000000*
%
%ADD13PS13*%
%AMPS16*
1,1,0.800000,0.000000,0.000000*
%
%ADD16PS16*%
%AMPS15*
1,1,0.700000,0.000000,0.000000*
%
%ADD15PS15*%
%AMPS17*
1,1,1.000000,0.000000,0.000000*
%
%ADD17PS17*%
%AMPS14*
1,1,0.700000,0.000000,0.000000*
%
%ADD14PS14*%
G01*
%LPD*%
G36*
X62640000Y360000D02*
X62640000Y71640000D01*
X360000Y71640000D01*
X360000Y360000D01*
X62640000Y360000D01*
D02*
G37*
%LPC*%
G36*
X58500000Y61254764D02*
X58377953Y61260762D01*
X58257065Y61278693D01*
X58138526Y61308385D01*
X58023471Y61349552D01*
X57913002Y61401800D01*
X57808185Y61464625D01*
X57710033Y61537421D01*
X57619486Y61619486D01*
X57537421Y61710033D01*
X57464625Y61808185D01*
X57401800Y61913002D01*
X57349552Y62023471D01*
X57308385Y62138526D01*
X57278693Y62257065D01*
X57260762Y62377953D01*
X57254764Y62500000D01*
X57260762Y62622047D01*
X57278693Y62742935D01*
X57308385Y62861474D01*
X57349552Y62976529D01*
X57401800Y63086998D01*
X57464625Y63191815D01*
X57537421Y63289967D01*
X57619486Y63380514D01*
X57710033Y63462579D01*
X57808185Y63535375D01*
X57913002Y63598200D01*
X58023471Y63650448D01*
X58138526Y63691615D01*
X58257065Y63721307D01*
X58377953Y63739238D01*
X58500000Y63745236D01*
X58622047Y63739238D01*
X58742935Y63721307D01*
X58861474Y63691615D01*
X58976529Y63650448D01*
X59086998Y63598200D01*
X59191815Y63535375D01*
X59289967Y63462579D01*
X59380514Y63380514D01*
X59462579Y63289967D01*
X59535375Y63191815D01*
X59598200Y63086998D01*
X59650448Y62976529D01*
X59691615Y62861474D01*
X59721307Y62742935D01*
X59739238Y62622047D01*
X59745236Y62500000D01*
X59739238Y62377953D01*
X59721307Y62257065D01*
X59691615Y62138526D01*
X59650448Y62023471D01*
X59598200Y61913002D01*
X59535375Y61808185D01*
X59462579Y61710033D01*
X59380514Y61619486D01*
X59289967Y61537421D01*
X59191815Y61464625D01*
X59086998Y61401800D01*
X58976529Y61349552D01*
X58861474Y61308385D01*
X58742935Y61278693D01*
X58622047Y61260762D01*
X58500000Y61254764D01*
D02*
G37*
%LPC*%
G36*
X53500000Y61254764D02*
X53377953Y61260762D01*
X53257065Y61278693D01*
X53138526Y61308385D01*
X53023471Y61349552D01*
X52913002Y61401800D01*
X52808185Y61464625D01*
X52710033Y61537421D01*
X52619486Y61619486D01*
X52537421Y61710033D01*
X52464625Y61808185D01*
X52401800Y61913002D01*
X52349552Y62023471D01*
X52308385Y62138526D01*
X52278693Y62257065D01*
X52260762Y62377953D01*
X52254764Y62500000D01*
X52260762Y62622047D01*
X52278693Y62742935D01*
X52308385Y62861474D01*
X52349552Y62976529D01*
X52401800Y63086998D01*
X52464625Y63191815D01*
X52537421Y63289967D01*
X52619486Y63380514D01*
X52710033Y63462579D01*
X52808185Y63535375D01*
X52913002Y63598200D01*
X53023471Y63650448D01*
X53138526Y63691615D01*
X53257065Y63721307D01*
X53377953Y63739238D01*
X53500000Y63745236D01*
X53622047Y63739238D01*
X53742935Y63721307D01*
X53861474Y63691615D01*
X53976529Y63650448D01*
X54086998Y63598200D01*
X54191815Y63535375D01*
X54289967Y63462579D01*
X54380514Y63380514D01*
X54462579Y63289967D01*
X54535375Y63191815D01*
X54598200Y63086998D01*
X54650448Y62976529D01*
X54691615Y62861474D01*
X54721307Y62742935D01*
X54739238Y62622047D01*
X54745236Y62500000D01*
X54739238Y62377953D01*
X54721307Y62257065D01*
X54691615Y62138526D01*
X54650448Y62023471D01*
X54598200Y61913002D01*
X54535375Y61808185D01*
X54462579Y61710033D01*
X54380514Y61619486D01*
X54289967Y61537421D01*
X54191815Y61464625D01*
X54086998Y61401800D01*
X53976529Y61349552D01*
X53861474Y61308385D01*
X53742935Y61278693D01*
X53622047Y61260762D01*
X53500000Y61254764D01*
D02*
G37*
%LPC*%
G36*
X48500000Y61254764D02*
X48377953Y61260762D01*
X48257065Y61278693D01*
X48138526Y61308385D01*
X48023471Y61349552D01*
X47913002Y61401800D01*
X47808185Y61464625D01*
X47710033Y61537421D01*
X47619486Y61619486D01*
X47537421Y61710033D01*
X47464625Y61808185D01*
X47401800Y61913002D01*
X47349552Y62023471D01*
X47308385Y62138526D01*
X47278693Y62257065D01*
X47260762Y62377953D01*
X47254764Y62500000D01*
X47260762Y62622047D01*
X47278693Y62742935D01*
X47308385Y62861474D01*
X47349552Y62976529D01*
X47401800Y63086998D01*
X47464625Y63191815D01*
X47537421Y63289967D01*
X47619486Y63380514D01*
X47710033Y63462579D01*
X47808185Y63535375D01*
X47913002Y63598200D01*
X48023471Y63650448D01*
X48138526Y63691615D01*
X48257065Y63721307D01*
X48377953Y63739238D01*
X48500000Y63745236D01*
X48622047Y63739238D01*
X48742935Y63721307D01*
X48861474Y63691615D01*
X48976529Y63650448D01*
X49086998Y63598200D01*
X49191815Y63535375D01*
X49289967Y63462579D01*
X49380514Y63380514D01*
X49462579Y63289967D01*
X49535375Y63191815D01*
X49598200Y63086998D01*
X49650448Y62976529D01*
X49691615Y62861474D01*
X49721307Y62742935D01*
X49739238Y62622047D01*
X49745236Y62500000D01*
X49739238Y62377953D01*
X49721307Y62257065D01*
X49691615Y62138526D01*
X49650448Y62023471D01*
X49598200Y61913002D01*
X49535375Y61808185D01*
X49462579Y61710033D01*
X49380514Y61619486D01*
X49289967Y61537421D01*
X49191815Y61464625D01*
X49086998Y61401800D01*
X48976529Y61349552D01*
X48861474Y61308385D01*
X48742935Y61278693D01*
X48622047Y61260762D01*
X48500000Y61254764D01*
D02*
G37*
%LPC*%
G36*
X31500000Y61254764D02*
X31377953Y61260762D01*
X31257065Y61278693D01*
X31138526Y61308385D01*
X31023471Y61349552D01*
X30913002Y61401800D01*
X30808185Y61464625D01*
X30710033Y61537421D01*
X30619486Y61619486D01*
X30537421Y61710033D01*
X30464625Y61808185D01*
X30401800Y61913002D01*
X30349552Y62023471D01*
X30308385Y62138526D01*
X30278693Y62257065D01*
X30260762Y62377953D01*
X30254764Y62500000D01*
X30260762Y62622047D01*
X30278693Y62742935D01*
X30308385Y62861474D01*
X30349552Y62976529D01*
X30401800Y63086998D01*
X30464625Y63191815D01*
X30537421Y63289967D01*
X30619486Y63380514D01*
X30710033Y63462579D01*
X30808185Y63535375D01*
X30913002Y63598200D01*
X31023471Y63650448D01*
X31138526Y63691615D01*
X31257065Y63721307D01*
X31377953Y63739238D01*
X31500000Y63745236D01*
X31622047Y63739238D01*
X31742935Y63721307D01*
X31861474Y63691615D01*
X31976529Y63650448D01*
X32086998Y63598200D01*
X32191815Y63535375D01*
X32289967Y63462579D01*
X32380514Y63380514D01*
X32462579Y63289967D01*
X32535375Y63191815D01*
X32598200Y63086998D01*
X32650448Y62976529D01*
X32691615Y62861474D01*
X32721307Y62742935D01*
X32739238Y62622047D01*
X32745236Y62500000D01*
X32739238Y62377953D01*
X32721307Y62257065D01*
X32691615Y62138526D01*
X32650448Y62023471D01*
X32598200Y61913002D01*
X32535375Y61808185D01*
X32462579Y61710033D01*
X32380514Y61619486D01*
X32289967Y61537421D01*
X32191815Y61464625D01*
X32086998Y61401800D01*
X31976529Y61349552D01*
X31861474Y61308385D01*
X31742935Y61278693D01*
X31622047Y61260762D01*
X31500000Y61254764D01*
D02*
G37*
%LPC*%
G36*
X26500000Y61254764D02*
X26377953Y61260762D01*
X26257065Y61278693D01*
X26138526Y61308385D01*
X26023471Y61349552D01*
X25913002Y61401800D01*
X25808185Y61464625D01*
X25710033Y61537421D01*
X25619486Y61619486D01*
X25537421Y61710033D01*
X25464625Y61808185D01*
X25401800Y61913002D01*
X25349552Y62023471D01*
X25308385Y62138526D01*
X25278693Y62257065D01*
X25260762Y62377953D01*
X25254764Y62500000D01*
X25260762Y62622047D01*
X25278693Y62742935D01*
X25308385Y62861474D01*
X25349552Y62976529D01*
X25401800Y63086998D01*
X25464625Y63191815D01*
X25537421Y63289967D01*
X25619486Y63380514D01*
X25710033Y63462579D01*
X25808185Y63535375D01*
X25913002Y63598200D01*
X26023471Y63650448D01*
X26138526Y63691615D01*
X26257065Y63721307D01*
X26377953Y63739238D01*
X26500000Y63745236D01*
X26622047Y63739238D01*
X26742935Y63721307D01*
X26861474Y63691615D01*
X26976529Y63650448D01*
X27086998Y63598200D01*
X27191815Y63535375D01*
X27289967Y63462579D01*
X27380514Y63380514D01*
X27462579Y63289967D01*
X27535375Y63191815D01*
X27598200Y63086998D01*
X27650448Y62976529D01*
X27691615Y62861474D01*
X27721307Y62742935D01*
X27739238Y62622047D01*
X27745236Y62500000D01*
X27739238Y62377953D01*
X27721307Y62257065D01*
X27691615Y62138526D01*
X27650448Y62023471D01*
X27598200Y61913002D01*
X27535375Y61808185D01*
X27462579Y61710033D01*
X27380514Y61619486D01*
X27289967Y61537421D01*
X27191815Y61464625D01*
X27086998Y61401800D01*
X26976529Y61349552D01*
X26861474Y61308385D01*
X26742935Y61278693D01*
X26622047Y61260762D01*
X26500000Y61254764D01*
D02*
G37*
%LPC*%
G36*
X14500000Y61254764D02*
X14377953Y61260762D01*
X14257065Y61278693D01*
X14138526Y61308385D01*
X14023471Y61349552D01*
X13913002Y61401800D01*
X13808185Y61464625D01*
X13710033Y61537421D01*
X13619486Y61619486D01*
X13537421Y61710033D01*
X13464625Y61808185D01*
X13401800Y61913002D01*
X13349552Y62023471D01*
X13308385Y62138526D01*
X13278693Y62257065D01*
X13260762Y62377953D01*
X13254764Y62500000D01*
X13260762Y62622047D01*
X13278693Y62742935D01*
X13308385Y62861474D01*
X13349552Y62976529D01*
X13401800Y63086998D01*
X13464625Y63191815D01*
X13537421Y63289967D01*
X13619486Y63380514D01*
X13710033Y63462579D01*
X13808185Y63535375D01*
X13913002Y63598200D01*
X14023471Y63650448D01*
X14138526Y63691615D01*
X14257065Y63721307D01*
X14377953Y63739238D01*
X14500000Y63745236D01*
X14622047Y63739238D01*
X14742935Y63721307D01*
X14861474Y63691615D01*
X14976529Y63650448D01*
X15086998Y63598200D01*
X15191815Y63535375D01*
X15289967Y63462579D01*
X15380514Y63380514D01*
X15462579Y63289967D01*
X15535375Y63191815D01*
X15598200Y63086998D01*
X15650448Y62976529D01*
X15691615Y62861474D01*
X15721307Y62742935D01*
X15739238Y62622047D01*
X15745236Y62500000D01*
X15739238Y62377953D01*
X15721307Y62257065D01*
X15691615Y62138526D01*
X15650448Y62023471D01*
X15598200Y61913002D01*
X15535375Y61808185D01*
X15462579Y61710033D01*
X15380514Y61619486D01*
X15289967Y61537421D01*
X15191815Y61464625D01*
X15086998Y61401800D01*
X14976529Y61349552D01*
X14861474Y61308385D01*
X14742935Y61278693D01*
X14622047Y61260762D01*
X14500000Y61254764D01*
D02*
G37*
%LPC*%
G36*
X9500000Y61254764D02*
X9377953Y61260762D01*
X9257065Y61278693D01*
X9138526Y61308385D01*
X9023471Y61349552D01*
X8913002Y61401800D01*
X8808185Y61464625D01*
X8710033Y61537421D01*
X8619486Y61619486D01*
X8537421Y61710033D01*
X8464625Y61808185D01*
X8401800Y61913002D01*
X8349552Y62023471D01*
X8308385Y62138526D01*
X8278693Y62257065D01*
X8260762Y62377953D01*
X8254764Y62500000D01*
X8260762Y62622047D01*
X8278693Y62742935D01*
X8308385Y62861474D01*
X8349552Y62976529D01*
X8401800Y63086998D01*
X8464625Y63191815D01*
X8537421Y63289967D01*
X8619486Y63380514D01*
X8710033Y63462579D01*
X8808185Y63535375D01*
X8913002Y63598200D01*
X9023471Y63650448D01*
X9138526Y63691615D01*
X9257065Y63721307D01*
X9377953Y63739238D01*
X9500000Y63745236D01*
X9622047Y63739238D01*
X9742935Y63721307D01*
X9861474Y63691615D01*
X9976529Y63650448D01*
X10086998Y63598200D01*
X10191815Y63535375D01*
X10289967Y63462579D01*
X10380514Y63380514D01*
X10462579Y63289967D01*
X10535375Y63191815D01*
X10598200Y63086998D01*
X10650448Y62976529D01*
X10691615Y62861474D01*
X10721307Y62742935D01*
X10739238Y62622047D01*
X10745236Y62500000D01*
X10739238Y62377953D01*
X10721307Y62257065D01*
X10691615Y62138526D01*
X10650448Y62023471D01*
X10598200Y61913002D01*
X10535375Y61808185D01*
X10462579Y61710033D01*
X10380514Y61619486D01*
X10289967Y61537421D01*
X10191815Y61464625D01*
X10086998Y61401800D01*
X9976529Y61349552D01*
X9861474Y61308385D01*
X9742935Y61278693D01*
X9622047Y61260762D01*
X9500000Y61254764D01*
D02*
G37*
%LPC*%
G36*
X4500000Y61254764D02*
X4377953Y61260762D01*
X4257065Y61278693D01*
X4138526Y61308385D01*
X4023471Y61349552D01*
X3913002Y61401800D01*
X3808185Y61464625D01*
X3710033Y61537421D01*
X3619486Y61619486D01*
X3537421Y61710033D01*
X3464625Y61808185D01*
X3401800Y61913002D01*
X3349552Y62023471D01*
X3308385Y62138526D01*
X3278693Y62257065D01*
X3260762Y62377953D01*
X3254764Y62500000D01*
X3260762Y62622047D01*
X3278693Y62742935D01*
X3308385Y62861474D01*
X3349552Y62976529D01*
X3401800Y63086998D01*
X3464625Y63191815D01*
X3537421Y63289967D01*
X3619486Y63380514D01*
X3710033Y63462579D01*
X3808185Y63535375D01*
X3913002Y63598200D01*
X4023471Y63650448D01*
X4138526Y63691615D01*
X4257065Y63721307D01*
X4377953Y63739238D01*
X4500000Y63745236D01*
X4622047Y63739238D01*
X4742935Y63721307D01*
X4861474Y63691615D01*
X4976529Y63650448D01*
X5086998Y63598200D01*
X5191815Y63535375D01*
X5289967Y63462579D01*
X5380514Y63380514D01*
X5462579Y63289967D01*
X5535375Y63191815D01*
X5598200Y63086998D01*
X5650448Y62976529D01*
X5691615Y62861474D01*
X5721307Y62742935D01*
X5739238Y62622047D01*
X5745236Y62500000D01*
X5739238Y62377953D01*
X5721307Y62257065D01*
X5691615Y62138526D01*
X5650448Y62023471D01*
X5598200Y61913002D01*
X5535375Y61808185D01*
X5462579Y61710033D01*
X5380514Y61619486D01*
X5289967Y61537421D01*
X5191815Y61464625D01*
X5086998Y61401800D01*
X4976529Y61349552D01*
X4861474Y61308385D01*
X4742935Y61278693D01*
X4622047Y61260762D01*
X4500000Y61254764D01*
D02*
G37*
%LPC*%
G36*
X4420000Y53744765D02*
X4293044Y53751003D01*
X4167308Y53769654D01*
X4044011Y53800538D01*
X3924337Y53843358D01*
X3809436Y53897702D01*
X3700404Y53963054D01*
X3598310Y54038772D01*
X3504131Y54124131D01*
X3418772Y54218310D01*
X3343054Y54320404D01*
X3277702Y54429436D01*
X3223358Y54544337D01*
X3180538Y54664011D01*
X3149654Y54787308D01*
X3131003Y54913044D01*
X3124765Y55040000D01*
X3131003Y55166956D01*
X3149654Y55292692D01*
X3180538Y55415989D01*
X3223358Y55535663D01*
X3277702Y55650564D01*
X3343054Y55759596D01*
X3418772Y55861690D01*
X3504131Y55955869D01*
X3598310Y56041228D01*
X3700404Y56116946D01*
X3809436Y56182298D01*
X3924337Y56236642D01*
X4044011Y56279462D01*
X4167308Y56310346D01*
X4293044Y56328997D01*
X4420000Y56335235D01*
X4546956Y56328997D01*
X4672692Y56310346D01*
X4795989Y56279462D01*
X4915663Y56236642D01*
X5030564Y56182298D01*
X5139596Y56116946D01*
X5241690Y56041228D01*
X5335869Y55955869D01*
X5421228Y55861690D01*
X5496946Y55759596D01*
X5562298Y55650564D01*
X5616642Y55535663D01*
X5659462Y55415989D01*
X5690346Y55292692D01*
X5708997Y55166956D01*
X5715235Y55040000D01*
X5708997Y54913044D01*
X5690346Y54787308D01*
X5659462Y54664011D01*
X5616642Y54544337D01*
X5562298Y54429436D01*
X5496946Y54320404D01*
X5421228Y54218310D01*
X5335869Y54124131D01*
X5241690Y54038772D01*
X5139596Y53963054D01*
X5030564Y53897702D01*
X4915663Y53843358D01*
X4795989Y53800538D01*
X4672692Y53769654D01*
X4546956Y53751003D01*
X4420000Y53744765D01*
D02*
G37*
%LPC*%
G36*
X9500000Y53744765D02*
X9373044Y53751003D01*
X9247308Y53769654D01*
X9124011Y53800538D01*
X9004337Y53843358D01*
X8889436Y53897702D01*
X8780404Y53963054D01*
X8678310Y54038772D01*
X8584131Y54124131D01*
X8498772Y54218310D01*
X8423054Y54320404D01*
X8357702Y54429436D01*
X8303358Y54544337D01*
X8260538Y54664011D01*
X8229654Y54787308D01*
X8211003Y54913044D01*
X8204765Y55040000D01*
X8211003Y55166956D01*
X8229654Y55292692D01*
X8260538Y55415989D01*
X8303358Y55535663D01*
X8357702Y55650564D01*
X8423054Y55759596D01*
X8498772Y55861690D01*
X8584131Y55955869D01*
X8678310Y56041228D01*
X8780404Y56116946D01*
X8889436Y56182298D01*
X9004337Y56236642D01*
X9124011Y56279462D01*
X9247308Y56310346D01*
X9373044Y56328997D01*
X9500000Y56335235D01*
X9626956Y56328997D01*
X9752692Y56310346D01*
X9875989Y56279462D01*
X9995663Y56236642D01*
X10110564Y56182298D01*
X10219596Y56116946D01*
X10321690Y56041228D01*
X10415869Y55955869D01*
X10501228Y55861690D01*
X10576946Y55759596D01*
X10642298Y55650564D01*
X10696642Y55535663D01*
X10739462Y55415989D01*
X10770346Y55292692D01*
X10788997Y55166956D01*
X10795235Y55040000D01*
X10788997Y54913044D01*
X10770346Y54787308D01*
X10739462Y54664011D01*
X10696642Y54544337D01*
X10642298Y54429436D01*
X10576946Y54320404D01*
X10501228Y54218310D01*
X10415869Y54124131D01*
X10321690Y54038772D01*
X10219596Y53963054D01*
X10110564Y53897702D01*
X9995663Y53843358D01*
X9875989Y53800538D01*
X9752692Y53769654D01*
X9626956Y53751003D01*
X9500000Y53744765D01*
D02*
G37*
%LPC*%
G36*
X14580000Y53744765D02*
X14453044Y53751003D01*
X14327308Y53769654D01*
X14204011Y53800538D01*
X14084337Y53843358D01*
X13969436Y53897702D01*
X13860404Y53963054D01*
X13758310Y54038772D01*
X13664131Y54124131D01*
X13578772Y54218310D01*
X13503054Y54320404D01*
X13437702Y54429436D01*
X13383358Y54544337D01*
X13340538Y54664011D01*
X13309654Y54787308D01*
X13291003Y54913044D01*
X13284765Y55040000D01*
X13291003Y55166956D01*
X13309654Y55292692D01*
X13340538Y55415989D01*
X13383358Y55535663D01*
X13437702Y55650564D01*
X13503054Y55759596D01*
X13578772Y55861690D01*
X13664131Y55955869D01*
X13758310Y56041228D01*
X13860404Y56116946D01*
X13969436Y56182298D01*
X14084337Y56236642D01*
X14204011Y56279462D01*
X14327308Y56310346D01*
X14453044Y56328997D01*
X14580000Y56335235D01*
X14706956Y56328997D01*
X14832692Y56310346D01*
X14955989Y56279462D01*
X15075663Y56236642D01*
X15190564Y56182298D01*
X15299596Y56116946D01*
X15401690Y56041228D01*
X15495869Y55955869D01*
X15581228Y55861690D01*
X15656946Y55759596D01*
X15722298Y55650564D01*
X15776642Y55535663D01*
X15819462Y55415989D01*
X15850346Y55292692D01*
X15868997Y55166956D01*
X15875235Y55040000D01*
X15868997Y54913044D01*
X15850346Y54787308D01*
X15819462Y54664011D01*
X15776642Y54544337D01*
X15722298Y54429436D01*
X15656946Y54320404D01*
X15581228Y54218310D01*
X15495869Y54124131D01*
X15401690Y54038772D01*
X15299596Y53963054D01*
X15190564Y53897702D01*
X15075663Y53843358D01*
X14955989Y53800538D01*
X14832692Y53769654D01*
X14706956Y53751003D01*
X14580000Y53744765D01*
D02*
G37*
%LPC*%
G36*
X4420000Y48664765D02*
X4293044Y48671003D01*
X4167308Y48689654D01*
X4044011Y48720538D01*
X3924337Y48763358D01*
X3809436Y48817702D01*
X3700404Y48883054D01*
X3598310Y48958772D01*
X3504131Y49044131D01*
X3418772Y49138310D01*
X3343054Y49240404D01*
X3277702Y49349436D01*
X3223358Y49464337D01*
X3180538Y49584011D01*
X3149654Y49707308D01*
X3131003Y49833044D01*
X3124765Y49960000D01*
X3131003Y50086956D01*
X3149654Y50212692D01*
X3180538Y50335989D01*
X3223358Y50455663D01*
X3277702Y50570564D01*
X3343054Y50679596D01*
X3418772Y50781690D01*
X3504131Y50875869D01*
X3598310Y50961228D01*
X3700404Y51036946D01*
X3809436Y51102298D01*
X3924337Y51156642D01*
X4044011Y51199462D01*
X4167308Y51230346D01*
X4293044Y51248997D01*
X4420000Y51255235D01*
X4546956Y51248997D01*
X4672692Y51230346D01*
X4795989Y51199462D01*
X4915663Y51156642D01*
X5030564Y51102298D01*
X5139596Y51036946D01*
X5241690Y50961228D01*
X5335869Y50875869D01*
X5421228Y50781690D01*
X5496946Y50679596D01*
X5562298Y50570564D01*
X5616642Y50455663D01*
X5659462Y50335989D01*
X5690346Y50212692D01*
X5708997Y50086956D01*
X5715235Y49960000D01*
X5708997Y49833044D01*
X5690346Y49707308D01*
X5659462Y49584011D01*
X5616642Y49464337D01*
X5562298Y49349436D01*
X5496946Y49240404D01*
X5421228Y49138310D01*
X5335869Y49044131D01*
X5241690Y48958772D01*
X5139596Y48883054D01*
X5030564Y48817702D01*
X4915663Y48763358D01*
X4795989Y48720538D01*
X4672692Y48689654D01*
X4546956Y48671003D01*
X4420000Y48664765D01*
D02*
G37*
%LPC*%
G36*
X9500000Y48664765D02*
X9373044Y48671003D01*
X9247308Y48689654D01*
X9124011Y48720538D01*
X9004337Y48763358D01*
X8889436Y48817702D01*
X8780404Y48883054D01*
X8678310Y48958772D01*
X8584131Y49044131D01*
X8498772Y49138310D01*
X8423054Y49240404D01*
X8357702Y49349436D01*
X8303358Y49464337D01*
X8260538Y49584011D01*
X8229654Y49707308D01*
X8211003Y49833044D01*
X8204765Y49960000D01*
X8211003Y50086956D01*
X8229654Y50212692D01*
X8260538Y50335989D01*
X8303358Y50455663D01*
X8357702Y50570564D01*
X8423054Y50679596D01*
X8498772Y50781690D01*
X8584131Y50875869D01*
X8678310Y50961228D01*
X8780404Y51036946D01*
X8889436Y51102298D01*
X9004337Y51156642D01*
X9124011Y51199462D01*
X9247308Y51230346D01*
X9373044Y51248997D01*
X9500000Y51255235D01*
X9626956Y51248997D01*
X9752692Y51230346D01*
X9875989Y51199462D01*
X9995663Y51156642D01*
X10110564Y51102298D01*
X10219596Y51036946D01*
X10321690Y50961228D01*
X10415869Y50875869D01*
X10501228Y50781690D01*
X10576946Y50679596D01*
X10642298Y50570564D01*
X10696642Y50455663D01*
X10739462Y50335989D01*
X10770346Y50212692D01*
X10788997Y50086956D01*
X10795235Y49960000D01*
X10788997Y49833044D01*
X10770346Y49707308D01*
X10739462Y49584011D01*
X10696642Y49464337D01*
X10642298Y49349436D01*
X10576946Y49240404D01*
X10501228Y49138310D01*
X10415869Y49044131D01*
X10321690Y48958772D01*
X10219596Y48883054D01*
X10110564Y48817702D01*
X9995663Y48763358D01*
X9875989Y48720538D01*
X9752692Y48689654D01*
X9626956Y48671003D01*
X9500000Y48664765D01*
D02*
G37*
%LPC*%
G36*
X14580000Y48664765D02*
X14453044Y48671003D01*
X14327308Y48689654D01*
X14204011Y48720538D01*
X14084337Y48763358D01*
X13969436Y48817702D01*
X13860404Y48883054D01*
X13758310Y48958772D01*
X13664131Y49044131D01*
X13578772Y49138310D01*
X13503054Y49240404D01*
X13437702Y49349436D01*
X13383358Y49464337D01*
X13340538Y49584011D01*
X13309654Y49707308D01*
X13291003Y49833044D01*
X13284765Y49960000D01*
X13291003Y50086956D01*
X13309654Y50212692D01*
X13340538Y50335989D01*
X13383358Y50455663D01*
X13437702Y50570564D01*
X13503054Y50679596D01*
X13578772Y50781690D01*
X13664131Y50875869D01*
X13758310Y50961228D01*
X13860404Y51036946D01*
X13969436Y51102298D01*
X14084337Y51156642D01*
X14204011Y51199462D01*
X14327308Y51230346D01*
X14453044Y51248997D01*
X14580000Y51255235D01*
X14706956Y51248997D01*
X14832692Y51230346D01*
X14955989Y51199462D01*
X15075663Y51156642D01*
X15190564Y51102298D01*
X15299596Y51036946D01*
X15401690Y50961228D01*
X15495869Y50875869D01*
X15581228Y50781690D01*
X15656946Y50679596D01*
X15722298Y50570564D01*
X15776642Y50455663D01*
X15819462Y50335989D01*
X15850346Y50212692D01*
X15868997Y50086956D01*
X15875235Y49960000D01*
X15868997Y49833044D01*
X15850346Y49707308D01*
X15819462Y49584011D01*
X15776642Y49464337D01*
X15722298Y49349436D01*
X15656946Y49240404D01*
X15581228Y49138310D01*
X15495869Y49044131D01*
X15401690Y48958772D01*
X15299596Y48883054D01*
X15190564Y48817702D01*
X15075663Y48763358D01*
X14955989Y48720538D01*
X14832692Y48689654D01*
X14706956Y48671003D01*
X14580000Y48664765D01*
D02*
G37*
%LPC*%
G36*
X21100000Y49294752D02*
X21040681Y49297668D01*
X20981924Y49306382D01*
X20924308Y49320815D01*
X20868382Y49340826D01*
X20814686Y49366222D01*
X20763741Y49396757D01*
X20716037Y49432136D01*
X20672027Y49472027D01*
X20632136Y49516037D01*
X20596757Y49563741D01*
X20566222Y49614686D01*
X20540826Y49668382D01*
X20520815Y49724308D01*
X20506382Y49781924D01*
X20497668Y49840681D01*
X20494752Y49900000D01*
X20497668Y49959319D01*
X20506382Y50018076D01*
X20520815Y50075692D01*
X20540826Y50131618D01*
X20566222Y50185314D01*
X20596757Y50236259D01*
X20632136Y50283963D01*
X20672027Y50327973D01*
X20716037Y50367864D01*
X20763741Y50403243D01*
X20814686Y50433778D01*
X20868382Y50459174D01*
X20924308Y50479185D01*
X20981924Y50493618D01*
X21040681Y50502332D01*
X21100000Y50505248D01*
X21159319Y50502332D01*
X21218076Y50493618D01*
X21275692Y50479185D01*
X21331618Y50459174D01*
X21385314Y50433778D01*
X21436259Y50403243D01*
X21483963Y50367864D01*
X21527973Y50327973D01*
X21567864Y50283963D01*
X21603243Y50236259D01*
X21633778Y50185314D01*
X21659174Y50131618D01*
X21679185Y50075692D01*
X21693618Y50018076D01*
X21702332Y49959319D01*
X21705248Y49900000D01*
X21702332Y49840681D01*
X21693618Y49781924D01*
X21679185Y49724308D01*
X21659174Y49668382D01*
X21633778Y49614686D01*
X21603243Y49563741D01*
X21567864Y49516037D01*
X21527973Y49472027D01*
X21483963Y49432136D01*
X21436259Y49396757D01*
X21385314Y49366222D01*
X21331618Y49340826D01*
X21275692Y49320815D01*
X21218076Y49306382D01*
X21159319Y49297668D01*
X21100000Y49294752D01*
D02*
G37*
%LPC*%
G36*
X25100000Y47394752D02*
X25040681Y47397668D01*
X24981924Y47406382D01*
X24924308Y47420815D01*
X24868382Y47440826D01*
X24814686Y47466222D01*
X24763741Y47496757D01*
X24716037Y47532136D01*
X24672027Y47572027D01*
X24632136Y47616037D01*
X24596757Y47663741D01*
X24566222Y47714686D01*
X24540826Y47768382D01*
X24520815Y47824308D01*
X24506382Y47881924D01*
X24497668Y47940681D01*
X24494752Y48000000D01*
X24497668Y48059319D01*
X24506382Y48118076D01*
X24520815Y48175692D01*
X24540826Y48231618D01*
X24566222Y48285314D01*
X24596757Y48336259D01*
X24632136Y48383963D01*
X24672027Y48427973D01*
X24716037Y48467864D01*
X24763741Y48503243D01*
X24814686Y48533778D01*
X24868382Y48559174D01*
X24924308Y48579185D01*
X24981924Y48593618D01*
X25040681Y48602332D01*
X25100000Y48605248D01*
X25159319Y48602332D01*
X25218076Y48593618D01*
X25275692Y48579185D01*
X25331618Y48559174D01*
X25385314Y48533778D01*
X25436259Y48503243D01*
X25483963Y48467864D01*
X25527973Y48427973D01*
X25567864Y48383963D01*
X25603243Y48336259D01*
X25633778Y48285314D01*
X25659174Y48231618D01*
X25679185Y48175692D01*
X25693618Y48118076D01*
X25702332Y48059319D01*
X25705248Y48000000D01*
X25702332Y47940681D01*
X25693618Y47881924D01*
X25679185Y47824308D01*
X25659174Y47768382D01*
X25633778Y47714686D01*
X25603243Y47663741D01*
X25567864Y47616037D01*
X25527973Y47572027D01*
X25483963Y47532136D01*
X25436259Y47496757D01*
X25385314Y47466222D01*
X25331618Y47440826D01*
X25275692Y47420815D01*
X25218076Y47406382D01*
X25159319Y47397668D01*
X25100000Y47394752D01*
D02*
G37*
%LPC*%
G36*
X14845000Y45694752D02*
X14785681Y45697668D01*
X14726924Y45706382D01*
X14669308Y45720815D01*
X14613382Y45740826D01*
X14559686Y45766222D01*
X14508741Y45796757D01*
X14461037Y45832136D01*
X14417027Y45872027D01*
X14377136Y45916037D01*
X14341757Y45963741D01*
X14311222Y46014686D01*
X14285826Y46068382D01*
X14265815Y46124308D01*
X14251382Y46181924D01*
X14242668Y46240681D01*
X14239752Y46300000D01*
X14242668Y46359319D01*
X14251382Y46418076D01*
X14265815Y46475692D01*
X14285826Y46531618D01*
X14311222Y46585314D01*
X14341757Y46636259D01*
X14377136Y46683963D01*
X14417027Y46727973D01*
X14461037Y46767864D01*
X14508741Y46803243D01*
X14559686Y46833778D01*
X14613382Y46859174D01*
X14669308Y46879185D01*
X14726924Y46893618D01*
X14785681Y46902332D01*
X14845000Y46905248D01*
X14904319Y46902332D01*
X14963076Y46893618D01*
X15020692Y46879185D01*
X15076618Y46859174D01*
X15130314Y46833778D01*
X15181259Y46803243D01*
X15228963Y46767864D01*
X15272973Y46727973D01*
X15312864Y46683963D01*
X15348243Y46636259D01*
X15378778Y46585314D01*
X15404174Y46531618D01*
X15424185Y46475692D01*
X15438618Y46418076D01*
X15447332Y46359319D01*
X15450248Y46300000D01*
X15447332Y46240681D01*
X15438618Y46181924D01*
X15424185Y46124308D01*
X15404174Y46068382D01*
X15378778Y46014686D01*
X15348243Y45963741D01*
X15312864Y45916037D01*
X15272973Y45872027D01*
X15228963Y45832136D01*
X15181259Y45796757D01*
X15130314Y45766222D01*
X15076618Y45740826D01*
X15020692Y45720815D01*
X14963076Y45706382D01*
X14904319Y45697668D01*
X14845000Y45694752D01*
D02*
G37*
%LPC*%
G36*
X32145000Y15932235D02*
X32145000Y30255000D01*
X42745000Y30255000D01*
X42745000Y36945000D01*
X19455000Y36945000D01*
X19455000Y34945000D01*
X5845000Y34945000D01*
X5845000Y37255000D01*
X16945000Y37255000D01*
X16945000Y39455000D01*
X37745000Y39455000D01*
X37745000Y46655000D01*
X40055000Y46655000D01*
X40055000Y39455000D01*
X45255000Y39455000D01*
X45255000Y27745000D01*
X36655000Y27745000D01*
X36655000Y15945765D01*
X32145000Y15932235D01*
D02*
G37*
%LPD*%
G36*
X32400000Y16188001D02*
X36400000Y16200001D01*
X36400000Y28000000D01*
X45000000Y28000000D01*
X45000000Y39200000D01*
X39800000Y39200000D01*
X39800000Y46400000D01*
X38000000Y46400000D01*
X38000000Y39200000D01*
X17200000Y39200000D01*
X17200000Y37000000D01*
X6100000Y37000000D01*
X6100000Y35200000D01*
X19200000Y35200000D01*
X19200000Y37200000D01*
X43000000Y37200000D01*
X43000000Y30000000D01*
X32400000Y30000000D01*
X32400000Y16188001D01*
D02*
G37*
%LPC*%
G36*
X12945000Y44594752D02*
X12885681Y44597668D01*
X12826924Y44606382D01*
X12769308Y44620815D01*
X12713382Y44640826D01*
X12659686Y44666222D01*
X12608741Y44696757D01*
X12561037Y44732136D01*
X12517027Y44772027D01*
X12477136Y44816037D01*
X12441757Y44863741D01*
X12411222Y44914686D01*
X12385826Y44968382D01*
X12365815Y45024308D01*
X12351382Y45081924D01*
X12342668Y45140681D01*
X12339752Y45200000D01*
X12342668Y45259319D01*
X12351382Y45318076D01*
X12365815Y45375692D01*
X12385826Y45431618D01*
X12411222Y45485314D01*
X12441757Y45536259D01*
X12477136Y45583963D01*
X12517027Y45627973D01*
X12561037Y45667864D01*
X12608741Y45703243D01*
X12659686Y45733778D01*
X12713382Y45759174D01*
X12769308Y45779185D01*
X12826924Y45793618D01*
X12885681Y45802332D01*
X12945000Y45805248D01*
X13004319Y45802332D01*
X13063076Y45793618D01*
X13120692Y45779185D01*
X13176618Y45759174D01*
X13230314Y45733778D01*
X13281259Y45703243D01*
X13328963Y45667864D01*
X13372973Y45627973D01*
X13412864Y45583963D01*
X13448243Y45536259D01*
X13478778Y45485314D01*
X13504174Y45431618D01*
X13524185Y45375692D01*
X13538618Y45318076D01*
X13547332Y45259319D01*
X13550248Y45200000D01*
X13547332Y45140681D01*
X13538618Y45081924D01*
X13524185Y45024308D01*
X13504174Y44968382D01*
X13478778Y44914686D01*
X13448243Y44863741D01*
X13412864Y44816037D01*
X13372973Y44772027D01*
X13328963Y44732136D01*
X13281259Y44696757D01*
X13230314Y44666222D01*
X13176618Y44640826D01*
X13120692Y44620815D01*
X13063076Y44606382D01*
X13004319Y44597668D01*
X12945000Y44594752D01*
D02*
G37*
%LPC*%
G36*
X34400000Y43394752D02*
X34340681Y43397668D01*
X34281924Y43406382D01*
X34224308Y43420815D01*
X34168382Y43440826D01*
X34114686Y43466222D01*
X34063741Y43496757D01*
X34016037Y43532136D01*
X33972027Y43572027D01*
X33932136Y43616037D01*
X33896757Y43663741D01*
X33866222Y43714686D01*
X33840826Y43768382D01*
X33820815Y43824308D01*
X33806382Y43881924D01*
X33797668Y43940681D01*
X33794752Y44000000D01*
X33797668Y44059319D01*
X33806382Y44118076D01*
X33820815Y44175692D01*
X33840826Y44231618D01*
X33866222Y44285314D01*
X33896757Y44336259D01*
X33932136Y44383963D01*
X33972027Y44427973D01*
X34016037Y44467864D01*
X34063741Y44503243D01*
X34114686Y44533778D01*
X34168382Y44559174D01*
X34224308Y44579185D01*
X34281924Y44593618D01*
X34340681Y44602332D01*
X34400000Y44605248D01*
X34459319Y44602332D01*
X34518076Y44593618D01*
X34575692Y44579185D01*
X34631618Y44559174D01*
X34685314Y44533778D01*
X34736259Y44503243D01*
X34783963Y44467864D01*
X34827973Y44427973D01*
X34867864Y44383963D01*
X34903243Y44336259D01*
X34933778Y44285314D01*
X34959174Y44231618D01*
X34979185Y44175692D01*
X34993618Y44118076D01*
X35002332Y44059319D01*
X35005248Y44000000D01*
X35002332Y43940681D01*
X34993618Y43881924D01*
X34979185Y43824308D01*
X34959174Y43768382D01*
X34933778Y43714686D01*
X34903243Y43663741D01*
X34867864Y43616037D01*
X34827973Y43572027D01*
X34783963Y43532136D01*
X34736259Y43496757D01*
X34685314Y43466222D01*
X34631618Y43440826D01*
X34575692Y43420815D01*
X34518076Y43406382D01*
X34459319Y43397668D01*
X34400000Y43394752D01*
D02*
G37*
%LPC*%
G36*
X48500000Y35254764D02*
X48377953Y35260762D01*
X48257065Y35278693D01*
X48138526Y35308385D01*
X48023471Y35349552D01*
X47913002Y35401800D01*
X47808185Y35464625D01*
X47710033Y35537421D01*
X47619486Y35619486D01*
X47537421Y35710033D01*
X47464625Y35808185D01*
X47401800Y35913002D01*
X47349552Y36023471D01*
X47308385Y36138526D01*
X47278693Y36257065D01*
X47260762Y36377953D01*
X47254764Y36500000D01*
X47260762Y36622047D01*
X47278693Y36742935D01*
X47308385Y36861474D01*
X47349552Y36976529D01*
X47401800Y37086998D01*
X47464625Y37191815D01*
X47537421Y37289967D01*
X47619486Y37380514D01*
X47710033Y37462579D01*
X47808185Y37535375D01*
X47913002Y37598200D01*
X48023471Y37650448D01*
X48138526Y37691615D01*
X48257065Y37721307D01*
X48377953Y37739238D01*
X48500000Y37745236D01*
X48622047Y37739238D01*
X48742935Y37721307D01*
X48861474Y37691615D01*
X48976529Y37650448D01*
X49086998Y37598200D01*
X49191815Y37535375D01*
X49289967Y37462579D01*
X49380514Y37380514D01*
X49462579Y37289967D01*
X49535375Y37191815D01*
X49598200Y37086998D01*
X49650448Y36976529D01*
X49691615Y36861474D01*
X49721307Y36742935D01*
X49739238Y36622047D01*
X49745236Y36500000D01*
X49739238Y36377953D01*
X49721307Y36257065D01*
X49691615Y36138526D01*
X49650448Y36023471D01*
X49598200Y35913002D01*
X49535375Y35808185D01*
X49462579Y35710033D01*
X49380514Y35619486D01*
X49289967Y35537421D01*
X49191815Y35464625D01*
X49086998Y35401800D01*
X48976529Y35349552D01*
X48861474Y35308385D01*
X48742935Y35278693D01*
X48622047Y35260762D01*
X48500000Y35254764D01*
D02*
G37*
%LPC*%
G36*
X53500000Y35254764D02*
X53377953Y35260762D01*
X53257065Y35278693D01*
X53138526Y35308385D01*
X53023471Y35349552D01*
X52913002Y35401800D01*
X52808185Y35464625D01*
X52710033Y35537421D01*
X52619486Y35619486D01*
X52537421Y35710033D01*
X52464625Y35808185D01*
X52401800Y35913002D01*
X52349552Y36023471D01*
X52308385Y36138526D01*
X52278693Y36257065D01*
X52260762Y36377953D01*
X52254764Y36500000D01*
X52260762Y36622047D01*
X52278693Y36742935D01*
X52308385Y36861474D01*
X52349552Y36976529D01*
X52401800Y37086998D01*
X52464625Y37191815D01*
X52537421Y37289967D01*
X52619486Y37380514D01*
X52710033Y37462579D01*
X52808185Y37535375D01*
X52913002Y37598200D01*
X53023471Y37650448D01*
X53138526Y37691615D01*
X53257065Y37721307D01*
X53377953Y37739238D01*
X53500000Y37745236D01*
X53622047Y37739238D01*
X53742935Y37721307D01*
X53861474Y37691615D01*
X53976529Y37650448D01*
X54086998Y37598200D01*
X54191815Y37535375D01*
X54289967Y37462579D01*
X54380514Y37380514D01*
X54462579Y37289967D01*
X54535375Y37191815D01*
X54598200Y37086998D01*
X54650448Y36976529D01*
X54691615Y36861474D01*
X54721307Y36742935D01*
X54739238Y36622047D01*
X54745236Y36500000D01*
X54739238Y36377953D01*
X54721307Y36257065D01*
X54691615Y36138526D01*
X54650448Y36023471D01*
X54598200Y35913002D01*
X54535375Y35808185D01*
X54462579Y35710033D01*
X54380514Y35619486D01*
X54289967Y35537421D01*
X54191815Y35464625D01*
X54086998Y35401800D01*
X53976529Y35349552D01*
X53861474Y35308385D01*
X53742935Y35278693D01*
X53622047Y35260762D01*
X53500000Y35254764D01*
D02*
G37*
%LPC*%
G36*
X26155000Y15945000D02*
X21646867Y15945000D01*
X21546867Y29555000D01*
X17145000Y29555000D01*
X17145000Y31865000D01*
X21545000Y31865000D01*
X21545000Y35505000D01*
X34395000Y35505000D01*
X34395000Y33195000D01*
X26155000Y33195000D01*
X26155000Y15945000D01*
D02*
G37*
%LPD*%
G36*
X25900000Y16200000D02*
X25900000Y33450000D01*
X34140000Y33450000D01*
X34140000Y35250000D01*
X21800000Y35250000D01*
X21800000Y31610000D01*
X17400000Y31610000D01*
X17400000Y29810000D01*
X21800000Y29810000D01*
X21900000Y16200000D01*
X25900000Y16200000D01*
D02*
G37*
%LPC*%
G36*
X54477083Y5636027D02*
X54389343Y5640339D01*
X54302427Y5653231D01*
X54217212Y5674576D01*
X54134490Y5704176D01*
X54055073Y5741736D01*
X53979720Y5786901D01*
X53909156Y5839235D01*
X53844057Y5898237D01*
X53785055Y5963336D01*
X53732721Y6033900D01*
X53687556Y6109253D01*
X53649996Y6188670D01*
X53620396Y6271392D01*
X53599051Y6356607D01*
X53586159Y6443523D01*
X53581847Y6531263D01*
X53586159Y6619003D01*
X53599051Y6705919D01*
X53620396Y6791134D01*
X53649996Y6873856D01*
X53687556Y6953273D01*
X53732721Y7028626D01*
X53785055Y7099190D01*
X53844057Y7164289D01*
X53909156Y7223291D01*
X53979720Y7275625D01*
X54055073Y7320790D01*
X54134490Y7358350D01*
X54217212Y7387950D01*
X54302427Y7409295D01*
X54389343Y7422187D01*
X54477083Y7426499D01*
X54564823Y7422187D01*
X54651739Y7409295D01*
X54736954Y7387950D01*
X54819676Y7358350D01*
X54899093Y7320790D01*
X54974446Y7275625D01*
X55045010Y7223291D01*
X55110109Y7164289D01*
X55169111Y7099190D01*
X55221445Y7028626D01*
X55266610Y6953273D01*
X55304170Y6873856D01*
X55333770Y6791134D01*
X55355115Y6705919D01*
X55368007Y6619003D01*
X55372319Y6531263D01*
X55368007Y6443523D01*
X55355115Y6356607D01*
X55333770Y6271392D01*
X55304170Y6188670D01*
X55266610Y6109253D01*
X55221445Y6033900D01*
X55169111Y5963336D01*
X55110109Y5898237D01*
X55045010Y5839235D01*
X54974446Y5786901D01*
X54899093Y5741736D01*
X54819676Y5704176D01*
X54736954Y5674576D01*
X54651739Y5653231D01*
X54564823Y5640339D01*
X54477083Y5636027D01*
D02*
G37*
%LPC*%
G36*
X10477083Y5626027D02*
X10389343Y5630339D01*
X10302427Y5643231D01*
X10217212Y5664576D01*
X10134490Y5694176D01*
X10055073Y5731736D01*
X9979720Y5776901D01*
X9909156Y5829235D01*
X9844057Y5888237D01*
X9785055Y5953336D01*
X9732721Y6023900D01*
X9687556Y6099253D01*
X9649996Y6178670D01*
X9620396Y6261392D01*
X9599051Y6346607D01*
X9586159Y6433523D01*
X9581847Y6521263D01*
X9586159Y6609003D01*
X9599051Y6695919D01*
X9620396Y6781134D01*
X9649996Y6863856D01*
X9687556Y6943273D01*
X9732721Y7018626D01*
X9785055Y7089190D01*
X9844057Y7154289D01*
X9909156Y7213291D01*
X9979720Y7265625D01*
X10055073Y7310790D01*
X10134490Y7348350D01*
X10217212Y7377950D01*
X10302427Y7399295D01*
X10389343Y7412187D01*
X10477083Y7416499D01*
X10564823Y7412187D01*
X10651739Y7399295D01*
X10736954Y7377950D01*
X10819676Y7348350D01*
X10899093Y7310790D01*
X10974446Y7265625D01*
X11045010Y7213291D01*
X11110109Y7154289D01*
X11169111Y7089190D01*
X11221445Y7018626D01*
X11266610Y6943273D01*
X11304170Y6863856D01*
X11333770Y6781134D01*
X11355115Y6695919D01*
X11368007Y6609003D01*
X11372319Y6521263D01*
X11368007Y6433523D01*
X11355115Y6346607D01*
X11333770Y6261392D01*
X11304170Y6178670D01*
X11266610Y6099253D01*
X11221445Y6023900D01*
X11169111Y5953336D01*
X11110109Y5888237D01*
X11045010Y5829235D01*
X10974446Y5776901D01*
X10899093Y5731736D01*
X10819676Y5694176D01*
X10736954Y5664576D01*
X10651739Y5643231D01*
X10564823Y5630339D01*
X10477083Y5626027D01*
D02*
G37*
%LPC*%
G36*
X22502917Y2194501D02*
X22415177Y2198813D01*
X22328261Y2211705D01*
X22243046Y2233050D01*
X22160324Y2262650D01*
X22080907Y2300210D01*
X22005554Y2345375D01*
X21934990Y2397709D01*
X21869891Y2456711D01*
X21810889Y2521810D01*
X21758555Y2592374D01*
X21713390Y2667727D01*
X21675830Y2747144D01*
X21646230Y2829866D01*
X21624885Y2915081D01*
X21611993Y3001997D01*
X21607681Y3089737D01*
X21611993Y3177477D01*
X21624885Y3264393D01*
X21646230Y3349608D01*
X21675830Y3432330D01*
X21713390Y3511747D01*
X21758555Y3587100D01*
X21810889Y3657664D01*
X21869891Y3722763D01*
X21934990Y3781765D01*
X22005554Y3834099D01*
X22080907Y3879264D01*
X22160324Y3916824D01*
X22243046Y3946424D01*
X22328261Y3967769D01*
X22415177Y3980661D01*
X22502917Y3984973D01*
X22590657Y3980661D01*
X22677573Y3967769D01*
X22762788Y3946424D01*
X22845510Y3916824D01*
X22924927Y3879264D01*
X23000280Y3834099D01*
X23070844Y3781765D01*
X23135943Y3722763D01*
X23194945Y3657664D01*
X23247279Y3587100D01*
X23292444Y3511747D01*
X23330004Y3432330D01*
X23359604Y3349608D01*
X23380949Y3264393D01*
X23393841Y3177477D01*
X23398153Y3089737D01*
X23393841Y3001997D01*
X23380949Y2915081D01*
X23359604Y2829866D01*
X23330004Y2747144D01*
X23292444Y2667727D01*
X23247279Y2592374D01*
X23194945Y2521810D01*
X23135943Y2456711D01*
X23070844Y2397709D01*
X23000280Y2345375D01*
X22924927Y2300210D01*
X22845510Y2262650D01*
X22762788Y2233050D01*
X22677573Y2211705D01*
X22590657Y2198813D01*
X22502917Y2194501D01*
D02*
G37*
%LPC*%
G36*
X26502917Y2194501D02*
X26415177Y2198813D01*
X26328261Y2211705D01*
X26243046Y2233050D01*
X26160324Y2262650D01*
X26080907Y2300210D01*
X26005554Y2345375D01*
X25934990Y2397709D01*
X25869891Y2456711D01*
X25810889Y2521810D01*
X25758555Y2592374D01*
X25713390Y2667727D01*
X25675830Y2747144D01*
X25646230Y2829866D01*
X25624885Y2915081D01*
X25611993Y3001997D01*
X25607681Y3089737D01*
X25611993Y3177477D01*
X25624885Y3264393D01*
X25646230Y3349608D01*
X25675830Y3432330D01*
X25713390Y3511747D01*
X25758555Y3587100D01*
X25810889Y3657664D01*
X25869891Y3722763D01*
X25934990Y3781765D01*
X26005554Y3834099D01*
X26080907Y3879264D01*
X26160324Y3916824D01*
X26243046Y3946424D01*
X26328261Y3967769D01*
X26415177Y3980661D01*
X26502917Y3984973D01*
X26590657Y3980661D01*
X26677573Y3967769D01*
X26762788Y3946424D01*
X26845510Y3916824D01*
X26924927Y3879264D01*
X27000280Y3834099D01*
X27070844Y3781765D01*
X27135943Y3722763D01*
X27194945Y3657664D01*
X27247279Y3587100D01*
X27292444Y3511747D01*
X27330004Y3432330D01*
X27359604Y3349608D01*
X27380949Y3264393D01*
X27393841Y3177477D01*
X27398153Y3089737D01*
X27393841Y3001997D01*
X27380949Y2915081D01*
X27359604Y2829866D01*
X27330004Y2747144D01*
X27292444Y2667727D01*
X27247279Y2592374D01*
X27194945Y2521810D01*
X27135943Y2456711D01*
X27070844Y2397709D01*
X27000280Y2345375D01*
X26924927Y2300210D01*
X26845510Y2262650D01*
X26762788Y2233050D01*
X26677573Y2211705D01*
X26590657Y2198813D01*
X26502917Y2194501D01*
D02*
G37*
%LPC*%
G36*
X30502917Y2194501D02*
X30415177Y2198813D01*
X30328261Y2211705D01*
X30243046Y2233050D01*
X30160324Y2262650D01*
X30080907Y2300210D01*
X30005554Y2345375D01*
X29934990Y2397709D01*
X29869891Y2456711D01*
X29810889Y2521810D01*
X29758555Y2592374D01*
X29713390Y2667727D01*
X29675830Y2747144D01*
X29646230Y2829866D01*
X29624885Y2915081D01*
X29611993Y3001997D01*
X29607681Y3089737D01*
X29611993Y3177477D01*
X29624885Y3264393D01*
X29646230Y3349608D01*
X29675830Y3432330D01*
X29713390Y3511747D01*
X29758555Y3587100D01*
X29810889Y3657664D01*
X29869891Y3722763D01*
X29934990Y3781765D01*
X30005554Y3834099D01*
X30080907Y3879264D01*
X30160324Y3916824D01*
X30243046Y3946424D01*
X30328261Y3967769D01*
X30415177Y3980661D01*
X30502917Y3984973D01*
X30590657Y3980661D01*
X30677573Y3967769D01*
X30762788Y3946424D01*
X30845510Y3916824D01*
X30924927Y3879264D01*
X31000280Y3834099D01*
X31070844Y3781765D01*
X31135943Y3722763D01*
X31194945Y3657664D01*
X31247279Y3587100D01*
X31292444Y3511747D01*
X31330004Y3432330D01*
X31359604Y3349608D01*
X31380949Y3264393D01*
X31393841Y3177477D01*
X31398153Y3089737D01*
X31393841Y3001997D01*
X31380949Y2915081D01*
X31359604Y2829866D01*
X31330004Y2747144D01*
X31292444Y2667727D01*
X31247279Y2592374D01*
X31194945Y2521810D01*
X31135943Y2456711D01*
X31070844Y2397709D01*
X31000280Y2345375D01*
X30924927Y2300210D01*
X30845510Y2262650D01*
X30762788Y2233050D01*
X30677573Y2211705D01*
X30590657Y2198813D01*
X30502917Y2194501D01*
D02*
G37*
%LPC*%
G36*
X32502917Y2194501D02*
X32415177Y2198813D01*
X32328261Y2211705D01*
X32243046Y2233050D01*
X32160324Y2262650D01*
X32080907Y2300210D01*
X32005554Y2345375D01*
X31934990Y2397709D01*
X31869891Y2456711D01*
X31810889Y2521810D01*
X31758555Y2592374D01*
X31713390Y2667727D01*
X31675830Y2747144D01*
X31646230Y2829866D01*
X31624885Y2915081D01*
X31611993Y3001997D01*
X31607681Y3089737D01*
X31611993Y3177477D01*
X31624885Y3264393D01*
X31646230Y3349608D01*
X31675830Y3432330D01*
X31713390Y3511747D01*
X31758555Y3587100D01*
X31810889Y3657664D01*
X31869891Y3722763D01*
X31934990Y3781765D01*
X32005554Y3834099D01*
X32080907Y3879264D01*
X32160324Y3916824D01*
X32243046Y3946424D01*
X32328261Y3967769D01*
X32415177Y3980661D01*
X32502917Y3984973D01*
X32590657Y3980661D01*
X32677573Y3967769D01*
X32762788Y3946424D01*
X32845510Y3916824D01*
X32924927Y3879264D01*
X33000280Y3834099D01*
X33070844Y3781765D01*
X33135943Y3722763D01*
X33194945Y3657664D01*
X33247279Y3587100D01*
X33292444Y3511747D01*
X33330004Y3432330D01*
X33359604Y3349608D01*
X33380949Y3264393D01*
X33393841Y3177477D01*
X33398153Y3089737D01*
X33393841Y3001997D01*
X33380949Y2915081D01*
X33359604Y2829866D01*
X33330004Y2747144D01*
X33292444Y2667727D01*
X33247279Y2592374D01*
X33194945Y2521810D01*
X33135943Y2456711D01*
X33070844Y2397709D01*
X33000280Y2345375D01*
X32924927Y2300210D01*
X32845510Y2262650D01*
X32762788Y2233050D01*
X32677573Y2211705D01*
X32590657Y2198813D01*
X32502917Y2194501D01*
D02*
G37*
%LPC*%
G36*
X34502917Y2194501D02*
X34415177Y2198813D01*
X34328261Y2211705D01*
X34243046Y2233050D01*
X34160324Y2262650D01*
X34080907Y2300210D01*
X34005554Y2345375D01*
X33934990Y2397709D01*
X33869891Y2456711D01*
X33810889Y2521810D01*
X33758555Y2592374D01*
X33713390Y2667727D01*
X33675830Y2747144D01*
X33646230Y2829866D01*
X33624885Y2915081D01*
X33611993Y3001997D01*
X33607681Y3089737D01*
X33611993Y3177477D01*
X33624885Y3264393D01*
X33646230Y3349608D01*
X33675830Y3432330D01*
X33713390Y3511747D01*
X33758555Y3587100D01*
X33810889Y3657664D01*
X33869891Y3722763D01*
X33934990Y3781765D01*
X34005554Y3834099D01*
X34080907Y3879264D01*
X34160324Y3916824D01*
X34243046Y3946424D01*
X34328261Y3967769D01*
X34415177Y3980661D01*
X34502917Y3984973D01*
X34590657Y3980661D01*
X34677573Y3967769D01*
X34762788Y3946424D01*
X34845510Y3916824D01*
X34924927Y3879264D01*
X35000280Y3834099D01*
X35070844Y3781765D01*
X35135943Y3722763D01*
X35194945Y3657664D01*
X35247279Y3587100D01*
X35292444Y3511747D01*
X35330004Y3432330D01*
X35359604Y3349608D01*
X35380949Y3264393D01*
X35393841Y3177477D01*
X35398153Y3089737D01*
X35393841Y3001997D01*
X35380949Y2915081D01*
X35359604Y2829866D01*
X35330004Y2747144D01*
X35292444Y2667727D01*
X35247279Y2592374D01*
X35194945Y2521810D01*
X35135943Y2456711D01*
X35070844Y2397709D01*
X35000280Y2345375D01*
X34924927Y2300210D01*
X34845510Y2262650D01*
X34762788Y2233050D01*
X34677573Y2211705D01*
X34590657Y2198813D01*
X34502917Y2194501D01*
D02*
G37*
%LPC*%
G36*
X36502917Y2194501D02*
X36415177Y2198813D01*
X36328261Y2211705D01*
X36243046Y2233050D01*
X36160324Y2262650D01*
X36080907Y2300210D01*
X36005554Y2345375D01*
X35934990Y2397709D01*
X35869891Y2456711D01*
X35810889Y2521810D01*
X35758555Y2592374D01*
X35713390Y2667727D01*
X35675830Y2747144D01*
X35646230Y2829866D01*
X35624885Y2915081D01*
X35611993Y3001997D01*
X35607681Y3089737D01*
X35611993Y3177477D01*
X35624885Y3264393D01*
X35646230Y3349608D01*
X35675830Y3432330D01*
X35713390Y3511747D01*
X35758555Y3587100D01*
X35810889Y3657664D01*
X35869891Y3722763D01*
X35934990Y3781765D01*
X36005554Y3834099D01*
X36080907Y3879264D01*
X36160324Y3916824D01*
X36243046Y3946424D01*
X36328261Y3967769D01*
X36415177Y3980661D01*
X36502917Y3984973D01*
X36590657Y3980661D01*
X36677573Y3967769D01*
X36762788Y3946424D01*
X36845510Y3916824D01*
X36924927Y3879264D01*
X37000280Y3834099D01*
X37070844Y3781765D01*
X37135943Y3722763D01*
X37194945Y3657664D01*
X37247279Y3587100D01*
X37292444Y3511747D01*
X37330004Y3432330D01*
X37359604Y3349608D01*
X37380949Y3264393D01*
X37393841Y3177477D01*
X37398153Y3089737D01*
X37393841Y3001997D01*
X37380949Y2915081D01*
X37359604Y2829866D01*
X37330004Y2747144D01*
X37292444Y2667727D01*
X37247279Y2592374D01*
X37194945Y2521810D01*
X37135943Y2456711D01*
X37070844Y2397709D01*
X37000280Y2345375D01*
X36924927Y2300210D01*
X36845510Y2262650D01*
X36762788Y2233050D01*
X36677573Y2211705D01*
X36590657Y2198813D01*
X36502917Y2194501D01*
D02*
G37*
%LPC*%
G36*
X40502917Y2194501D02*
X40415177Y2198813D01*
X40328261Y2211705D01*
X40243046Y2233050D01*
X40160324Y2262650D01*
X40080907Y2300210D01*
X40005554Y2345375D01*
X39934990Y2397709D01*
X39869891Y2456711D01*
X39810889Y2521810D01*
X39758555Y2592374D01*
X39713390Y2667727D01*
X39675830Y2747144D01*
X39646230Y2829866D01*
X39624885Y2915081D01*
X39611993Y3001997D01*
X39607681Y3089737D01*
X39611993Y3177477D01*
X39624885Y3264393D01*
X39646230Y3349608D01*
X39675830Y3432330D01*
X39713390Y3511747D01*
X39758555Y3587100D01*
X39810889Y3657664D01*
X39869891Y3722763D01*
X39934990Y3781765D01*
X40005554Y3834099D01*
X40080907Y3879264D01*
X40160324Y3916824D01*
X40243046Y3946424D01*
X40328261Y3967769D01*
X40415177Y3980661D01*
X40502917Y3984973D01*
X40590657Y3980661D01*
X40677573Y3967769D01*
X40762788Y3946424D01*
X40845510Y3916824D01*
X40924927Y3879264D01*
X41000280Y3834099D01*
X41070844Y3781765D01*
X41135943Y3722763D01*
X41194945Y3657664D01*
X41247279Y3587100D01*
X41292444Y3511747D01*
X41330004Y3432330D01*
X41359604Y3349608D01*
X41380949Y3264393D01*
X41393841Y3177477D01*
X41398153Y3089737D01*
X41393841Y3001997D01*
X41380949Y2915081D01*
X41359604Y2829866D01*
X41330004Y2747144D01*
X41292444Y2667727D01*
X41247279Y2592374D01*
X41194945Y2521810D01*
X41135943Y2456711D01*
X41070844Y2397709D01*
X41000280Y2345375D01*
X40924927Y2300210D01*
X40845510Y2262650D01*
X40762788Y2233050D01*
X40677573Y2211705D01*
X40590657Y2198813D01*
X40502917Y2194501D01*
D02*
G37*
%LPD*%
G01*
%LPD*%
G75*
D10*
X14580000Y49960000D03*
D10*
X9500000Y49960000D03*
D10*
X4420000Y55040000D03*
D10*
X9500000Y55040000D03*
D10*
X14580000Y55040000D03*
D10*
X4420000Y49960000D03*
D11*
X10477083Y6521263D03*
D11*
X8477083Y6521263D03*
D11*
X54477083Y6531263D03*
D11*
X52477083Y6531263D03*
D12*
X48500000Y36500000D03*
D12*
X58500000Y36500000D03*
D12*
X53500000Y36500000D03*
D12*
X26500000Y62500000D03*
D12*
X36500000Y62500000D03*
D12*
X31500000Y62500000D03*
D12*
X48500000Y62500000D03*
D12*
X58500000Y62500000D03*
D12*
X53500000Y62500000D03*
D13*
X24502917Y3089737D03*
D13*
X38502917Y3089737D03*
D13*
X30502917Y3089737D03*
D13*
X28502917Y3089737D03*
D13*
X22502917Y3089737D03*
D13*
X36502917Y3089737D03*
D13*
X26502917Y3089737D03*
D13*
X32502917Y3089737D03*
D13*
X34502917Y3089737D03*
D13*
X40502917Y3089737D03*
D12*
X4500000Y62500000D03*
D12*
X14500000Y62500000D03*
D12*
X9500000Y62500000D03*
D14*
X41710000Y35760000D03*
D15*
X1000000Y26200000D03*
D15*
X62000000Y64600000D03*
D15*
X54375000Y71000000D03*
D15*
X46750000Y1000000D03*
D14*
X7405000Y34470000D03*
D14*
X28706667Y29814999D03*
D16*
X12945000Y45200000D03*
D14*
X54375000Y39000000D03*
D14*
X23875000Y45400000D03*
D17*
X23900000Y17400000D03*
D14*
X31500000Y51800000D03*
D15*
X1000000Y51800000D03*
D14*
X46750000Y39000000D03*
D14*
X46750000Y26200000D03*
D15*
X1000000Y32600000D03*
D14*
X8625000Y19800000D03*
D17*
X7105000Y36070000D03*
D14*
X38400000Y31700000D03*
D15*
X62000000Y13400000D03*
D14*
X54375000Y26200000D03*
D15*
X46750000Y71000000D03*
D15*
X62000000Y51800000D03*
D15*
X62000000Y1000000D03*
D15*
X8625000Y71000000D03*
D14*
X28900000Y16540000D03*
D14*
X8625000Y64600000D03*
D14*
X31500000Y19800000D03*
D14*
X54375000Y19800000D03*
D14*
X54375000Y51800000D03*
D15*
X1000000Y19800000D03*
D15*
X62000000Y7000000D03*
D15*
X16250000Y1000000D03*
D14*
X54375000Y58200000D03*
D17*
X18295000Y30730000D03*
D14*
X46750000Y19800000D03*
D14*
X46750000Y64600000D03*
D15*
X62000000Y32600000D03*
D15*
X31500000Y1000000D03*
D15*
X62000000Y45400000D03*
D14*
X8625000Y13400000D03*
D14*
X16250000Y58200000D03*
D15*
X1000000Y71000000D03*
D14*
X54375000Y64600000D03*
D15*
X39125000Y71000000D03*
D15*
X62000000Y19800000D03*
D14*
X16250000Y13400000D03*
D15*
X31500000Y71000000D03*
D15*
X62000000Y26200000D03*
D14*
X31340000Y14800000D03*
D14*
X54375000Y45400000D03*
D14*
X8625000Y45400000D03*
D14*
X46750000Y7000000D03*
D14*
X34896667Y34664997D03*
D15*
X62000000Y39000000D03*
D14*
X16250000Y7000000D03*
D14*
X31500000Y58200000D03*
D14*
X39125000Y7000000D03*
D14*
X37256667Y45254997D03*
D15*
X62000000Y58200000D03*
D15*
X1000000Y1000000D03*
D15*
X8625000Y1000000D03*
D15*
X1000000Y7000000D03*
D15*
X1000000Y45400000D03*
D14*
X7825000Y25580000D03*
D14*
X28900000Y13060000D03*
D14*
X46750000Y51800000D03*
D14*
X3965000Y29780000D03*
D15*
X1000000Y58200000D03*
D16*
X21100000Y49900000D03*
D15*
X23875000Y71000000D03*
D14*
X16250000Y26200000D03*
D14*
X39125000Y58200000D03*
D17*
X38856667Y45554997D03*
D14*
X31500000Y26200000D03*
D14*
X39400000Y13060000D03*
D15*
X54375000Y1000000D03*
D14*
X31500000Y45400000D03*
D15*
X23875000Y1000000D03*
D14*
X39400000Y16540000D03*
D15*
X1000000Y39000000D03*
D14*
X15080000Y19740000D03*
D16*
X34400000Y44000000D03*
D15*
X1000000Y13400000D03*
D14*
X24200000Y50900000D03*
D14*
X16250000Y45400000D03*
D14*
X39125000Y64600000D03*
D15*
X16250000Y71000000D03*
D16*
X14845000Y46300000D03*
D14*
X54375000Y32600000D03*
D16*
X25100000Y48000000D03*
D14*
X39125000Y51800000D03*
D14*
X46750000Y13400000D03*
D14*
X39125000Y26200000D03*
D17*
X33296667Y34364997D03*
D14*
X46750000Y58200000D03*
D14*
X39125000Y19800000D03*
D14*
X17995000Y32330000D03*
D14*
X46750000Y32600000D03*
D14*
X41840000Y14800000D03*
D15*
X39125000Y1000000D03*
D14*
X23875000Y7000000D03*
D14*
X46750000Y45400000D03*
D15*
X62000000Y71000000D03*
D14*
X10045000Y40230000D03*
D14*
X10045000Y38350000D03*
D14*
X31500000Y64600000D03*
D14*
X54375000Y13400000D03*
D14*
X8625000Y58200000D03*
D17*
X34400000Y17400000D03*
D14*
X23875000Y58200000D03*
D15*
X1000000Y64600000D03*
M02*
