M48
FMAT,2
METRIC,TZ
T4C0.350
T5C0.500
T2C1.000
T3C1.400
T1C1.500
%
G90
G05
M71
T4
X23.875Y51.800
X39.400Y16.450
X1.000Y26.200
X62.000Y64.600
X22.840Y43.605
X54.375Y71.000
X46.750Y1.000
X16.250Y26.200
X8.625Y26.200
X39.400Y13.160
X54.375Y39.000
X12.850Y49.180
X41.840Y14.800
X1.000Y51.800
X15.000Y48.920
X46.750Y39.000
X46.750Y26.200
X1.000Y32.600
X43.850Y40.530
X62.000Y13.400
X54.375Y26.200
X48.385Y33.430
X46.750Y71.000
X62.000Y51.800
X23.875Y58.200
X39.500Y45.050
X62.000Y1.000
X8.625Y71.000
X16.250Y58.200
X8.625Y64.600
X46.750Y51.800
X31.500Y51.800
X54.375Y19.800
X8.625Y19.800
X54.375Y51.800
X1.000Y19.800
X62.000Y7.000
X16.250Y1.000
X54.375Y58.200
X15.530Y38.005
X46.750Y19.800
X46.750Y64.600
X62.000Y32.600
X31.500Y1.000
X62.000Y45.400
X34.605Y36.370
X8.625Y13.400
X1.000Y71.000
X54.375Y64.600
X5.455Y40.310
X39.125Y71.000
X19.270Y40.045
X8.625Y58.200
X62.000Y19.800
X16.250Y13.400
X31.500Y45.400
X31.500Y71.000
X62.000Y26.200
X54.375Y45.400
X46.750Y7.000
X23.875Y39.900
X8.625Y32.600
X62.000Y39.000
X16.250Y7.000
X39.125Y7.000
X62.000Y58.200
X1.000Y1.000
X8.625Y1.000
X1.000Y7.000
X1.000Y45.400
X1.000Y58.200
X5.850Y42.185
X30.800Y32.600
X23.875Y71.000
X16.250Y32.600
X31.500Y19.800
X31.500Y39.900
X16.250Y19.800
X21.760Y54.630
X54.375Y1.000
X23.875Y1.000
X31.340Y14.800
X1.000Y39.000
X40.205Y29.060
X1.000Y13.400
X28.900Y16.450
X39.125Y64.600
X16.250Y71.000
X54.375Y32.600
X28.900Y13.160
X46.750Y13.400
X46.750Y58.200
X39.125Y19.800
X39.125Y1.000
X23.875Y7.000
X46.750Y45.400
X30.800Y26.200
X62.000Y71.000
X38.525Y29.230
X31.500Y58.200
X31.500Y64.600
X54.375Y13.400
X1.000Y64.600
T5
X41.820Y47.760
X43.280Y37.970
X20.160Y55.110
T2
X54.727Y7.691
X52.227Y7.691
X20.249Y3.240
X37.749Y3.240
X35.249Y3.240
X32.749Y3.240
X27.749Y3.240
X42.749Y3.240
X22.749Y3.240
X25.249Y3.240
X40.249Y3.240
X30.249Y3.240
X10.727Y7.691
X8.227Y7.691
X34.005Y37.970
X13.930Y37.305
X34.400Y17.500
X41.805Y28.460
X23.900Y17.500
X23.440Y45.205
T3
X48.500Y36.500
X58.500Y36.500
X53.500Y36.500
X26.500Y62.500
X36.500Y62.500
X31.500Y62.500
X48.500Y62.500
X58.500Y62.500
X53.500Y62.500
X4.500Y62.500
X14.500Y62.500
X9.500Y62.500
T1
X36.580Y49.960
X31.500Y49.960
X26.420Y55.040
X31.500Y55.040
X36.580Y55.040
X26.420Y49.960
M30
