%FSLAX46Y46*%
%MOMM*%
%AMPS12*
1,1,2.300000,0.000000,0.000000*
%
%ADD12PS12*%
%AMPS10*
1,1,2.400000,0.000000,0.000000*
%
%ADD10PS10*%
%AMPS11*
1,1,1.600000,0.000000,0.000000*
%
%ADD11PS11*%
%AMPS13*
1,1,1.600000,0.000000,0.000000*
%
%ADD13PS13*%
%AMPS15*
1,1,0.600000,0.000000,0.000000*
%
%ADD15PS15*%
%AMPS14*
1,1,0.550000,0.000000,0.000000*
%
%ADD14PS14*%
%AMPS16*
1,1,0.800000,0.000000,0.000000*
%
%ADD16PS16*%
G01*
%LPD*%
G01*
%LPD*%
G75*
D10*
X14580000Y49960000D03*
D10*
X9500000Y49960000D03*
D10*
X4420000Y55040000D03*
D10*
X9500000Y55040000D03*
D10*
X14580000Y55040000D03*
D10*
X4420000Y49960000D03*
D11*
X10477083Y6521263D03*
D11*
X8477083Y6521263D03*
D11*
X54477083Y6531263D03*
D11*
X52477083Y6531263D03*
D12*
X48500000Y36500000D03*
D12*
X58500000Y36500000D03*
D12*
X53500000Y36500000D03*
D12*
X26500000Y62500000D03*
D12*
X36500000Y62500000D03*
D12*
X31500000Y62500000D03*
D12*
X48500000Y62500000D03*
D12*
X58500000Y62500000D03*
D12*
X53500000Y62500000D03*
D13*
X24502917Y3089737D03*
D13*
X38502917Y3089737D03*
D13*
X30502917Y3089737D03*
D13*
X28502917Y3089737D03*
D13*
X22502917Y3089737D03*
D13*
X36502917Y3089737D03*
D13*
X26502917Y3089737D03*
D13*
X32502917Y3089737D03*
D13*
X34502917Y3089737D03*
D13*
X40502917Y3089737D03*
D12*
X4500000Y62500000D03*
D12*
X14500000Y62500000D03*
D12*
X9500000Y62500000D03*
D14*
X1000000Y26200000D03*
D14*
X62000000Y64600000D03*
D14*
X54375000Y71000000D03*
D14*
X46750000Y1000000D03*
D15*
X12945000Y45200000D03*
D16*
X23900000Y17400000D03*
D14*
X1000000Y51800000D03*
D14*
X1000000Y32600000D03*
D16*
X7105000Y36070000D03*
D14*
X62000000Y13400000D03*
D14*
X46750000Y71000000D03*
D14*
X62000000Y51800000D03*
D14*
X62000000Y1000000D03*
D14*
X8625000Y71000000D03*
D14*
X1000000Y19800000D03*
D14*
X62000000Y7000000D03*
D14*
X16250000Y1000000D03*
D16*
X18295000Y30730000D03*
D14*
X62000000Y32600000D03*
D14*
X31500000Y1000000D03*
D14*
X62000000Y45400000D03*
D14*
X1000000Y71000000D03*
D14*
X39125000Y71000000D03*
D14*
X62000000Y19800000D03*
D14*
X31500000Y71000000D03*
D14*
X62000000Y26200000D03*
D14*
X62000000Y39000000D03*
D14*
X62000000Y58200000D03*
D14*
X1000000Y1000000D03*
D14*
X8625000Y1000000D03*
D14*
X1000000Y7000000D03*
D14*
X1000000Y45400000D03*
D14*
X1000000Y58200000D03*
D15*
X21100000Y49900000D03*
D14*
X23875000Y71000000D03*
D16*
X38856667Y45554997D03*
D14*
X54375000Y1000000D03*
D14*
X23875000Y1000000D03*
D14*
X1000000Y39000000D03*
D15*
X34400000Y44000000D03*
D14*
X1000000Y13400000D03*
D14*
X16250000Y71000000D03*
D15*
X14845000Y46300000D03*
D15*
X25100000Y48000000D03*
D16*
X33296667Y34364997D03*
D14*
X39125000Y1000000D03*
D14*
X62000000Y71000000D03*
D16*
X34400000Y17400000D03*
D14*
X1000000Y64600000D03*
M02*
