%FSLAX46Y46*%
%MOMM*%
%ADD11C,0.050000*%
%ADD13C,0.100000*%
%ADD10C,0.150000*%
%ADD12C,0.300000*%
G01*
%LPD*%
G01*
%LPD*%
D10*
X19604762Y49600952D02*
X19652380Y49505716D01*
D10*
X19509524Y49696192D02*
X19604762Y49600952D01*
D10*
X19414286Y49743808D02*
X19509524Y49696192D01*
D10*
X19223810Y49743808D02*
X19414286Y49743808D01*
D10*
X19128572Y49696192D02*
X19223810Y49743808D01*
D10*
X19033334Y49600952D02*
X19128572Y49696192D01*
D10*
X18985714Y49505716D02*
X19033334Y49600952D01*
D10*
X18938096Y49362856D02*
X18985714Y49505716D01*
D10*
X18938096Y49124760D02*
X18938096Y49362856D01*
D10*
X18985714Y48981904D02*
X18938096Y49124760D01*
D10*
X19033334Y48886668D02*
X18985714Y48981904D01*
D10*
X19128572Y48791428D02*
X19033334Y48886668D01*
D10*
X19223810Y48743808D02*
X19128572Y48791428D01*
D10*
X19414286Y48743808D02*
X19223810Y48743808D01*
D10*
X19509524Y48791428D02*
X19414286Y48743808D01*
D10*
X19604762Y48886668D02*
X19509524Y48791428D01*
D10*
X19652380Y48981904D02*
X19604762Y48886668D01*
D10*
X20176190Y49600952D02*
X20080952Y49553332D01*
D10*
X20319048Y49743808D02*
X20176190Y49600952D01*
D10*
X20319048Y48743808D02*
X20319048Y49743808D01*
D10*
X21033334Y49696192D02*
X21176190Y49743808D01*
D10*
X20938096Y49553332D02*
X21033334Y49696192D01*
D10*
X20890476Y49315240D02*
X20938096Y49553332D01*
D10*
X20890476Y49172380D02*
X20890476Y49315240D01*
D10*
X20938096Y48934284D02*
X20890476Y49172380D01*
D10*
X21033334Y48791428D02*
X20938096Y48934284D01*
D10*
X21176190Y48743808D02*
X21033334Y48791428D01*
D10*
X21271428Y48743808D02*
X21176190Y48743808D01*
D10*
X21414286Y48791428D02*
X21271428Y48743808D01*
D10*
X21509524Y48934284D02*
X21414286Y48791428D01*
D10*
X21557142Y49172380D02*
X21509524Y48934284D01*
D10*
X21557142Y49315240D02*
X21557142Y49172380D01*
D10*
X21509524Y49553332D02*
X21557142Y49315240D01*
D10*
X21414286Y49696192D02*
X21509524Y49553332D01*
D10*
X21271428Y49743808D02*
X21414286Y49696192D01*
D10*
X21176190Y49743808D02*
X21271428Y49743808D01*
D10*
X10729048Y36942144D02*
X10824286Y36989760D01*
D10*
X10633810Y36846904D02*
X10729048Y36942144D01*
D10*
X10586190Y36751668D02*
X10633810Y36846904D01*
D10*
X10586190Y36561192D02*
X10586190Y36751668D01*
D10*
X10633810Y36465952D02*
X10586190Y36561192D01*
D10*
X10729048Y36370716D02*
X10633810Y36465952D01*
D10*
X10824286Y36323096D02*
X10729048Y36370716D01*
D10*
X10967143Y36275476D02*
X10824286Y36323096D01*
D10*
X11205238Y36275476D02*
X10967143Y36275476D01*
D10*
X11348095Y36323096D02*
X11205238Y36275476D01*
D10*
X11443333Y36370716D02*
X11348095Y36323096D01*
D10*
X11538571Y36465952D02*
X11443333Y36370716D01*
D10*
X11586190Y36561192D02*
X11538571Y36465952D01*
D10*
X11586190Y36751668D02*
X11586190Y36561192D01*
D10*
X11538571Y36846904D02*
X11586190Y36751668D01*
D10*
X11443333Y36942144D02*
X11538571Y36846904D01*
D10*
X11348095Y36989760D02*
X11443333Y36942144D01*
D10*
X11586190Y37465952D02*
X10586190Y37942144D01*
D10*
X10586190Y37942144D02*
X10586190Y37275476D01*
D10*
X7231190Y36100476D02*
X6231190Y36100476D01*
D10*
X6231190Y36529048D02*
X6231190Y36100476D01*
D10*
X6278809Y36671904D02*
X6231190Y36529048D01*
D10*
X6326428Y36719524D02*
X6278809Y36671904D01*
D10*
X6421666Y36767144D02*
X6326428Y36719524D01*
D10*
X6516905Y36767144D02*
X6421666Y36767144D01*
D10*
X6612143Y36719524D02*
X6516905Y36767144D01*
D10*
X6659762Y36671904D02*
X6612143Y36719524D01*
D10*
X6707381Y36529048D02*
X6659762Y36671904D01*
D10*
X6707381Y36100476D02*
X6707381Y36529048D01*
D10*
X7231190Y36767144D02*
X6707381Y36433808D01*
D10*
X6231190Y37671904D02*
X6231190Y37148096D01*
D10*
X6612143Y37386192D02*
X6231190Y37671904D01*
D10*
X6612143Y37529048D02*
X6612143Y37386192D01*
D10*
X6659762Y37624284D02*
X6612143Y37529048D01*
D10*
X6707381Y37671904D02*
X6659762Y37624284D01*
D10*
X6850238Y37719524D02*
X6707381Y37671904D01*
D10*
X6945476Y37719524D02*
X6850238Y37719524D01*
D10*
X7088333Y37671904D02*
X6945476Y37719524D01*
D10*
X7183571Y37576668D02*
X7088333Y37671904D01*
D10*
X7231190Y37433808D02*
X7183571Y37576668D01*
D10*
X7231190Y37290952D02*
X7231190Y37433808D01*
D10*
X7183571Y37148096D02*
X7231190Y37290952D01*
D10*
X7135952Y37100476D02*
X7183571Y37148096D01*
D10*
X7040714Y37052856D02*
X7135952Y37100476D01*
D10*
X38724760Y50020952D02*
X38772380Y49925716D01*
D10*
X38629524Y50116192D02*
X38724760Y50020952D01*
D10*
X38534284Y50163808D02*
X38629524Y50116192D01*
D10*
X38343808Y50163808D02*
X38534284Y50163808D01*
D10*
X38248572Y50116192D02*
X38343808Y50163808D01*
D10*
X38153332Y50020952D02*
X38248572Y50116192D01*
D10*
X38105716Y49925716D02*
X38153332Y50020952D01*
D10*
X38058096Y49782856D02*
X38105716Y49925716D01*
D10*
X38058096Y49544760D02*
X38058096Y49782856D01*
D10*
X38105716Y49401904D02*
X38058096Y49544760D01*
D10*
X38153332Y49306668D02*
X38105716Y49401904D01*
D10*
X38248572Y49211428D02*
X38153332Y49306668D01*
D10*
X38343808Y49163808D02*
X38248572Y49211428D01*
D10*
X38534284Y49163808D02*
X38343808Y49163808D01*
D10*
X38629524Y49211428D02*
X38534284Y49163808D01*
D10*
X38724760Y49306668D02*
X38629524Y49211428D01*
D10*
X38772380Y49401904D02*
X38724760Y49306668D01*
D10*
X39296192Y50020952D02*
X39200952Y49973332D01*
D10*
X39439048Y50163808D02*
X39296192Y50020952D01*
D10*
X39439048Y49163808D02*
X39439048Y50163808D01*
D10*
X40629524Y50163808D02*
X40105716Y50163808D01*
D10*
X40343808Y49782856D02*
X40629524Y50163808D01*
D10*
X40486668Y49782856D02*
X40343808Y49782856D01*
D10*
X40581904Y49735240D02*
X40486668Y49782856D01*
D10*
X40629524Y49687620D02*
X40581904Y49735240D01*
D10*
X40677144Y49544760D02*
X40629524Y49687620D01*
D10*
X40677144Y49449524D02*
X40677144Y49544760D01*
D10*
X40629524Y49306668D02*
X40677144Y49449524D01*
D10*
X40534284Y49211428D02*
X40629524Y49306668D01*
D10*
X40391428Y49163808D02*
X40534284Y49211428D01*
D10*
X40248572Y49163808D02*
X40391428Y49163808D01*
D10*
X40105716Y49211428D02*
X40248572Y49163808D01*
D10*
X40058096Y49259048D02*
X40105716Y49211428D01*
D10*
X40010476Y49354284D02*
X40058096Y49259048D01*
D10*
X57380952Y8823810D02*
X57095240Y9490476D01*
D10*
X57380952Y8823810D02*
X57666668Y9490476D01*
D10*
X58142856Y9680952D02*
X58047620Y9633333D01*
D10*
X58285716Y9823810D02*
X58142856Y9680952D01*
D10*
X58285716Y8823810D02*
X58285716Y9823810D01*
D10*
X58904760Y8871429D02*
X58952380Y8919048D01*
D10*
X58952380Y8823810D02*
X58904760Y8871429D01*
D10*
X59000000Y8871429D02*
X58952380Y8823810D01*
D10*
X58952380Y8919048D02*
X59000000Y8871429D01*
D10*
X59476192Y9776190D02*
X59619048Y9823810D01*
D10*
X59380952Y9633333D02*
X59476192Y9776190D01*
D10*
X59333332Y9395238D02*
X59380952Y9633333D01*
D10*
X59333332Y9252381D02*
X59333332Y9395238D01*
D10*
X59380952Y9014286D02*
X59333332Y9252381D01*
D10*
X59476192Y8871429D02*
X59380952Y9014286D01*
D10*
X59619048Y8823810D02*
X59476192Y8871429D01*
D10*
X59714284Y8823810D02*
X59619048Y8823810D01*
D10*
X59857144Y8871429D02*
X59714284Y8823810D01*
D10*
X59952380Y9014286D02*
X59857144Y8871429D01*
D10*
X60000000Y9252381D02*
X59952380Y9014286D01*
D10*
X60000000Y9395238D02*
X60000000Y9252381D01*
D10*
X59952380Y9633333D02*
X60000000Y9395238D01*
D10*
X59857144Y9776190D02*
X59952380Y9633333D01*
D10*
X59714284Y9823810D02*
X59857144Y9776190D01*
D10*
X59619048Y9823810D02*
X59714284Y9823810D01*
D10*
X15316190Y2780476D02*
X14316190Y2780476D01*
D10*
X14316190Y3399523D02*
X14316190Y2780476D01*
D10*
X14792381Y3161428D02*
X14792381Y2780476D01*
D10*
X14363810Y4161428D02*
X14459048Y4256666D01*
D10*
X14316190Y4018571D02*
X14363810Y4161428D01*
D10*
X14316190Y3828095D02*
X14316190Y4018571D01*
D10*
X14363810Y3685238D02*
X14316190Y3828095D01*
D10*
X14459048Y3590000D02*
X14363810Y3685238D01*
D10*
X14554286Y3590000D02*
X14459048Y3590000D01*
D10*
X14649524Y3637619D02*
X14554286Y3590000D01*
D10*
X14697143Y3685238D02*
X14649524Y3637619D01*
D10*
X14744762Y3780476D02*
X14697143Y3685238D01*
D10*
X14840000Y4066190D02*
X14744762Y3780476D01*
D10*
X14887619Y4161428D02*
X14840000Y4066190D01*
D10*
X14935238Y4209047D02*
X14887619Y4161428D01*
D10*
X15030476Y4256666D02*
X14935238Y4209047D01*
D10*
X15173333Y4256666D02*
X15030476Y4256666D01*
D10*
X15268571Y4161428D02*
X15173333Y4256666D01*
D10*
X15316190Y4018571D02*
X15268571Y4161428D01*
D10*
X15316190Y3828095D02*
X15316190Y4018571D01*
D10*
X15268571Y3685238D02*
X15316190Y3828095D01*
D10*
X15173333Y3590000D02*
X15268571Y3685238D01*
D10*
X15316190Y4732857D02*
X14316190Y4494762D01*
D10*
X15316190Y4732857D02*
X14316190Y4970952D01*
D10*
X15316190Y5209047D02*
X14316190Y4970952D01*
D10*
X15316190Y5209047D02*
X14316190Y5447143D01*
D10*
X28238096Y8723810D02*
X28238096Y9723810D01*
D10*
X28666666Y9723810D02*
X28238096Y9723810D01*
D10*
X28809524Y9676190D02*
X28666666Y9723810D01*
D10*
X28857142Y9628571D02*
X28809524Y9676190D01*
D10*
X28904762Y9533333D02*
X28857142Y9628571D01*
D10*
X28904762Y9438095D02*
X28904762Y9533333D01*
D10*
X28857142Y9342857D02*
X28904762Y9438095D01*
D10*
X28809524Y9295238D02*
X28857142Y9342857D01*
D10*
X28666666Y9247619D02*
X28809524Y9295238D01*
D10*
X28238096Y9247619D02*
X28666666Y9247619D01*
D10*
X28904762Y8723810D02*
X28571428Y9247619D01*
D10*
X29238096Y9533333D02*
X29238096Y9485714D01*
D10*
X29285714Y9628571D02*
X29238096Y9533333D01*
D10*
X29333334Y9676190D02*
X29285714Y9628571D01*
D10*
X29428572Y9723810D02*
X29333334Y9676190D01*
D10*
X29619048Y9723810D02*
X29428572Y9723810D01*
D10*
X29714286Y9676190D02*
X29619048Y9723810D01*
D10*
X29761904Y9628571D02*
X29714286Y9676190D01*
D10*
X29809524Y9533333D02*
X29761904Y9628571D01*
D10*
X29809524Y9438095D02*
X29809524Y9533333D01*
D10*
X29761904Y9342857D02*
X29809524Y9438095D01*
D10*
X29666666Y9200000D02*
X29761904Y9342857D01*
D10*
X29190476Y8723810D02*
X29666666Y9200000D01*
D10*
X29857142Y8723810D02*
X29190476Y8723810D01*
D10*
X40669048Y16782142D02*
X40764284Y16829762D01*
D10*
X40573808Y16686905D02*
X40669048Y16782142D01*
D10*
X40526192Y16591667D02*
X40573808Y16686905D01*
D10*
X40526192Y16401190D02*
X40526192Y16591667D01*
D10*
X40573808Y16305952D02*
X40526192Y16401190D01*
D10*
X40669048Y16210714D02*
X40573808Y16305952D01*
D10*
X40764284Y16163095D02*
X40669048Y16210714D01*
D10*
X40907144Y16115476D02*
X40764284Y16163095D01*
D10*
X41145240Y16115476D02*
X40907144Y16115476D01*
D10*
X41288096Y16163095D02*
X41145240Y16115476D01*
D10*
X41383332Y16210714D02*
X41288096Y16163095D01*
D10*
X41478572Y16305952D02*
X41383332Y16210714D01*
D10*
X41526192Y16401190D02*
X41478572Y16305952D01*
D10*
X41526192Y16591667D02*
X41526192Y16401190D01*
D10*
X41478572Y16686905D02*
X41526192Y16591667D01*
D10*
X41383332Y16782142D02*
X41478572Y16686905D01*
D10*
X41288096Y16829762D02*
X41383332Y16782142D01*
D10*
X40669048Y17353572D02*
X40716668Y17258334D01*
D10*
X40526192Y17496428D02*
X40669048Y17353572D01*
D10*
X41526192Y17496428D02*
X40526192Y17496428D01*
D10*
X16709524Y57335952D02*
X16757143Y57240716D01*
D10*
X16614286Y57431192D02*
X16709524Y57335952D01*
D10*
X16519048Y57478808D02*
X16614286Y57431192D01*
D10*
X16328571Y57478808D02*
X16519048Y57478808D01*
D10*
X16233333Y57431192D02*
X16328571Y57478808D01*
D10*
X16138095Y57335952D02*
X16233333Y57431192D01*
D10*
X16090476Y57240716D02*
X16138095Y57335952D01*
D10*
X16042857Y57097856D02*
X16090476Y57240716D01*
D10*
X16042857Y56859760D02*
X16042857Y57097856D01*
D10*
X16090476Y56716904D02*
X16042857Y56859760D01*
D10*
X16138095Y56621668D02*
X16090476Y56716904D01*
D10*
X16233333Y56526428D02*
X16138095Y56621668D01*
D10*
X16328571Y56478808D02*
X16233333Y56526428D01*
D10*
X16519048Y56478808D02*
X16328571Y56478808D01*
D10*
X16614286Y56526428D02*
X16519048Y56478808D01*
D10*
X16709524Y56621668D02*
X16614286Y56526428D01*
D10*
X16757143Y56716904D02*
X16709524Y56621668D01*
D10*
X17280952Y57335952D02*
X17185714Y57288332D01*
D10*
X17423810Y57478808D02*
X17280952Y57335952D01*
D10*
X17423810Y56478808D02*
X17423810Y57478808D01*
D10*
X18233334Y57335952D02*
X18138096Y57288332D01*
D10*
X18376190Y57478808D02*
X18233334Y57335952D01*
D10*
X18376190Y56478808D02*
X18376190Y57478808D01*
D10*
X36104760Y40630952D02*
X36152380Y40535716D01*
D10*
X36009524Y40726192D02*
X36104760Y40630952D01*
D10*
X35914284Y40773808D02*
X36009524Y40726192D01*
D10*
X35723808Y40773808D02*
X35914284Y40773808D01*
D10*
X35628572Y40726192D02*
X35723808Y40773808D01*
D10*
X35533332Y40630952D02*
X35628572Y40726192D01*
D10*
X35485716Y40535716D02*
X35533332Y40630952D01*
D10*
X35438096Y40392856D02*
X35485716Y40535716D01*
D10*
X35438096Y40154760D02*
X35438096Y40392856D01*
D10*
X35485716Y40011904D02*
X35438096Y40154760D01*
D10*
X35533332Y39916668D02*
X35485716Y40011904D01*
D10*
X35628572Y39821428D02*
X35533332Y39916668D01*
D10*
X35723808Y39773808D02*
X35628572Y39821428D01*
D10*
X35914284Y39773808D02*
X35723808Y39773808D01*
D10*
X36009524Y39821428D02*
X35914284Y39773808D01*
D10*
X36104760Y39916668D02*
X36009524Y39821428D01*
D10*
X36152380Y40011904D02*
X36104760Y39916668D01*
D10*
X36676192Y40630952D02*
X36580952Y40583332D01*
D10*
X36819048Y40773808D02*
X36676192Y40630952D01*
D10*
X36819048Y39773808D02*
X36819048Y40773808D01*
D10*
X37485716Y40773808D02*
X37961904Y40773808D01*
D10*
X37438096Y40345240D02*
X37485716Y40773808D01*
D10*
X37485716Y40392856D02*
X37438096Y40345240D01*
D10*
X37628572Y40440476D02*
X37485716Y40392856D01*
D10*
X37771428Y40440476D02*
X37628572Y40440476D01*
D10*
X37914284Y40392856D02*
X37771428Y40440476D01*
D10*
X38009524Y40297620D02*
X37914284Y40392856D01*
D10*
X38057144Y40154760D02*
X38009524Y40297620D01*
D10*
X38057144Y40059524D02*
X38057144Y40154760D01*
D10*
X38009524Y39916668D02*
X38057144Y40059524D01*
D10*
X37914284Y39821428D02*
X38009524Y39916668D01*
D10*
X37771428Y39773808D02*
X37914284Y39821428D01*
D10*
X37628572Y39773808D02*
X37771428Y39773808D01*
D10*
X37485716Y39821428D02*
X37628572Y39773808D01*
D10*
X37438096Y39869048D02*
X37485716Y39821428D01*
D10*
X37390476Y39964284D02*
X37438096Y39869048D01*
D10*
X14144048Y53062144D02*
X14239286Y53109760D01*
D10*
X14048810Y52966904D02*
X14144048Y53062144D01*
D10*
X14001190Y52871668D02*
X14048810Y52966904D01*
D10*
X14001190Y52681192D02*
X14001190Y52871668D01*
D10*
X14048810Y52585952D02*
X14001190Y52681192D01*
D10*
X14144048Y52490716D02*
X14048810Y52585952D01*
D10*
X14239286Y52443096D02*
X14144048Y52490716D01*
D10*
X14382143Y52395476D02*
X14239286Y52443096D01*
D10*
X14620238Y52395476D02*
X14382143Y52395476D01*
D10*
X14763095Y52443096D02*
X14620238Y52395476D01*
D10*
X14858333Y52490716D02*
X14763095Y52443096D01*
D10*
X14953571Y52585952D02*
X14858333Y52490716D01*
D10*
X15001190Y52681192D02*
X14953571Y52585952D01*
D10*
X15001190Y52871668D02*
X15001190Y52681192D01*
D10*
X14953571Y52966904D02*
X15001190Y52871668D01*
D10*
X14858333Y53062144D02*
X14953571Y52966904D01*
D10*
X14763095Y53109760D02*
X14858333Y53062144D01*
D10*
X14048810Y53490716D02*
X14001190Y53633572D01*
D10*
X14144048Y53443096D02*
X14048810Y53490716D01*
D10*
X14239286Y53443096D02*
X14144048Y53443096D01*
D10*
X14334524Y53490716D02*
X14239286Y53443096D01*
D10*
X14382143Y53585952D02*
X14334524Y53490716D01*
D10*
X14429762Y53776428D02*
X14382143Y53585952D01*
D10*
X14477381Y53919284D02*
X14429762Y53776428D01*
D10*
X14572619Y54014524D02*
X14477381Y53919284D01*
D10*
X14667857Y54062144D02*
X14572619Y54014524D01*
D10*
X14810714Y54062144D02*
X14667857Y54062144D01*
D10*
X14905952Y54014524D02*
X14810714Y54062144D01*
D10*
X14953571Y53966904D02*
X14905952Y54014524D01*
D10*
X15001190Y53824048D02*
X14953571Y53966904D01*
D10*
X15001190Y53633572D02*
X15001190Y53824048D01*
D10*
X14953571Y53490716D02*
X15001190Y53633572D01*
D10*
X14905952Y53443096D02*
X14953571Y53490716D01*
D10*
X14810714Y53395476D02*
X14905952Y53443096D01*
D10*
X14667857Y53395476D02*
X14810714Y53395476D01*
D10*
X14572619Y53443096D02*
X14667857Y53395476D01*
D10*
X14477381Y53538332D02*
X14572619Y53443096D01*
D10*
X14429762Y53681192D02*
X14477381Y53538332D01*
D10*
X14382143Y53871668D02*
X14429762Y53681192D01*
D10*
X14334524Y53966904D02*
X14382143Y53871668D01*
D10*
X14239286Y54014524D02*
X14334524Y53966904D01*
D10*
X14144048Y54014524D02*
X14239286Y54014524D01*
D10*
X14048810Y53966904D02*
X14144048Y54014524D01*
D10*
X14001190Y53824048D02*
X14048810Y53966904D01*
D10*
X14001190Y53633572D02*
X14001190Y53824048D01*
D10*
X38738096Y8723810D02*
X38738096Y9723810D01*
D10*
X39166668Y9723810D02*
X38738096Y9723810D01*
D10*
X39309524Y9676190D02*
X39166668Y9723810D01*
D10*
X39357144Y9628571D02*
X39309524Y9676190D01*
D10*
X39404760Y9533333D02*
X39357144Y9628571D01*
D10*
X39404760Y9438095D02*
X39404760Y9533333D01*
D10*
X39357144Y9342857D02*
X39404760Y9438095D01*
D10*
X39309524Y9295238D02*
X39357144Y9342857D01*
D10*
X39166668Y9247619D02*
X39309524Y9295238D01*
D10*
X38738096Y9247619D02*
X39166668Y9247619D01*
D10*
X39404760Y8723810D02*
X39071428Y9247619D01*
D10*
X39928572Y9580952D02*
X39833332Y9533333D01*
D10*
X40071428Y9723810D02*
X39928572Y9580952D01*
D10*
X40071428Y8723810D02*
X40071428Y9723810D01*
D10*
X36590476Y23823810D02*
X36590476Y24823810D01*
D10*
X37019048Y24823810D02*
X36590476Y24823810D01*
D10*
X37161904Y24776190D02*
X37019048Y24823810D01*
D10*
X37209524Y24728572D02*
X37161904Y24776190D01*
D10*
X37257144Y24633334D02*
X37209524Y24728572D01*
D10*
X37257144Y24538096D02*
X37257144Y24633334D01*
D10*
X37209524Y24442858D02*
X37257144Y24538096D01*
D10*
X37161904Y24395238D02*
X37209524Y24442858D01*
D10*
X37019048Y24347620D02*
X37161904Y24395238D01*
D10*
X36590476Y24347620D02*
X37019048Y24347620D01*
D10*
X37257144Y23823810D02*
X36923808Y24347620D01*
D10*
X37780952Y24680952D02*
X37685716Y24633334D01*
D10*
X37923808Y24823810D02*
X37780952Y24680952D01*
D10*
X37923808Y23823810D02*
X37923808Y24823810D01*
D10*
X38590476Y24776190D02*
X38733332Y24823810D01*
D10*
X38542856Y24680952D02*
X38590476Y24776190D01*
D10*
X38542856Y24585714D02*
X38542856Y24680952D01*
D10*
X38590476Y24490476D02*
X38542856Y24585714D01*
D10*
X38685716Y24442858D02*
X38590476Y24490476D01*
D10*
X38876192Y24395238D02*
X38685716Y24442858D01*
D10*
X39019048Y24347620D02*
X38876192Y24395238D01*
D10*
X39114284Y24252380D02*
X39019048Y24347620D01*
D10*
X39161904Y24157142D02*
X39114284Y24252380D01*
D10*
X39161904Y24014286D02*
X39161904Y24157142D01*
D10*
X39114284Y23919048D02*
X39161904Y24014286D01*
D10*
X39066668Y23871428D02*
X39114284Y23919048D01*
D10*
X38923808Y23823810D02*
X39066668Y23871428D01*
D10*
X38733332Y23823810D02*
X38923808Y23823810D01*
D10*
X38590476Y23871428D02*
X38733332Y23823810D01*
D10*
X38542856Y23919048D02*
X38590476Y23871428D01*
D10*
X38495240Y24014286D02*
X38542856Y23919048D01*
D10*
X38495240Y24157142D02*
X38495240Y24014286D01*
D10*
X38542856Y24252380D02*
X38495240Y24157142D01*
D10*
X38638096Y24347620D02*
X38542856Y24252380D01*
D10*
X38780952Y24395238D02*
X38638096Y24347620D01*
D10*
X38971428Y24442858D02*
X38780952Y24395238D01*
D10*
X39066668Y24490476D02*
X38971428Y24442858D01*
D10*
X39114284Y24585714D02*
X39066668Y24490476D01*
D10*
X39114284Y24680952D02*
X39114284Y24585714D01*
D10*
X39066668Y24776190D02*
X39114284Y24680952D01*
D10*
X38923808Y24823810D02*
X39066668Y24776190D01*
D10*
X38733332Y24823810D02*
X38923808Y24823810D01*
D10*
X38460476Y54803808D02*
X38460476Y55803808D01*
D10*
X38889048Y55803808D02*
X38460476Y55803808D01*
D10*
X39031904Y55756192D02*
X38889048Y55803808D01*
D10*
X39079524Y55708572D02*
X39031904Y55756192D01*
D10*
X39127144Y55613332D02*
X39079524Y55708572D01*
D10*
X39127144Y55518096D02*
X39127144Y55613332D01*
D10*
X39079524Y55422856D02*
X39127144Y55518096D01*
D10*
X39031904Y55375240D02*
X39079524Y55422856D01*
D10*
X38889048Y55327620D02*
X39031904Y55375240D01*
D10*
X38460476Y55327620D02*
X38889048Y55327620D01*
D10*
X39127144Y54803808D02*
X38793808Y55327620D01*
D10*
X39650952Y55660952D02*
X39555716Y55613332D01*
D10*
X39793808Y55803808D02*
X39650952Y55660952D01*
D10*
X39793808Y54803808D02*
X39793808Y55803808D01*
D10*
X40984284Y55803808D02*
X40460476Y55803808D01*
D10*
X40698572Y55422856D02*
X40984284Y55803808D01*
D10*
X40841428Y55422856D02*
X40698572Y55422856D01*
D10*
X40936668Y55375240D02*
X40841428Y55422856D01*
D10*
X40984284Y55327620D02*
X40936668Y55375240D01*
D10*
X41031904Y55184760D02*
X40984284Y55327620D01*
D10*
X41031904Y55089524D02*
X41031904Y55184760D01*
D10*
X40984284Y54946668D02*
X41031904Y55089524D01*
D10*
X40889048Y54851428D02*
X40984284Y54946668D01*
D10*
X40746192Y54803808D02*
X40889048Y54851428D01*
D10*
X40603332Y54803808D02*
X40746192Y54803808D01*
D10*
X40460476Y54851428D02*
X40603332Y54803808D01*
D10*
X40412856Y54899048D02*
X40460476Y54851428D01*
D10*
X40365240Y54994284D02*
X40412856Y54899048D01*
D10*
X3931190Y44194476D02*
X2931190Y44194476D01*
D10*
X2931190Y44623048D02*
X2931190Y44194476D01*
D10*
X2978809Y44765904D02*
X2931190Y44623048D01*
D10*
X3026428Y44813524D02*
X2978809Y44765904D01*
D10*
X3121666Y44861144D02*
X3026428Y44813524D01*
D10*
X3216904Y44861144D02*
X3121666Y44861144D01*
D10*
X3312142Y44813524D02*
X3216904Y44861144D01*
D10*
X3359762Y44765904D02*
X3312142Y44813524D01*
D10*
X3407381Y44623048D02*
X3359762Y44765904D01*
D10*
X3407381Y44194476D02*
X3407381Y44623048D01*
D10*
X3931190Y44861144D02*
X3407381Y44527808D01*
D10*
X2978809Y45718284D02*
X3074047Y45765904D01*
D10*
X2931190Y45575428D02*
X2978809Y45718284D01*
D10*
X2931190Y45480192D02*
X2931190Y45575428D01*
D10*
X2978809Y45337332D02*
X2931190Y45480192D01*
D10*
X3121666Y45242096D02*
X2978809Y45337332D01*
D10*
X3359762Y45194476D02*
X3121666Y45242096D01*
D10*
X3597857Y45194476D02*
X3359762Y45194476D01*
D10*
X3788333Y45242096D02*
X3597857Y45194476D01*
D10*
X3883571Y45337332D02*
X3788333Y45242096D01*
D10*
X3931190Y45480192D02*
X3883571Y45337332D01*
D10*
X3931190Y45527808D02*
X3931190Y45480192D01*
D10*
X3883571Y45670668D02*
X3931190Y45527808D01*
D10*
X3788333Y45765904D02*
X3883571Y45670668D01*
D10*
X3645476Y45813524D02*
X3788333Y45765904D01*
D10*
X3597857Y45813524D02*
X3645476Y45813524D01*
D10*
X3455000Y45765904D02*
X3597857Y45813524D01*
D10*
X3359762Y45670668D02*
X3455000Y45765904D01*
D10*
X3312142Y45527808D02*
X3359762Y45670668D01*
D10*
X3312142Y45480192D02*
X3312142Y45527808D01*
D10*
X3359762Y45337332D02*
X3312142Y45480192D01*
D10*
X3455000Y45242096D02*
X3359762Y45337332D01*
D10*
X3597857Y45194476D02*
X3455000Y45242096D01*
D10*
X30169048Y16782142D02*
X30264286Y16829762D01*
D10*
X30073810Y16686905D02*
X30169048Y16782142D01*
D10*
X30026190Y16591667D02*
X30073810Y16686905D01*
D10*
X30026190Y16401190D02*
X30026190Y16591667D01*
D10*
X30073810Y16305952D02*
X30026190Y16401190D01*
D10*
X30169048Y16210714D02*
X30073810Y16305952D01*
D10*
X30264286Y16163095D02*
X30169048Y16210714D01*
D10*
X30407142Y16115476D02*
X30264286Y16163095D01*
D10*
X30645238Y16115476D02*
X30407142Y16115476D01*
D10*
X30788096Y16163095D02*
X30645238Y16115476D01*
D10*
X30883334Y16210714D02*
X30788096Y16163095D01*
D10*
X30978572Y16305952D02*
X30883334Y16210714D01*
D10*
X31026190Y16401190D02*
X30978572Y16305952D01*
D10*
X31026190Y16591667D02*
X31026190Y16401190D01*
D10*
X30978572Y16686905D02*
X31026190Y16591667D01*
D10*
X30883334Y16782142D02*
X30978572Y16686905D01*
D10*
X30788096Y16829762D02*
X30883334Y16782142D01*
D10*
X30216666Y17163096D02*
X30264286Y17163096D01*
D10*
X30121428Y17210714D02*
X30216666Y17163096D01*
D10*
X30073810Y17258334D02*
X30121428Y17210714D01*
D10*
X30026190Y17353572D02*
X30073810Y17258334D01*
D10*
X30026190Y17544048D02*
X30026190Y17353572D01*
D10*
X30073810Y17639286D02*
X30026190Y17544048D01*
D10*
X30121428Y17686904D02*
X30073810Y17639286D01*
D10*
X30216666Y17734524D02*
X30121428Y17686904D01*
D10*
X30311904Y17734524D02*
X30216666Y17734524D01*
D10*
X30407142Y17686904D02*
X30311904Y17734524D01*
D10*
X30550000Y17591666D02*
X30407142Y17686904D01*
D10*
X31026190Y17115476D02*
X30550000Y17591666D01*
D10*
X31026190Y17782142D02*
X31026190Y17115476D01*
D10*
X35524048Y34427144D02*
X35619284Y34474760D01*
D10*
X35428808Y34331904D02*
X35524048Y34427144D01*
D10*
X35381192Y34236668D02*
X35428808Y34331904D01*
D10*
X35381192Y34046192D02*
X35381192Y34236668D01*
D10*
X35428808Y33950952D02*
X35381192Y34046192D01*
D10*
X35524048Y33855716D02*
X35428808Y33950952D01*
D10*
X35619284Y33808096D02*
X35524048Y33855716D01*
D10*
X35762144Y33760476D02*
X35619284Y33808096D01*
D10*
X36000240Y33760476D02*
X35762144Y33760476D01*
D10*
X36143096Y33808096D02*
X36000240Y33760476D01*
D10*
X36238332Y33855716D02*
X36143096Y33808096D01*
D10*
X36333572Y33950952D02*
X36238332Y33855716D01*
D10*
X36381192Y34046192D02*
X36333572Y33950952D01*
D10*
X36381192Y34236668D02*
X36381192Y34046192D01*
D10*
X36333572Y34331904D02*
X36381192Y34236668D01*
D10*
X36238332Y34427144D02*
X36333572Y34331904D01*
D10*
X36143096Y34474760D02*
X36238332Y34427144D01*
D10*
X35381192Y34855716D02*
X35381192Y35331904D01*
D10*
X35809760Y34808096D02*
X35381192Y34855716D01*
D10*
X35762144Y34855716D02*
X35809760Y34808096D01*
D10*
X35714524Y34998572D02*
X35762144Y34855716D01*
D10*
X35714524Y35141428D02*
X35714524Y34998572D01*
D10*
X35762144Y35284284D02*
X35714524Y35141428D01*
D10*
X35857380Y35379524D02*
X35762144Y35284284D01*
D10*
X36000240Y35427144D02*
X35857380Y35379524D01*
D10*
X36095476Y35427144D02*
X36000240Y35427144D01*
D10*
X36238332Y35379524D02*
X36095476Y35427144D01*
D10*
X36333572Y35284284D02*
X36238332Y35379524D01*
D10*
X36381192Y35141428D02*
X36333572Y35284284D01*
D10*
X36381192Y34998572D02*
X36381192Y35141428D01*
D10*
X36333572Y34855716D02*
X36381192Y34998572D01*
D10*
X36285952Y34808096D02*
X36333572Y34855716D01*
D10*
X36190716Y34760476D02*
X36285952Y34808096D01*
D10*
X40681192Y51394476D02*
X39681192Y51394476D01*
D10*
X39681192Y51823048D02*
X39681192Y51394476D01*
D10*
X39728808Y51965904D02*
X39681192Y51823048D01*
D10*
X39776428Y52013524D02*
X39728808Y51965904D01*
D10*
X39871668Y52061144D02*
X39776428Y52013524D01*
D10*
X39966904Y52061144D02*
X39871668Y52061144D01*
D10*
X40062144Y52013524D02*
X39966904Y52061144D01*
D10*
X40109760Y51965904D02*
X40062144Y52013524D01*
D10*
X40157380Y51823048D02*
X40109760Y51965904D01*
D10*
X40157380Y51394476D02*
X40157380Y51823048D01*
D10*
X40681192Y52061144D02*
X40157380Y51727808D01*
D10*
X39824048Y52584952D02*
X39871668Y52489716D01*
D10*
X39681192Y52727808D02*
X39824048Y52584952D01*
D10*
X40681192Y52727808D02*
X39681192Y52727808D01*
D10*
X39871668Y53346856D02*
X39919284Y53346856D01*
D10*
X39776428Y53394476D02*
X39871668Y53346856D01*
D10*
X39728808Y53442096D02*
X39776428Y53394476D01*
D10*
X39681192Y53537332D02*
X39728808Y53442096D01*
D10*
X39681192Y53727808D02*
X39681192Y53537332D01*
D10*
X39728808Y53823048D02*
X39681192Y53727808D01*
D10*
X39776428Y53870668D02*
X39728808Y53823048D01*
D10*
X39871668Y53918284D02*
X39776428Y53870668D01*
D10*
X39966904Y53918284D02*
X39871668Y53918284D01*
D10*
X40062144Y53870668D02*
X39966904Y53918284D01*
D10*
X40205000Y53775428D02*
X40062144Y53870668D01*
D10*
X40681192Y53299240D02*
X40205000Y53775428D01*
D10*
X40681192Y53965904D02*
X40681192Y53299240D01*
D10*
X22750476Y52853808D02*
X22750476Y53853808D01*
D10*
X23179048Y53853808D02*
X22750476Y53853808D01*
D10*
X23321904Y53806192D02*
X23179048Y53853808D01*
D10*
X23369524Y53758572D02*
X23321904Y53806192D01*
D10*
X23417142Y53663332D02*
X23369524Y53758572D01*
D10*
X23417142Y53568096D02*
X23417142Y53663332D01*
D10*
X23369524Y53472856D02*
X23417142Y53568096D01*
D10*
X23321904Y53425240D02*
X23369524Y53472856D01*
D10*
X23179048Y53377620D02*
X23321904Y53425240D01*
D10*
X22750476Y53377620D02*
X23179048Y53377620D01*
D10*
X23417142Y52853808D02*
X23083810Y53377620D01*
D10*
X23940952Y53710952D02*
X23845714Y53663332D01*
D10*
X24083810Y53853808D02*
X23940952Y53710952D01*
D10*
X24083810Y52853808D02*
X24083810Y53853808D01*
D10*
X24798096Y53806192D02*
X24940952Y53853808D01*
D10*
X24702856Y53663332D02*
X24798096Y53806192D01*
D10*
X24655238Y53425240D02*
X24702856Y53663332D01*
D10*
X24655238Y53282380D02*
X24655238Y53425240D01*
D10*
X24702856Y53044284D02*
X24655238Y53282380D01*
D10*
X24798096Y52901428D02*
X24702856Y53044284D01*
D10*
X24940952Y52853808D02*
X24798096Y52901428D01*
D10*
X25036190Y52853808D02*
X24940952Y52853808D01*
D10*
X25179048Y52901428D02*
X25036190Y52853808D01*
D10*
X25274286Y53044284D02*
X25179048Y52901428D01*
D10*
X25321904Y53282380D02*
X25274286Y53044284D01*
D10*
X25321904Y53425240D02*
X25321904Y53282380D01*
D10*
X25274286Y53663332D02*
X25321904Y53425240D01*
D10*
X25179048Y53806192D02*
X25274286Y53663332D01*
D10*
X25036190Y53853808D02*
X25179048Y53806192D01*
D10*
X24940952Y53853808D02*
X25036190Y53853808D01*
D10*
X38809524Y58090952D02*
X38857144Y57995716D01*
D10*
X38714284Y58186192D02*
X38809524Y58090952D01*
D10*
X38619048Y58233808D02*
X38714284Y58186192D01*
D10*
X38428572Y58233808D02*
X38619048Y58233808D01*
D10*
X38333332Y58186192D02*
X38428572Y58233808D01*
D10*
X38238096Y58090952D02*
X38333332Y58186192D01*
D10*
X38190476Y57995716D02*
X38238096Y58090952D01*
D10*
X38142856Y57852856D02*
X38190476Y57995716D01*
D10*
X38142856Y57614760D02*
X38142856Y57852856D01*
D10*
X38190476Y57471904D02*
X38142856Y57614760D01*
D10*
X38238096Y57376668D02*
X38190476Y57471904D01*
D10*
X38333332Y57281428D02*
X38238096Y57376668D01*
D10*
X38428572Y57233808D02*
X38333332Y57281428D01*
D10*
X38619048Y57233808D02*
X38428572Y57233808D01*
D10*
X38714284Y57281428D02*
X38619048Y57233808D01*
D10*
X38809524Y57376668D02*
X38714284Y57281428D01*
D10*
X38857144Y57471904D02*
X38809524Y57376668D01*
D10*
X39380952Y58090952D02*
X39285716Y58043332D01*
D10*
X39523808Y58233808D02*
X39380952Y58090952D01*
D10*
X39523808Y57233808D02*
X39523808Y58233808D01*
D10*
X40095240Y57567144D02*
X40571428Y58233808D01*
D10*
X40809524Y57567144D02*
X40095240Y57567144D01*
D10*
X40571428Y57233808D02*
X40571428Y58233808D01*
D10*
X23244762Y51480952D02*
X23292380Y51385716D01*
D10*
X23149524Y51576192D02*
X23244762Y51480952D01*
D10*
X23054286Y51623808D02*
X23149524Y51576192D01*
D10*
X22863810Y51623808D02*
X23054286Y51623808D01*
D10*
X22768572Y51576192D02*
X22863810Y51623808D01*
D10*
X22673334Y51480952D02*
X22768572Y51576192D01*
D10*
X22625714Y51385716D02*
X22673334Y51480952D01*
D10*
X22578096Y51242856D02*
X22625714Y51385716D01*
D10*
X22578096Y51004760D02*
X22578096Y51242856D01*
D10*
X22625714Y50861904D02*
X22578096Y51004760D01*
D10*
X22673334Y50766668D02*
X22625714Y50861904D01*
D10*
X22768572Y50671428D02*
X22673334Y50766668D01*
D10*
X22863810Y50623808D02*
X22768572Y50671428D01*
D10*
X23054286Y50623808D02*
X22863810Y50623808D01*
D10*
X23149524Y50671428D02*
X23054286Y50623808D01*
D10*
X23244762Y50766668D02*
X23149524Y50671428D01*
D10*
X23292380Y50861904D02*
X23244762Y50766668D01*
D10*
X23816190Y51480952D02*
X23720952Y51433332D01*
D10*
X23959048Y51623808D02*
X23816190Y51480952D01*
D10*
X23959048Y50623808D02*
X23959048Y51623808D01*
D10*
X24578096Y51433332D02*
X24578096Y51385716D01*
D10*
X24625714Y51528572D02*
X24578096Y51433332D01*
D10*
X24673334Y51576192D02*
X24625714Y51528572D01*
D10*
X24768572Y51623808D02*
X24673334Y51576192D01*
D10*
X24959048Y51623808D02*
X24768572Y51623808D01*
D10*
X25054286Y51576192D02*
X24959048Y51623808D01*
D10*
X25101904Y51528572D02*
X25054286Y51576192D01*
D10*
X25149524Y51433332D02*
X25101904Y51528572D01*
D10*
X25149524Y51338096D02*
X25149524Y51433332D01*
D10*
X25101904Y51242856D02*
X25149524Y51338096D01*
D10*
X25006666Y51100000D02*
X25101904Y51242856D01*
D10*
X24530476Y50623808D02*
X25006666Y51100000D01*
D10*
X25197142Y50623808D02*
X24530476Y50623808D01*
D10*
X38262144Y30740952D02*
X38309760Y30645714D01*
D10*
X38166904Y30836190D02*
X38262144Y30740952D01*
D10*
X38071668Y30883810D02*
X38166904Y30836190D01*
D10*
X37881192Y30883810D02*
X38071668Y30883810D01*
D10*
X37785952Y30836190D02*
X37881192Y30883810D01*
D10*
X37690716Y30740952D02*
X37785952Y30836190D01*
D10*
X37643096Y30645714D02*
X37690716Y30740952D01*
D10*
X37595476Y30502858D02*
X37643096Y30645714D01*
D10*
X37595476Y30264762D02*
X37595476Y30502858D01*
D10*
X37643096Y30121904D02*
X37595476Y30264762D01*
D10*
X37690716Y30026666D02*
X37643096Y30121904D01*
D10*
X37785952Y29931428D02*
X37690716Y30026666D01*
D10*
X37881192Y29883810D02*
X37785952Y29931428D01*
D10*
X38071668Y29883810D02*
X37881192Y29883810D01*
D10*
X38166904Y29931428D02*
X38071668Y29883810D01*
D10*
X38262144Y30026666D02*
X38166904Y29931428D01*
D10*
X38309760Y30121904D02*
X38262144Y30026666D01*
D10*
X39166904Y30836190D02*
X39214524Y30740952D01*
D10*
X39024048Y30883810D02*
X39166904Y30836190D01*
D10*
X38928808Y30883810D02*
X39024048Y30883810D01*
D10*
X38785952Y30836190D02*
X38928808Y30883810D01*
D10*
X38690716Y30693334D02*
X38785952Y30836190D01*
D10*
X38643096Y30455238D02*
X38690716Y30693334D01*
D10*
X38643096Y30217142D02*
X38643096Y30455238D01*
D10*
X38690716Y30026666D02*
X38643096Y30217142D01*
D10*
X38785952Y29931428D02*
X38690716Y30026666D01*
D10*
X38928808Y29883810D02*
X38785952Y29931428D01*
D10*
X38976428Y29883810D02*
X38928808Y29883810D01*
D10*
X39119284Y29931428D02*
X38976428Y29883810D01*
D10*
X39214524Y30026666D02*
X39119284Y29931428D01*
D10*
X39262144Y30169524D02*
X39214524Y30026666D01*
D10*
X39262144Y30217142D02*
X39262144Y30169524D01*
D10*
X39214524Y30360000D02*
X39262144Y30217142D01*
D10*
X39119284Y30455238D02*
X39214524Y30360000D01*
D10*
X38976428Y30502858D02*
X39119284Y30455238D01*
D10*
X38928808Y30502858D02*
X38976428Y30502858D01*
D10*
X38785952Y30455238D02*
X38928808Y30502858D01*
D10*
X38690716Y30360000D02*
X38785952Y30455238D01*
D10*
X38643096Y30217142D02*
X38690716Y30360000D01*
D10*
X4488095Y41708808D02*
X4488095Y42708808D01*
D10*
X4916667Y42708808D02*
X4488095Y42708808D01*
D10*
X5059524Y42661192D02*
X4916667Y42708808D01*
D10*
X5107143Y42613572D02*
X5059524Y42661192D01*
D10*
X5154762Y42518332D02*
X5107143Y42613572D01*
D10*
X5154762Y42423096D02*
X5154762Y42518332D01*
D10*
X5107143Y42327856D02*
X5154762Y42423096D01*
D10*
X5059524Y42280240D02*
X5107143Y42327856D01*
D10*
X4916667Y42232620D02*
X5059524Y42280240D01*
D10*
X4488095Y42232620D02*
X4916667Y42232620D01*
D10*
X5154762Y41708808D02*
X4821428Y42232620D01*
D10*
X5535714Y42708808D02*
X6011905Y42708808D01*
D10*
X5488095Y42280240D02*
X5535714Y42708808D01*
D10*
X5535714Y42327856D02*
X5488095Y42280240D01*
D10*
X5678571Y42375476D02*
X5535714Y42327856D01*
D10*
X5821428Y42375476D02*
X5678571Y42375476D01*
D10*
X5964285Y42327856D02*
X5821428Y42375476D01*
D10*
X6059524Y42232620D02*
X5964285Y42327856D01*
D10*
X6107143Y42089760D02*
X6059524Y42232620D01*
D10*
X6107143Y41994524D02*
X6107143Y42089760D01*
D10*
X6059524Y41851668D02*
X6107143Y41994524D01*
D10*
X5964285Y41756428D02*
X6059524Y41851668D01*
D10*
X5821428Y41708808D02*
X5964285Y41756428D01*
D10*
X5678571Y41708808D02*
X5821428Y41708808D01*
D10*
X5535714Y41756428D02*
X5678571Y41708808D01*
D10*
X5488095Y41804048D02*
X5535714Y41756428D01*
D10*
X5440476Y41899284D02*
X5488095Y41804048D01*
D10*
X4484047Y44809524D02*
X4579285Y44857144D01*
D10*
X4388809Y44714284D02*
X4484047Y44809524D01*
D10*
X4341190Y44619048D02*
X4388809Y44714284D01*
D10*
X4341190Y44428572D02*
X4341190Y44619048D01*
D10*
X4388809Y44333332D02*
X4341190Y44428572D01*
D10*
X4484047Y44238096D02*
X4388809Y44333332D01*
D10*
X4579285Y44190476D02*
X4484047Y44238096D01*
D10*
X4722143Y44142856D02*
X4579285Y44190476D01*
D10*
X4960238Y44142856D02*
X4722143Y44142856D01*
D10*
X5103095Y44190476D02*
X4960238Y44142856D01*
D10*
X5198333Y44238096D02*
X5103095Y44190476D01*
D10*
X5293571Y44333332D02*
X5198333Y44238096D01*
D10*
X5341190Y44428572D02*
X5293571Y44333332D01*
D10*
X5341190Y44619048D02*
X5341190Y44428572D01*
D10*
X5293571Y44714284D02*
X5341190Y44619048D01*
D10*
X5198333Y44809524D02*
X5293571Y44714284D01*
D10*
X5103095Y44857144D02*
X5198333Y44809524D01*
D10*
X4817381Y45714284D02*
X4674524Y45761904D01*
D10*
X4912619Y45619048D02*
X4817381Y45714284D01*
D10*
X4960238Y45476192D02*
X4912619Y45619048D01*
D10*
X4960238Y45428572D02*
X4960238Y45476192D01*
D10*
X4912619Y45285716D02*
X4960238Y45428572D01*
D10*
X4817381Y45190476D02*
X4912619Y45285716D01*
D10*
X4674524Y45142856D02*
X4817381Y45190476D01*
D10*
X4626905Y45142856D02*
X4674524Y45142856D01*
D10*
X4484047Y45190476D02*
X4626905Y45142856D01*
D10*
X4388809Y45285716D02*
X4484047Y45190476D01*
D10*
X4341190Y45428572D02*
X4388809Y45285716D01*
D10*
X4341190Y45476192D02*
X4341190Y45428572D01*
D10*
X4388809Y45619048D02*
X4341190Y45476192D01*
D10*
X4484047Y45714284D02*
X4388809Y45619048D01*
D10*
X4674524Y45761904D02*
X4484047Y45714284D01*
D10*
X4912619Y45761904D02*
X4674524Y45761904D01*
D10*
X5150714Y45714284D02*
X4912619Y45761904D01*
D10*
X5293571Y45619048D02*
X5150714Y45714284D01*
D10*
X5341190Y45476192D02*
X5293571Y45619048D01*
D10*
X5341190Y45380952D02*
X5341190Y45476192D01*
D10*
X5293571Y45238096D02*
X5341190Y45380952D01*
D10*
X5198333Y45190476D02*
X5293571Y45238096D01*
D10*
X48656192Y2780476D02*
X47656192Y2780476D01*
D10*
X48656192Y3351904D02*
X48656192Y2780476D01*
D10*
X48656192Y3590000D02*
X47656192Y3590000D01*
D10*
X47656192Y4209047D02*
X47656192Y3590000D01*
D10*
X48132380Y3970952D02*
X48132380Y3590000D01*
D10*
X48656192Y4209047D02*
X48656192Y3590000D01*
D10*
X48656192Y4494762D02*
X47656192Y4494762D01*
D10*
X47656192Y4828095D02*
X47656192Y4494762D01*
D10*
X47703808Y4970952D02*
X47656192Y4828095D01*
D10*
X47799048Y5066190D02*
X47703808Y4970952D01*
D10*
X47894284Y5113809D02*
X47799048Y5066190D01*
D10*
X48037144Y5161428D02*
X47894284Y5113809D01*
D10*
X48275240Y5161428D02*
X48037144Y5161428D01*
D10*
X48418096Y5113809D02*
X48275240Y5161428D01*
D10*
X48513332Y5066190D02*
X48418096Y5113809D01*
D10*
X48608572Y4970952D02*
X48513332Y5066190D01*
D10*
X48656192Y4828095D02*
X48608572Y4970952D01*
D10*
X48656192Y4494762D02*
X48656192Y4828095D01*
D10*
X15475476Y42893808D02*
X15475476Y43893808D01*
D10*
X16475476Y43750952D02*
X16523095Y43655716D01*
D10*
X16380238Y43846192D02*
X16475476Y43750952D01*
D10*
X16285000Y43893808D02*
X16380238Y43846192D01*
D10*
X16094524Y43893808D02*
X16285000Y43893808D01*
D10*
X15999286Y43846192D02*
X16094524Y43893808D01*
D10*
X15904048Y43750952D02*
X15999286Y43846192D01*
D10*
X15856429Y43655716D02*
X15904048Y43750952D01*
D10*
X15808810Y43512856D02*
X15856429Y43655716D01*
D10*
X15808810Y43274760D02*
X15808810Y43512856D01*
D10*
X15856429Y43131904D02*
X15808810Y43274760D01*
D10*
X15904048Y43036668D02*
X15856429Y43131904D01*
D10*
X15999286Y42941428D02*
X15904048Y43036668D01*
D10*
X16094524Y42893808D02*
X15999286Y42941428D01*
D10*
X16285000Y42893808D02*
X16094524Y42893808D01*
D10*
X16380238Y42941428D02*
X16285000Y42893808D01*
D10*
X16475476Y43036668D02*
X16380238Y42941428D01*
D10*
X16523095Y43131904D02*
X16475476Y43036668D01*
D10*
X17046904Y43750952D02*
X16951666Y43703332D01*
D10*
X17189762Y43893808D02*
X17046904Y43750952D01*
D10*
X17189762Y42893808D02*
X17189762Y43893808D01*
D10*
X29394762Y27285952D02*
X29442380Y27190714D01*
D10*
X29299524Y27381190D02*
X29394762Y27285952D01*
D10*
X29204286Y27428810D02*
X29299524Y27381190D01*
D10*
X29013810Y27428810D02*
X29204286Y27428810D01*
D10*
X28918572Y27381190D02*
X29013810Y27428810D01*
D10*
X28823334Y27285952D02*
X28918572Y27381190D01*
D10*
X28775714Y27190714D02*
X28823334Y27285952D01*
D10*
X28728096Y27047858D02*
X28775714Y27190714D01*
D10*
X28728096Y26809762D02*
X28728096Y27047858D01*
D10*
X28775714Y26666904D02*
X28728096Y26809762D01*
D10*
X28823334Y26571666D02*
X28775714Y26666904D01*
D10*
X28918572Y26476428D02*
X28823334Y26571666D01*
D10*
X29013810Y26428810D02*
X28918572Y26476428D01*
D10*
X29204286Y26428810D02*
X29013810Y26428810D01*
D10*
X29299524Y26476428D02*
X29204286Y26428810D01*
D10*
X29394762Y26571666D02*
X29299524Y26476428D01*
D10*
X29442380Y26666904D02*
X29394762Y26571666D01*
D10*
X29966190Y27285952D02*
X29870952Y27238334D01*
D10*
X30109048Y27428810D02*
X29966190Y27285952D01*
D10*
X30109048Y26428810D02*
X30109048Y27428810D01*
D10*
X30775714Y27381190D02*
X30918572Y27428810D01*
D10*
X30728096Y27285952D02*
X30775714Y27381190D01*
D10*
X30728096Y27190714D02*
X30728096Y27285952D01*
D10*
X30775714Y27095476D02*
X30728096Y27190714D01*
D10*
X30870952Y27047858D02*
X30775714Y27095476D01*
D10*
X31061428Y27000238D02*
X30870952Y27047858D01*
D10*
X31204286Y26952620D02*
X31061428Y27000238D01*
D10*
X31299524Y26857380D02*
X31204286Y26952620D01*
D10*
X31347142Y26762142D02*
X31299524Y26857380D01*
D10*
X31347142Y26619286D02*
X31347142Y26762142D01*
D10*
X31299524Y26524048D02*
X31347142Y26619286D01*
D10*
X31251904Y26476428D02*
X31299524Y26524048D01*
D10*
X31109048Y26428810D02*
X31251904Y26476428D01*
D10*
X30918572Y26428810D02*
X31109048Y26428810D01*
D10*
X30775714Y26476428D02*
X30918572Y26428810D01*
D10*
X30728096Y26524048D02*
X30775714Y26476428D01*
D10*
X30680476Y26619286D02*
X30728096Y26524048D01*
D10*
X30680476Y26762142D02*
X30680476Y26619286D01*
D10*
X30728096Y26857380D02*
X30680476Y26762142D01*
D10*
X30823334Y26952620D02*
X30728096Y26857380D01*
D10*
X30966190Y27000238D02*
X30823334Y26952620D01*
D10*
X31156666Y27047858D02*
X30966190Y27000238D01*
D10*
X31251904Y27095476D02*
X31156666Y27047858D01*
D10*
X31299524Y27190714D02*
X31251904Y27095476D01*
D10*
X31299524Y27285952D02*
X31299524Y27190714D01*
D10*
X31251904Y27381190D02*
X31299524Y27285952D01*
D10*
X31109048Y27428810D02*
X31251904Y27381190D01*
D10*
X30918572Y27428810D02*
X31109048Y27428810D01*
D10*
X16434095Y54728808D02*
X16434095Y55728808D01*
D10*
X16862666Y55728808D02*
X16434095Y55728808D01*
D10*
X17005524Y55681192D02*
X16862666Y55728808D01*
D10*
X17053142Y55633572D02*
X17005524Y55681192D01*
D10*
X17100762Y55538332D02*
X17053142Y55633572D01*
D10*
X17100762Y55443096D02*
X17100762Y55538332D01*
D10*
X17053142Y55347856D02*
X17100762Y55443096D01*
D10*
X17005524Y55300240D02*
X17053142Y55347856D01*
D10*
X16862666Y55252620D02*
X17005524Y55300240D01*
D10*
X16434095Y55252620D02*
X16862666Y55252620D01*
D10*
X17100762Y54728808D02*
X16767429Y55252620D01*
D10*
X17957904Y55252620D02*
X18005524Y55395476D01*
D10*
X17862666Y55157380D02*
X17957904Y55252620D01*
D10*
X17719810Y55109760D02*
X17862666Y55157380D01*
D10*
X17672190Y55109760D02*
X17719810Y55109760D01*
D10*
X17529334Y55157380D02*
X17672190Y55109760D01*
D10*
X17434096Y55252620D02*
X17529334Y55157380D01*
D10*
X17386476Y55395476D02*
X17434096Y55252620D01*
D10*
X17386476Y55443096D02*
X17386476Y55395476D01*
D10*
X17434096Y55585952D02*
X17386476Y55443096D01*
D10*
X17529334Y55681192D02*
X17434096Y55585952D01*
D10*
X17672190Y55728808D02*
X17529334Y55681192D01*
D10*
X17719810Y55728808D02*
X17672190Y55728808D01*
D10*
X17862666Y55681192D02*
X17719810Y55728808D01*
D10*
X17957904Y55585952D02*
X17862666Y55681192D01*
D10*
X18005524Y55395476D02*
X17957904Y55585952D01*
D10*
X18005524Y55157380D02*
X18005524Y55395476D01*
D10*
X17957904Y54919284D02*
X18005524Y55157380D01*
D10*
X17862666Y54776428D02*
X17957904Y54919284D01*
D10*
X17719810Y54728808D02*
X17862666Y54776428D01*
D10*
X17624572Y54728808D02*
X17719810Y54728808D01*
D10*
X17481714Y54776428D02*
X17624572Y54728808D01*
D10*
X17434096Y54871668D02*
X17481714Y54776428D01*
D10*
X36594476Y22388810D02*
X36594476Y23388810D01*
D10*
X37023048Y23388810D02*
X36594476Y23388810D01*
D10*
X37165904Y23341190D02*
X37023048Y23388810D01*
D10*
X37213524Y23293572D02*
X37165904Y23341190D01*
D10*
X37261144Y23198334D02*
X37213524Y23293572D01*
D10*
X37261144Y23103096D02*
X37261144Y23198334D01*
D10*
X37213524Y23007858D02*
X37261144Y23103096D01*
D10*
X37165904Y22960238D02*
X37213524Y23007858D01*
D10*
X37023048Y22912620D02*
X37165904Y22960238D01*
D10*
X36594476Y22912620D02*
X37023048Y22912620D01*
D10*
X37261144Y22388810D02*
X36927808Y22912620D01*
D10*
X37784952Y23245952D02*
X37689716Y23198334D01*
D10*
X37927808Y23388810D02*
X37784952Y23245952D01*
D10*
X37927808Y22388810D02*
X37927808Y23388810D01*
D10*
X39070668Y22912620D02*
X39118284Y23055476D01*
D10*
X38975428Y22817380D02*
X39070668Y22912620D01*
D10*
X38832572Y22769762D02*
X38975428Y22817380D01*
D10*
X38784952Y22769762D02*
X38832572Y22769762D01*
D10*
X38642096Y22817380D02*
X38784952Y22769762D01*
D10*
X38546856Y22912620D02*
X38642096Y22817380D01*
D10*
X38499240Y23055476D02*
X38546856Y22912620D01*
D10*
X38499240Y23103096D02*
X38499240Y23055476D01*
D10*
X38546856Y23245952D02*
X38499240Y23103096D01*
D10*
X38642096Y23341190D02*
X38546856Y23245952D01*
D10*
X38784952Y23388810D02*
X38642096Y23341190D01*
D10*
X38832572Y23388810D02*
X38784952Y23388810D01*
D10*
X38975428Y23341190D02*
X38832572Y23388810D01*
D10*
X39070668Y23245952D02*
X38975428Y23341190D01*
D10*
X39118284Y23055476D02*
X39070668Y23245952D01*
D10*
X39118284Y22817380D02*
X39118284Y23055476D01*
D10*
X39070668Y22579286D02*
X39118284Y22817380D01*
D10*
X38975428Y22436428D02*
X39070668Y22579286D01*
D10*
X38832572Y22388810D02*
X38975428Y22436428D01*
D10*
X38737332Y22388810D02*
X38832572Y22388810D01*
D10*
X38594476Y22436428D02*
X38737332Y22388810D01*
D10*
X38546856Y22531666D02*
X38594476Y22436428D01*
D10*
X46475476Y33153810D02*
X46475476Y34153808D01*
D10*
X46904048Y34153808D02*
X46475476Y34153808D01*
D10*
X47046904Y34106192D02*
X46904048Y34153808D01*
D10*
X47094524Y34058572D02*
X47046904Y34106192D01*
D10*
X47142144Y33963332D02*
X47094524Y34058572D01*
D10*
X47142144Y33868096D02*
X47142144Y33963332D01*
D10*
X47094524Y33772856D02*
X47142144Y33868096D01*
D10*
X47046904Y33725240D02*
X47094524Y33772856D01*
D10*
X46904048Y33677620D02*
X47046904Y33725240D01*
D10*
X46475476Y33677620D02*
X46904048Y33677620D01*
D10*
X47142144Y33153810D02*
X46808808Y33677620D01*
D10*
X47665952Y34010952D02*
X47570716Y33963332D01*
D10*
X47808808Y34153808D02*
X47665952Y34010952D01*
D10*
X47808808Y33153810D02*
X47808808Y34153808D01*
D10*
X48570716Y33153810D02*
X49046904Y34153808D01*
D10*
X49046904Y34153808D02*
X48380240Y34153808D01*
D10*
X6701190Y44194476D02*
X5701190Y44194476D01*
D10*
X5701190Y44623048D02*
X5701190Y44194476D01*
D10*
X5748809Y44765904D02*
X5701190Y44623048D01*
D10*
X5796428Y44813524D02*
X5748809Y44765904D01*
D10*
X5891666Y44861144D02*
X5796428Y44813524D01*
D10*
X5986905Y44861144D02*
X5891666Y44861144D01*
D10*
X6082143Y44813524D02*
X5986905Y44861144D01*
D10*
X6129762Y44765904D02*
X6082143Y44813524D01*
D10*
X6177381Y44623048D02*
X6129762Y44765904D01*
D10*
X6177381Y44194476D02*
X6177381Y44623048D01*
D10*
X6701190Y44861144D02*
X6177381Y44527808D01*
D10*
X6701190Y45337332D02*
X5701190Y45813524D01*
D10*
X5701190Y45813524D02*
X5701190Y45146856D01*
D10*
X45811192Y51494476D02*
X44811192Y51494476D01*
D10*
X44811192Y51923048D02*
X44811192Y51494476D01*
D10*
X44858808Y52065904D02*
X44811192Y51923048D01*
D10*
X44906428Y52113524D02*
X44858808Y52065904D01*
D10*
X45001668Y52161144D02*
X44906428Y52113524D01*
D10*
X45096904Y52161144D02*
X45001668Y52161144D01*
D10*
X45192144Y52113524D02*
X45096904Y52161144D01*
D10*
X45239760Y52065904D02*
X45192144Y52113524D01*
D10*
X45287380Y51923048D02*
X45239760Y52065904D01*
D10*
X45287380Y51494476D02*
X45287380Y51923048D01*
D10*
X45811192Y52161144D02*
X45287380Y51827808D01*
D10*
X44954048Y52684952D02*
X45001668Y52589716D01*
D10*
X44811192Y52827808D02*
X44954048Y52684952D01*
D10*
X45811192Y52827808D02*
X44811192Y52827808D01*
D10*
X44954048Y53637332D02*
X45001668Y53542096D01*
D10*
X44811192Y53780192D02*
X44954048Y53637332D01*
D10*
X45811192Y53780192D02*
X44811192Y53780192D01*
D10*
X44019048Y26549762D02*
X44114284Y26597380D01*
D10*
X43923808Y26454524D02*
X44019048Y26549762D01*
D10*
X43876192Y26359286D02*
X43923808Y26454524D01*
D10*
X43876192Y26168810D02*
X43876192Y26359286D01*
D10*
X43923808Y26073572D02*
X43876192Y26168810D01*
D10*
X44019048Y25978334D02*
X43923808Y26073572D01*
D10*
X44114284Y25930714D02*
X44019048Y25978334D01*
D10*
X44257144Y25883096D02*
X44114284Y25930714D01*
D10*
X44495240Y25883096D02*
X44257144Y25883096D01*
D10*
X44638096Y25930714D02*
X44495240Y25883096D01*
D10*
X44733332Y25978334D02*
X44638096Y25930714D01*
D10*
X44828572Y26073572D02*
X44733332Y25978334D01*
D10*
X44876192Y26168810D02*
X44828572Y26073572D01*
D10*
X44876192Y26359286D02*
X44876192Y26168810D01*
D10*
X44828572Y26454524D02*
X44876192Y26359286D01*
D10*
X44733332Y26549762D02*
X44828572Y26454524D01*
D10*
X44638096Y26597380D02*
X44733332Y26549762D01*
D10*
X44019048Y27121190D02*
X44066668Y27025952D01*
D10*
X43876192Y27264048D02*
X44019048Y27121190D01*
D10*
X44876192Y27264048D02*
X43876192Y27264048D01*
D10*
X44876192Y28025952D02*
X43876192Y28502142D01*
D10*
X43876192Y28502142D02*
X43876192Y27835476D01*
D10*
X46386716Y28058810D02*
X46386716Y29058810D01*
D10*
X46815284Y29058810D02*
X46386716Y29058810D01*
D10*
X46958144Y29011190D02*
X46815284Y29058810D01*
D10*
X47005760Y28963572D02*
X46958144Y29011190D01*
D10*
X47053380Y28868334D02*
X47005760Y28963572D01*
D10*
X47053380Y28773096D02*
X47053380Y28868334D01*
D10*
X47005760Y28677858D02*
X47053380Y28773096D01*
D10*
X46958144Y28630238D02*
X47005760Y28677858D01*
D10*
X46815284Y28582620D02*
X46958144Y28630238D01*
D10*
X46386716Y28582620D02*
X46815284Y28582620D01*
D10*
X47053380Y28058810D02*
X46720048Y28582620D01*
D10*
X47577192Y28915952D02*
X47481952Y28868334D01*
D10*
X47720048Y29058810D02*
X47577192Y28915952D01*
D10*
X47720048Y28058810D02*
X47720048Y29058810D01*
D10*
X48862904Y29011190D02*
X48910524Y28915952D01*
D10*
X48720048Y29058810D02*
X48862904Y29011190D01*
D10*
X48624808Y29058810D02*
X48720048Y29058810D01*
D10*
X48481952Y29011190D02*
X48624808Y29058810D01*
D10*
X48386716Y28868334D02*
X48481952Y29011190D01*
D10*
X48339096Y28630238D02*
X48386716Y28868334D01*
D10*
X48339096Y28392142D02*
X48339096Y28630238D01*
D10*
X48386716Y28201666D02*
X48339096Y28392142D01*
D10*
X48481952Y28106428D02*
X48386716Y28201666D01*
D10*
X48624808Y28058810D02*
X48481952Y28106428D01*
D10*
X48672428Y28058810D02*
X48624808Y28058810D01*
D10*
X48815284Y28106428D02*
X48672428Y28058810D01*
D10*
X48910524Y28201666D02*
X48815284Y28106428D01*
D10*
X48958144Y28344524D02*
X48910524Y28201666D01*
D10*
X48958144Y28392142D02*
X48958144Y28344524D01*
D10*
X48910524Y28535000D02*
X48958144Y28392142D01*
D10*
X48815284Y28630238D02*
X48910524Y28535000D01*
D10*
X48672428Y28677858D02*
X48815284Y28630238D01*
D10*
X48624808Y28677858D02*
X48672428Y28677858D01*
D10*
X48481952Y28630238D02*
X48624808Y28677858D01*
D10*
X48386716Y28535000D02*
X48481952Y28630238D01*
D10*
X48339096Y28392142D02*
X48386716Y28535000D01*
D10*
X9161190Y36000476D02*
X8161190Y36000476D01*
D10*
X8161190Y36429048D02*
X8161190Y36000476D01*
D10*
X8208809Y36571904D02*
X8161190Y36429048D01*
D10*
X8256428Y36619524D02*
X8208809Y36571904D01*
D10*
X8351666Y36667144D02*
X8256428Y36619524D01*
D10*
X8446905Y36667144D02*
X8351666Y36667144D01*
D10*
X8542143Y36619524D02*
X8446905Y36667144D01*
D10*
X8589762Y36571904D02*
X8542143Y36619524D01*
D10*
X8637381Y36429048D02*
X8589762Y36571904D01*
D10*
X8637381Y36000476D02*
X8637381Y36429048D01*
D10*
X9161190Y36667144D02*
X8637381Y36333808D01*
D10*
X8827857Y36952856D02*
X8161190Y37429048D01*
D10*
X8827857Y37667144D02*
X8827857Y36952856D01*
D10*
X9161190Y37429048D02*
X8161190Y37429048D01*
D10*
X18990476Y46853808D02*
X18990476Y47853808D01*
D10*
X19419048Y47853808D02*
X18990476Y47853808D01*
D10*
X19561904Y47806192D02*
X19419048Y47853808D01*
D10*
X19609524Y47758572D02*
X19561904Y47806192D01*
D10*
X19657142Y47663332D02*
X19609524Y47758572D01*
D10*
X19657142Y47568096D02*
X19657142Y47663332D01*
D10*
X19609524Y47472856D02*
X19657142Y47568096D01*
D10*
X19561904Y47425240D02*
X19609524Y47472856D01*
D10*
X19419048Y47377620D02*
X19561904Y47425240D01*
D10*
X18990476Y47377620D02*
X19419048Y47377620D01*
D10*
X19657142Y46853808D02*
X19323810Y47377620D01*
D10*
X20038096Y47806192D02*
X20180952Y47853808D01*
D10*
X19990476Y47710952D02*
X20038096Y47806192D01*
D10*
X19990476Y47615716D02*
X19990476Y47710952D01*
D10*
X20038096Y47520476D02*
X19990476Y47615716D01*
D10*
X20133334Y47472856D02*
X20038096Y47520476D01*
D10*
X20323810Y47425240D02*
X20133334Y47472856D01*
D10*
X20466666Y47377620D02*
X20323810Y47425240D01*
D10*
X20561904Y47282380D02*
X20466666Y47377620D01*
D10*
X20609524Y47187144D02*
X20561904Y47282380D01*
D10*
X20609524Y47044284D02*
X20609524Y47187144D01*
D10*
X20561904Y46949048D02*
X20609524Y47044284D01*
D10*
X20514286Y46901428D02*
X20561904Y46949048D01*
D10*
X20371428Y46853808D02*
X20514286Y46901428D01*
D10*
X20180952Y46853808D02*
X20371428Y46853808D01*
D10*
X20038096Y46901428D02*
X20180952Y46853808D01*
D10*
X19990476Y46949048D02*
X20038096Y46901428D01*
D10*
X19942858Y47044284D02*
X19990476Y46949048D01*
D10*
X19942858Y47187144D02*
X19942858Y47044284D01*
D10*
X19990476Y47282380D02*
X19942858Y47187144D01*
D10*
X20085714Y47377620D02*
X19990476Y47282380D01*
D10*
X20228572Y47425240D02*
X20085714Y47377620D01*
D10*
X20419048Y47472856D02*
X20228572Y47425240D01*
D10*
X20514286Y47520476D02*
X20419048Y47472856D01*
D10*
X20561904Y47615716D02*
X20514286Y47520476D01*
D10*
X20561904Y47710952D02*
X20561904Y47615716D01*
D10*
X20514286Y47806192D02*
X20561904Y47710952D01*
D10*
X20371428Y47853808D02*
X20514286Y47806192D01*
D10*
X20180952Y47853808D02*
X20371428Y47853808D01*
D10*
X21159048Y41562144D02*
X21254286Y41609760D01*
D10*
X21063810Y41466904D02*
X21159048Y41562144D01*
D10*
X21016190Y41371668D02*
X21063810Y41466904D01*
D10*
X21016190Y41181192D02*
X21016190Y41371668D01*
D10*
X21063810Y41085952D02*
X21016190Y41181192D01*
D10*
X21159048Y40990716D02*
X21063810Y41085952D01*
D10*
X21254286Y40943096D02*
X21159048Y40990716D01*
D10*
X21397142Y40895476D02*
X21254286Y40943096D01*
D10*
X21635238Y40895476D02*
X21397142Y40895476D01*
D10*
X21778096Y40943096D02*
X21635238Y40895476D01*
D10*
X21873334Y40990716D02*
X21778096Y40943096D01*
D10*
X21968572Y41085952D02*
X21873334Y40990716D01*
D10*
X22016190Y41181192D02*
X21968572Y41085952D01*
D10*
X22016190Y41371668D02*
X22016190Y41181192D01*
D10*
X21968572Y41466904D02*
X22016190Y41371668D01*
D10*
X21873334Y41562144D02*
X21968572Y41466904D01*
D10*
X21778096Y41609760D02*
X21873334Y41562144D01*
D10*
X21682858Y41895476D02*
X21016190Y42371668D01*
D10*
X21682858Y42609760D02*
X21682858Y41895476D01*
D10*
X22016190Y42371668D02*
X21016190Y42371668D01*
D10*
X40406192Y34275476D02*
X39406192Y34275476D01*
D10*
X39549048Y35275476D02*
X39644284Y35323096D01*
D10*
X39453808Y35180240D02*
X39549048Y35275476D01*
D10*
X39406192Y35085000D02*
X39453808Y35180240D01*
D10*
X39406192Y34894524D02*
X39406192Y35085000D01*
D10*
X39453808Y34799284D02*
X39406192Y34894524D01*
D10*
X39549048Y34704048D02*
X39453808Y34799284D01*
D10*
X39644284Y34656428D02*
X39549048Y34704048D01*
D10*
X39787144Y34608808D02*
X39644284Y34656428D01*
D10*
X40025240Y34608808D02*
X39787144Y34608808D01*
D10*
X40168096Y34656428D02*
X40025240Y34608808D01*
D10*
X40263332Y34704048D02*
X40168096Y34656428D01*
D10*
X40358572Y34799284D02*
X40263332Y34704048D01*
D10*
X40406192Y34894524D02*
X40358572Y34799284D01*
D10*
X40406192Y35085000D02*
X40406192Y34894524D01*
D10*
X40358572Y35180240D02*
X40406192Y35085000D01*
D10*
X40263332Y35275476D02*
X40358572Y35180240D01*
D10*
X40168096Y35323096D02*
X40263332Y35275476D01*
D10*
X39596668Y35656428D02*
X39644284Y35656428D01*
D10*
X39501428Y35704048D02*
X39596668Y35656428D01*
D10*
X39453808Y35751668D02*
X39501428Y35704048D01*
D10*
X39406192Y35846904D02*
X39453808Y35751668D01*
D10*
X39406192Y36037380D02*
X39406192Y35846904D01*
D10*
X39453808Y36132620D02*
X39406192Y36037380D01*
D10*
X39501428Y36180240D02*
X39453808Y36132620D01*
D10*
X39596668Y36227856D02*
X39501428Y36180240D01*
D10*
X39691904Y36227856D02*
X39596668Y36227856D01*
D10*
X39787144Y36180240D02*
X39691904Y36227856D01*
D10*
X39930000Y36085000D02*
X39787144Y36180240D01*
D10*
X40406192Y35608808D02*
X39930000Y36085000D01*
D10*
X40406192Y36275476D02*
X40406192Y35608808D01*
D10*
X30520428Y5051905D02*
X30520428Y5813809D01*
D10*
X30472810Y4909047D02*
X30520428Y5051905D01*
D10*
X30425190Y4861428D02*
X30472810Y4909047D01*
D10*
X30329952Y4813809D02*
X30425190Y4861428D01*
D10*
X30234714Y4813809D02*
X30329952Y4813809D01*
D10*
X30139476Y4861428D02*
X30234714Y4813809D01*
D10*
X30091858Y4909047D02*
X30139476Y4861428D01*
D10*
X30044238Y5051905D02*
X30091858Y4909047D01*
D10*
X30044238Y5147143D02*
X30044238Y5051905D01*
D10*
X31091858Y5670952D02*
X30996620Y5623333D01*
D10*
X31234714Y5813809D02*
X31091858Y5670952D01*
D10*
X31234714Y4813809D02*
X31234714Y5813809D01*
D10*
X35385716Y41653808D02*
X35385716Y42653808D01*
D10*
X35814284Y42653808D02*
X35385716Y42653808D01*
D10*
X35957144Y42606192D02*
X35814284Y42653808D01*
D10*
X36004760Y42558572D02*
X35957144Y42606192D01*
D10*
X36052380Y42463332D02*
X36004760Y42558572D01*
D10*
X36052380Y42368096D02*
X36052380Y42463332D01*
D10*
X36004760Y42272856D02*
X36052380Y42368096D01*
D10*
X35957144Y42225240D02*
X36004760Y42272856D01*
D10*
X35814284Y42177620D02*
X35957144Y42225240D01*
D10*
X35385716Y42177620D02*
X35814284Y42177620D01*
D10*
X36052380Y41653808D02*
X35719048Y42177620D01*
D10*
X36576192Y42510952D02*
X36480952Y42463332D01*
D10*
X36719048Y42653808D02*
X36576192Y42510952D01*
D10*
X36719048Y41653808D02*
X36719048Y42653808D01*
D10*
X37385716Y42653808D02*
X37861904Y42653808D01*
D10*
X37338096Y42225240D02*
X37385716Y42653808D01*
D10*
X37385716Y42272856D02*
X37338096Y42225240D01*
D10*
X37528572Y42320476D02*
X37385716Y42272856D01*
D10*
X37671428Y42320476D02*
X37528572Y42320476D01*
D10*
X37814284Y42272856D02*
X37671428Y42320476D01*
D10*
X37909524Y42177620D02*
X37814284Y42272856D01*
D10*
X37957144Y42034760D02*
X37909524Y42177620D01*
D10*
X37957144Y41939524D02*
X37957144Y42034760D01*
D10*
X37909524Y41796668D02*
X37957144Y41939524D01*
D10*
X37814284Y41701428D02*
X37909524Y41796668D01*
D10*
X37671428Y41653808D02*
X37814284Y41701428D01*
D10*
X37528572Y41653808D02*
X37671428Y41653808D01*
D10*
X37385716Y41701428D02*
X37528572Y41653808D01*
D10*
X37338096Y41749048D02*
X37385716Y41701428D01*
D10*
X37290476Y41844284D02*
X37338096Y41749048D01*
D10*
X44631192Y40011716D02*
X43631192Y40011716D01*
D10*
X43631192Y40440284D02*
X43631192Y40011716D01*
D10*
X43678808Y40583144D02*
X43631192Y40440284D01*
D10*
X43726428Y40630760D02*
X43678808Y40583144D01*
D10*
X43821668Y40678380D02*
X43726428Y40630760D01*
D10*
X43916904Y40678380D02*
X43821668Y40678380D01*
D10*
X44012144Y40630760D02*
X43916904Y40678380D01*
D10*
X44059760Y40583144D02*
X44012144Y40630760D01*
D10*
X44107380Y40440284D02*
X44059760Y40583144D01*
D10*
X44107380Y40011716D02*
X44107380Y40440284D01*
D10*
X44631192Y40678380D02*
X44107380Y40345048D01*
D10*
X43774048Y41202192D02*
X43821668Y41106952D01*
D10*
X43631192Y41345048D02*
X43774048Y41202192D01*
D10*
X44631192Y41345048D02*
X43631192Y41345048D01*
D10*
X44297856Y41916476D02*
X43631192Y42392668D01*
D10*
X44297856Y42630760D02*
X44297856Y41916476D01*
D10*
X44631192Y42392668D02*
X43631192Y42392668D01*
D10*
X17239524Y39685952D02*
X17287142Y39590716D01*
D10*
X17144286Y39781192D02*
X17239524Y39685952D01*
D10*
X17049048Y39828808D02*
X17144286Y39781192D01*
D10*
X16858572Y39828808D02*
X17049048Y39828808D01*
D10*
X16763333Y39781192D02*
X16858572Y39828808D01*
D10*
X16668095Y39685952D02*
X16763333Y39781192D01*
D10*
X16620476Y39590716D02*
X16668095Y39685952D01*
D10*
X16572857Y39447856D02*
X16620476Y39590716D01*
D10*
X16572857Y39209760D02*
X16572857Y39447856D01*
D10*
X16620476Y39066904D02*
X16572857Y39209760D01*
D10*
X16668095Y38971668D02*
X16620476Y39066904D01*
D10*
X16763333Y38876428D02*
X16668095Y38971668D01*
D10*
X16858572Y38828808D02*
X16763333Y38876428D01*
D10*
X17049048Y38828808D02*
X16858572Y38828808D01*
D10*
X17144286Y38876428D02*
X17049048Y38828808D01*
D10*
X17239524Y38971668D02*
X17144286Y38876428D01*
D10*
X17287142Y39066904D02*
X17239524Y38971668D01*
D10*
X18191904Y39828808D02*
X17668096Y39828808D01*
D10*
X17906190Y39447856D02*
X18191904Y39828808D01*
D10*
X18049048Y39447856D02*
X17906190Y39447856D01*
D10*
X18144286Y39400240D02*
X18049048Y39447856D01*
D10*
X18191904Y39352620D02*
X18144286Y39400240D01*
D10*
X18239524Y39209760D02*
X18191904Y39352620D01*
D10*
X18239524Y39114524D02*
X18239524Y39209760D01*
D10*
X18191904Y38971668D02*
X18239524Y39114524D01*
D10*
X18096666Y38876428D02*
X18191904Y38971668D01*
D10*
X17953810Y38828808D02*
X18096666Y38876428D01*
D10*
X17810952Y38828808D02*
X17953810Y38828808D01*
D10*
X17668096Y38876428D02*
X17810952Y38828808D01*
D10*
X17620476Y38924048D02*
X17668096Y38876428D01*
D10*
X17572858Y39019284D02*
X17620476Y38924048D01*
D11*
X40115000Y40700000D02*
X39685000Y40700000D01*
D11*
X40115000Y39800000D02*
X39685000Y39800000D01*
D11*
X21155000Y51550000D02*
X20725000Y51550000D01*
D11*
X21155000Y50650000D02*
X20725000Y50650000D01*
D11*
X47370000Y32580000D02*
X47800000Y32580000D01*
D11*
X47370000Y31680000D02*
X47800000Y31680000D01*
D11*
X11170000Y44785000D02*
X11170000Y45215000D01*
D11*
X12070000Y44785000D02*
X12070000Y45215000D01*
D11*
X8165000Y41735000D02*
X7735000Y41735000D01*
D11*
X8165000Y42635000D02*
X7735000Y42635000D01*
D11*
X37510000Y26450002D02*
X37940000Y26450002D01*
D11*
X37510000Y25550002D02*
X37940000Y25550002D01*
D11*
X42555000Y55730000D02*
X42985000Y55730000D01*
D11*
X42555000Y54830000D02*
X42985000Y54830000D01*
D11*
X42425000Y37315000D02*
X42240000Y37315000D01*
D11*
X39700000Y33285000D02*
X40100000Y33285000D01*
D11*
X38430000Y37315000D02*
X38830000Y37315000D01*
D11*
X42425000Y33285000D02*
X42240000Y33285000D01*
D11*
X37375000Y33285000D02*
X37560000Y33285000D01*
D11*
X37375000Y33285000D02*
X37375000Y37315000D01*
D11*
X41370000Y37315000D02*
X40970000Y37315000D01*
D12*
X37270000Y31952500D02*
X37270000Y32902500D01*
D11*
X41370000Y33285000D02*
X40970000Y33285000D01*
D11*
X38430000Y33285000D02*
X38830000Y33285000D01*
D11*
X39700000Y37315000D02*
X40100000Y37315000D01*
D11*
X42425000Y37315000D02*
X42425000Y33285000D01*
D11*
X37375000Y37315000D02*
X37560000Y37315000D01*
D11*
X43600000Y31945000D02*
X43600000Y30315000D01*
D11*
X45250000Y31945000D02*
X45250000Y30315000D01*
D11*
X16885000Y47780000D02*
X17315000Y47780000D01*
D11*
X16885000Y46880000D02*
X17315000Y46880000D01*
D11*
X33450000Y32955001D02*
X34027500Y32955001D01*
D11*
X35240000Y31742501D02*
X35240000Y27605001D01*
D11*
X31102500Y32955001D02*
X31680000Y32955001D01*
D11*
X29890000Y27605001D02*
X31680000Y27605001D01*
D11*
X31102500Y32955001D02*
X29890000Y31742501D01*
D11*
X34027500Y32955001D02*
X35240000Y31742501D01*
D11*
X29890000Y31742501D02*
X29890000Y27605001D01*
D11*
X35240000Y27605001D02*
X33450000Y27605001D01*
D11*
X41220000Y30810000D02*
X40790000Y30810000D01*
D11*
X41220000Y29910000D02*
X40790000Y29910000D01*
D11*
X24587500Y18125000D02*
X29725000Y18125000D01*
D11*
X29725000Y11475000D02*
X29725000Y13865000D01*
D11*
X29725000Y18125000D02*
X29725000Y15735000D01*
D11*
X23075000Y16612500D02*
X24587500Y18125000D01*
D11*
X24587500Y11475000D02*
X23075000Y12987500D01*
D11*
X23075000Y12987500D02*
X23075000Y13865000D01*
D11*
X29725000Y11475000D02*
X24587500Y11475000D01*
D11*
X23075000Y16612500D02*
X23075000Y15735000D01*
D11*
X6305000Y39295000D02*
X6305000Y39725000D01*
D11*
X7205000Y39295000D02*
X7205000Y39725000D01*
D11*
X7400000Y44785000D02*
X7400000Y45215000D01*
D11*
X8300000Y44785000D02*
X8300000Y45215000D01*
D11*
X41350000Y52385000D02*
X41350000Y52815000D01*
D11*
X42250000Y52385000D02*
X42250000Y52815000D01*
D11*
X16935000Y54005000D02*
X17565000Y54005000D01*
D11*
X16935000Y52655000D02*
X17565000Y52655000D01*
D11*
X17315000Y50650000D02*
X16885000Y50650000D01*
D11*
X17315000Y51550000D02*
X16885000Y51550000D01*
D11*
X43085000Y48965000D02*
X42455000Y48965000D01*
D11*
X43085000Y50315000D02*
X42455000Y50315000D01*
D11*
X21090000Y44620000D02*
X21090000Y44190000D01*
D11*
X21990000Y44620000D02*
X21990000Y44190000D01*
D11*
X42485000Y56885000D02*
X44115000Y56885000D01*
D11*
X42485000Y58535000D02*
X44115000Y58535000D01*
D11*
X14515000Y38855000D02*
X14945000Y38855000D01*
D11*
X14515000Y39755000D02*
X14945000Y39755000D01*
D11*
X18615000Y40775000D02*
X18615000Y40960000D01*
D11*
X14585000Y43500000D02*
X14585000Y43100000D01*
D11*
X18615000Y44770000D02*
X18615000Y44370000D01*
D11*
X14585000Y40775000D02*
X14585000Y40960000D01*
D11*
X14585000Y45825000D02*
X14585000Y45640000D01*
D11*
X14585000Y45825000D02*
X18615000Y45825000D01*
D11*
X18615000Y41830000D02*
X18615000Y42230000D01*
D12*
X13252500Y45930000D02*
X14202500Y45930000D01*
D11*
X14585000Y41830000D02*
X14585000Y42230000D01*
D11*
X14585000Y44770000D02*
X14585000Y44370000D01*
D11*
X18615000Y43500000D02*
X18615000Y43100000D01*
D11*
X18615000Y40775000D02*
X14585000Y40775000D01*
D11*
X18615000Y45825000D02*
X18615000Y45640000D01*
D11*
X49755000Y365000D02*
X49755000Y7415000D01*
D11*
X57205000Y365000D02*
X57205000Y7415000D01*
D11*
X53755000Y7415000D02*
X53205000Y7415000D01*
D11*
X57205000Y7415000D02*
X55705000Y7415000D01*
D11*
X57205000Y365000D02*
X49755000Y365000D01*
D11*
X49755000Y7415000D02*
X51255000Y7415000D01*
D11*
X10285000Y41500000D02*
X10285000Y39870000D01*
D11*
X11935000Y41500000D02*
X11935000Y39870000D01*
D11*
X43010000Y41545000D02*
X43010000Y41115000D01*
D11*
X42110000Y41545000D02*
X42110000Y41115000D01*
D11*
X43280000Y52385000D02*
X43280000Y52815000D01*
D11*
X44180000Y52385000D02*
X44180000Y52815000D01*
D11*
X17774000Y6665000D02*
X45226000Y6665000D01*
D11*
X45226000Y6665000D02*
X45226000Y865000D01*
D11*
X45226000Y865000D02*
X40699000Y865000D01*
D11*
X17774000Y865000D02*
X22299000Y865000D01*
D11*
X23099000Y865000D02*
X39899000Y865000D01*
D11*
X17774000Y865000D02*
X17774000Y6665000D01*
D11*
X17315000Y49670000D02*
X16885000Y49670000D01*
D11*
X17315000Y48770000D02*
X16885000Y48770000D01*
D11*
X20745000Y53780000D02*
X21175000Y53780000D01*
D11*
X20745000Y52880000D02*
X21175000Y52880000D01*
D11*
X35455000Y37385000D02*
X35455000Y36955000D01*
D11*
X36355000Y37385000D02*
X36355000Y36955000D01*
D11*
X26215000Y10025000D02*
X24585000Y10025000D01*
D11*
X26215000Y8375000D02*
X24585000Y8375000D01*
D11*
X36715000Y10025000D02*
X35085000Y10025000D01*
D11*
X36715000Y8375000D02*
X35085000Y8375000D01*
D11*
X35087500Y18125000D02*
X40225000Y18125000D01*
D11*
X40225000Y11475000D02*
X40225000Y13865000D01*
D11*
X40225000Y18125000D02*
X40225000Y15735000D01*
D11*
X33575000Y16612500D02*
X35087500Y18125000D01*
D11*
X35087500Y11475000D02*
X33575000Y12987500D01*
D11*
X33575000Y12987500D02*
X33575000Y13865000D01*
D11*
X40225000Y11475000D02*
X35087500Y11475000D01*
D11*
X33575000Y16612500D02*
X33575000Y15735000D01*
D11*
X8235000Y39295000D02*
X8235000Y39725000D01*
D11*
X9135000Y39295000D02*
X9135000Y39725000D01*
D11*
X37510000Y28380002D02*
X37940000Y28380002D01*
D11*
X37510000Y27480002D02*
X37940000Y27480002D01*
D11*
X47820000Y29680000D02*
X47390000Y29680000D01*
D11*
X47820000Y30580000D02*
X47390000Y30580000D01*
D11*
X10190000Y44785000D02*
X10190000Y45215000D01*
D11*
X9290000Y44785000D02*
X9290000Y45215000D01*
D11*
X40115000Y41680000D02*
X39685000Y41680000D01*
D11*
X40115000Y42580000D02*
X39685000Y42580000D01*
D11*
X5755000Y365000D02*
X5755000Y7415000D01*
D11*
X13205000Y365000D02*
X13205000Y7415000D01*
D11*
X9755000Y7415000D02*
X9205000Y7415000D01*
D11*
X13205000Y7415000D02*
X11705000Y7415000D01*
D11*
X13205000Y365000D02*
X5755000Y365000D01*
D11*
X5755000Y7415000D02*
X7255000Y7415000D01*
D11*
X8437500Y54155000D02*
X13675000Y54155000D01*
D11*
X7025000Y52742500D02*
X8437500Y54155000D01*
D11*
X13675000Y47505000D02*
X13675000Y49895000D01*
D11*
X13675000Y54155000D02*
X13675000Y51765000D01*
D11*
X7025000Y52742500D02*
X7025000Y51765000D01*
D11*
X8437500Y47505000D02*
X7025000Y48917500D01*
D11*
X13675000Y47505000D02*
X8437500Y47505000D01*
D11*
X7025000Y48917500D02*
X7025000Y49895000D01*
D13*
X7546000Y9395000D02*
X7546000Y12018000D01*
D13*
X10061000Y13751000D02*
X9986000Y13009000D01*
D13*
X5022000Y14118000D02*
X4495000Y14422000D01*
D13*
X5888000Y15231000D02*
X7673000Y15231000D01*
D13*
X1572000Y13771000D02*
X1572000Y13736000D01*
D13*
X2771000Y14493000D02*
X2985000Y15184000D01*
D13*
X4495000Y14422000D02*
X4425000Y14422000D01*
D13*
X5667000Y11259000D02*
X5752000Y11224000D01*
D13*
X7546000Y9395000D02*
X7546000Y9395000D01*
D13*
X3774000Y16355000D02*
X4945000Y17144000D01*
D13*
X7120000Y10143000D02*
X6378000Y10068000D01*
D13*
X2771000Y13009000D02*
X2696000Y13751000D01*
D13*
X2985000Y12317000D02*
X2771000Y13009000D01*
D13*
X5632000Y13766000D02*
X5022000Y14118000D01*
D13*
X4391000Y13495000D02*
X4391000Y13145000D01*
D13*
X5636000Y17358000D02*
X6378000Y17433000D01*
D13*
X2696000Y13751000D02*
X2771000Y14493000D01*
D13*
X5852000Y16247000D02*
X5767000Y16282000D01*
D13*
X5888000Y16162000D02*
X5852000Y16247000D01*
D13*
X7546000Y15485000D02*
X5888000Y15485000D01*
D13*
X5888000Y12272000D02*
X5888000Y15231000D01*
D13*
X7758000Y15266000D02*
X7793000Y15352000D01*
D13*
X7793000Y15352000D02*
X7793000Y18108000D01*
D13*
X5632000Y16162000D02*
X5632000Y16161000D01*
D13*
X5752000Y16282000D02*
X5667000Y16247000D01*
D13*
X4391000Y13145000D02*
X4425000Y13085000D01*
D13*
X7793000Y18108000D02*
X7758000Y18193000D01*
D13*
X8982000Y11147000D02*
X7812000Y10358000D01*
D13*
X3774000Y11147000D02*
X2985000Y12317000D01*
D13*
X8982000Y16355000D02*
X9771000Y15184000D01*
D13*
X9771000Y15184000D02*
X9986000Y14493000D01*
D13*
X7546000Y12018000D02*
X5888000Y12018000D01*
D13*
X5767000Y16282000D02*
X5752000Y16282000D01*
D13*
X1693000Y13616000D02*
X4270000Y13616000D01*
D13*
X2985000Y15184000D02*
X3774000Y16355000D01*
D13*
X1608000Y13856000D02*
X1572000Y13771000D01*
D13*
X4945000Y10358000D02*
X3774000Y11147000D01*
D13*
X7812000Y10358000D02*
X7120000Y10143000D01*
D13*
X7120000Y17358000D02*
X7812000Y17144000D01*
D13*
X5636000Y10143000D02*
X4945000Y10358000D01*
D13*
X5852000Y11259000D02*
X5888000Y11345000D01*
D13*
X5632000Y16161000D02*
X5632000Y13766000D01*
D13*
X7581000Y18193000D02*
X7546000Y18108000D01*
D13*
X7673000Y15231000D02*
X7758000Y15266000D01*
D13*
X7812000Y17144000D02*
X8982000Y16355000D01*
D13*
X5022000Y13389000D02*
X5632000Y13741000D01*
D13*
X5667000Y16247000D02*
X5632000Y16162000D01*
D13*
X4425000Y13085000D02*
X4495000Y13085000D01*
D13*
X7666000Y18228000D02*
X7581000Y18193000D01*
D13*
X1572000Y13736000D02*
X1608000Y13651000D01*
D13*
X4391000Y14012000D02*
X4355000Y13926000D01*
D13*
X7793000Y12151000D02*
X7793000Y9395000D01*
D13*
X5767000Y11224000D02*
X5852000Y11259000D01*
D13*
X7546000Y18108000D02*
X7546000Y18108000D01*
D13*
X7758000Y9310000D02*
X7673000Y9275000D01*
D13*
X5752000Y11224000D02*
X5767000Y11224000D01*
D13*
X4355000Y13581000D02*
X4391000Y13495000D01*
D13*
X7673000Y18228000D02*
X7666000Y18228000D01*
D13*
X9771000Y12317000D02*
X8982000Y11147000D01*
D13*
X7581000Y9310000D02*
X7546000Y9395000D01*
D13*
X10061000Y13751000D02*
X10061000Y13751000D01*
D13*
X4355000Y13926000D02*
X4270000Y13891000D01*
D13*
X7673000Y9275000D02*
X7666000Y9275000D01*
D13*
X4425000Y14422000D02*
X4391000Y14362000D01*
D13*
X4270000Y13891000D02*
X1693000Y13891000D01*
D13*
X5888000Y12272000D02*
X7673000Y12272000D01*
D13*
X5632000Y11345000D02*
X5667000Y11259000D01*
D13*
X1693000Y13891000D02*
X1608000Y13856000D01*
D13*
X7546000Y18108000D02*
X7546000Y15485000D01*
D13*
X9986000Y14493000D02*
X10061000Y13751000D01*
D13*
X5888000Y11345000D02*
X5888000Y12018000D01*
D13*
X4391000Y14362000D02*
X4391000Y14012000D01*
D13*
X7673000Y12272000D02*
X7758000Y12237000D01*
D13*
X5632000Y13741000D02*
X5632000Y11345000D01*
D13*
X7758000Y18193000D02*
X7673000Y18228000D01*
D13*
X4270000Y13616000D02*
X4355000Y13581000D01*
D13*
X6378000Y10068000D02*
X5636000Y10143000D01*
D13*
X9986000Y13009000D02*
X9771000Y12317000D01*
D13*
X6378000Y17433000D02*
X7120000Y17358000D01*
D13*
X1608000Y13651000D02*
X1693000Y13616000D01*
D13*
X5888000Y16162000D02*
X5888000Y15485000D01*
D13*
X7666000Y9275000D02*
X7581000Y9310000D01*
D13*
X7758000Y12237000D02*
X7793000Y12151000D01*
D13*
X4495000Y13085000D02*
X5022000Y13389000D01*
D13*
X4945000Y17144000D02*
X5636000Y17358000D01*
D13*
X7793000Y9395000D02*
X7758000Y9310000D01*
D13*
X56777000Y13148000D02*
X56902000Y13409000D01*
D13*
X60722000Y12434000D02*
X60768000Y12492000D01*
D13*
X59468000Y14235000D02*
X59602000Y14317000D01*
D13*
X57214000Y14487000D02*
X57532000Y14259000D01*
D13*
X56838000Y12978000D02*
X56381000Y12883000D01*
D13*
X56808000Y12332000D02*
X56948000Y12081000D01*
D13*
X56897000Y11836000D02*
X56801000Y12087000D01*
D13*
X58033000Y13257000D02*
X58518000Y13431000D01*
D13*
X58786000Y11999000D02*
X58835000Y12059000D01*
D13*
X57343000Y10907000D02*
X57082000Y10749000D01*
D13*
X58756000Y15032000D02*
X58835000Y15015000D01*
D13*
X56948000Y12081000D02*
X57062000Y11810000D01*
D13*
X56323000Y12437000D02*
X56627000Y12364000D01*
D13*
X56614000Y12219000D02*
X56449000Y12251000D01*
D13*
X58518000Y13431000D02*
X58997000Y13272000D01*
D13*
X57152000Y14347000D02*
X57106000Y14374000D01*
D13*
X56381000Y12883000D02*
X56287000Y12846000D01*
D13*
X59475000Y11200000D02*
X59741000Y11055000D01*
D13*
X57089000Y10918000D02*
X57130000Y10941000D01*
D13*
X59010000Y11803000D02*
X59282000Y11167000D01*
D13*
X58956000Y11946000D02*
X59010000Y11803000D01*
D13*
X56962000Y13553000D02*
X56861000Y13714000D01*
D13*
X57331000Y14224000D02*
X57152000Y14347000D01*
D13*
X58242000Y14559000D02*
X58220000Y14456000D01*
D13*
X56143000Y12973000D02*
X56208000Y12993000D01*
D13*
X60163000Y12297000D02*
X60242000Y12323000D01*
D13*
X60184000Y13320000D02*
X60338000Y13097000D01*
D13*
X59966000Y11751000D02*
X60045000Y11945000D01*
D13*
X59289000Y12462000D02*
X59027000Y12023000D01*
D13*
X58264000Y14675000D02*
X58242000Y14559000D01*
D13*
X58802000Y14564000D02*
X58701000Y14881000D01*
D13*
X59027000Y12023000D02*
X58956000Y11946000D01*
D13*
X57891000Y12507000D02*
X58076000Y12181000D01*
D13*
X58076000Y14476000D02*
X58143000Y14794000D01*
D13*
X59330000Y14084000D02*
X59113000Y14177000D01*
D13*
X60354000Y11338000D02*
X60430000Y11189000D01*
D13*
X59271000Y14264000D02*
X59418000Y14210000D01*
D13*
X58143000Y14794000D02*
X58200000Y15025000D01*
D13*
X57092000Y11684000D02*
X56962000Y11478000D01*
D13*
X59280000Y12854000D02*
X59289000Y12462000D01*
D13*
X60142000Y11811000D02*
X60129000Y11698000D01*
D13*
X56801000Y11207000D02*
X56945000Y11059000D01*
D13*
X60201000Y14124000D02*
X59968000Y14361000D01*
D13*
X59943000Y11688000D02*
X59966000Y11751000D01*
D13*
X59992000Y14546000D02*
X60171000Y14384000D01*
D13*
X60891000Y12971000D02*
X60916000Y12958000D01*
D13*
X60916000Y12958000D02*
X60915000Y12704000D01*
D13*
X58997000Y13272000D02*
X59280000Y12854000D01*
D13*
X59553000Y11013000D02*
X59527000Y11033000D01*
D13*
X59527000Y11033000D02*
X59365000Y11012000D01*
D13*
X59817000Y14464000D02*
X59992000Y14546000D01*
D13*
X59372000Y11179000D02*
X59475000Y11200000D01*
D13*
X57708000Y10997000D02*
X57619000Y11045000D01*
D13*
X59991000Y10751000D02*
X59926000Y10766000D01*
D13*
X56682000Y13976000D02*
X56609000Y14088000D01*
D13*
X56711000Y12198000D02*
X56614000Y12219000D01*
D13*
X57082000Y10749000D02*
X56982000Y10816000D01*
D13*
X57326000Y11069000D02*
X57511000Y11197000D01*
D13*
X60129000Y11698000D02*
X60354000Y11338000D01*
D13*
X58000000Y11711000D02*
X58074000Y11914000D01*
D13*
X60144000Y11091000D02*
X60237000Y11198000D01*
D13*
X60350000Y11090000D02*
X60235000Y10963000D01*
D13*
X56632000Y14120000D02*
X56796000Y14291000D01*
D13*
X58243000Y11941000D02*
X57913000Y11126000D01*
D13*
X60768000Y12492000D02*
X60753000Y12846000D01*
D13*
X56756000Y11039000D02*
X56610000Y11188000D01*
D13*
X58167000Y13191000D02*
X57929000Y12891000D01*
D13*
X57744000Y14252000D02*
X57992000Y14357000D01*
D13*
X57662000Y11187000D02*
X57744000Y11152000D01*
D13*
X58088000Y14243000D02*
X57876000Y14151000D01*
D13*
X56982000Y10816000D02*
X56982000Y10816000D01*
D13*
X57532000Y14259000D02*
X57744000Y14252000D01*
D13*
X56989000Y13777000D02*
X57113000Y13579000D01*
D13*
X60430000Y14090000D02*
X60244000Y13796000D01*
D13*
X56902000Y13409000D02*
X56962000Y13553000D01*
D13*
X58315000Y14876000D02*
X58264000Y14675000D01*
D13*
X56945000Y11059000D02*
X57089000Y10918000D01*
D13*
X60235000Y10963000D02*
X59991000Y10751000D01*
D13*
X58088000Y11950000D02*
X58050000Y11993000D01*
D13*
X60903000Y12321000D02*
X60840000Y12301000D01*
D13*
X60240000Y14070000D02*
X60201000Y14124000D01*
D13*
X60915000Y12704000D02*
X60908000Y12385000D01*
D13*
X57739000Y12637000D02*
X57813000Y12983000D01*
D13*
X58263000Y12004000D02*
X58243000Y11941000D01*
D13*
X60420000Y12932000D02*
X60217000Y12974000D01*
D13*
X59113000Y14177000D02*
X58879000Y14288000D01*
D13*
X56144000Y12324000D02*
X56138000Y12611000D01*
D13*
X58200000Y15025000D02*
X58756000Y15032000D01*
D13*
X60338000Y13097000D02*
X60629000Y13036000D01*
D13*
X57954000Y12100000D02*
X57739000Y12637000D01*
D13*
X56801000Y12087000D02*
X56711000Y12198000D01*
D13*
X56138000Y12611000D02*
X56138000Y12935000D01*
D13*
X60204000Y11975000D02*
X60142000Y11811000D01*
D13*
X56957000Y14458000D02*
X57080000Y14542000D01*
D13*
X58638000Y13278000D02*
X58167000Y13191000D01*
D13*
X56944000Y13163000D02*
X56838000Y12978000D01*
D13*
X57062000Y11810000D02*
X57108000Y11716000D01*
D13*
X57511000Y11197000D02*
X57662000Y11187000D01*
D13*
X60133000Y13437000D02*
X60184000Y13320000D01*
D13*
X56624000Y11220000D02*
X56858000Y11576000D01*
D13*
X60105000Y13540000D02*
X60133000Y13437000D01*
D13*
X59950000Y10935000D02*
X60144000Y11091000D01*
D13*
X58879000Y14288000D02*
X58802000Y14564000D01*
D13*
X60045000Y11945000D02*
X60157000Y12261000D01*
D13*
X57326000Y11069000D02*
X57326000Y11069000D01*
D13*
X57619000Y11045000D02*
X57535000Y11031000D01*
D13*
X59282000Y11167000D02*
X59372000Y11179000D01*
D13*
X60079000Y13223000D02*
X59976000Y13447000D01*
D13*
X59088000Y12971000D02*
X58638000Y13278000D01*
D13*
X60434000Y12368000D02*
X60722000Y12434000D01*
D13*
X59418000Y14210000D02*
X59468000Y14235000D01*
D13*
X60171000Y14384000D02*
X60430000Y14090000D01*
D13*
X57060000Y14345000D02*
X56862000Y14161000D01*
D13*
X60237000Y11198000D02*
X60058000Y11518000D01*
D13*
X60217000Y14027000D02*
X60240000Y14070000D01*
D13*
X59602000Y14317000D02*
X59717000Y14390000D01*
D13*
X59050000Y11323000D02*
X58865000Y11769000D01*
D13*
X60908000Y12385000D02*
X60903000Y12321000D01*
D13*
X59945000Y13594000D02*
X60080000Y13811000D01*
D13*
X57108000Y11716000D02*
X57092000Y11684000D01*
D13*
X60649000Y12259000D02*
X60298000Y12189000D01*
D13*
X56449000Y12251000D02*
X56189000Y12308000D01*
D13*
X57876000Y14151000D02*
X57610000Y14056000D01*
D13*
X56796000Y14291000D02*
X56957000Y14458000D01*
D13*
X56861000Y13714000D02*
X56682000Y13976000D01*
D13*
X56609000Y14088000D02*
X56632000Y14120000D01*
D13*
X60242000Y12323000D02*
X60434000Y12368000D01*
D13*
X60298000Y12189000D02*
X60204000Y11975000D01*
D13*
X56800000Y14088000D02*
X56832000Y14024000D01*
D13*
X56208000Y12993000D02*
X56404000Y13036000D01*
D13*
X58074000Y11914000D02*
X58088000Y11950000D01*
D13*
X56962000Y11478000D02*
X56801000Y11207000D01*
D13*
X56404000Y13036000D02*
X56777000Y13148000D01*
D13*
X60058000Y11518000D02*
X59943000Y11688000D01*
D13*
X57873000Y11024000D02*
X57708000Y10997000D01*
D13*
X57080000Y14542000D02*
X57214000Y14487000D01*
D13*
X59976000Y13447000D02*
X59924000Y13550000D01*
D13*
X57813000Y12983000D02*
X58033000Y13257000D01*
D13*
X59128000Y12409000D02*
X59088000Y12971000D01*
D13*
X59780000Y14263000D02*
X59472000Y14064000D01*
D13*
X58701000Y14881000D02*
X58315000Y14876000D01*
D13*
X56138000Y12935000D02*
X56143000Y12973000D01*
D13*
X56982000Y10816000D02*
X56756000Y11039000D01*
D13*
X56189000Y12308000D02*
X56144000Y12324000D01*
D13*
X57744000Y11152000D02*
X58000000Y11711000D01*
D13*
X57610000Y14056000D02*
X57331000Y14224000D01*
D13*
X58835000Y12059000D02*
X59128000Y12409000D01*
D13*
X59968000Y14361000D02*
X59780000Y14263000D01*
D13*
X57113000Y13579000D02*
X56944000Y13163000D01*
D13*
X58954000Y14547000D02*
X59000000Y14387000D01*
D13*
X58050000Y14392000D02*
X58076000Y14476000D01*
D13*
X56287000Y12846000D02*
X56280000Y12507000D01*
D13*
X56610000Y11188000D02*
X56624000Y11220000D01*
D13*
X59214000Y10979000D02*
X59050000Y11323000D01*
D13*
X58050000Y11993000D02*
X57954000Y12100000D01*
D13*
X58835000Y15015000D02*
X58954000Y14547000D01*
D13*
X59717000Y14390000D02*
X59817000Y14464000D01*
D13*
X60157000Y12261000D02*
X60163000Y12297000D01*
D13*
X59741000Y11055000D02*
X59950000Y10935000D01*
D13*
X57106000Y14374000D02*
X57060000Y14345000D01*
D13*
X57929000Y12891000D02*
X57891000Y12507000D01*
D13*
X56862000Y14161000D02*
X56800000Y14088000D01*
D13*
X59924000Y13550000D02*
X59945000Y13594000D01*
D13*
X59472000Y14064000D02*
X59423000Y14040000D01*
D13*
X59423000Y14040000D02*
X59330000Y14084000D01*
D13*
X56858000Y11576000D02*
X56897000Y11836000D01*
D13*
X57535000Y11031000D02*
X57343000Y10907000D01*
D13*
X60080000Y13811000D02*
X60217000Y14027000D01*
D13*
X59365000Y11012000D02*
X59214000Y10979000D01*
D13*
X58076000Y12181000D02*
X58206000Y12058000D01*
D13*
X59000000Y14387000D02*
X59271000Y14264000D01*
D13*
X60430000Y11189000D02*
X60350000Y11090000D01*
D13*
X60753000Y12846000D02*
X60420000Y12932000D01*
D13*
X57130000Y10941000D02*
X57326000Y11069000D01*
D13*
X56280000Y12507000D02*
X56323000Y12437000D01*
D13*
X60840000Y12301000D02*
X60649000Y12259000D01*
D13*
X58220000Y14456000D02*
X58088000Y14243000D01*
D13*
X60244000Y13796000D02*
X60105000Y13540000D01*
D13*
X60217000Y12974000D02*
X60079000Y13223000D01*
D13*
X58206000Y12058000D02*
X58263000Y12004000D01*
D13*
X60629000Y13036000D02*
X60891000Y12971000D01*
D13*
X57992000Y14357000D02*
X58050000Y14392000D01*
D13*
X57913000Y11126000D02*
X57873000Y11024000D01*
D13*
X56627000Y12364000D02*
X56808000Y12332000D01*
D13*
X59926000Y10766000D02*
X59553000Y11013000D01*
D13*
X58865000Y11769000D02*
X58786000Y11999000D01*
D13*
X56832000Y14024000D02*
X56989000Y13777000D01*
D13*
X56446000Y17362000D02*
X56434000Y17172000D01*
D13*
X56239000Y16807000D02*
X56182000Y16821000D01*
D13*
X59367000Y16348000D02*
X59356000Y16626000D01*
D13*
X57703000Y17466000D02*
X57691000Y17702000D01*
D13*
X56434000Y17172000D02*
X56438000Y17069000D01*
D13*
X60916000Y18668000D02*
X60905000Y18514000D01*
D13*
X58938000Y17381000D02*
X58985000Y17349000D01*
D13*
X58597000Y17420000D02*
X58743000Y17433000D01*
D13*
X58672000Y17072000D02*
X58664000Y17126000D01*
D13*
X59356000Y16626000D02*
X59334000Y16974000D01*
D13*
X58582000Y17185000D02*
X58497000Y17180000D01*
D13*
X56378000Y16369000D02*
X56417000Y16339000D01*
D13*
X58953000Y16221000D02*
X58927000Y16180000D01*
D13*
X58075000Y16395000D02*
X58059000Y16188000D01*
D13*
X56298000Y16383000D02*
X56378000Y16369000D01*
D13*
X58835000Y16125000D02*
X58742000Y16101000D01*
D13*
X59722000Y18189000D02*
X59718000Y18030000D01*
D13*
X58381000Y17360000D02*
X58412000Y17391000D01*
D13*
X59743000Y18578000D02*
X59786000Y18488000D01*
D13*
X56987000Y16853000D02*
X56973000Y16872000D01*
D13*
X58510000Y18491000D02*
X58660000Y18504000D01*
D13*
X59534000Y18609000D02*
X59648000Y18615000D01*
D13*
X58640000Y16284000D02*
X58650000Y16385000D01*
D13*
X56907000Y16101000D02*
X56947000Y16109000D01*
D13*
X60928000Y17180000D02*
X60942000Y16896000D01*
D13*
X56169000Y15821000D02*
X56144000Y15829000D01*
D13*
X58594000Y18392000D02*
X58573000Y18405000D01*
D13*
X60546000Y18224000D02*
X60552000Y18684000D01*
D13*
X56115000Y18178000D02*
X56145000Y18211000D01*
D13*
X56438000Y17069000D02*
X56450000Y17026000D01*
D13*
X57967000Y16005000D02*
X57817000Y15995000D01*
D13*
X57756000Y18391000D02*
X57802000Y18412000D01*
D13*
X58872000Y17420000D02*
X58938000Y17381000D01*
D13*
X57802000Y18412000D02*
X57865000Y18428000D01*
D13*
X58968000Y18476000D02*
X58974000Y18428000D01*
D13*
X56452000Y18070000D02*
X56456000Y17708000D01*
D13*
X58573000Y18405000D02*
X58531000Y18416000D01*
D13*
X58742000Y16101000D02*
X58589000Y16075000D01*
D13*
X56456000Y17708000D02*
X56457000Y17470000D01*
D13*
X59334000Y16974000D02*
X59312000Y17320000D01*
D13*
X57709000Y18336000D02*
X57725000Y18366000D01*
D13*
X58132000Y16094000D02*
X58271000Y16108000D01*
D13*
X56817000Y16087000D02*
X56907000Y16101000D01*
D13*
X56595000Y15851000D02*
X56427000Y15834000D01*
D13*
X57150000Y15955000D02*
X57074000Y15923000D01*
D13*
X60548000Y17544000D02*
X60546000Y18224000D01*
D13*
X60942000Y16896000D02*
X60944000Y16682000D01*
D13*
X58467000Y17406000D02*
X58597000Y17420000D01*
D13*
X56401000Y18241000D02*
X56423000Y18227000D01*
D13*
X56423000Y18227000D02*
X56439000Y18208000D01*
D13*
X56835000Y15875000D02*
X56711000Y15859000D01*
D13*
X57711000Y16010000D02*
X57688000Y16035000D01*
D13*
X59011000Y16545000D02*
X58998000Y16408000D01*
D13*
X58077000Y16094000D02*
X58132000Y16094000D01*
D13*
X56993000Y16297000D02*
X57013000Y16419000D01*
D13*
X60665000Y16295000D02*
X60579000Y16303000D01*
D13*
X56457000Y17470000D02*
X56446000Y17362000D01*
D13*
X56691000Y16065000D02*
X56817000Y16087000D01*
D13*
X57719000Y16946000D02*
X57715000Y17230000D01*
D13*
X57817000Y15995000D02*
X57745000Y15997000D01*
D13*
X58889000Y16150000D02*
X58835000Y16125000D01*
D13*
X58998000Y16408000D02*
X58977000Y16299000D01*
D13*
X58087000Y18356000D02*
X58078000Y18282000D01*
D13*
X58340000Y17277000D02*
X58353000Y17316000D01*
D13*
X60520000Y16462000D02*
X60475000Y16573000D01*
D13*
X59731000Y16212000D02*
X59701000Y16198000D01*
D13*
X59011000Y16729000D02*
X59011000Y16545000D01*
D13*
X56104000Y16092000D02*
X56114000Y16189000D01*
D13*
X58891000Y18100000D02*
X58805000Y18086000D01*
D13*
X57288000Y18348000D02*
X57330000Y18335000D01*
D13*
X56987000Y17077000D02*
X56987000Y17657000D01*
D13*
X57334000Y16295000D02*
X57317000Y16197000D01*
D13*
X56973000Y16872000D02*
X56940000Y16875000D01*
D13*
X59346000Y18498000D02*
X59357000Y18557000D01*
D13*
X58073000Y18056000D02*
X58080000Y17772000D01*
D13*
X60009000Y17920000D02*
X60073000Y17768000D01*
D13*
X56464000Y17003000D02*
X56515000Y17005000D01*
D13*
X60804000Y18737000D02*
X60919000Y18743000D01*
D13*
X59840000Y18363000D02*
X59927000Y18135000D01*
D13*
X60400000Y16735000D02*
X60291000Y16948000D01*
D13*
X58985000Y17349000D02*
X58988000Y17212000D01*
D13*
X57715000Y16657000D02*
X57719000Y16946000D01*
D13*
X59648000Y18615000D02*
X59718000Y18610000D01*
D13*
X58589000Y16075000D02*
X58403000Y16049000D01*
D13*
X58661000Y16537000D02*
X58671000Y16841000D01*
D13*
X58271000Y16108000D02*
X58413000Y16123000D01*
D13*
X57725000Y18366000D02*
X57756000Y18391000D01*
D13*
X57074000Y15923000D02*
X56971000Y15899000D01*
D13*
X60579000Y16303000D02*
X60551000Y16366000D01*
D13*
X57347000Y16415000D02*
X57334000Y16295000D01*
D13*
X58313000Y18472000D02*
X58510000Y18491000D01*
D13*
X58933000Y18116000D02*
X58891000Y18100000D01*
D13*
X56987000Y17657000D02*
X56992000Y18254000D01*
D13*
X60919000Y18743000D02*
X60924000Y18739000D01*
D13*
X57205000Y18361000D02*
X57288000Y18348000D01*
D13*
X58988000Y17212000D02*
X58998000Y16953000D01*
D13*
X60924000Y18739000D02*
X60916000Y18668000D01*
D13*
X60900000Y18200000D02*
X60907000Y17722000D01*
D13*
X58743000Y17433000D02*
X58828000Y17433000D01*
D13*
X56417000Y16339000D02*
X56429000Y16291000D01*
D13*
X56635000Y17020000D02*
X56841000Y17052000D01*
D13*
X58650000Y17169000D02*
X58633000Y17187000D01*
D13*
X58805000Y18086000D02*
X58680000Y18081000D01*
D13*
X58496000Y16131000D02*
X58558000Y16147000D01*
D13*
X60195000Y17134000D02*
X60143000Y17242000D01*
D13*
X60554000Y17030000D02*
X60548000Y17544000D01*
D13*
X56560000Y16050000D02*
X56691000Y16065000D01*
D13*
X57020000Y18293000D02*
X57076000Y18332000D01*
D13*
X59440000Y18595000D02*
X59534000Y18609000D01*
D13*
X58927000Y16180000D02*
X58889000Y16150000D01*
D13*
X60936000Y16516000D02*
X60926000Y16421000D01*
D13*
X58626000Y16216000D02*
X58640000Y16284000D01*
D13*
X60179000Y17528000D02*
X60335000Y17186000D01*
D13*
X60552000Y18684000D02*
X60567000Y18699000D01*
D13*
X58633000Y17187000D02*
X58582000Y17185000D01*
D13*
X56104000Y17387000D02*
X56102000Y18029000D01*
D13*
X58660000Y18504000D02*
X58824000Y18510000D01*
D13*
X57317000Y16197000D02*
X57293000Y16110000D01*
D13*
X56128000Y16268000D02*
X56149000Y16326000D01*
D13*
X57026000Y16651000D02*
X57017000Y16753000D01*
D13*
X58091000Y17552000D02*
X58099000Y17248000D01*
D13*
X58109000Y18454000D02*
X58313000Y18472000D01*
D13*
X59314000Y18246000D02*
X59330000Y18392000D01*
D13*
X56427000Y15834000D02*
X56251000Y15819000D01*
D13*
X59302000Y18074000D02*
X59314000Y18246000D01*
D13*
X59740000Y16341000D02*
X59741000Y16220000D01*
D13*
X56101000Y18159000D02*
X56115000Y18178000D01*
D13*
X58380000Y17200000D02*
X58353000Y17220000D01*
D13*
X58824000Y18510000D02*
X58924000Y18510000D01*
D13*
X57013000Y16419000D02*
X57024000Y16525000D01*
D13*
X58455000Y18420000D02*
X58352000Y18414000D01*
D13*
X59378000Y16174000D02*
X59367000Y16348000D01*
D13*
X58497000Y17180000D02*
X58424000Y17186000D01*
D13*
X58353000Y17220000D02*
X58340000Y17247000D01*
D13*
X58558000Y16147000D02*
X58599000Y16176000D01*
D13*
X58099000Y17248000D02*
X58099000Y16840000D01*
D13*
X56144000Y15829000D02*
X56130000Y15842000D01*
D13*
X59312000Y17320000D02*
X59302000Y17528000D01*
D13*
X60073000Y17768000D02*
X60179000Y17528000D01*
D13*
X56475000Y16053000D02*
X56560000Y16050000D01*
D13*
X56145000Y18211000D02*
X56182000Y18234000D01*
D13*
X56355000Y16797000D02*
X56239000Y16807000D01*
D13*
X57697000Y18290000D02*
X57709000Y18336000D01*
D13*
X59302000Y17528000D02*
X59297000Y17810000D01*
D13*
X56429000Y16291000D02*
X56426000Y16177000D01*
D13*
X56116000Y15890000D02*
X56103000Y15982000D01*
D13*
X58977000Y16299000D02*
X58953000Y16221000D01*
D13*
X58924000Y18510000D02*
X58943000Y18499000D01*
D13*
X59732000Y16898000D02*
X59740000Y16341000D01*
D13*
X58403000Y16049000D02*
X58187000Y16025000D01*
D13*
X57293000Y16110000D02*
X57261000Y16042000D01*
D13*
X56130000Y15842000D02*
X56116000Y15890000D01*
D13*
X56182000Y18234000D02*
X56234000Y18252000D01*
D13*
X57692000Y16341000D02*
X57707000Y16503000D01*
D13*
X56477000Y16795000D02*
X56355000Y16797000D01*
D13*
X60944000Y16682000D02*
X60936000Y16516000D01*
D13*
X60899000Y16338000D02*
X60857000Y16319000D01*
D13*
X59718000Y18030000D02*
X59722000Y17600000D01*
D13*
X56439000Y18208000D02*
X56452000Y18070000D01*
D13*
X58958000Y18206000D02*
X58948000Y18131000D01*
D13*
X58187000Y16025000D02*
X57967000Y16005000D01*
D13*
X58599000Y16176000D02*
X58626000Y16216000D01*
D13*
X59404000Y16168000D02*
X59378000Y16174000D01*
D13*
X58261000Y18400000D02*
X58153000Y18377000D01*
D13*
X56103000Y15982000D02*
X56104000Y16092000D01*
D13*
X58948000Y18131000D02*
X58933000Y18116000D01*
D13*
X58581000Y18242000D02*
X58594000Y18392000D01*
D13*
X57691000Y17702000D02*
X57684000Y17974000D01*
D13*
X58153000Y18377000D02*
X58087000Y18356000D01*
D13*
X60551000Y16366000D02*
X60520000Y16462000D01*
D13*
X59297000Y17810000D02*
X59302000Y18074000D01*
D13*
X57745000Y15997000D02*
X57711000Y16010000D01*
D13*
X56427000Y16080000D02*
X56441000Y16062000D01*
D13*
X60489000Y16855000D02*
X60551000Y16735000D01*
D13*
X58059000Y16105000D02*
X58077000Y16094000D01*
D13*
X57003000Y16812000D02*
X56987000Y16853000D01*
D13*
X58680000Y18081000D02*
X58591000Y18089000D01*
D13*
X56450000Y17026000D02*
X56464000Y17003000D01*
D13*
X60907000Y17722000D02*
X60916000Y17410000D01*
D13*
X59357000Y18557000D02*
X59380000Y18578000D01*
D13*
X58828000Y17433000D02*
X58872000Y17420000D01*
D13*
X59927000Y18135000D02*
X60009000Y17920000D01*
D13*
X58078000Y18282000D02*
X58073000Y18056000D01*
D13*
X57340000Y16873000D02*
X57349000Y16627000D01*
D13*
X59540000Y16173000D02*
X59460000Y16167000D01*
D13*
X58412000Y17391000D02*
X58467000Y17406000D01*
D13*
X58099000Y16840000D02*
X58091000Y16585000D01*
D13*
X59460000Y16167000D02*
X59404000Y16168000D01*
D13*
X58091000Y16585000D02*
X58075000Y16395000D01*
D13*
X56795000Y16849000D02*
X56597000Y16811000D01*
D13*
X58353000Y17316000D02*
X58381000Y17360000D01*
D13*
X56251000Y15819000D02*
X56252000Y15819000D01*
D13*
X56114000Y16189000D02*
X56128000Y16268000D01*
D13*
X56992000Y18254000D02*
X57020000Y18293000D01*
D13*
X56426000Y16177000D02*
X56427000Y16080000D01*
D13*
X57332000Y17653000D02*
X57340000Y16873000D01*
D13*
X56515000Y17005000D02*
X56635000Y17020000D01*
D13*
X57349000Y16627000D02*
X57347000Y16415000D01*
D13*
X59924000Y17736000D02*
X59722000Y18189000D01*
D13*
X56114000Y16865000D02*
X56104000Y17387000D01*
D13*
X60784000Y16302000D02*
X60665000Y16295000D01*
D13*
X59741000Y16220000D02*
X59731000Y16212000D01*
D13*
X58059000Y16188000D02*
X58059000Y16105000D01*
D13*
X58970000Y18333000D02*
X58958000Y18206000D01*
D13*
X56182000Y16821000D02*
X56141000Y16842000D01*
D13*
X60917000Y16369000D02*
X60899000Y16338000D01*
D13*
X58352000Y18414000D02*
X58261000Y18400000D01*
D13*
X56971000Y15899000D02*
X56835000Y15875000D01*
D13*
X56180000Y16355000D02*
X56222000Y16375000D01*
D13*
X58664000Y17126000D02*
X58650000Y17169000D01*
D13*
X57684000Y17974000D02*
X57687000Y18210000D01*
D13*
X56234000Y18252000D02*
X56305000Y18260000D01*
D13*
X59330000Y18392000D02*
X59346000Y18498000D01*
D13*
X60335000Y17186000D02*
X60489000Y16855000D01*
D13*
X58671000Y16841000D02*
X58672000Y17072000D01*
D13*
X58080000Y17772000D02*
X58091000Y17552000D01*
D13*
X57959000Y18441000D02*
X58109000Y18454000D01*
D13*
X56940000Y16875000D02*
X56795000Y16849000D01*
D13*
X59786000Y18488000D02*
X59840000Y18363000D01*
D13*
X56141000Y16842000D02*
X56114000Y16865000D01*
D13*
X56365000Y18255000D02*
X56401000Y18241000D01*
D13*
X58569000Y18097000D02*
X58581000Y18242000D01*
D13*
X60905000Y18514000D02*
X60900000Y18200000D01*
D13*
X60475000Y16573000D02*
X60400000Y16735000D01*
D13*
X57681000Y16145000D02*
X57692000Y16341000D01*
D13*
X56252000Y15819000D02*
X56169000Y15821000D01*
D13*
X58943000Y18499000D02*
X58968000Y18476000D01*
D13*
X59718000Y18610000D02*
X59743000Y18578000D01*
D13*
X57076000Y18332000D02*
X57137000Y18354000D01*
D13*
X60551000Y16735000D02*
X60554000Y17030000D01*
D13*
X56711000Y15859000D02*
X56595000Y15851000D01*
D13*
X56441000Y16062000D02*
X56475000Y16053000D01*
D13*
X60291000Y16948000D02*
X60195000Y17134000D01*
D13*
X57688000Y16035000D02*
X57681000Y16145000D01*
D13*
X56102000Y18029000D02*
X56101000Y18159000D01*
D13*
X59701000Y16198000D02*
X59632000Y16185000D01*
D13*
X58591000Y18089000D02*
X58569000Y18097000D01*
D13*
X57715000Y17230000D02*
X57703000Y17466000D01*
D13*
X60143000Y17242000D02*
X59924000Y17736000D01*
D13*
X60916000Y17410000D02*
X60928000Y17180000D01*
D13*
X57218000Y15997000D02*
X57150000Y15955000D01*
D13*
X57330000Y18335000D02*
X57332000Y17653000D01*
D13*
X58340000Y17247000D02*
X58340000Y17277000D01*
D13*
X58650000Y16385000D02*
X58661000Y16537000D01*
D13*
X60600000Y18713000D02*
X60658000Y18726000D01*
D13*
X57261000Y16042000D02*
X57218000Y15997000D01*
D13*
X56305000Y18260000D02*
X56365000Y18255000D01*
D13*
X58531000Y18416000D02*
X58455000Y18420000D01*
D13*
X57865000Y18428000D02*
X57959000Y18441000D01*
D13*
X60926000Y16421000D02*
X60917000Y16369000D01*
D13*
X56597000Y16811000D02*
X56477000Y16795000D01*
D13*
X59460000Y16167000D02*
X59460000Y16167000D01*
D13*
X58424000Y17186000D02*
X58380000Y17200000D01*
D13*
X57137000Y18354000D02*
X57205000Y18361000D01*
D13*
X57024000Y16525000D02*
X57026000Y16651000D01*
D13*
X59632000Y16185000D02*
X59540000Y16173000D01*
D13*
X57687000Y18210000D02*
X57697000Y18290000D01*
D13*
X60857000Y16319000D02*
X60784000Y16302000D01*
D13*
X56149000Y16326000D02*
X56180000Y16355000D01*
D13*
X59722000Y17600000D02*
X59732000Y16898000D01*
D13*
X57017000Y16753000D02*
X57003000Y16812000D01*
D13*
X60567000Y18699000D02*
X60600000Y18713000D01*
D13*
X56841000Y17052000D02*
X56978000Y17075000D01*
D13*
X60658000Y18726000D02*
X60804000Y18737000D01*
D13*
X56947000Y16109000D02*
X56965000Y16167000D01*
D13*
X56965000Y16167000D02*
X56993000Y16297000D01*
D13*
X57817000Y15995000D02*
X57817000Y15995000D01*
D13*
X58998000Y16953000D02*
X59011000Y16729000D01*
D13*
X56222000Y16375000D02*
X56298000Y16383000D01*
D13*
X58974000Y18428000D02*
X58970000Y18333000D01*
D13*
X58413000Y16123000D02*
X58496000Y16131000D01*
D13*
X57707000Y16503000D02*
X57715000Y16657000D01*
D13*
X56978000Y17075000D02*
X56987000Y17077000D01*
D13*
X59380000Y18578000D02*
X59440000Y18595000D01*
G75*
M02*
