%FSLAX46Y46*%
%MOMM*%
%AMPS32*
1,1,2.300000,0.000000,0.000000*
%
%ADD32PS32*%
%AMPS12*
1,1,2.400000,0.000000,0.000000*
%
%ADD12PS12*%
%AMPS15*
1,1,1.600000,0.000000,0.000000*
%
%ADD15PS15*%
%AMPS33*
1,1,1.600000,0.000000,0.000000*
%
%ADD33PS33*%
%AMPS30*
21,1,0.800000,1.750000,0.000000,0.000000,0.000000*
%
%ADD30PS30*%
%AMPS16*
21,1,0.800000,1.750000,0.000000,0.000000,90.000000*
%
%ADD16PS16*%
%AMPS31*
21,1,0.800000,1.750000,0.000000,0.000000,180.000000*
%
%ADD31PS31*%
%AMPS17*
21,1,0.800000,1.750000,0.000000,0.000000,270.000000*
%
%ADD17PS17*%
%AMPS22*
21,1,1.800000,3.400000,0.000000,0.000000,90.000000*
%
%ADD22PS22*%
%AMPS23*
21,1,1.800000,3.400000,0.000000,0.000000,270.000000*
%
%ADD23PS23*%
%AMPS27*
21,1,1.650000,1.200000,0.000000,0.000000,0.000000*
%
%ADD27PS27*%
%AMPS25*
21,1,1.650000,1.200000,0.000000,0.000000,90.000000*
%
%ADD25PS25*%
%AMPS26*
21,1,1.650000,1.200000,0.000000,0.000000,180.000000*
%
%ADD26PS26*%
%AMPS24*
21,1,1.650000,1.200000,0.000000,0.000000,270.000000*
%
%ADD24PS24*%
%AMPS21*
21,1,1.700000,3.000000,0.000000,0.000000,0.000000*
%
%ADD21PS21*%
%AMPS20*
21,1,1.700000,3.000000,0.000000,0.000000,180.000000*
%
%ADD20PS20*%
%AMPS28*
21,1,2.000000,1.300000,0.000000,0.000000,0.000000*
%
%ADD28PS28*%
%AMPS18*
21,1,2.000000,1.300000,0.000000,0.000000,90.000000*
%
%ADD18PS18*%
%AMPS29*
21,1,2.000000,1.300000,0.000000,0.000000,180.000000*
%
%ADD29PS29*%
%AMPS19*
21,1,2.000000,1.300000,0.000000,0.000000,270.000000*
%
%ADD19PS19*%
%AMPS11*
21,1,1.200000,1.100000,0.000000,0.000000,0.000000*
%
%ADD11PS11*%
%AMPS13*
21,1,1.200000,1.100000,0.000000,0.000000,90.000000*
%
%ADD13PS13*%
%AMPS10*
21,1,1.200000,1.100000,0.000000,0.000000,180.000000*
%
%ADD10PS10*%
%AMPS14*
21,1,1.200000,1.100000,0.000000,0.000000,270.000000*
%
%ADD14PS14*%
%AMPS35*
1,1,0.600000,0.000000,0.000000*
%
%ADD35PS35*%
%AMPS34*
1,1,0.550000,0.000000,0.000000*
%
%ADD34PS34*%
%AMPS36*
1,1,0.800000,0.000000,0.000000*
%
%ADD36PS36*%
G01*
%LPD*%
G01*
%LPD*%
G75*
D10*
X41130000Y40760000D03*
D11*
X41130000Y39160000D03*
D12*
X14580000Y49960000D03*
D12*
X9500000Y49960000D03*
D12*
X4420000Y55040000D03*
D12*
X9500000Y55040000D03*
D12*
X14580000Y55040000D03*
D12*
X4420000Y49960000D03*
D11*
X16725000Y38350000D03*
D10*
X16725000Y39950000D03*
D13*
X38400000Y33000000D03*
D14*
X36800000Y33000000D03*
D15*
X10477083Y6521263D03*
D15*
X8477083Y6521263D03*
D13*
X13540000Y26560000D03*
D14*
X11940000Y26560000D03*
D11*
X7825000Y26880000D03*
D10*
X7825000Y28480000D03*
D11*
X30706667Y31114999D03*
D10*
X30706667Y32714999D03*
D10*
X21700000Y55400000D03*
D11*
X21700000Y53800000D03*
D16*
X38856667Y41864997D03*
D16*
X38856667Y39324997D03*
D16*
X38856667Y38054997D03*
D17*
X33516667Y38054997D03*
D17*
X33516667Y40594997D03*
D16*
X38856667Y40594997D03*
D17*
X33516667Y41864997D03*
D17*
X33516667Y39324997D03*
D18*
X39980000Y35430000D03*
D19*
X36980000Y35430000D03*
D10*
X16725000Y36510000D03*
D11*
X16725000Y34910000D03*
D20*
X28706667Y40594997D03*
D21*
X28706667Y35894999D03*
D13*
X34896667Y35964997D03*
D14*
X33296667Y35964997D03*
D22*
X39400000Y14800000D03*
D23*
X34400000Y14800000D03*
D10*
X3965000Y28480000D03*
D11*
X3965000Y26880000D03*
D11*
X10080000Y26840000D03*
D10*
X10080000Y28440000D03*
D13*
X21700000Y51940000D03*
D14*
X20100000Y51940000D03*
D24*
X12945000Y42460000D03*
D25*
X14845000Y42460000D03*
D10*
X14845000Y39950000D03*
D11*
X14845000Y38350000D03*
D26*
X19100000Y49900000D03*
D27*
X19100000Y48000000D03*
D10*
X16695000Y32330000D03*
D11*
X16695000Y30730000D03*
D28*
X24130000Y52400000D03*
D29*
X24130000Y55400000D03*
D11*
X8705000Y34470000D03*
D10*
X8705000Y36070000D03*
D30*
X14605000Y30730000D03*
D30*
X12065000Y30730000D03*
D30*
X10795000Y30730000D03*
D31*
X10795000Y36070000D03*
D31*
X13335000Y36070000D03*
D30*
X13335000Y30730000D03*
D31*
X14605000Y36070000D03*
D31*
X12065000Y36070000D03*
D19*
X5525000Y30840000D03*
D18*
X8525000Y30840000D03*
D11*
X43010000Y35760000D03*
D10*
X43010000Y37360000D03*
D10*
X22900000Y49600000D03*
D11*
X22900000Y48000000D03*
D14*
X11345000Y38350000D03*
D13*
X12945000Y38350000D03*
D14*
X11345000Y40230000D03*
D13*
X12945000Y40230000D03*
D14*
X37256667Y43954997D03*
D13*
X38856667Y43954997D03*
D15*
X54477083Y6531263D03*
D15*
X52477083Y6531263D03*
D18*
X37400000Y9200000D03*
D19*
X34400000Y9200000D03*
D18*
X26900000Y9200000D03*
D19*
X23900000Y9200000D03*
D32*
X48500000Y36500000D03*
D32*
X58500000Y36500000D03*
D32*
X53500000Y36500000D03*
D32*
X26500000Y62500000D03*
D32*
X36500000Y62500000D03*
D32*
X31500000Y62500000D03*
D23*
X23900000Y14800000D03*
D22*
X28900000Y14800000D03*
D10*
X5895000Y28480000D03*
D11*
X5895000Y26880000D03*
D11*
X28706667Y31114999D03*
D10*
X28706667Y32714999D03*
D14*
X40200000Y33000000D03*
D13*
X41800000Y33000000D03*
D32*
X48500000Y62500000D03*
D32*
X58500000Y62500000D03*
D32*
X53500000Y62500000D03*
D13*
X13540000Y28440000D03*
D14*
X11940000Y28440000D03*
D10*
X43010000Y40760000D03*
D11*
X43010000Y39160000D03*
D33*
X24502917Y3089737D03*
D33*
X38502917Y3089737D03*
D33*
X30502917Y3089737D03*
D33*
X28502917Y3089737D03*
D33*
X22502917Y3089737D03*
D33*
X36502917Y3089737D03*
D33*
X26502917Y3089737D03*
D33*
X32502917Y3089737D03*
D33*
X34502917Y3089737D03*
D33*
X40502917Y3089737D03*
D32*
X4500000Y62500000D03*
D32*
X14500000Y62500000D03*
D32*
X9500000Y62500000D03*
D22*
X15080000Y21480000D03*
D23*
X10080000Y21480000D03*
D34*
X1000000Y26200000D03*
D34*
X62000000Y64600000D03*
D34*
X54375000Y71000000D03*
D34*
X46750000Y1000000D03*
D35*
X12945000Y45200000D03*
D36*
X23900000Y17400000D03*
D34*
X1000000Y51800000D03*
D34*
X1000000Y32600000D03*
D36*
X7105000Y36070000D03*
D34*
X62000000Y13400000D03*
D34*
X46750000Y71000000D03*
D34*
X62000000Y51800000D03*
D34*
X62000000Y1000000D03*
D34*
X8625000Y71000000D03*
D34*
X1000000Y19800000D03*
D34*
X62000000Y7000000D03*
D34*
X16250000Y1000000D03*
D36*
X18295000Y30730000D03*
D34*
X62000000Y32600000D03*
D34*
X31500000Y1000000D03*
D34*
X62000000Y45400000D03*
D34*
X1000000Y71000000D03*
D34*
X39125000Y71000000D03*
D34*
X62000000Y19800000D03*
D34*
X31500000Y71000000D03*
D34*
X62000000Y26200000D03*
D34*
X62000000Y39000000D03*
D34*
X62000000Y58200000D03*
D34*
X1000000Y1000000D03*
D34*
X8625000Y1000000D03*
D34*
X1000000Y7000000D03*
D34*
X1000000Y45400000D03*
D34*
X1000000Y58200000D03*
D35*
X21100000Y49900000D03*
D34*
X23875000Y71000000D03*
D36*
X38856667Y45554997D03*
D34*
X54375000Y1000000D03*
D34*
X23875000Y1000000D03*
D34*
X1000000Y39000000D03*
D35*
X34400000Y44000000D03*
D34*
X1000000Y13400000D03*
D34*
X16250000Y71000000D03*
D35*
X14845000Y46300000D03*
D35*
X25100000Y48000000D03*
D36*
X33296667Y34364997D03*
D34*
X39125000Y1000000D03*
D34*
X62000000Y71000000D03*
D36*
X34400000Y17400000D03*
D34*
X1000000Y64600000D03*
M02*
