M48
FMAT,2
METRIC,TZ
T4C0.350
T5C0.400
T6C0.600
T2C0.700
T3C1.400
T1C1.500
%
G90
G05
M71
T4
X41.710Y35.760
X1.000Y26.200
X62.000Y64.600
X54.375Y71.000
X46.750Y1.000
X7.405Y34.470
X28.707Y29.815
X54.375Y39.000
X23.875Y45.400
X31.500Y51.800
X1.000Y51.800
X46.750Y39.000
X46.750Y26.200
X1.000Y32.600
X8.625Y19.800
X38.400Y31.700
X62.000Y13.400
X54.375Y26.200
X46.750Y71.000
X62.000Y51.800
X62.000Y1.000
X8.625Y71.000
X28.900Y16.540
X8.625Y64.600
X31.500Y19.800
X54.375Y19.800
X54.375Y51.800
X1.000Y19.800
X62.000Y7.000
X16.250Y1.000
X54.375Y58.200
X46.750Y19.800
X46.750Y64.600
X62.000Y32.600
X31.500Y1.000
X62.000Y45.400
X8.625Y13.400
X16.250Y58.200
X1.000Y71.000
X54.375Y64.600
X39.125Y71.000
X62.000Y19.800
X16.250Y13.400
X31.500Y71.000
X62.000Y26.200
X31.340Y14.800
X54.375Y45.400
X8.625Y45.400
X46.750Y7.000
X34.897Y34.665
X62.000Y39.000
X16.250Y7.000
X31.500Y58.200
X39.125Y7.000
X37.257Y45.255
X62.000Y58.200
X1.000Y1.000
X8.625Y1.000
X1.000Y7.000
X1.000Y45.400
X7.825Y25.580
X28.900Y13.060
X46.750Y51.800
X3.965Y29.780
X1.000Y58.200
X23.875Y71.000
X16.250Y26.200
X39.125Y58.200
X31.500Y26.200
X39.400Y13.060
X54.375Y1.000
X31.500Y45.400
X23.875Y1.000
X39.400Y16.540
X1.000Y39.000
X15.080Y19.740
X1.000Y13.400
X24.200Y50.900
X16.250Y45.400
X39.125Y64.600
X16.250Y71.000
X54.375Y32.600
X39.125Y51.800
X46.750Y13.400
X39.125Y26.200
X46.750Y58.200
X39.125Y19.800
X17.995Y32.330
X46.750Y32.600
X41.840Y14.800
X39.125Y1.000
X23.875Y7.000
X46.750Y45.400
X62.000Y71.000
X10.045Y40.230
X10.045Y38.350
X31.500Y64.600
X54.375Y13.400
X8.625Y58.200
X23.875Y58.200
X1.000Y64.600
T5
X12.945Y45.200
X21.100Y49.900
X34.400Y44.000
X14.845Y46.300
X25.100Y48.000
T6
X23.900Y17.400
X7.105Y36.070
X18.295Y30.730
X38.857Y45.555
X33.297Y34.365
X34.400Y17.400
T2
X10.477Y6.521
X8.477Y6.521
X54.477Y6.531
X52.477Y6.531
X24.503Y3.090
X38.503Y3.090
X30.503Y3.090
X28.503Y3.090
X22.503Y3.090
X36.503Y3.090
X26.503Y3.090
X32.503Y3.090
X34.503Y3.090
X40.503Y3.090
T3
X48.500Y36.500
X58.500Y36.500
X53.500Y36.500
X26.500Y62.500
X36.500Y62.500
X31.500Y62.500
X48.500Y62.500
X58.500Y62.500
X53.500Y62.500
X4.500Y62.500
X14.500Y62.500
X9.500Y62.500
T1
X14.580Y49.960
X9.500Y49.960
X4.420Y55.040
X9.500Y55.040
X14.580Y55.040
X4.420Y49.960
M30
