%FSLAX46Y46*%
%MOMM*%
%AMPS13*
1,1,2.300000,0.000000,0.000000*
%
%ADD13PS13*%
%AMPS12*
1,1,1.900000,0.000000,0.000000*
%
%ADD12PS12*%
%AMPS11*
1,1,1.900000,0.000000,0.000000*
%
%ADD11PS11*%
%AMPS10*
1,1,2.400000,0.000000,0.000000*
%
%ADD10PS10*%
%AMPS15*
1,1,1.200000,0.000000,0.000000*
%
%ADD15PS15*%
%AMPS14*
1,1,0.550000,0.000000,0.000000*
%
%ADD14PS14*%
%AMPS16*
1,1,0.700000,0.000000,0.000000*
%
%ADD16PS16*%
G01*
%LPD*%
G01*
%LPD*%
G75*
D10*
X36580000Y49960000D03*
D10*
X31500000Y49960000D03*
D10*
X26420000Y55040000D03*
D10*
X31500000Y55040000D03*
D10*
X36580000Y55040000D03*
D10*
X26420000Y49960000D03*
D11*
X54727083Y7691263D03*
D11*
X52227083Y7691263D03*
D12*
X20249000Y3240000D03*
D12*
X37749000Y3240000D03*
D12*
X35249000Y3240000D03*
D12*
X32749000Y3240000D03*
D12*
X27749000Y3240000D03*
D12*
X42749000Y3240000D03*
D12*
X22749000Y3240000D03*
D12*
X25249000Y3240000D03*
D12*
X40249000Y3240000D03*
D12*
X30249000Y3240000D03*
D13*
X48500000Y36500000D03*
D13*
X58500000Y36500000D03*
D13*
X53500000Y36500000D03*
D13*
X26500000Y62500000D03*
D13*
X36500000Y62500000D03*
D13*
X31500000Y62500000D03*
D13*
X48500000Y62500000D03*
D13*
X58500000Y62500000D03*
D13*
X53500000Y62500000D03*
D13*
X4500000Y62500000D03*
D13*
X14500000Y62500000D03*
D13*
X9500000Y62500000D03*
D11*
X10727083Y7691263D03*
D11*
X8227083Y7691263D03*
D14*
X1000000Y26200000D03*
D14*
X62000000Y64600000D03*
D14*
X54375000Y71000000D03*
D15*
X34005000Y37970000D03*
D14*
X46750000Y1000000D03*
D14*
X1000000Y51800000D03*
D14*
X1000000Y32600000D03*
D14*
X62000000Y13400000D03*
D16*
X41820000Y47760000D03*
D14*
X46750000Y71000000D03*
D14*
X62000000Y51800000D03*
D14*
X62000000Y1000000D03*
D14*
X8625000Y71000000D03*
D15*
X13930000Y37305000D03*
D14*
X1000000Y19800000D03*
D14*
X62000000Y7000000D03*
D14*
X16250000Y1000000D03*
D14*
X62000000Y32600000D03*
D14*
X31500000Y1000000D03*
D14*
X62000000Y45400000D03*
D14*
X1000000Y71000000D03*
D14*
X39125000Y71000000D03*
D14*
X62000000Y19800000D03*
D14*
X31500000Y71000000D03*
D14*
X62000000Y26200000D03*
D14*
X62000000Y39000000D03*
D16*
X43280000Y37970000D03*
D14*
X62000000Y58200000D03*
D14*
X1000000Y1000000D03*
D14*
X8625000Y1000000D03*
D14*
X1000000Y7000000D03*
D14*
X1000000Y45400000D03*
D15*
X34400000Y17500000D03*
D15*
X41805000Y28460000D03*
D15*
X23900000Y17500000D03*
D14*
X1000000Y58200000D03*
D14*
X23875000Y71000000D03*
D14*
X54375000Y1000000D03*
D14*
X23875000Y1000000D03*
D14*
X1000000Y39000000D03*
D14*
X1000000Y13400000D03*
D14*
X16250000Y71000000D03*
D15*
X23440000Y45205000D03*
D14*
X39125000Y1000000D03*
D14*
X62000000Y71000000D03*
D16*
X20160000Y55110000D03*
D14*
X1000000Y64600000D03*
M02*
