%FSLAX46Y46*%
%MOMM*%
%ADD13C,0.200000*%
%ADD10C,0.300000*%
%ADD12C,0.550000*%
%ADD11C,0.600000*%
%AMPS36*
1,1,2.100000,0.000000,0.000000*
%
%ADD36PS36*%
%AMPS16*
1,1,2.200000,0.000000,0.000000*
%
%ADD16PS16*%
%AMPS19*
1,1,1.400000,0.000000,0.000000*
%
%ADD19PS19*%
%AMPS37*
1,1,1.400000,0.000000,0.000000*
%
%ADD37PS37*%
%AMPS34*
21,1,0.600000,1.550000,0.000000,0.000000,0.000000*
%
%ADD34PS34*%
%AMPS20*
21,1,0.600000,1.550000,0.000000,0.000000,90.000000*
%
%ADD20PS20*%
%AMPS35*
21,1,0.600000,1.550000,0.000000,0.000000,180.000000*
%
%ADD35PS35*%
%AMPS21*
21,1,0.600000,1.550000,0.000000,0.000000,270.000000*
%
%ADD21PS21*%
%AMPS26*
21,1,1.600000,3.200000,0.000000,0.000000,90.000000*
%
%ADD26PS26*%
%AMPS27*
21,1,1.600000,3.200000,0.000000,0.000000,270.000000*
%
%ADD27PS27*%
%AMPS31*
21,1,1.450000,1.000000,0.000000,0.000000,0.000000*
%
%ADD31PS31*%
%AMPS29*
21,1,1.450000,1.000000,0.000000,0.000000,90.000000*
%
%ADD29PS29*%
%AMPS30*
21,1,1.450000,1.000000,0.000000,0.000000,180.000000*
%
%ADD30PS30*%
%AMPS28*
21,1,1.450000,1.000000,0.000000,0.000000,270.000000*
%
%ADD28PS28*%
%AMPS25*
21,1,1.500000,2.800000,0.000000,0.000000,0.000000*
%
%ADD25PS25*%
%AMPS24*
21,1,1.500000,2.800000,0.000000,0.000000,180.000000*
%
%ADD24PS24*%
%AMPS32*
21,1,1.800000,1.100000,0.000000,0.000000,0.000000*
%
%ADD32PS32*%
%AMPS22*
21,1,1.800000,1.100000,0.000000,0.000000,90.000000*
%
%ADD22PS22*%
%AMPS33*
21,1,1.800000,1.100000,0.000000,0.000000,180.000000*
%
%ADD33PS33*%
%AMPS23*
21,1,1.800000,1.100000,0.000000,0.000000,270.000000*
%
%ADD23PS23*%
%AMPS15*
21,1,1.000000,0.900000,0.000000,0.000000,0.000000*
%
%ADD15PS15*%
%AMPS17*
21,1,1.000000,0.900000,0.000000,0.000000,90.000000*
%
%ADD17PS17*%
%AMPS14*
21,1,1.000000,0.900000,0.000000,0.000000,180.000000*
%
%ADD14PS14*%
%AMPS18*
21,1,1.000000,0.900000,0.000000,0.000000,270.000000*
%
%ADD18PS18*%
%AMPS40*
1,1,0.800000,0.000000,0.000000*
%
%ADD40PS40*%
%AMPS39*
1,1,0.700000,0.000000,0.000000*
%
%ADD39PS39*%
%AMPS41*
1,1,1.000000,0.000000,0.000000*
%
%ADD41PS41*%
%AMPS38*
1,1,0.700000,0.000000,0.000000*
%
%ADD38PS38*%
G01*
%LPD*%
G36*
X62640000Y360000D02*
X62640000Y71640000D01*
X360000Y71640000D01*
X360000Y360000D01*
X62640000Y360000D01*
D02*
G37*
%LPC*%
G36*
X58500000Y61254764D02*
X58377953Y61260762D01*
X58257065Y61278693D01*
X58138526Y61308385D01*
X58023471Y61349552D01*
X57913002Y61401800D01*
X57808185Y61464625D01*
X57710033Y61537421D01*
X57619486Y61619486D01*
X57537421Y61710033D01*
X57464625Y61808185D01*
X57401800Y61913002D01*
X57349552Y62023471D01*
X57308385Y62138526D01*
X57278693Y62257065D01*
X57260762Y62377953D01*
X57254764Y62500000D01*
X57260762Y62622047D01*
X57278693Y62742935D01*
X57308385Y62861474D01*
X57349551Y62976524D01*
X57404741Y63093213D01*
X55122953Y65375000D01*
X17877047Y65375000D01*
X15595259Y63093213D01*
X15650449Y62976524D01*
X15691615Y62861474D01*
X15721307Y62742935D01*
X15739238Y62622047D01*
X15745236Y62500000D01*
X15739238Y62377953D01*
X15721307Y62257065D01*
X15691615Y62138526D01*
X15650448Y62023471D01*
X15598200Y61913002D01*
X15535375Y61808185D01*
X15462579Y61710033D01*
X15380514Y61619486D01*
X15289967Y61537421D01*
X15191815Y61464625D01*
X15086998Y61401800D01*
X14976529Y61349552D01*
X14861474Y61308385D01*
X14742935Y61278693D01*
X14622047Y61260762D01*
X14500000Y61254764D01*
X14377953Y61260762D01*
X14257065Y61278693D01*
X14138526Y61308385D01*
X14023471Y61349552D01*
X13913002Y61401800D01*
X13808185Y61464625D01*
X13710033Y61537421D01*
X13619486Y61619486D01*
X13537421Y61710033D01*
X13464625Y61808185D01*
X13401800Y61913002D01*
X13349552Y62023471D01*
X13308385Y62138526D01*
X13278693Y62257065D01*
X13260762Y62377953D01*
X13254764Y62500000D01*
X13260762Y62622047D01*
X13278693Y62742935D01*
X13308385Y62861474D01*
X13349552Y62976529D01*
X13401800Y63086998D01*
X13464625Y63191815D01*
X13537421Y63289967D01*
X13619486Y63380514D01*
X13710033Y63462579D01*
X13808185Y63535375D01*
X13913002Y63598200D01*
X14023471Y63650448D01*
X14138526Y63691615D01*
X14257065Y63721307D01*
X14377953Y63739238D01*
X14500000Y63745236D01*
X14622047Y63739238D01*
X14742935Y63721307D01*
X14861474Y63691615D01*
X14976524Y63650449D01*
X15093213Y63595259D01*
X17472401Y65974448D01*
X17478877Y65982220D01*
X17532222Y66025996D01*
X17593770Y66058893D01*
X17660548Y66079151D01*
X17719923Y66085000D01*
X55280077Y66085000D01*
X55339451Y66079151D01*
X55406229Y66058893D01*
X55467776Y66025996D01*
X55513897Y65988148D01*
X57906787Y63595259D01*
X58023476Y63650449D01*
X58138526Y63691615D01*
X58257065Y63721307D01*
X58377953Y63739238D01*
X58500000Y63745236D01*
X58622047Y63739238D01*
X58742935Y63721307D01*
X58861474Y63691615D01*
X58976529Y63650448D01*
X59086998Y63598200D01*
X59191815Y63535375D01*
X59289967Y63462579D01*
X59380514Y63380514D01*
X59462579Y63289967D01*
X59535375Y63191815D01*
X59598200Y63086998D01*
X59650448Y62976529D01*
X59691615Y62861474D01*
X59721307Y62742935D01*
X59739238Y62622047D01*
X59745236Y62500000D01*
X59739238Y62377953D01*
X59721307Y62257065D01*
X59691615Y62138526D01*
X59650448Y62023471D01*
X59598200Y61913002D01*
X59535375Y61808185D01*
X59462579Y61710033D01*
X59380514Y61619486D01*
X59289967Y61537421D01*
X59191815Y61464625D01*
X59086998Y61401800D01*
X58976529Y61349552D01*
X58861474Y61308385D01*
X58742935Y61278693D01*
X58622047Y61260762D01*
X58500000Y61254764D01*
D02*
G37*
%LPC*%
G36*
X31500000Y61254764D02*
X31377953Y61260762D01*
X31257065Y61278693D01*
X31138526Y61308385D01*
X31023471Y61349552D01*
X30913002Y61401800D01*
X30808185Y61464625D01*
X30710033Y61537421D01*
X30619486Y61619486D01*
X30537421Y61710033D01*
X30464625Y61808185D01*
X30401800Y61913002D01*
X30349552Y62023471D01*
X30306069Y62145000D01*
X27693931Y62145000D01*
X27650448Y62023471D01*
X27598200Y61913002D01*
X27535375Y61808185D01*
X27462579Y61710033D01*
X27380514Y61619486D01*
X27289967Y61537421D01*
X27191815Y61464625D01*
X27086998Y61401800D01*
X26976529Y61349552D01*
X26861474Y61308385D01*
X26742935Y61278693D01*
X26622047Y61260762D01*
X26500000Y61254764D01*
X26377953Y61260762D01*
X26257065Y61278693D01*
X26138526Y61308385D01*
X26023471Y61349552D01*
X25913002Y61401800D01*
X25808185Y61464625D01*
X25710033Y61537421D01*
X25619486Y61619486D01*
X25537421Y61710033D01*
X25464625Y61808185D01*
X25401800Y61913002D01*
X25349552Y62023471D01*
X25308385Y62138526D01*
X25278693Y62257065D01*
X25260762Y62377953D01*
X25254764Y62500000D01*
X25260762Y62622047D01*
X25278693Y62742935D01*
X25308385Y62861474D01*
X25349552Y62976529D01*
X25401800Y63086998D01*
X25464625Y63191815D01*
X25537421Y63289967D01*
X25619486Y63380514D01*
X25710033Y63462579D01*
X25808185Y63535375D01*
X25913002Y63598200D01*
X26023471Y63650448D01*
X26138526Y63691615D01*
X26257065Y63721307D01*
X26377953Y63739238D01*
X26500000Y63745236D01*
X26622047Y63739238D01*
X26742935Y63721307D01*
X26861474Y63691615D01*
X26976529Y63650448D01*
X27086998Y63598200D01*
X27191815Y63535375D01*
X27289967Y63462579D01*
X27380514Y63380514D01*
X27462579Y63289967D01*
X27535375Y63191815D01*
X27598200Y63086998D01*
X27650448Y62976529D01*
X27693931Y62855000D01*
X30306069Y62855000D01*
X30349552Y62976529D01*
X30401800Y63086998D01*
X30464625Y63191815D01*
X30537421Y63289967D01*
X30619486Y63380514D01*
X30710033Y63462579D01*
X30808185Y63535375D01*
X30913002Y63598200D01*
X31023471Y63650448D01*
X31138526Y63691615D01*
X31257065Y63721307D01*
X31377953Y63739238D01*
X31500000Y63745236D01*
X31622047Y63739238D01*
X31742935Y63721307D01*
X31861474Y63691615D01*
X31976529Y63650448D01*
X32086998Y63598200D01*
X32191815Y63535375D01*
X32289967Y63462579D01*
X32380514Y63380514D01*
X32462579Y63289967D01*
X32535375Y63191815D01*
X32598200Y63086998D01*
X32650448Y62976529D01*
X32691615Y62861474D01*
X32721307Y62742935D01*
X32739238Y62622047D01*
X32745236Y62500000D01*
X32739238Y62377953D01*
X32721307Y62257065D01*
X32691615Y62138526D01*
X32650448Y62023471D01*
X32598200Y61913002D01*
X32535375Y61808185D01*
X32462579Y61710033D01*
X32380514Y61619486D01*
X32289967Y61537421D01*
X32191815Y61464625D01*
X32086998Y61401800D01*
X31976529Y61349552D01*
X31861474Y61308385D01*
X31742935Y61278693D01*
X31622047Y61260762D01*
X31500000Y61254764D01*
D02*
G37*
%LPC*%
G36*
X53500000Y61254764D02*
X53377953Y61260762D01*
X53257065Y61278693D01*
X53138526Y61308385D01*
X53023471Y61349552D01*
X52913002Y61401800D01*
X52808185Y61464625D01*
X52710033Y61537421D01*
X52619486Y61619486D01*
X52537421Y61710033D01*
X52464625Y61808185D01*
X52401800Y61913002D01*
X52349552Y62023471D01*
X52308385Y62138526D01*
X52278693Y62257065D01*
X52260762Y62377953D01*
X52254764Y62500000D01*
X52260762Y62622047D01*
X52278693Y62742935D01*
X52308385Y62861474D01*
X52349552Y62976529D01*
X52401800Y63086998D01*
X52464625Y63191815D01*
X52537421Y63289967D01*
X52619486Y63380514D01*
X52710033Y63462579D01*
X52808185Y63535375D01*
X52913002Y63598200D01*
X53023471Y63650448D01*
X53138526Y63691615D01*
X53257065Y63721307D01*
X53377953Y63739238D01*
X53500000Y63745236D01*
X53622047Y63739238D01*
X53742935Y63721307D01*
X53861474Y63691615D01*
X53976529Y63650448D01*
X54086998Y63598200D01*
X54191815Y63535375D01*
X54289967Y63462579D01*
X54380514Y63380514D01*
X54462579Y63289967D01*
X54535375Y63191815D01*
X54598200Y63086998D01*
X54650448Y62976529D01*
X54691615Y62861474D01*
X54721307Y62742935D01*
X54739238Y62622047D01*
X54745236Y62500000D01*
X54739238Y62377953D01*
X54721307Y62257065D01*
X54691615Y62138526D01*
X54650448Y62023471D01*
X54598200Y61913002D01*
X54535375Y61808185D01*
X54462579Y61710033D01*
X54380514Y61619486D01*
X54289967Y61537421D01*
X54191815Y61464625D01*
X54086998Y61401800D01*
X53976529Y61349552D01*
X53861474Y61308385D01*
X53742935Y61278693D01*
X53622047Y61260762D01*
X53500000Y61254764D01*
D02*
G37*
%LPC*%
G36*
X17420000Y39305000D02*
X16030000Y39305000D01*
X16030000Y40595000D01*
X17420000Y40595000D01*
X17420000Y40305000D01*
X23002953Y40305000D01*
X45442401Y62744448D01*
X45448877Y62752220D01*
X45502222Y62795996D01*
X45563770Y62828893D01*
X45630548Y62849151D01*
X45689923Y62855000D01*
X47306069Y62855000D01*
X47349552Y62976529D01*
X47401800Y63086998D01*
X47464625Y63191815D01*
X47537421Y63289967D01*
X47619486Y63380514D01*
X47710033Y63462579D01*
X47808185Y63535375D01*
X47913002Y63598200D01*
X48023471Y63650448D01*
X48138526Y63691615D01*
X48257065Y63721307D01*
X48377953Y63739238D01*
X48500000Y63745236D01*
X48622047Y63739238D01*
X48742935Y63721307D01*
X48861474Y63691615D01*
X48976529Y63650448D01*
X49086998Y63598200D01*
X49191815Y63535375D01*
X49289967Y63462579D01*
X49380514Y63380514D01*
X49462579Y63289967D01*
X49535375Y63191815D01*
X49598200Y63086998D01*
X49650448Y62976529D01*
X49691615Y62861474D01*
X49721307Y62742935D01*
X49739238Y62622047D01*
X49745236Y62500000D01*
X49739238Y62377953D01*
X49721307Y62257065D01*
X49691615Y62138526D01*
X49650448Y62023471D01*
X49598200Y61913002D01*
X49535375Y61808185D01*
X49462579Y61710033D01*
X49380514Y61619486D01*
X49289967Y61537421D01*
X49191815Y61464625D01*
X49086998Y61401800D01*
X48976529Y61349552D01*
X48861474Y61308385D01*
X48742935Y61278693D01*
X48622047Y61260762D01*
X48500000Y61254764D01*
X48377953Y61260762D01*
X48257065Y61278693D01*
X48138526Y61308385D01*
X48023471Y61349552D01*
X47913002Y61401800D01*
X47808185Y61464625D01*
X47710033Y61537421D01*
X47619486Y61619486D01*
X47537421Y61710033D01*
X47464625Y61808185D01*
X47401800Y61913002D01*
X47349552Y62023471D01*
X47306069Y62145000D01*
X45847047Y62145000D01*
X23407598Y39705551D01*
X23401122Y39697779D01*
X23347777Y39654003D01*
X23286229Y39621106D01*
X23219451Y39600849D01*
X23160066Y39595000D01*
X17420000Y39595000D01*
X17420000Y39305000D01*
D02*
G37*
%LPC*%
G36*
X9500000Y61254764D02*
X9377953Y61260762D01*
X9257065Y61278693D01*
X9138526Y61308385D01*
X9023471Y61349552D01*
X8913002Y61401800D01*
X8808185Y61464625D01*
X8710033Y61537421D01*
X8619486Y61619486D01*
X8537421Y61710033D01*
X8464625Y61808185D01*
X8401800Y61913002D01*
X8349552Y62023471D01*
X8306069Y62145000D01*
X5693931Y62145000D01*
X5650448Y62023471D01*
X5598200Y61913002D01*
X5535375Y61808185D01*
X5462579Y61710033D01*
X5380514Y61619486D01*
X5289967Y61537421D01*
X5191815Y61464625D01*
X5086998Y61401800D01*
X4976529Y61349552D01*
X4861474Y61308385D01*
X4742935Y61278693D01*
X4622047Y61260762D01*
X4500000Y61254764D01*
X4377953Y61260762D01*
X4257065Y61278693D01*
X4138526Y61308385D01*
X4023471Y61349552D01*
X3913002Y61401800D01*
X3808185Y61464625D01*
X3710033Y61537421D01*
X3619486Y61619486D01*
X3537421Y61710033D01*
X3464625Y61808185D01*
X3401800Y61913002D01*
X3349552Y62023471D01*
X3308385Y62138526D01*
X3278693Y62257065D01*
X3260762Y62377953D01*
X3254764Y62500000D01*
X3260762Y62622047D01*
X3278693Y62742935D01*
X3308385Y62861474D01*
X3349552Y62976529D01*
X3401800Y63086998D01*
X3464625Y63191815D01*
X3537421Y63289967D01*
X3619486Y63380514D01*
X3710033Y63462579D01*
X3808185Y63535375D01*
X3913002Y63598200D01*
X4023471Y63650448D01*
X4138526Y63691615D01*
X4257065Y63721307D01*
X4377953Y63739238D01*
X4500000Y63745236D01*
X4622047Y63739238D01*
X4742935Y63721307D01*
X4861474Y63691615D01*
X4976529Y63650448D01*
X5086998Y63598200D01*
X5191815Y63535375D01*
X5289967Y63462579D01*
X5380514Y63380514D01*
X5462579Y63289967D01*
X5535375Y63191815D01*
X5598200Y63086998D01*
X5650448Y62976529D01*
X5693931Y62855000D01*
X8306069Y62855000D01*
X8349552Y62976529D01*
X8401800Y63086998D01*
X8464625Y63191815D01*
X8537421Y63289967D01*
X8619486Y63380514D01*
X8710033Y63462579D01*
X8808185Y63535375D01*
X8913002Y63598200D01*
X9023471Y63650448D01*
X9138526Y63691615D01*
X9257065Y63721307D01*
X9377953Y63739238D01*
X9500000Y63745236D01*
X9622047Y63739238D01*
X9742935Y63721307D01*
X9861474Y63691615D01*
X9976529Y63650448D01*
X10086998Y63598200D01*
X10191815Y63535375D01*
X10289967Y63462579D01*
X10380514Y63380514D01*
X10462579Y63289967D01*
X10535375Y63191815D01*
X10598200Y63086998D01*
X10650448Y62976529D01*
X10691615Y62861474D01*
X10721307Y62742935D01*
X10739238Y62622047D01*
X10745236Y62500000D01*
X10739238Y62377953D01*
X10721307Y62257065D01*
X10691615Y62138526D01*
X10650448Y62023471D01*
X10598200Y61913002D01*
X10535375Y61808185D01*
X10462579Y61710033D01*
X10380514Y61619486D01*
X10289967Y61537421D01*
X10191815Y61464625D01*
X10086998Y61401800D01*
X9976529Y61349552D01*
X9861474Y61308385D01*
X9742935Y61278693D01*
X9622047Y61260762D01*
X9500000Y61254764D01*
D02*
G37*
%LPC*%
G36*
X36350000Y62650000D02*
X35259853Y62650000D01*
X35273783Y62743912D01*
X35303595Y62862927D01*
X35344927Y62978444D01*
X35397385Y63089358D01*
X35460463Y63194596D01*
X35533551Y63293143D01*
X35615946Y63384054D01*
X35706857Y63466449D01*
X35805404Y63539537D01*
X35910642Y63602615D01*
X36021556Y63655073D01*
X36137073Y63696405D01*
X36256088Y63726217D01*
X36350000Y63740147D01*
X36350000Y62650000D01*
D02*
G37*
%LPC*%
G36*
X37740147Y62650000D02*
X36650000Y62650000D01*
X36650000Y63740147D01*
X36743912Y63726217D01*
X36862927Y63696405D01*
X36978444Y63655073D01*
X37089358Y63602615D01*
X37194596Y63539537D01*
X37293143Y63466449D01*
X37384054Y63384054D01*
X37466449Y63293143D01*
X37539537Y63194596D01*
X37602615Y63089358D01*
X37655073Y62978444D01*
X37696405Y62862927D01*
X37726217Y62743912D01*
X37740147Y62650000D01*
D02*
G37*
%LPC*%
G36*
X36650000Y61259853D02*
X36650000Y62350000D01*
X37740147Y62350000D01*
X37726217Y62256088D01*
X37696405Y62137073D01*
X37655073Y62021556D01*
X37602615Y61910642D01*
X37539537Y61805404D01*
X37466449Y61706857D01*
X37384054Y61615946D01*
X37293143Y61533551D01*
X37194596Y61460463D01*
X37089358Y61397385D01*
X36978444Y61344927D01*
X36862927Y61303595D01*
X36743912Y61273783D01*
X36650000Y61259853D01*
D02*
G37*
%LPC*%
G36*
X36350000Y61259853D02*
X36256088Y61273783D01*
X36137073Y61303595D01*
X36021556Y61344927D01*
X35910642Y61397385D01*
X35805404Y61460463D01*
X35706857Y61533551D01*
X35615946Y61615946D01*
X35533551Y61706857D01*
X35460463Y61805404D01*
X35397385Y61910642D01*
X35344927Y62021556D01*
X35303595Y62137073D01*
X35273783Y62256088D01*
X35259853Y62350000D01*
X36350000Y62350000D01*
X36350000Y61259853D01*
D02*
G37*
%LPC*%
G36*
X9500000Y53744765D02*
X9373044Y53751003D01*
X9247308Y53769654D01*
X9124011Y53800538D01*
X9004337Y53843358D01*
X8889436Y53897702D01*
X8780404Y53963054D01*
X8678310Y54038772D01*
X8584131Y54124131D01*
X8498772Y54218310D01*
X8423054Y54320404D01*
X8357702Y54429436D01*
X8303358Y54544337D01*
X8260538Y54664011D01*
X8229654Y54787308D01*
X8211003Y54913044D01*
X8204765Y55040000D01*
X8211003Y55166956D01*
X8229654Y55292692D01*
X8260538Y55415989D01*
X8303358Y55535663D01*
X8357702Y55650564D01*
X8423054Y55759596D01*
X8498772Y55861690D01*
X8584131Y55955869D01*
X8678310Y56041228D01*
X8780404Y56116946D01*
X8889436Y56182298D01*
X9004337Y56236642D01*
X9124011Y56279462D01*
X9247308Y56310346D01*
X9373044Y56328997D01*
X9500000Y56335235D01*
X9626956Y56328997D01*
X9752692Y56310346D01*
X9875989Y56279462D01*
X9995662Y56236642D01*
X10130719Y56172765D01*
X11502401Y57544448D01*
X11508877Y57552220D01*
X11562222Y57595996D01*
X11623770Y57628893D01*
X11690548Y57649151D01*
X11749923Y57655000D01*
X17110077Y57655000D01*
X17169451Y57649151D01*
X17236229Y57628893D01*
X17297776Y57595996D01*
X17343897Y57558148D01*
X19147047Y55755000D01*
X21005000Y55755000D01*
X21005000Y56045000D01*
X22395000Y56045000D01*
X22395000Y55755000D01*
X23035000Y55755000D01*
X23035000Y56145000D01*
X25225000Y56145000D01*
X25225000Y54655000D01*
X23035000Y54655000D01*
X23035000Y55045000D01*
X22395000Y55045000D01*
X22395000Y54755000D01*
X21005000Y54755000D01*
X21005000Y55045000D01*
X18989935Y55045000D01*
X18930548Y55050849D01*
X18863770Y55071106D01*
X18802223Y55104003D01*
X18748157Y55148371D01*
X18741740Y55156214D01*
X16952953Y56945000D01*
X11907047Y56945000D01*
X10632765Y55670719D01*
X10696642Y55535662D01*
X10739462Y55415989D01*
X10770346Y55292692D01*
X10788997Y55166956D01*
X10795235Y55040000D01*
X10788997Y54913044D01*
X10770346Y54787308D01*
X10739462Y54664011D01*
X10696642Y54544337D01*
X10642298Y54429436D01*
X10576946Y54320404D01*
X10501228Y54218310D01*
X10415869Y54124131D01*
X10321690Y54038772D01*
X10219596Y53963054D01*
X10110564Y53897702D01*
X9995663Y53843358D01*
X9875989Y53800538D01*
X9752692Y53769654D01*
X9626956Y53751003D01*
X9500000Y53744765D01*
D02*
G37*
%LPC*%
G36*
X4420000Y53744765D02*
X4293044Y53751003D01*
X4167308Y53769654D01*
X4044011Y53800538D01*
X3924337Y53843358D01*
X3809436Y53897702D01*
X3700404Y53963054D01*
X3598310Y54038772D01*
X3504131Y54124131D01*
X3418772Y54218310D01*
X3343054Y54320404D01*
X3277702Y54429436D01*
X3223358Y54544337D01*
X3180538Y54664011D01*
X3149654Y54787308D01*
X3131003Y54913044D01*
X3124765Y55040000D01*
X3131003Y55166956D01*
X3149654Y55292692D01*
X3180538Y55415989D01*
X3223358Y55535663D01*
X3277702Y55650564D01*
X3343054Y55759596D01*
X3418772Y55861690D01*
X3504131Y55955869D01*
X3598310Y56041228D01*
X3700404Y56116946D01*
X3809436Y56182298D01*
X3924337Y56236642D01*
X4044011Y56279462D01*
X4167308Y56310346D01*
X4293044Y56328997D01*
X4420000Y56335235D01*
X4546956Y56328997D01*
X4672692Y56310346D01*
X4795989Y56279462D01*
X4915663Y56236642D01*
X5030564Y56182298D01*
X5139596Y56116946D01*
X5241690Y56041228D01*
X5335869Y55955869D01*
X5421228Y55861690D01*
X5496946Y55759596D01*
X5562298Y55650564D01*
X5616642Y55535663D01*
X5659462Y55415989D01*
X5690346Y55292692D01*
X5708997Y55166956D01*
X5715235Y55040000D01*
X5708997Y54913044D01*
X5690346Y54787308D01*
X5659462Y54664011D01*
X5616642Y54544337D01*
X5562298Y54429436D01*
X5496946Y54320404D01*
X5421228Y54218310D01*
X5335869Y54124131D01*
X5241690Y54038772D01*
X5139596Y53963054D01*
X5030564Y53897702D01*
X4915663Y53843358D01*
X4795989Y53800538D01*
X4672692Y53769654D01*
X4546956Y53751003D01*
X4420000Y53744765D01*
D02*
G37*
%LPC*%
G36*
X23595000Y48955000D02*
X22205000Y48955000D01*
X22205000Y50332953D01*
X21456214Y51081740D01*
X21448371Y51088157D01*
X21404000Y51142226D01*
X21349067Y51245000D01*
X21055000Y51245000D01*
X21055000Y52635000D01*
X21345000Y52635000D01*
X21345000Y53155000D01*
X21005000Y53155000D01*
X21005000Y53445000D01*
X15809935Y53445000D01*
X15750548Y53450849D01*
X15683770Y53471106D01*
X15622223Y53504003D01*
X15568155Y53548372D01*
X15561738Y53556215D01*
X15210719Y53907235D01*
X15075662Y53843358D01*
X14955989Y53800538D01*
X14832692Y53769654D01*
X14706956Y53751003D01*
X14580000Y53744765D01*
X14453044Y53751003D01*
X14327308Y53769654D01*
X14204011Y53800538D01*
X14084337Y53843358D01*
X13969436Y53897702D01*
X13860404Y53963054D01*
X13758310Y54038772D01*
X13664131Y54124131D01*
X13578772Y54218310D01*
X13503054Y54320404D01*
X13437702Y54429436D01*
X13383358Y54544337D01*
X13340538Y54664011D01*
X13309654Y54787308D01*
X13291003Y54913044D01*
X13284765Y55040000D01*
X13291003Y55166956D01*
X13309654Y55292692D01*
X13340538Y55415989D01*
X13383358Y55535663D01*
X13437702Y55650564D01*
X13503054Y55759596D01*
X13578772Y55861690D01*
X13664131Y55955869D01*
X13758310Y56041228D01*
X13860404Y56116946D01*
X13969436Y56182298D01*
X14084337Y56236642D01*
X14204011Y56279462D01*
X14327308Y56310346D01*
X14453044Y56328997D01*
X14580000Y56335235D01*
X14706956Y56328997D01*
X14832692Y56310346D01*
X14955989Y56279462D01*
X15075663Y56236642D01*
X15190564Y56182298D01*
X15299596Y56116946D01*
X15401690Y56041228D01*
X15495869Y55955869D01*
X15581228Y55861690D01*
X15656946Y55759596D01*
X15722298Y55650564D01*
X15776642Y55535663D01*
X15819462Y55415989D01*
X15850346Y55292692D01*
X15868997Y55166956D01*
X15875235Y55040000D01*
X15868997Y54913044D01*
X15850346Y54787308D01*
X15819462Y54664011D01*
X15776642Y54544338D01*
X15712765Y54409281D01*
X15967047Y54155000D01*
X21005000Y54155000D01*
X21005000Y54445000D01*
X22395000Y54445000D01*
X22395000Y53155000D01*
X22055000Y53155000D01*
X22055000Y52635000D01*
X22345000Y52635000D01*
X22345000Y51197047D01*
X23158148Y50383897D01*
X23195997Y50337776D01*
X23245586Y50245000D01*
X23595000Y50245000D01*
X23595000Y48955000D01*
D02*
G37*
%LPC*%
G36*
X25230000Y52550000D02*
X24280000Y52550000D01*
X24280000Y53150000D01*
X25230000Y53150000D01*
X25230000Y52550000D01*
D02*
G37*
%LPC*%
G36*
X23980000Y52550000D02*
X23030000Y52550000D01*
X23030000Y53150000D01*
X23980000Y53150000D01*
X23980000Y52550000D01*
D02*
G37*
%LPC*%
G36*
X4420000Y48664765D02*
X4293044Y48671003D01*
X4167308Y48689654D01*
X4044011Y48720538D01*
X3924337Y48763358D01*
X3809436Y48817702D01*
X3700404Y48883054D01*
X3598310Y48958772D01*
X3504131Y49044131D01*
X3418772Y49138310D01*
X3343054Y49240404D01*
X3277702Y49349436D01*
X3223358Y49464337D01*
X3180538Y49584011D01*
X3149654Y49707308D01*
X3131003Y49833044D01*
X3124765Y49960000D01*
X3131003Y50086956D01*
X3149654Y50212692D01*
X3180538Y50335989D01*
X3223358Y50455663D01*
X3277702Y50570564D01*
X3343054Y50679596D01*
X3418772Y50781690D01*
X3504131Y50875869D01*
X3598310Y50961228D01*
X3700404Y51036946D01*
X3809436Y51102298D01*
X3924337Y51156642D01*
X4044011Y51199462D01*
X4167308Y51230346D01*
X4293044Y51248997D01*
X4420000Y51255235D01*
X4546956Y51248997D01*
X4672692Y51230346D01*
X4795989Y51199462D01*
X4915662Y51156642D01*
X5050719Y51092765D01*
X6702401Y52744448D01*
X6708877Y52752220D01*
X6762222Y52795996D01*
X6823770Y52828893D01*
X6890548Y52849151D01*
X6949923Y52855000D01*
X15110077Y52855000D01*
X15169451Y52849151D01*
X15236229Y52828893D01*
X15297776Y52795996D01*
X15343897Y52758148D01*
X17847047Y50255000D01*
X18180000Y50255000D01*
X18180000Y50595000D01*
X18745000Y50595000D01*
X18745000Y50950066D01*
X18750849Y51009451D01*
X18771106Y51076229D01*
X18804003Y51137777D01*
X18847779Y51191122D01*
X18855551Y51197598D01*
X19455000Y51797046D01*
X19455000Y52635000D01*
X20745000Y52635000D01*
X20745000Y51245000D01*
X19907047Y51245000D01*
X19455000Y50792953D01*
X19455000Y50595000D01*
X20020000Y50595000D01*
X20020000Y50255000D01*
X20605884Y50255000D01*
X20672027Y50327973D01*
X20716037Y50367864D01*
X20763741Y50403243D01*
X20814686Y50433778D01*
X20868382Y50459174D01*
X20924308Y50479185D01*
X20981924Y50493618D01*
X21040681Y50502332D01*
X21100000Y50505248D01*
X21159319Y50502332D01*
X21218076Y50493618D01*
X21275692Y50479185D01*
X21331618Y50459174D01*
X21385314Y50433778D01*
X21436259Y50403243D01*
X21483963Y50367864D01*
X21527973Y50327973D01*
X21567864Y50283963D01*
X21603243Y50236259D01*
X21633778Y50185314D01*
X21659174Y50131618D01*
X21679185Y50075692D01*
X21693618Y50018076D01*
X21702332Y49959319D01*
X21705248Y49900000D01*
X21702332Y49840681D01*
X21693618Y49781924D01*
X21679185Y49724308D01*
X21659174Y49668382D01*
X21633778Y49614686D01*
X21603243Y49563741D01*
X21567864Y49516037D01*
X21527973Y49472027D01*
X21483963Y49432136D01*
X21436259Y49396757D01*
X21385314Y49366222D01*
X21331618Y49340826D01*
X21275692Y49320815D01*
X21218076Y49306382D01*
X21159319Y49297668D01*
X21100000Y49294752D01*
X21040681Y49297668D01*
X20981924Y49306382D01*
X20924308Y49320815D01*
X20868382Y49340826D01*
X20814686Y49366222D01*
X20763741Y49396757D01*
X20716037Y49432136D01*
X20672027Y49472027D01*
X20605884Y49545000D01*
X20020000Y49545000D01*
X20020000Y49205000D01*
X18180000Y49205000D01*
X18180000Y49545000D01*
X17689935Y49545000D01*
X17630548Y49550849D01*
X17563770Y49571106D01*
X17502223Y49604003D01*
X17448157Y49648371D01*
X17441740Y49656214D01*
X14952953Y52145000D01*
X7107047Y52145000D01*
X5552765Y50590719D01*
X5616642Y50455662D01*
X5659462Y50335989D01*
X5690346Y50212692D01*
X5708997Y50086956D01*
X5715235Y49960000D01*
X5708997Y49833044D01*
X5690346Y49707308D01*
X5659462Y49584011D01*
X5616642Y49464337D01*
X5562298Y49349436D01*
X5496946Y49240404D01*
X5421228Y49138310D01*
X5335869Y49044131D01*
X5241690Y48958772D01*
X5139596Y48883054D01*
X5030564Y48817702D01*
X4915663Y48763358D01*
X4795989Y48720538D01*
X4672692Y48689654D01*
X4546956Y48671003D01*
X4420000Y48664765D01*
D02*
G37*
%LPC*%
G36*
X25230000Y51650000D02*
X24280000Y51650000D01*
X24280000Y52250000D01*
X25230000Y52250000D01*
X25230000Y51650000D01*
D02*
G37*
%LPC*%
G36*
X23980000Y51650000D02*
X23030000Y51650000D01*
X23030000Y52250000D01*
X23980000Y52250000D01*
X23980000Y51650000D01*
D02*
G37*
%LPC*%
G36*
X14580000Y48664765D02*
X14453044Y48671003D01*
X14327308Y48689654D01*
X14204011Y48720538D01*
X14084337Y48763358D01*
X13969436Y48817702D01*
X13860404Y48883054D01*
X13758310Y48958772D01*
X13664131Y49044131D01*
X13578772Y49138310D01*
X13503054Y49240404D01*
X13437702Y49349436D01*
X13383358Y49464337D01*
X13340538Y49584011D01*
X13309654Y49707308D01*
X13291003Y49833044D01*
X13284765Y49960000D01*
X13291003Y50086956D01*
X13309654Y50212692D01*
X13340538Y50335989D01*
X13383358Y50455663D01*
X13437702Y50570564D01*
X13503054Y50679596D01*
X13578772Y50781690D01*
X13664131Y50875869D01*
X13758310Y50961228D01*
X13860404Y51036946D01*
X13969436Y51102298D01*
X14084337Y51156642D01*
X14204011Y51199462D01*
X14327308Y51230346D01*
X14453044Y51248997D01*
X14580000Y51255235D01*
X14706956Y51248997D01*
X14832692Y51230346D01*
X14955989Y51199462D01*
X15075663Y51156642D01*
X15190564Y51102298D01*
X15299596Y51036946D01*
X15401690Y50961228D01*
X15495869Y50875869D01*
X15581228Y50781690D01*
X15656946Y50679596D01*
X15722298Y50570564D01*
X15776642Y50455663D01*
X15819462Y50335989D01*
X15850346Y50212692D01*
X15868997Y50086956D01*
X15875235Y49960000D01*
X15868997Y49833044D01*
X15850346Y49707308D01*
X15819462Y49584011D01*
X15776642Y49464337D01*
X15722298Y49349436D01*
X15656946Y49240404D01*
X15581228Y49138310D01*
X15495869Y49044131D01*
X15401690Y48958772D01*
X15299596Y48883054D01*
X15190564Y48817702D01*
X15075663Y48763358D01*
X14955989Y48720538D01*
X14832692Y48689654D01*
X14706956Y48671003D01*
X14580000Y48664765D01*
D02*
G37*
%LPC*%
G36*
X20020000Y47305000D02*
X18180000Y47305000D01*
X18180000Y47645000D01*
X11449935Y47645000D01*
X11390548Y47650849D01*
X11323770Y47671106D01*
X11262223Y47704003D01*
X11208155Y47748372D01*
X11201738Y47756215D01*
X10130719Y48827235D01*
X9995662Y48763358D01*
X9875989Y48720538D01*
X9752692Y48689654D01*
X9626956Y48671003D01*
X9500000Y48664765D01*
X9373044Y48671003D01*
X9247308Y48689654D01*
X9124011Y48720538D01*
X9004337Y48763358D01*
X8889436Y48817702D01*
X8780404Y48883054D01*
X8678310Y48958772D01*
X8584131Y49044131D01*
X8498772Y49138310D01*
X8423054Y49240404D01*
X8357702Y49349436D01*
X8303358Y49464337D01*
X8260538Y49584011D01*
X8229654Y49707308D01*
X8211003Y49833044D01*
X8204765Y49960000D01*
X8211003Y50086956D01*
X8229654Y50212692D01*
X8260538Y50335989D01*
X8303358Y50455663D01*
X8357702Y50570564D01*
X8423054Y50679596D01*
X8498772Y50781690D01*
X8584131Y50875869D01*
X8678310Y50961228D01*
X8780404Y51036946D01*
X8889436Y51102298D01*
X9004337Y51156642D01*
X9124011Y51199462D01*
X9247308Y51230346D01*
X9373044Y51248997D01*
X9500000Y51255235D01*
X9626956Y51248997D01*
X9752692Y51230346D01*
X9875989Y51199462D01*
X9995663Y51156642D01*
X10110564Y51102298D01*
X10219596Y51036946D01*
X10321690Y50961228D01*
X10415869Y50875869D01*
X10501228Y50781690D01*
X10576946Y50679596D01*
X10642298Y50570564D01*
X10696642Y50455663D01*
X10739462Y50335989D01*
X10770346Y50212692D01*
X10788997Y50086956D01*
X10795235Y49960000D01*
X10788997Y49833044D01*
X10770346Y49707308D01*
X10739462Y49584011D01*
X10696642Y49464338D01*
X10632765Y49329281D01*
X11607047Y48355000D01*
X18180000Y48355000D01*
X18180000Y48695000D01*
X20020000Y48695000D01*
X20020000Y48355000D01*
X22205000Y48355000D01*
X22205000Y48645000D01*
X23595000Y48645000D01*
X23595000Y48355000D01*
X24605884Y48355000D01*
X24672027Y48427973D01*
X24716037Y48467864D01*
X24763741Y48503243D01*
X24814686Y48533778D01*
X24868382Y48559174D01*
X24924308Y48579185D01*
X24981924Y48593618D01*
X25040681Y48602332D01*
X25100000Y48605248D01*
X25159319Y48602332D01*
X25218076Y48593618D01*
X25275692Y48579185D01*
X25331618Y48559174D01*
X25385314Y48533778D01*
X25436259Y48503243D01*
X25483963Y48467864D01*
X25527973Y48427973D01*
X25567864Y48383963D01*
X25603243Y48336259D01*
X25633778Y48285314D01*
X25659174Y48231618D01*
X25679185Y48175692D01*
X25693618Y48118076D01*
X25702332Y48059319D01*
X25705248Y48000000D01*
X25702332Y47940681D01*
X25693618Y47881924D01*
X25679185Y47824308D01*
X25659174Y47768382D01*
X25633778Y47714686D01*
X25603243Y47663741D01*
X25567864Y47616037D01*
X25527973Y47572027D01*
X25483963Y47532136D01*
X25436259Y47496757D01*
X25385314Y47466222D01*
X25331618Y47440826D01*
X25275692Y47420815D01*
X25218076Y47406382D01*
X25159319Y47397668D01*
X25100000Y47394752D01*
X25040681Y47397668D01*
X24981924Y47406382D01*
X24924308Y47420815D01*
X24868382Y47440826D01*
X24814686Y47466222D01*
X24763741Y47496757D01*
X24716037Y47532136D01*
X24672027Y47572027D01*
X24605884Y47645000D01*
X23595000Y47645000D01*
X23595000Y47355000D01*
X22205000Y47355000D01*
X22205000Y47645000D01*
X20020000Y47645000D01*
X20020000Y47305000D01*
D02*
G37*
%LPC*%
G36*
X15540000Y39305000D02*
X14150000Y39305000D01*
X14150000Y40595000D01*
X14490000Y40595000D01*
X14490000Y41540000D01*
X14150000Y41540000D01*
X14150000Y43380000D01*
X14490000Y43380000D01*
X14490000Y45805884D01*
X14417027Y45872027D01*
X14377136Y45916037D01*
X14341757Y45963741D01*
X14311222Y46014686D01*
X14285826Y46068382D01*
X14265815Y46124308D01*
X14251382Y46181924D01*
X14242668Y46240681D01*
X14239752Y46300000D01*
X14242668Y46359319D01*
X14251382Y46418076D01*
X14265815Y46475692D01*
X14285826Y46531618D01*
X14311222Y46585314D01*
X14341757Y46636259D01*
X14377136Y46683963D01*
X14417027Y46727973D01*
X14461037Y46767864D01*
X14508741Y46803243D01*
X14559686Y46833778D01*
X14613382Y46859174D01*
X14669308Y46879185D01*
X14726924Y46893618D01*
X14785681Y46902332D01*
X14845000Y46905248D01*
X14904319Y46902332D01*
X14963076Y46893618D01*
X15020692Y46879185D01*
X15076618Y46859174D01*
X15130314Y46833778D01*
X15181259Y46803243D01*
X15228963Y46767864D01*
X15272973Y46727973D01*
X15312864Y46683963D01*
X15348243Y46636259D01*
X15378778Y46585314D01*
X15404174Y46531618D01*
X15424185Y46475692D01*
X15438618Y46418076D01*
X15447332Y46359319D01*
X15450248Y46300000D01*
X15447332Y46240681D01*
X15438618Y46181924D01*
X15424185Y46124308D01*
X15404174Y46068382D01*
X15378778Y46014686D01*
X15348243Y45963741D01*
X15312864Y45916037D01*
X15272973Y45872027D01*
X15200000Y45805884D01*
X15200000Y43380000D01*
X15540000Y43380000D01*
X15540000Y41540000D01*
X15200000Y41540000D01*
X15200000Y40595000D01*
X15540000Y40595000D01*
X15540000Y39305000D01*
D02*
G37*
%LPC*%
G36*
X39826667Y41369997D02*
X37886667Y41369997D01*
X37886667Y42359997D01*
X38376667Y42359997D01*
X38376667Y43259997D01*
X38211667Y43259997D01*
X38211667Y44649997D01*
X38351667Y44649997D01*
X38351667Y45063281D01*
X38311501Y45107597D01*
X38270281Y45163176D01*
X38234694Y45222548D01*
X38205105Y45285111D01*
X38181785Y45350281D01*
X38164974Y45417402D01*
X38154815Y45485880D01*
X38151419Y45554997D01*
X38154815Y45624114D01*
X38164974Y45692592D01*
X38181785Y45759713D01*
X38205105Y45824883D01*
X38234694Y45887446D01*
X38270281Y45946818D01*
X38311501Y46002398D01*
X38357982Y46053682D01*
X38409266Y46100163D01*
X38464846Y46141383D01*
X38524218Y46176970D01*
X38586781Y46206559D01*
X38651951Y46229879D01*
X38719072Y46246690D01*
X38787550Y46256849D01*
X38856667Y46260245D01*
X38925784Y46256849D01*
X38994262Y46246690D01*
X39061383Y46229879D01*
X39126553Y46206559D01*
X39189116Y46176970D01*
X39248488Y46141383D01*
X39304068Y46100163D01*
X39355352Y46053682D01*
X39401833Y46002398D01*
X39443053Y45946818D01*
X39478640Y45887446D01*
X39508229Y45824883D01*
X39531549Y45759713D01*
X39548360Y45692592D01*
X39558519Y45624114D01*
X39561915Y45554997D01*
X39558519Y45485880D01*
X39548360Y45417402D01*
X39531549Y45350281D01*
X39508229Y45285111D01*
X39478640Y45222548D01*
X39443053Y45163176D01*
X39401833Y45107597D01*
X39361667Y45063281D01*
X39361667Y44649997D01*
X39501667Y44649997D01*
X39501667Y43259997D01*
X39336667Y43259997D01*
X39336667Y42359997D01*
X39826667Y42359997D01*
X39826667Y41369997D01*
D02*
G37*
%LPC*%
G36*
X13590000Y39535000D02*
X12300000Y39535000D01*
X12300000Y40925000D01*
X12590000Y40925000D01*
X12590000Y41540000D01*
X12250000Y41540000D01*
X12250000Y43380000D01*
X12590000Y43380000D01*
X12590000Y44705884D01*
X12517027Y44772027D01*
X12477136Y44816037D01*
X12441757Y44863741D01*
X12411222Y44914686D01*
X12385826Y44968382D01*
X12365815Y45024308D01*
X12351382Y45081924D01*
X12342668Y45140681D01*
X12339752Y45200000D01*
X12342668Y45259319D01*
X12351382Y45318076D01*
X12365815Y45375692D01*
X12385826Y45431618D01*
X12411222Y45485314D01*
X12441757Y45536259D01*
X12477136Y45583963D01*
X12517027Y45627973D01*
X12561037Y45667864D01*
X12608741Y45703243D01*
X12659686Y45733778D01*
X12713382Y45759174D01*
X12769308Y45779185D01*
X12826924Y45793618D01*
X12885681Y45802332D01*
X12945000Y45805248D01*
X13004319Y45802332D01*
X13063076Y45793618D01*
X13120692Y45779185D01*
X13176618Y45759174D01*
X13230314Y45733778D01*
X13281259Y45703243D01*
X13328963Y45667864D01*
X13372973Y45627973D01*
X13412864Y45583963D01*
X13448243Y45536259D01*
X13478778Y45485314D01*
X13504174Y45431618D01*
X13524185Y45375692D01*
X13538618Y45318076D01*
X13547332Y45259319D01*
X13550248Y45200000D01*
X13547332Y45140681D01*
X13538618Y45081924D01*
X13524185Y45024308D01*
X13504174Y44968382D01*
X13478778Y44914686D01*
X13448243Y44863741D01*
X13412864Y44816037D01*
X13372973Y44772027D01*
X13300000Y44705884D01*
X13300000Y43380000D01*
X13640000Y43380000D01*
X13640000Y41540000D01*
X13300000Y41540000D01*
X13300000Y40925000D01*
X13590000Y40925000D01*
X13590000Y39535000D01*
D02*
G37*
%LPC*%
G36*
X37906667Y44104997D02*
X37406667Y44104997D01*
X37406667Y44654997D01*
X37906667Y44654997D01*
X37906667Y44104997D01*
D02*
G37*
%LPC*%
G36*
X37106667Y44104997D02*
X36606667Y44104997D01*
X36606667Y44654997D01*
X37106667Y44654997D01*
X37106667Y44104997D01*
D02*
G37*
%LPC*%
G36*
X39826667Y37559997D02*
X37886667Y37559997D01*
X37886667Y37683261D01*
X37745438Y37726102D01*
X37683890Y37759000D01*
X37629825Y37803367D01*
X37623408Y37811210D01*
X36756213Y38678405D01*
X36748370Y38684822D01*
X36704003Y38738887D01*
X36671106Y38800434D01*
X36650849Y38867212D01*
X36645000Y38926599D01*
X36645000Y41252953D01*
X34498367Y43399588D01*
X34399999Y43394752D01*
X34340681Y43397668D01*
X34281924Y43406382D01*
X34224308Y43420815D01*
X34168382Y43440826D01*
X34114686Y43466222D01*
X34063741Y43496757D01*
X34016037Y43532136D01*
X33972027Y43572027D01*
X33932136Y43616037D01*
X33896757Y43663741D01*
X33866222Y43714686D01*
X33840826Y43768382D01*
X33820815Y43824308D01*
X33806382Y43881924D01*
X33797668Y43940681D01*
X33794752Y44000000D01*
X33797668Y44059319D01*
X33806382Y44118076D01*
X33820815Y44175692D01*
X33840826Y44231618D01*
X33866222Y44285314D01*
X33896757Y44336259D01*
X33932136Y44383963D01*
X33972027Y44427973D01*
X34016037Y44467864D01*
X34063741Y44503243D01*
X34114686Y44533778D01*
X34168382Y44559174D01*
X34224308Y44579185D01*
X34281924Y44593618D01*
X34340681Y44602332D01*
X34400000Y44605248D01*
X34459319Y44602332D01*
X34518076Y44593618D01*
X34575692Y44579185D01*
X34631618Y44559174D01*
X34685314Y44533778D01*
X34736259Y44503243D01*
X34783963Y44467864D01*
X34827973Y44427973D01*
X34867864Y44383963D01*
X34903243Y44336259D01*
X34933778Y44285314D01*
X34959174Y44231618D01*
X34979185Y44175692D01*
X34993618Y44118076D01*
X35002332Y44059319D01*
X35005248Y44000000D01*
X35000412Y43901633D01*
X37258148Y41643897D01*
X37295996Y41597776D01*
X37328893Y41536229D01*
X37349151Y41469451D01*
X37355000Y41410077D01*
X37355000Y39083711D01*
X37888714Y38549997D01*
X39826667Y38549997D01*
X39826667Y37559997D01*
D02*
G37*
%LPC*%
G36*
X37906667Y43254997D02*
X37406667Y43254997D01*
X37406667Y43804997D01*
X37906667Y43804997D01*
X37906667Y43254997D01*
D02*
G37*
%LPC*%
G36*
X37106667Y43254997D02*
X36606667Y43254997D01*
X36606667Y43804997D01*
X37106667Y43804997D01*
X37106667Y43254997D01*
D02*
G37*
%LPC*%
G36*
X29651667Y38999997D02*
X27761667Y38999997D01*
X27761667Y42189997D01*
X29651667Y42189997D01*
X29651667Y40949997D01*
X32546667Y40949997D01*
X32546667Y41089997D01*
X33161667Y41089997D01*
X33161667Y41369997D01*
X32546667Y41369997D01*
X32546667Y42359997D01*
X34486667Y42359997D01*
X34486667Y41369997D01*
X33871667Y41369997D01*
X33871667Y41089997D01*
X34486667Y41089997D01*
X34486667Y40099997D01*
X32546667Y40099997D01*
X32546667Y40239997D01*
X29651667Y40239997D01*
X29651667Y38999997D01*
D02*
G37*
%LPC*%
G36*
X48500000Y35254764D02*
X48377953Y35260762D01*
X48257065Y35278693D01*
X48138526Y35308385D01*
X48023471Y35349552D01*
X47913002Y35401800D01*
X47808185Y35464625D01*
X47710033Y35537421D01*
X47619486Y35619486D01*
X47537421Y35710033D01*
X47464625Y35808185D01*
X47401800Y35913002D01*
X47349552Y36023471D01*
X47308385Y36138526D01*
X47278693Y36257065D01*
X47260762Y36377953D01*
X47254764Y36500000D01*
X47260762Y36622047D01*
X47278693Y36742935D01*
X47308385Y36861474D01*
X47349552Y36976529D01*
X47401800Y37086998D01*
X47464625Y37191815D01*
X47537421Y37289967D01*
X47619486Y37380514D01*
X47710033Y37462579D01*
X47808185Y37535375D01*
X47913002Y37598200D01*
X48023471Y37650448D01*
X48145000Y37693931D01*
X48145000Y38652953D01*
X46392953Y40405000D01*
X43705000Y40405000D01*
X43705000Y40115000D01*
X42315000Y40115000D01*
X42315000Y40405000D01*
X41825000Y40405000D01*
X41825000Y40115000D01*
X40435000Y40115000D01*
X40435000Y40239997D01*
X39826667Y40239997D01*
X39826667Y40099997D01*
X37886667Y40099997D01*
X37886667Y41089997D01*
X39826667Y41089997D01*
X39826667Y40949997D01*
X40435000Y40949997D01*
X40435000Y41405000D01*
X41825000Y41405000D01*
X41825000Y41115000D01*
X42315000Y41115000D01*
X42315000Y41405000D01*
X43705000Y41405000D01*
X43705000Y41115000D01*
X46550077Y41115000D01*
X46609451Y41109151D01*
X46676229Y41088893D01*
X46737776Y41055996D01*
X46783897Y41018148D01*
X48758148Y39043897D01*
X48795996Y38997776D01*
X48828893Y38936229D01*
X48849151Y38869451D01*
X48855000Y38810077D01*
X48855000Y37693931D01*
X48976529Y37650448D01*
X49086998Y37598200D01*
X49191815Y37535375D01*
X49289967Y37462579D01*
X49380514Y37380514D01*
X49462579Y37289967D01*
X49535375Y37191815D01*
X49598200Y37086998D01*
X49650448Y36976529D01*
X49691615Y36861474D01*
X49721307Y36742935D01*
X49739238Y36622047D01*
X49745236Y36500000D01*
X49739238Y36377953D01*
X49721307Y36257065D01*
X49691615Y36138526D01*
X49650448Y36023471D01*
X49598200Y35913002D01*
X49535375Y35808185D01*
X49462579Y35710033D01*
X49380514Y35619486D01*
X49289967Y35537421D01*
X49191815Y35464625D01*
X49086998Y35401800D01*
X48976529Y35349552D01*
X48861474Y35308385D01*
X48742935Y35278693D01*
X48622047Y35260762D01*
X48500000Y35254764D01*
D02*
G37*
%LPC*%
G36*
X11195000Y40380000D02*
X10695000Y40380000D01*
X10695000Y40930000D01*
X11195000Y40930000D01*
X11195000Y40380000D01*
D02*
G37*
%LPC*%
G36*
X11995000Y40380000D02*
X11495000Y40380000D01*
X11495000Y40930000D01*
X11995000Y40930000D01*
X11995000Y40380000D01*
D02*
G37*
%LPC*%
G36*
X11995000Y39530000D02*
X11495000Y39530000D01*
X11495000Y40080000D01*
X11995000Y40080000D01*
X11995000Y39530000D01*
D02*
G37*
%LPC*%
G36*
X11195000Y39530000D02*
X10695000Y39530000D01*
X10695000Y40080000D01*
X11195000Y40080000D01*
X11195000Y39530000D01*
D02*
G37*
%LPC*%
G36*
X37445000Y32305000D02*
X36155000Y32305000D01*
X36155000Y33695000D01*
X36445000Y33695000D01*
X36445000Y34335000D01*
X36235000Y34335000D01*
X36235000Y36462953D01*
X34956214Y37741740D01*
X34948371Y37748157D01*
X34904003Y37802223D01*
X34871106Y37863770D01*
X34850849Y37930548D01*
X34845000Y37989935D01*
X34845000Y38472953D01*
X34487956Y38829997D01*
X32546667Y38829997D01*
X32546667Y39819997D01*
X34486667Y39819997D01*
X34486667Y39697744D01*
X34631232Y39653890D01*
X34692779Y39620993D01*
X34738900Y39583145D01*
X35458148Y38863897D01*
X35495996Y38817776D01*
X35528893Y38756229D01*
X35549151Y38689451D01*
X35555000Y38630077D01*
X35555000Y38147047D01*
X37177046Y36525000D01*
X37725000Y36525000D01*
X37725000Y34335000D01*
X37155000Y34335000D01*
X37155000Y33695000D01*
X37445000Y33695000D01*
X37445000Y32305000D01*
D02*
G37*
%LPC*%
G36*
X43705000Y36715000D02*
X42315000Y36715000D01*
X42315000Y38005000D01*
X42655000Y38005000D01*
X42655000Y38515000D01*
X42315000Y38515000D01*
X42315000Y38805000D01*
X41825000Y38805000D01*
X41825000Y38515000D01*
X40435000Y38515000D01*
X40435000Y38969997D01*
X39826667Y38969997D01*
X39826667Y38829997D01*
X37886667Y38829997D01*
X37886667Y39819997D01*
X39826667Y39819997D01*
X39826667Y39679997D01*
X40435000Y39679997D01*
X40435000Y39805000D01*
X41825000Y39805000D01*
X41825000Y39515000D01*
X42315000Y39515000D01*
X42315000Y39805000D01*
X43705000Y39805000D01*
X43705000Y38515000D01*
X43365000Y38515000D01*
X43365000Y38005000D01*
X43705000Y38005000D01*
X43705000Y36715000D01*
D02*
G37*
%LPC*%
G36*
X11995000Y38500000D02*
X11495000Y38500000D01*
X11495000Y39050000D01*
X11995000Y39050000D01*
X11995000Y38500000D01*
D02*
G37*
%LPC*%
G36*
X11195000Y38500000D02*
X10695000Y38500000D01*
X10695000Y39050000D01*
X11195000Y39050000D01*
X11195000Y38500000D01*
D02*
G37*
%LPC*%
G36*
X17420000Y35865000D02*
X16030000Y35865000D01*
X16030000Y37155000D01*
X16370000Y37155000D01*
X16370000Y37705000D01*
X16030000Y37705000D01*
X16030000Y37995000D01*
X15540000Y37995000D01*
X15540000Y37705000D01*
X14150000Y37705000D01*
X14150000Y37995000D01*
X13590000Y37995000D01*
X13590000Y37655000D01*
X12300000Y37655000D01*
X12300000Y39045000D01*
X13590000Y39045000D01*
X13590000Y38705000D01*
X14150000Y38705000D01*
X14150000Y38995000D01*
X15540000Y38995000D01*
X15540000Y38705000D01*
X16030000Y38705000D01*
X16030000Y38995000D01*
X17420000Y38995000D01*
X17420000Y37705000D01*
X17080000Y37705000D01*
X17080000Y37155000D01*
X17420000Y37155000D01*
X17420000Y35865000D01*
D02*
G37*
%LPC*%
G36*
X33296667Y33659749D02*
X33227550Y33663145D01*
X33159072Y33673304D01*
X33091951Y33690115D01*
X33026781Y33713435D01*
X32964218Y33743024D01*
X32904846Y33778611D01*
X32849266Y33819831D01*
X32797982Y33866312D01*
X32751501Y33917596D01*
X32710281Y33973176D01*
X32674694Y34032548D01*
X32645105Y34095111D01*
X32621785Y34160281D01*
X32604974Y34227402D01*
X32594815Y34295880D01*
X32591419Y34364997D01*
X32594815Y34434114D01*
X32604974Y34502592D01*
X32621785Y34569713D01*
X32645105Y34634883D01*
X32674694Y34697446D01*
X32710281Y34756818D01*
X32751501Y34812397D01*
X32791667Y34856713D01*
X32791667Y35269997D01*
X32651667Y35269997D01*
X32651667Y36659997D01*
X32816667Y36659997D01*
X32816667Y37559997D01*
X32546667Y37559997D01*
X32546667Y38549997D01*
X34486667Y38549997D01*
X34486667Y37559997D01*
X33776667Y37559997D01*
X33776667Y36659997D01*
X33941667Y36659997D01*
X33941667Y35269997D01*
X33801667Y35269997D01*
X33801667Y34856713D01*
X33841833Y34812397D01*
X33883053Y34756818D01*
X33918640Y34697446D01*
X33948229Y34634883D01*
X33971549Y34569713D01*
X33988360Y34502592D01*
X33998519Y34434114D01*
X34001915Y34364997D01*
X33998519Y34295880D01*
X33988360Y34227402D01*
X33971549Y34160281D01*
X33948229Y34095111D01*
X33918640Y34032548D01*
X33883053Y33973176D01*
X33841833Y33917596D01*
X33795352Y33866312D01*
X33744068Y33819831D01*
X33688488Y33778611D01*
X33629116Y33743024D01*
X33566553Y33713435D01*
X33501383Y33690115D01*
X33434262Y33673304D01*
X33365784Y33663145D01*
X33296667Y33659749D01*
D02*
G37*
%LPC*%
G36*
X11995000Y37650000D02*
X11495000Y37650000D01*
X11495000Y38200000D01*
X11995000Y38200000D01*
X11995000Y37650000D01*
D02*
G37*
%LPC*%
G36*
X11195000Y37650000D02*
X10695000Y37650000D01*
X10695000Y38200000D01*
X11195000Y38200000D01*
X11195000Y37650000D01*
D02*
G37*
%LPC*%
G36*
X42445000Y32305000D02*
X41155000Y32305000D01*
X41155000Y33695000D01*
X41992954Y33695000D01*
X42542401Y34244448D01*
X42548877Y34252220D01*
X42602222Y34295996D01*
X42663770Y34328893D01*
X42730548Y34349151D01*
X42789923Y34355000D01*
X50852953Y34355000D01*
X52404741Y35906787D01*
X52349551Y36023476D01*
X52308385Y36138526D01*
X52278693Y36257065D01*
X52260762Y36377953D01*
X52254764Y36500000D01*
X52260762Y36622047D01*
X52278693Y36742935D01*
X52308385Y36861474D01*
X52349552Y36976529D01*
X52401800Y37086998D01*
X52464625Y37191815D01*
X52537421Y37289967D01*
X52619486Y37380514D01*
X52710033Y37462579D01*
X52808185Y37535375D01*
X52913002Y37598200D01*
X53023471Y37650448D01*
X53138526Y37691615D01*
X53257065Y37721307D01*
X53377953Y37739238D01*
X53500000Y37745236D01*
X53622047Y37739238D01*
X53742935Y37721307D01*
X53861474Y37691615D01*
X53976529Y37650448D01*
X54086998Y37598200D01*
X54191815Y37535375D01*
X54289967Y37462579D01*
X54380514Y37380514D01*
X54462579Y37289967D01*
X54535375Y37191815D01*
X54598200Y37086998D01*
X54650448Y36976529D01*
X54691615Y36861474D01*
X54721307Y36742935D01*
X54739238Y36622047D01*
X54745236Y36500000D01*
X54739238Y36377953D01*
X54721307Y36257065D01*
X54691615Y36138526D01*
X54650448Y36023471D01*
X54598200Y35913002D01*
X54535375Y35808185D01*
X54462579Y35710033D01*
X54380514Y35619486D01*
X54289967Y35537421D01*
X54191815Y35464625D01*
X54086998Y35401800D01*
X53976529Y35349552D01*
X53861474Y35308385D01*
X53742935Y35278693D01*
X53622047Y35260762D01*
X53500000Y35254764D01*
X53377953Y35260762D01*
X53257065Y35278693D01*
X53138526Y35308385D01*
X53023476Y35349551D01*
X52906787Y35404741D01*
X51257598Y33755551D01*
X51251122Y33747779D01*
X51197777Y33704003D01*
X51136229Y33671106D01*
X51069451Y33650849D01*
X51010066Y33645000D01*
X42947047Y33645000D01*
X42445000Y33142954D01*
X42445000Y32305000D01*
D02*
G37*
%LPC*%
G36*
X58350000Y36650000D02*
X57259853Y36650000D01*
X57273783Y36743912D01*
X57303595Y36862927D01*
X57344927Y36978444D01*
X57397385Y37089358D01*
X57460463Y37194596D01*
X57533551Y37293143D01*
X57615946Y37384054D01*
X57706857Y37466449D01*
X57805404Y37539537D01*
X57910642Y37602615D01*
X58021556Y37655073D01*
X58137073Y37696405D01*
X58256088Y37726217D01*
X58350000Y37740147D01*
X58350000Y36650000D01*
D02*
G37*
%LPC*%
G36*
X59740147Y36650000D02*
X58650000Y36650000D01*
X58650000Y37740147D01*
X58743912Y37726217D01*
X58862927Y37696405D01*
X58978444Y37655073D01*
X59089358Y37602615D01*
X59194596Y37539537D01*
X59293143Y37466449D01*
X59384054Y37384054D01*
X59466449Y37293143D01*
X59539537Y37194596D01*
X59602615Y37089358D01*
X59655073Y36978444D01*
X59696405Y36862927D01*
X59726217Y36743912D01*
X59740147Y36650000D01*
D02*
G37*
%LPC*%
G36*
X29401667Y32069999D02*
X28011667Y32069999D01*
X28011667Y33359999D01*
X28351667Y33359999D01*
X28351667Y34299999D01*
X27761667Y34299999D01*
X27761667Y37489999D01*
X29651667Y37489999D01*
X29651667Y34299999D01*
X29061667Y34299999D01*
X29061667Y33359999D01*
X29401667Y33359999D01*
X29401667Y33069999D01*
X30011667Y33069999D01*
X30011667Y33359999D01*
X31401667Y33359999D01*
X31401667Y32069999D01*
X30011667Y32069999D01*
X30011667Y32359999D01*
X29401667Y32359999D01*
X29401667Y32069999D01*
D02*
G37*
%LPC*%
G36*
X12565000Y36220000D02*
X12215000Y36220000D01*
X12215000Y37045000D01*
X12565000Y37045000D01*
X12565000Y36220000D01*
D02*
G37*
%LPC*%
G36*
X11915000Y36220000D02*
X11565000Y36220000D01*
X11565000Y37045000D01*
X11915000Y37045000D01*
X11915000Y36220000D01*
D02*
G37*
%LPC*%
G36*
X13830000Y35100000D02*
X12840000Y35100000D01*
X12840000Y37040000D01*
X13830000Y37040000D01*
X13830000Y36425000D01*
X14110000Y36425000D01*
X14110000Y37040000D01*
X15100000Y37040000D01*
X15100000Y35100000D01*
X14110000Y35100000D01*
X14110000Y35715000D01*
X13830000Y35715000D01*
X13830000Y35100000D01*
D02*
G37*
%LPC*%
G36*
X11290000Y35100000D02*
X10300000Y35100000D01*
X10300000Y35590000D01*
X9400000Y35590000D01*
X9400000Y35425000D01*
X8010000Y35425000D01*
X8010000Y35565000D01*
X7596716Y35565000D01*
X7552400Y35524834D01*
X7496821Y35483614D01*
X7437449Y35448027D01*
X7374886Y35418438D01*
X7309716Y35395118D01*
X7242595Y35378307D01*
X7174117Y35368148D01*
X7105000Y35364752D01*
X7035883Y35368148D01*
X6967405Y35378307D01*
X6900284Y35395118D01*
X6835114Y35418438D01*
X6772551Y35448027D01*
X6713179Y35483614D01*
X6657599Y35524834D01*
X6606315Y35571315D01*
X6559834Y35622599D01*
X6518614Y35678179D01*
X6483027Y35737551D01*
X6453438Y35800114D01*
X6430118Y35865284D01*
X6413307Y35932405D01*
X6403148Y36000883D01*
X6399752Y36070000D01*
X6403148Y36139117D01*
X6413307Y36207595D01*
X6430118Y36274716D01*
X6453438Y36339886D01*
X6483027Y36402449D01*
X6518614Y36461821D01*
X6559834Y36517401D01*
X6606315Y36568685D01*
X6657599Y36615166D01*
X6713179Y36656386D01*
X6772551Y36691973D01*
X6835114Y36721562D01*
X6900284Y36744882D01*
X6967405Y36761693D01*
X7035883Y36771852D01*
X7105000Y36775248D01*
X7174117Y36771852D01*
X7242595Y36761693D01*
X7309716Y36744882D01*
X7374886Y36721562D01*
X7437449Y36691973D01*
X7496821Y36656386D01*
X7552400Y36615166D01*
X7596716Y36575000D01*
X8010000Y36575000D01*
X8010000Y36715000D01*
X9400000Y36715000D01*
X9400000Y36550000D01*
X10300000Y36550000D01*
X10300000Y37040000D01*
X11290000Y37040000D01*
X11290000Y35100000D01*
D02*
G37*
%LPC*%
G36*
X34746667Y36114997D02*
X34246667Y36114997D01*
X34246667Y36664997D01*
X34746667Y36664997D01*
X34746667Y36114997D01*
D02*
G37*
%LPC*%
G36*
X35546667Y36114997D02*
X35046667Y36114997D01*
X35046667Y36664997D01*
X35546667Y36664997D01*
X35546667Y36114997D01*
D02*
G37*
%LPC*%
G36*
X40845000Y32305000D02*
X39555000Y32305000D01*
X39555000Y33695000D01*
X39845000Y33695000D01*
X39845000Y34335000D01*
X39235000Y34335000D01*
X39235000Y36525000D01*
X40725000Y36525000D01*
X40725000Y34335000D01*
X40555000Y34335000D01*
X40555000Y33695000D01*
X40845000Y33695000D01*
X40845000Y32305000D01*
D02*
G37*
%LPC*%
G36*
X43710000Y35910000D02*
X43160000Y35910000D01*
X43160000Y36410000D01*
X43710000Y36410000D01*
X43710000Y35910000D01*
D02*
G37*
%LPC*%
G36*
X42860000Y35910000D02*
X42310000Y35910000D01*
X42310000Y36410000D01*
X42860000Y36410000D01*
X42860000Y35910000D01*
D02*
G37*
%LPC*%
G36*
X58650000Y35259853D02*
X58650000Y36350000D01*
X59740147Y36350000D01*
X59726217Y36256088D01*
X59696405Y36137073D01*
X59655073Y36021556D01*
X59602615Y35910642D01*
X59539537Y35805404D01*
X59466449Y35706857D01*
X59384054Y35615946D01*
X59293143Y35533551D01*
X59194596Y35460463D01*
X59089358Y35397385D01*
X58978444Y35344927D01*
X58862927Y35303595D01*
X58743912Y35273783D01*
X58650000Y35259853D01*
D02*
G37*
%LPC*%
G36*
X58350000Y35259853D02*
X58256088Y35273783D01*
X58137073Y35303595D01*
X58021556Y35344927D01*
X57910642Y35397385D01*
X57805404Y35460463D01*
X57706857Y35533551D01*
X57615946Y35615946D01*
X57533551Y35706857D01*
X57460463Y35805404D01*
X57397385Y35910642D01*
X57344927Y36021556D01*
X57303595Y36137073D01*
X57273783Y36256088D01*
X57259853Y36350000D01*
X58350000Y36350000D01*
X58350000Y35259853D01*
D02*
G37*
%LPC*%
G36*
X12565000Y35095000D02*
X12215000Y35095000D01*
X12215000Y35920000D01*
X12565000Y35920000D01*
X12565000Y35095000D01*
D02*
G37*
%LPC*%
G36*
X11915000Y35095000D02*
X11565000Y35095000D01*
X11565000Y35920000D01*
X11915000Y35920000D01*
X11915000Y35095000D01*
D02*
G37*
%LPC*%
G36*
X34746667Y35264997D02*
X34246667Y35264997D01*
X34246667Y35814997D01*
X34746667Y35814997D01*
X34746667Y35264997D01*
D02*
G37*
%LPC*%
G36*
X35546667Y35264997D02*
X35046667Y35264997D01*
X35046667Y35814997D01*
X35546667Y35814997D01*
X35546667Y35264997D01*
D02*
G37*
%LPC*%
G36*
X42860000Y35110000D02*
X42310000Y35110000D01*
X42310000Y35610000D01*
X42860000Y35610000D01*
X42860000Y35110000D01*
D02*
G37*
%LPC*%
G36*
X43710000Y35110000D02*
X43160000Y35110000D01*
X43160000Y35610000D01*
X43710000Y35610000D01*
X43710000Y35110000D01*
D02*
G37*
%LPC*%
G36*
X14185000Y25865000D02*
X12895000Y25865000D01*
X12895000Y27255000D01*
X13185000Y27255000D01*
X13185000Y27745000D01*
X12895000Y27745000D01*
X12895000Y29135000D01*
X12980000Y29135000D01*
X12980000Y29760000D01*
X12840000Y29760000D01*
X12840000Y31700000D01*
X12980000Y31700000D01*
X12980000Y32645066D01*
X12985849Y32704451D01*
X13006106Y32771229D01*
X13039003Y32832777D01*
X13082779Y32886122D01*
X13090551Y32892598D01*
X14342401Y34144448D01*
X14348877Y34152220D01*
X14402222Y34195996D01*
X14463770Y34228893D01*
X14530548Y34249151D01*
X14589923Y34255000D01*
X15567953Y34255000D01*
X16030000Y34717047D01*
X16030000Y35555000D01*
X17420000Y35555000D01*
X17420000Y34265000D01*
X16582046Y34265000D01*
X15972598Y33655551D01*
X15966122Y33647779D01*
X15912777Y33604003D01*
X15851229Y33571106D01*
X15784451Y33550849D01*
X15725066Y33545000D01*
X14747047Y33545000D01*
X13690000Y32487953D01*
X13690000Y31700000D01*
X13830000Y31700000D01*
X13830000Y29760000D01*
X13690000Y29760000D01*
X13690000Y29135000D01*
X14185000Y29135000D01*
X14185000Y27745000D01*
X13895000Y27745000D01*
X13895000Y27255000D01*
X14185000Y27255000D01*
X14185000Y25865000D01*
D02*
G37*
%LPC*%
G36*
X9405000Y34620000D02*
X8855000Y34620000D01*
X8855000Y35120000D01*
X9405000Y35120000D01*
X9405000Y34620000D01*
D02*
G37*
%LPC*%
G36*
X8555000Y34620000D02*
X8005000Y34620000D01*
X8005000Y35120000D01*
X8555000Y35120000D01*
X8555000Y34620000D01*
D02*
G37*
%LPC*%
G36*
X9405000Y33820000D02*
X8855000Y33820000D01*
X8855000Y34320000D01*
X9405000Y34320000D01*
X9405000Y33820000D01*
D02*
G37*
%LPC*%
G36*
X8555000Y33820000D02*
X8005000Y33820000D01*
X8005000Y34320000D01*
X8555000Y34320000D01*
X8555000Y33820000D01*
D02*
G37*
%LPC*%
G36*
X39050000Y33150000D02*
X38550000Y33150000D01*
X38550000Y33700000D01*
X39050000Y33700000D01*
X39050000Y33150000D01*
D02*
G37*
%LPC*%
G36*
X38250000Y33150000D02*
X37750000Y33150000D01*
X37750000Y33700000D01*
X38250000Y33700000D01*
X38250000Y33150000D01*
D02*
G37*
%LPC*%
G36*
X17395000Y32480000D02*
X16845000Y32480000D01*
X16845000Y32980000D01*
X17395000Y32980000D01*
X17395000Y32480000D01*
D02*
G37*
%LPC*%
G36*
X16545000Y32480000D02*
X15995000Y32480000D01*
X15995000Y32980000D01*
X16545000Y32980000D01*
X16545000Y32480000D01*
D02*
G37*
%LPC*%
G36*
X39050000Y32300000D02*
X38550000Y32300000D01*
X38550000Y32850000D01*
X39050000Y32850000D01*
X39050000Y32300000D01*
D02*
G37*
%LPC*%
G36*
X38250000Y32300000D02*
X37750000Y32300000D01*
X37750000Y32850000D01*
X38250000Y32850000D01*
X38250000Y32300000D01*
D02*
G37*
%LPC*%
G36*
X17395000Y31680000D02*
X16845000Y31680000D01*
X16845000Y32180000D01*
X17395000Y32180000D01*
X17395000Y31680000D01*
D02*
G37*
%LPC*%
G36*
X16545000Y31680000D02*
X15995000Y31680000D01*
X15995000Y32180000D01*
X16545000Y32180000D01*
X16545000Y31680000D01*
D02*
G37*
%LPC*%
G36*
X8520000Y27835000D02*
X7130000Y27835000D01*
X7130000Y29125000D01*
X7470000Y29125000D01*
X7470000Y29735066D01*
X7475849Y29794451D01*
X7496106Y29861229D01*
X7529003Y29922777D01*
X7572779Y29976122D01*
X7580551Y29982598D01*
X7780000Y30182047D01*
X7780000Y31935000D01*
X9270000Y31935000D01*
X9270000Y31195000D01*
X10300000Y31195000D01*
X10300000Y31700000D01*
X11290000Y31700000D01*
X11290000Y29760000D01*
X10300000Y29760000D01*
X10300000Y30485000D01*
X9270000Y30485000D01*
X9270000Y29745000D01*
X8347047Y29745000D01*
X8180000Y29577953D01*
X8180000Y29125000D01*
X8520000Y29125000D01*
X8520000Y27835000D01*
D02*
G37*
%LPC*%
G36*
X6590000Y27835000D02*
X5200000Y27835000D01*
X5200000Y29125000D01*
X5590000Y29125000D01*
X5590000Y29745000D01*
X4780000Y29745000D01*
X4780000Y31935000D01*
X6270000Y31935000D01*
X6270000Y29745000D01*
X6200000Y29745000D01*
X6200000Y29125000D01*
X6590000Y29125000D01*
X6590000Y27835000D01*
D02*
G37*
%LPC*%
G36*
X29406667Y31264999D02*
X28856667Y31264999D01*
X28856667Y31764999D01*
X29406667Y31764999D01*
X29406667Y31264999D01*
D02*
G37*
%LPC*%
G36*
X28556667Y31264999D02*
X28006667Y31264999D01*
X28006667Y31764999D01*
X28556667Y31764999D01*
X28556667Y31264999D01*
D02*
G37*
%LPC*%
G36*
X40502917Y2194501D02*
X40415177Y2198813D01*
X40328261Y2211705D01*
X40243046Y2233050D01*
X40160324Y2262650D01*
X40080907Y2300210D01*
X40005554Y2345375D01*
X39934990Y2397709D01*
X39869891Y2456711D01*
X39810889Y2521810D01*
X39758555Y2592374D01*
X39713390Y2667727D01*
X39675830Y2747144D01*
X39646230Y2829866D01*
X39624885Y2915081D01*
X39611993Y3001997D01*
X39607681Y3089737D01*
X39609897Y3134829D01*
X39611993Y3177477D01*
X39624885Y3264393D01*
X39646230Y3349608D01*
X39675830Y3432330D01*
X39713390Y3511747D01*
X39758555Y3587100D01*
X39810889Y3657664D01*
X39869891Y3722763D01*
X39934990Y3781765D01*
X40005554Y3834099D01*
X40080907Y3879264D01*
X40160324Y3916824D01*
X40243046Y3946424D01*
X40328261Y3967769D01*
X40415177Y3980661D01*
X40502917Y3984973D01*
X40590657Y3980661D01*
X40677573Y3967769D01*
X40762788Y3946424D01*
X40832584Y3921450D01*
X42745000Y5833867D01*
X42745000Y18574619D01*
X30849621Y30469999D01*
X30011667Y30469999D01*
X30011667Y31759999D01*
X31401667Y31759999D01*
X31401667Y30922045D01*
X43358148Y18965563D01*
X43395996Y18919442D01*
X43428893Y18857895D01*
X43449151Y18791117D01*
X43455000Y18731743D01*
X43455000Y5676743D01*
X43449151Y5617368D01*
X43428893Y5550590D01*
X43395996Y5489042D01*
X43352220Y5435697D01*
X43344448Y5429221D01*
X41334630Y3419404D01*
X41359604Y3349608D01*
X41380949Y3264393D01*
X41393841Y3177477D01*
X41398153Y3089737D01*
X41393841Y3001997D01*
X41380949Y2915081D01*
X41359604Y2829866D01*
X41330004Y2747144D01*
X41292444Y2667727D01*
X41247279Y2592374D01*
X41194945Y2521810D01*
X41135943Y2456711D01*
X41070844Y2397709D01*
X41000280Y2345375D01*
X40924927Y2300210D01*
X40845510Y2262650D01*
X40762788Y2233050D01*
X40677573Y2211705D01*
X40590657Y2198813D01*
X40502917Y2194501D01*
D02*
G37*
%LPC*%
G36*
X12585000Y25865000D02*
X11295000Y25865000D01*
X11295000Y27255000D01*
X11585000Y27255000D01*
X11585000Y27745000D01*
X11295000Y27745000D01*
X11295000Y28085000D01*
X10775000Y28085000D01*
X10775000Y27795000D01*
X9385000Y27795000D01*
X9385000Y29085000D01*
X10775000Y29085000D01*
X10775000Y28795000D01*
X11295000Y28795000D01*
X11295000Y29135000D01*
X11710000Y29135000D01*
X11710000Y29760000D01*
X11570000Y29760000D01*
X11570000Y31700000D01*
X12560000Y31700000D01*
X12560000Y29760000D01*
X12420000Y29760000D01*
X12420000Y29135000D01*
X12585000Y29135000D01*
X12585000Y27745000D01*
X12295000Y27745000D01*
X12295000Y27255000D01*
X12585000Y27255000D01*
X12585000Y25865000D01*
D02*
G37*
%LPC*%
G36*
X15100000Y29760000D02*
X14110000Y29760000D01*
X14110000Y31700000D01*
X15100000Y31700000D01*
X15100000Y31210000D01*
X16000000Y31210000D01*
X16000000Y31375000D01*
X17390000Y31375000D01*
X17390000Y31235000D01*
X17803284Y31235000D01*
X17847600Y31275166D01*
X17903179Y31316386D01*
X17962551Y31351973D01*
X18025114Y31381562D01*
X18090284Y31404882D01*
X18157405Y31421693D01*
X18225883Y31431852D01*
X18295000Y31435248D01*
X18364117Y31431852D01*
X18432595Y31421693D01*
X18499716Y31404882D01*
X18564886Y31381562D01*
X18627449Y31351973D01*
X18686821Y31316386D01*
X18742401Y31275166D01*
X18793685Y31228685D01*
X18840166Y31177401D01*
X18881386Y31121821D01*
X18916973Y31062449D01*
X18946562Y30999886D01*
X18969882Y30934716D01*
X18986693Y30867595D01*
X18996852Y30799117D01*
X19000248Y30730000D01*
X18996852Y30660883D01*
X18986693Y30592405D01*
X18969882Y30525284D01*
X18946562Y30460114D01*
X18916973Y30397551D01*
X18881386Y30338179D01*
X18840166Y30282599D01*
X18793685Y30231315D01*
X18742401Y30184834D01*
X18686821Y30143614D01*
X18627449Y30108027D01*
X18564886Y30078438D01*
X18499716Y30055118D01*
X18432595Y30038307D01*
X18364117Y30028148D01*
X18295000Y30024752D01*
X18225883Y30028148D01*
X18157405Y30038307D01*
X18090284Y30055118D01*
X18025114Y30078438D01*
X17962551Y30108027D01*
X17903179Y30143614D01*
X17847600Y30184834D01*
X17803284Y30225000D01*
X17390000Y30225000D01*
X17390000Y30085000D01*
X16000000Y30085000D01*
X16000000Y30250000D01*
X15100000Y30250000D01*
X15100000Y29760000D01*
D02*
G37*
%LPC*%
G36*
X29406667Y30464999D02*
X28856667Y30464999D01*
X28856667Y30964999D01*
X29406667Y30964999D01*
X29406667Y30464999D01*
D02*
G37*
%LPC*%
G36*
X28556667Y30464999D02*
X28006667Y30464999D01*
X28006667Y30964999D01*
X28556667Y30964999D01*
X28556667Y30464999D01*
D02*
G37*
%LPC*%
G36*
X4665000Y28630000D02*
X4115000Y28630000D01*
X4115000Y29130000D01*
X4665000Y29130000D01*
X4665000Y28630000D01*
D02*
G37*
%LPC*%
G36*
X3815000Y28630000D02*
X3265000Y28630000D01*
X3265000Y29130000D01*
X3815000Y29130000D01*
X3815000Y28630000D01*
D02*
G37*
%LPC*%
G36*
X4665000Y27830000D02*
X4115000Y27830000D01*
X4115000Y28330000D01*
X4665000Y28330000D01*
X4665000Y27830000D01*
D02*
G37*
%LPC*%
G36*
X3815000Y27830000D02*
X3265000Y27830000D01*
X3265000Y28330000D01*
X3815000Y28330000D01*
X3815000Y27830000D01*
D02*
G37*
%LPC*%
G36*
X7675000Y27030000D02*
X7125000Y27030000D01*
X7125000Y27530000D01*
X7675000Y27530000D01*
X7675000Y27030000D01*
D02*
G37*
%LPC*%
G36*
X8525000Y27030000D02*
X7975000Y27030000D01*
X7975000Y27530000D01*
X8525000Y27530000D01*
X8525000Y27030000D01*
D02*
G37*
%LPC*%
G36*
X22502917Y2194501D02*
X22415177Y2198813D01*
X22328261Y2211705D01*
X22243046Y2233050D01*
X22160324Y2262650D01*
X22080907Y2300210D01*
X22005554Y2345375D01*
X21934990Y2397709D01*
X21869891Y2456711D01*
X21810889Y2521810D01*
X21758555Y2592374D01*
X21713390Y2667727D01*
X21675830Y2747144D01*
X21646230Y2829866D01*
X21624885Y2915081D01*
X21611993Y3001997D01*
X21607681Y3089737D01*
X21611993Y3177477D01*
X21624885Y3264393D01*
X21646230Y3349608D01*
X21671204Y3419404D01*
X5651215Y19439392D01*
X5643372Y19445809D01*
X5599003Y19499877D01*
X5566106Y19561424D01*
X5545849Y19628202D01*
X5540000Y19687589D01*
X5540000Y26235000D01*
X5200000Y26235000D01*
X5200000Y26525000D01*
X4660000Y26525000D01*
X4660000Y26235000D01*
X3270000Y26235000D01*
X3270000Y27525000D01*
X4660000Y27525000D01*
X4660000Y27235000D01*
X5200000Y27235000D01*
X5200000Y27525000D01*
X6590000Y27525000D01*
X6590000Y26235000D01*
X6250000Y26235000D01*
X6250000Y19844701D01*
X22173250Y3921450D01*
X22243046Y3946424D01*
X22328261Y3967769D01*
X22415177Y3980661D01*
X22502917Y3984973D01*
X22590657Y3980661D01*
X22677573Y3967769D01*
X22762788Y3946424D01*
X22845510Y3916824D01*
X22924927Y3879264D01*
X23000280Y3834099D01*
X23070844Y3781765D01*
X23135943Y3722763D01*
X23194945Y3657664D01*
X23247279Y3587100D01*
X23292444Y3511747D01*
X23330004Y3432330D01*
X23359604Y3349608D01*
X23380949Y3264393D01*
X23393840Y3177487D01*
X23395936Y3134829D01*
X23398152Y3089727D01*
X23395937Y3044645D01*
X23393841Y3001997D01*
X23380949Y2915081D01*
X23359604Y2829866D01*
X23330004Y2747144D01*
X23292444Y2667727D01*
X23247279Y2592374D01*
X23194945Y2521810D01*
X23135943Y2456711D01*
X23070844Y2397709D01*
X23000280Y2345375D01*
X22924927Y2300210D01*
X22845510Y2262650D01*
X22762788Y2233050D01*
X22677573Y2211705D01*
X22590657Y2198813D01*
X22502917Y2194501D01*
D02*
G37*
%LPC*%
G36*
X11875000Y20485000D02*
X8285000Y20485000D01*
X8285000Y22475000D01*
X9775000Y22475000D01*
X9775000Y26195000D01*
X9385000Y26195000D01*
X9385000Y27485000D01*
X10775000Y27485000D01*
X10775000Y26195000D01*
X10385000Y26195000D01*
X10385000Y22475000D01*
X11875000Y22475000D01*
X11875000Y20485000D01*
D02*
G37*
%LPC*%
G36*
X8525000Y26230000D02*
X7975000Y26230000D01*
X7975000Y26730000D01*
X8525000Y26730000D01*
X8525000Y26230000D01*
D02*
G37*
%LPC*%
G36*
X7675000Y26230000D02*
X7125000Y26230000D01*
X7125000Y26730000D01*
X7675000Y26730000D01*
X7675000Y26230000D01*
D02*
G37*
%LPC*%
G36*
X16880000Y21630000D02*
X15230000Y21630000D01*
X15230000Y22480000D01*
X16880000Y22480000D01*
X16880000Y21630000D01*
D02*
G37*
%LPC*%
G36*
X14930000Y21630000D02*
X13280000Y21630000D01*
X13280000Y22480000D01*
X14930000Y22480000D01*
X14930000Y21630000D01*
D02*
G37*
%LPC*%
G36*
X16880000Y20480000D02*
X15230000Y20480000D01*
X15230000Y21330000D01*
X16880000Y21330000D01*
X16880000Y20480000D01*
D02*
G37*
%LPC*%
G36*
X14930000Y20480000D02*
X13280000Y20480000D01*
X13280000Y21330000D01*
X14930000Y21330000D01*
X14930000Y20480000D01*
D02*
G37*
%LPC*%
G36*
X35555000Y7645000D02*
X33245000Y7645000D01*
X33245000Y11545000D01*
X32145000Y11545000D01*
X32145000Y18955000D01*
X36655000Y18955000D01*
X36655000Y11545000D01*
X35555000Y11545000D01*
X35555000Y7645000D01*
D02*
G37*
%LPD*%
G36*
X35300000Y7900000D02*
X35300000Y11800000D01*
X36400000Y11800000D01*
X36400000Y18700000D01*
X32400000Y18700000D01*
X32400000Y11800000D01*
X33500000Y11800000D01*
X33500000Y7900000D01*
X35300000Y7900000D01*
D02*
G37*
%LPC*%
G36*
X25055000Y7645000D02*
X22745000Y7645000D01*
X22745000Y11545000D01*
X21645000Y11545000D01*
X21645000Y18955000D01*
X26155000Y18955000D01*
X26155000Y11545000D01*
X25055000Y11545000D01*
X25055000Y7645000D01*
D02*
G37*
%LPD*%
G36*
X24800000Y7900000D02*
X24800000Y11800000D01*
X25900000Y11800000D01*
X25900000Y18700000D01*
X21900000Y18700000D01*
X21900000Y11800000D01*
X23000000Y11800000D01*
X23000000Y7900000D01*
X24800000Y7900000D01*
D02*
G37*
%LPC*%
G36*
X41200000Y14950000D02*
X39550000Y14950000D01*
X39550000Y15800000D01*
X41200000Y15800000D01*
X41200000Y14950000D01*
D02*
G37*
%LPC*%
G36*
X39250000Y14950000D02*
X37600000Y14950000D01*
X37600000Y15800000D01*
X39250000Y15800000D01*
X39250000Y14950000D01*
D02*
G37*
%LPC*%
G36*
X30700000Y14950000D02*
X29050000Y14950000D01*
X29050000Y15800000D01*
X30700000Y15800000D01*
X30700000Y14950000D01*
D02*
G37*
%LPC*%
G36*
X28750000Y14950000D02*
X27100000Y14950000D01*
X27100000Y15800000D01*
X28750000Y15800000D01*
X28750000Y14950000D01*
D02*
G37*
%LPC*%
G36*
X41200000Y13800000D02*
X39550000Y13800000D01*
X39550000Y14650000D01*
X41200000Y14650000D01*
X41200000Y13800000D01*
D02*
G37*
%LPC*%
G36*
X39250000Y13800000D02*
X37600000Y13800000D01*
X37600000Y14650000D01*
X39250000Y14650000D01*
X39250000Y13800000D01*
D02*
G37*
%LPC*%
G36*
X30700000Y13800000D02*
X29050000Y13800000D01*
X29050000Y14650000D01*
X30700000Y14650000D01*
X30700000Y13800000D01*
D02*
G37*
%LPC*%
G36*
X28750000Y13800000D02*
X27100000Y13800000D01*
X27100000Y14650000D01*
X28750000Y14650000D01*
X28750000Y13800000D01*
D02*
G37*
%LPC*%
G36*
X35405000Y1715000D02*
X31600834Y1715000D01*
X31600834Y5245000D01*
X25750834Y5245000D01*
X25750834Y10655000D01*
X28060834Y10655000D01*
X28060834Y6955000D01*
X36245000Y6955000D01*
X36245000Y10655000D01*
X38555000Y10655000D01*
X38555000Y5245000D01*
X35405000Y5245000D01*
X35405000Y1715000D01*
D02*
G37*
%LPD*%
G36*
X35150000Y1970000D02*
X35150000Y5500000D01*
X38300000Y5500000D01*
X38300000Y10400000D01*
X36500000Y10400000D01*
X36500000Y6700000D01*
X33630000Y6700000D01*
X33630000Y1970000D01*
X35150000Y1970000D01*
D02*
G37*
%LPD*%
G36*
X33375000Y1970000D02*
X33375000Y6700000D01*
X27805834Y6700000D01*
X27805834Y10400000D01*
X26005834Y10400000D01*
X26005834Y5500000D01*
X31855834Y5500000D01*
X31855834Y1970000D01*
X33375000Y1970000D01*
D02*
G37*
%LPC*%
G36*
X54477083Y5636027D02*
X54389343Y5640339D01*
X54302427Y5653231D01*
X54217212Y5674576D01*
X54134490Y5704176D01*
X54055073Y5741736D01*
X53979720Y5786901D01*
X53909156Y5839235D01*
X53844057Y5898237D01*
X53785055Y5963336D01*
X53732721Y6033900D01*
X53687556Y6109253D01*
X53649996Y6188670D01*
X53620396Y6271392D01*
X53599051Y6356607D01*
X53586159Y6443523D01*
X53581847Y6531263D01*
X53584063Y6576355D01*
X53586159Y6619003D01*
X53599051Y6705919D01*
X53620396Y6791134D01*
X53649996Y6873856D01*
X53687556Y6953273D01*
X53732721Y7028626D01*
X53785055Y7099190D01*
X53844057Y7164289D01*
X53909156Y7223291D01*
X53979720Y7275625D01*
X54055073Y7320790D01*
X54134490Y7358350D01*
X54217212Y7387950D01*
X54302427Y7409295D01*
X54389343Y7422187D01*
X54477083Y7426499D01*
X54564823Y7422187D01*
X54651739Y7409295D01*
X54736954Y7387950D01*
X54819676Y7358350D01*
X54899093Y7320790D01*
X54974446Y7275625D01*
X55045010Y7223291D01*
X55110109Y7164289D01*
X55169111Y7099190D01*
X55221445Y7028626D01*
X55266610Y6953273D01*
X55304170Y6873856D01*
X55333770Y6791134D01*
X55355115Y6705919D01*
X55368007Y6619003D01*
X55372319Y6531263D01*
X55368007Y6443523D01*
X55355115Y6356607D01*
X55333770Y6271392D01*
X55304170Y6188670D01*
X55266610Y6109253D01*
X55221445Y6033900D01*
X55169111Y5963336D01*
X55110109Y5898237D01*
X55045010Y5839235D01*
X54974446Y5786901D01*
X54899093Y5741736D01*
X54819676Y5704176D01*
X54736954Y5674576D01*
X54651739Y5653231D01*
X54564823Y5640339D01*
X54477083Y5636027D01*
D02*
G37*
%LPC*%
G36*
X53363826Y6681263D02*
X52627083Y6681263D01*
X52627083Y7418006D01*
X52652719Y7414203D01*
X52738405Y7392741D01*
X52821588Y7362977D01*
X52901452Y7325203D01*
X52977237Y7279781D01*
X53048186Y7227162D01*
X53113649Y7167829D01*
X53172982Y7102366D01*
X53225601Y7031417D01*
X53271023Y6955632D01*
X53308797Y6875768D01*
X53338561Y6792585D01*
X53360023Y6706899D01*
X53363826Y6681263D01*
D02*
G37*
%LPC*%
G36*
X52327083Y6681263D02*
X51590340Y6681263D01*
X51594143Y6706899D01*
X51615605Y6792585D01*
X51645369Y6875768D01*
X51683143Y6955632D01*
X51728565Y7031417D01*
X51781184Y7102366D01*
X51840517Y7167829D01*
X51905980Y7227162D01*
X51976929Y7279781D01*
X52052714Y7325203D01*
X52132578Y7362977D01*
X52215761Y7392741D01*
X52301447Y7414203D01*
X52327083Y7418006D01*
X52327083Y6681263D01*
D02*
G37*
%LPC*%
G36*
X10477083Y5626027D02*
X10389343Y5630339D01*
X10302427Y5643231D01*
X10217212Y5664576D01*
X10134490Y5694176D01*
X10055073Y5731736D01*
X9979720Y5776901D01*
X9909156Y5829235D01*
X9844057Y5888237D01*
X9785055Y5953336D01*
X9732721Y6023900D01*
X9687556Y6099253D01*
X9649996Y6178670D01*
X9620396Y6261392D01*
X9599051Y6346607D01*
X9586159Y6433523D01*
X9581847Y6521263D01*
X9584063Y6566355D01*
X9586159Y6609003D01*
X9599051Y6695919D01*
X9620396Y6781134D01*
X9649996Y6863856D01*
X9687556Y6943273D01*
X9732721Y7018626D01*
X9785055Y7089190D01*
X9844057Y7154289D01*
X9909156Y7213291D01*
X9979720Y7265625D01*
X10055073Y7310790D01*
X10134490Y7348350D01*
X10217212Y7377950D01*
X10302427Y7399295D01*
X10389343Y7412187D01*
X10477083Y7416499D01*
X10564823Y7412187D01*
X10651739Y7399295D01*
X10736954Y7377950D01*
X10819676Y7348350D01*
X10899093Y7310790D01*
X10974446Y7265625D01*
X11045010Y7213291D01*
X11110109Y7154289D01*
X11169111Y7089190D01*
X11221445Y7018626D01*
X11266610Y6943273D01*
X11304170Y6863856D01*
X11333770Y6781134D01*
X11355115Y6695919D01*
X11368007Y6609003D01*
X11372319Y6521263D01*
X11368007Y6433523D01*
X11355115Y6346607D01*
X11333770Y6261392D01*
X11304170Y6178670D01*
X11266610Y6099253D01*
X11221445Y6023900D01*
X11169111Y5953336D01*
X11110109Y5888237D01*
X11045010Y5829235D01*
X10974446Y5776901D01*
X10899093Y5731736D01*
X10819676Y5694176D01*
X10736954Y5664576D01*
X10651739Y5643231D01*
X10564823Y5630339D01*
X10477083Y5626027D01*
D02*
G37*
%LPC*%
G36*
X9363826Y6671263D02*
X8627083Y6671263D01*
X8627083Y7408006D01*
X8652719Y7404203D01*
X8738405Y7382741D01*
X8821588Y7352977D01*
X8901452Y7315203D01*
X8977237Y7269781D01*
X9048186Y7217162D01*
X9113649Y7157829D01*
X9172982Y7092366D01*
X9225601Y7021417D01*
X9271023Y6945632D01*
X9308797Y6865768D01*
X9338561Y6782585D01*
X9360023Y6696899D01*
X9363826Y6671263D01*
D02*
G37*
%LPC*%
G36*
X8327083Y6671263D02*
X7590340Y6671263D01*
X7594143Y6696899D01*
X7615605Y6782585D01*
X7645369Y6865768D01*
X7683143Y6945632D01*
X7728565Y7021417D01*
X7781184Y7092366D01*
X7840517Y7157829D01*
X7905980Y7217162D01*
X7976929Y7269781D01*
X8052714Y7315203D01*
X8132578Y7352977D01*
X8215761Y7382741D01*
X8301447Y7404203D01*
X8327083Y7408006D01*
X8327083Y6671263D01*
D02*
G37*
%LPC*%
G36*
X52627083Y5644520D02*
X52627083Y6381263D01*
X53363826Y6381263D01*
X53360023Y6355627D01*
X53338561Y6269941D01*
X53308797Y6186758D01*
X53271023Y6106894D01*
X53225601Y6031109D01*
X53172982Y5960160D01*
X53113649Y5894697D01*
X53048186Y5835364D01*
X52977237Y5782745D01*
X52901452Y5737323D01*
X52821588Y5699549D01*
X52738405Y5669785D01*
X52652719Y5648323D01*
X52627083Y5644520D01*
D02*
G37*
%LPC*%
G36*
X52327083Y5644520D02*
X52301447Y5648323D01*
X52215761Y5669785D01*
X52132578Y5699549D01*
X52052714Y5737323D01*
X51976929Y5782745D01*
X51905980Y5835364D01*
X51840517Y5894697D01*
X51781184Y5960160D01*
X51728565Y6031109D01*
X51683143Y6106894D01*
X51645369Y6186758D01*
X51615605Y6269941D01*
X51594143Y6355627D01*
X51590340Y6381263D01*
X52327083Y6381263D01*
X52327083Y5644520D01*
D02*
G37*
%LPC*%
G36*
X8627083Y5634520D02*
X8627083Y6371263D01*
X9363826Y6371263D01*
X9360023Y6345627D01*
X9338561Y6259941D01*
X9308797Y6176758D01*
X9271023Y6096894D01*
X9225601Y6021109D01*
X9172982Y5950160D01*
X9113649Y5884697D01*
X9048186Y5825364D01*
X8977237Y5772745D01*
X8901452Y5727323D01*
X8821588Y5689549D01*
X8738405Y5659785D01*
X8652719Y5638323D01*
X8627083Y5634520D01*
D02*
G37*
%LPC*%
G36*
X8327083Y5634520D02*
X8301447Y5638323D01*
X8215761Y5659785D01*
X8132578Y5689549D01*
X8052714Y5727323D01*
X7976929Y5772745D01*
X7905980Y5825364D01*
X7840517Y5884697D01*
X7781184Y5950160D01*
X7728565Y6021109D01*
X7683143Y6096894D01*
X7645369Y6176758D01*
X7615605Y6259941D01*
X7594143Y6345627D01*
X7590340Y6371263D01*
X8327083Y6371263D01*
X8327083Y5634520D01*
D02*
G37*
%LPC*%
G36*
X36502917Y2194501D02*
X36415177Y2198813D01*
X36328261Y2211705D01*
X36243046Y2233050D01*
X36160324Y2262650D01*
X36080907Y2300210D01*
X36005554Y2345375D01*
X35934990Y2397709D01*
X35869891Y2456711D01*
X35810889Y2521810D01*
X35758555Y2592374D01*
X35713390Y2667727D01*
X35675830Y2747144D01*
X35646230Y2829866D01*
X35624885Y2915081D01*
X35611993Y3001997D01*
X35607681Y3089737D01*
X35611993Y3177477D01*
X35624885Y3264393D01*
X35646230Y3349608D01*
X35675830Y3432330D01*
X35713390Y3511747D01*
X35758555Y3587100D01*
X35810889Y3657664D01*
X35869891Y3722763D01*
X35934990Y3781765D01*
X36005554Y3834099D01*
X36080907Y3879264D01*
X36160324Y3916824D01*
X36243046Y3946424D01*
X36328261Y3967769D01*
X36415177Y3980661D01*
X36502917Y3984973D01*
X36590657Y3980661D01*
X36677573Y3967769D01*
X36762788Y3946424D01*
X36845510Y3916824D01*
X36924927Y3879264D01*
X37000280Y3834099D01*
X37070844Y3781765D01*
X37135943Y3722763D01*
X37194945Y3657664D01*
X37247279Y3587100D01*
X37292444Y3511747D01*
X37330004Y3432330D01*
X37359604Y3349608D01*
X37380949Y3264393D01*
X37393840Y3177487D01*
X37395936Y3134829D01*
X37398152Y3089727D01*
X37395937Y3044645D01*
X37393841Y3001997D01*
X37380949Y2915081D01*
X37359604Y2829866D01*
X37330004Y2747144D01*
X37292444Y2667727D01*
X37247279Y2592374D01*
X37194945Y2521810D01*
X37135943Y2456711D01*
X37070844Y2397709D01*
X37000280Y2345375D01*
X36924927Y2300210D01*
X36845510Y2262650D01*
X36762788Y2233050D01*
X36677573Y2211705D01*
X36590657Y2198813D01*
X36502917Y2194501D01*
D02*
G37*
%LPC*%
G36*
X30502917Y2194501D02*
X30415177Y2198813D01*
X30328261Y2211705D01*
X30243046Y2233050D01*
X30160324Y2262650D01*
X30080907Y2300210D01*
X30005554Y2345375D01*
X29934990Y2397709D01*
X29869891Y2456711D01*
X29810889Y2521810D01*
X29758555Y2592374D01*
X29713390Y2667727D01*
X29675830Y2747144D01*
X29646230Y2829866D01*
X29624885Y2915081D01*
X29611993Y3001997D01*
X29607681Y3089737D01*
X29611993Y3177477D01*
X29624885Y3264393D01*
X29646230Y3349608D01*
X29675830Y3432330D01*
X29713390Y3511747D01*
X29758555Y3587100D01*
X29810889Y3657664D01*
X29869891Y3722763D01*
X29934990Y3781765D01*
X30005554Y3834099D01*
X30080907Y3879264D01*
X30160324Y3916824D01*
X30243046Y3946424D01*
X30328261Y3967769D01*
X30415177Y3980661D01*
X30502917Y3984973D01*
X30590657Y3980661D01*
X30677573Y3967769D01*
X30762788Y3946424D01*
X30845510Y3916824D01*
X30924927Y3879264D01*
X31000280Y3834099D01*
X31070844Y3781765D01*
X31135943Y3722763D01*
X31194945Y3657664D01*
X31247279Y3587100D01*
X31292444Y3511747D01*
X31330004Y3432330D01*
X31359604Y3349608D01*
X31380949Y3264393D01*
X31393841Y3177477D01*
X31398153Y3089737D01*
X31393841Y3001997D01*
X31380949Y2915081D01*
X31359604Y2829866D01*
X31330004Y2747144D01*
X31292444Y2667727D01*
X31247279Y2592374D01*
X31194945Y2521810D01*
X31135943Y2456711D01*
X31070844Y2397709D01*
X31000280Y2345375D01*
X30924927Y2300210D01*
X30845510Y2262650D01*
X30762788Y2233050D01*
X30677573Y2211705D01*
X30590657Y2198813D01*
X30502917Y2194501D01*
D02*
G37*
%LPC*%
G36*
X26502917Y2194501D02*
X26415177Y2198813D01*
X26328261Y2211705D01*
X26243046Y2233050D01*
X26160324Y2262650D01*
X26080907Y2300210D01*
X26005554Y2345375D01*
X25934990Y2397709D01*
X25869891Y2456711D01*
X25810889Y2521810D01*
X25758555Y2592374D01*
X25713390Y2667727D01*
X25675830Y2747144D01*
X25646230Y2829866D01*
X25624885Y2915081D01*
X25611993Y3001997D01*
X25607681Y3089737D01*
X25611993Y3177477D01*
X25624885Y3264393D01*
X25646230Y3349608D01*
X25675830Y3432330D01*
X25713390Y3511747D01*
X25758555Y3587100D01*
X25810889Y3657664D01*
X25869891Y3722763D01*
X25934990Y3781765D01*
X26005554Y3834099D01*
X26080907Y3879264D01*
X26160324Y3916824D01*
X26243046Y3946424D01*
X26328261Y3967769D01*
X26415177Y3980661D01*
X26502917Y3984973D01*
X26590657Y3980661D01*
X26677573Y3967769D01*
X26762788Y3946424D01*
X26845510Y3916824D01*
X26924927Y3879264D01*
X27000280Y3834099D01*
X27070844Y3781765D01*
X27135943Y3722763D01*
X27194945Y3657664D01*
X27247279Y3587100D01*
X27292444Y3511747D01*
X27330004Y3432330D01*
X27359604Y3349608D01*
X27380949Y3264393D01*
X27393840Y3177487D01*
X27395936Y3134829D01*
X27398152Y3089727D01*
X27395937Y3044645D01*
X27393841Y3001997D01*
X27380949Y2915081D01*
X27359604Y2829866D01*
X27330004Y2747144D01*
X27292444Y2667727D01*
X27247279Y2592374D01*
X27194945Y2521810D01*
X27135943Y2456711D01*
X27070844Y2397709D01*
X27000280Y2345375D01*
X26924927Y2300210D01*
X26845510Y2262650D01*
X26762788Y2233050D01*
X26677573Y2211705D01*
X26590657Y2198813D01*
X26502917Y2194501D01*
D02*
G37*
%LPC*%
G36*
X25389660Y3239737D02*
X24652917Y3239737D01*
X24652917Y3976480D01*
X24678553Y3972677D01*
X24764239Y3951215D01*
X24847422Y3921451D01*
X24927286Y3883677D01*
X25003071Y3838255D01*
X25074020Y3785636D01*
X25139483Y3726303D01*
X25198816Y3660840D01*
X25251435Y3589891D01*
X25296857Y3514106D01*
X25334631Y3434242D01*
X25364395Y3351059D01*
X25385857Y3265373D01*
X25389660Y3239737D01*
D02*
G37*
%LPC*%
G36*
X28352917Y3239737D02*
X27616174Y3239737D01*
X27619977Y3265373D01*
X27641439Y3351059D01*
X27671203Y3434242D01*
X27708977Y3514106D01*
X27754399Y3589891D01*
X27807018Y3660840D01*
X27866351Y3726303D01*
X27931814Y3785636D01*
X28002763Y3838255D01*
X28078548Y3883677D01*
X28158412Y3921451D01*
X28241595Y3951215D01*
X28327281Y3972677D01*
X28352917Y3976480D01*
X28352917Y3239737D01*
D02*
G37*
%LPC*%
G36*
X29389660Y3239737D02*
X28652917Y3239737D01*
X28652917Y3976480D01*
X28678553Y3972677D01*
X28764239Y3951215D01*
X28847422Y3921451D01*
X28927286Y3883677D01*
X29003071Y3838255D01*
X29074020Y3785636D01*
X29139483Y3726303D01*
X29198816Y3660840D01*
X29251435Y3589891D01*
X29296857Y3514106D01*
X29334631Y3434242D01*
X29364395Y3351059D01*
X29385857Y3265373D01*
X29389660Y3239737D01*
D02*
G37*
%LPC*%
G36*
X38352917Y3239737D02*
X37616174Y3239737D01*
X37619977Y3265373D01*
X37641439Y3351059D01*
X37671203Y3434242D01*
X37708977Y3514106D01*
X37754399Y3589891D01*
X37807018Y3660840D01*
X37866351Y3726303D01*
X37931814Y3785636D01*
X38002763Y3838255D01*
X38078548Y3883677D01*
X38158412Y3921451D01*
X38241595Y3951215D01*
X38327281Y3972677D01*
X38352917Y3976480D01*
X38352917Y3239737D01*
D02*
G37*
%LPC*%
G36*
X39389660Y3239737D02*
X38652917Y3239737D01*
X38652917Y3976480D01*
X38678553Y3972677D01*
X38764239Y3951215D01*
X38847422Y3921451D01*
X38927286Y3883677D01*
X39003071Y3838255D01*
X39074020Y3785636D01*
X39139483Y3726303D01*
X39198816Y3660840D01*
X39251435Y3589891D01*
X39296857Y3514106D01*
X39334631Y3434242D01*
X39364395Y3351059D01*
X39385857Y3265373D01*
X39389660Y3239737D01*
D02*
G37*
%LPC*%
G36*
X24352917Y3239737D02*
X23616174Y3239737D01*
X23619977Y3265373D01*
X23641439Y3351059D01*
X23671203Y3434242D01*
X23708977Y3514106D01*
X23754399Y3589891D01*
X23807018Y3660840D01*
X23866351Y3726303D01*
X23931814Y3785636D01*
X24002763Y3838255D01*
X24078548Y3883677D01*
X24158412Y3921451D01*
X24241595Y3951215D01*
X24327281Y3972677D01*
X24352917Y3976480D01*
X24352917Y3239737D01*
D02*
G37*
%LPC*%
G36*
X38652917Y2202994D02*
X38652917Y2939737D01*
X39389660Y2939737D01*
X39385857Y2914101D01*
X39364395Y2828415D01*
X39334631Y2745232D01*
X39296857Y2665368D01*
X39251435Y2589583D01*
X39198816Y2518634D01*
X39139483Y2453171D01*
X39074020Y2393838D01*
X39003071Y2341219D01*
X38927286Y2295797D01*
X38847422Y2258023D01*
X38764239Y2228259D01*
X38678553Y2206797D01*
X38652917Y2202994D01*
D02*
G37*
%LPC*%
G36*
X38352917Y2202994D02*
X38327281Y2206797D01*
X38241595Y2228259D01*
X38158412Y2258023D01*
X38078548Y2295797D01*
X38002763Y2341219D01*
X37931814Y2393838D01*
X37866351Y2453171D01*
X37807018Y2518634D01*
X37754399Y2589583D01*
X37708977Y2665368D01*
X37671203Y2745232D01*
X37641439Y2828415D01*
X37619977Y2914101D01*
X37616174Y2939737D01*
X38352917Y2939737D01*
X38352917Y2202994D01*
D02*
G37*
%LPC*%
G36*
X28652917Y2202994D02*
X28652917Y2939737D01*
X29389660Y2939737D01*
X29385857Y2914101D01*
X29364395Y2828415D01*
X29334631Y2745232D01*
X29296857Y2665368D01*
X29251435Y2589583D01*
X29198816Y2518634D01*
X29139483Y2453171D01*
X29074020Y2393838D01*
X29003071Y2341219D01*
X28927286Y2295797D01*
X28847422Y2258023D01*
X28764239Y2228259D01*
X28678553Y2206797D01*
X28652917Y2202994D01*
D02*
G37*
%LPC*%
G36*
X28352917Y2202994D02*
X28327281Y2206797D01*
X28241595Y2228259D01*
X28158412Y2258023D01*
X28078548Y2295797D01*
X28002763Y2341219D01*
X27931814Y2393838D01*
X27866351Y2453171D01*
X27807018Y2518634D01*
X27754399Y2589583D01*
X27708977Y2665368D01*
X27671203Y2745232D01*
X27641439Y2828415D01*
X27619977Y2914101D01*
X27616174Y2939737D01*
X28352917Y2939737D01*
X28352917Y2202994D01*
D02*
G37*
%LPC*%
G36*
X24652917Y2202994D02*
X24652917Y2939737D01*
X25389660Y2939737D01*
X25385857Y2914101D01*
X25364395Y2828415D01*
X25334631Y2745232D01*
X25296857Y2665368D01*
X25251435Y2589583D01*
X25198816Y2518634D01*
X25139483Y2453171D01*
X25074020Y2393838D01*
X25003071Y2341219D01*
X24927286Y2295797D01*
X24847422Y2258023D01*
X24764239Y2228259D01*
X24678553Y2206797D01*
X24652917Y2202994D01*
D02*
G37*
%LPC*%
G36*
X24352917Y2202994D02*
X24327281Y2206797D01*
X24241595Y2228259D01*
X24158412Y2258023D01*
X24078548Y2295797D01*
X24002763Y2341219D01*
X23931814Y2393838D01*
X23866351Y2453171D01*
X23807018Y2518634D01*
X23754399Y2589583D01*
X23708977Y2665368D01*
X23671203Y2745232D01*
X23641439Y2828415D01*
X23619977Y2914101D01*
X23616174Y2939737D01*
X24352917Y2939737D01*
X24352917Y2202994D01*
D02*
G37*
%LPD*%
G01*
%LPD*%
D10*
X15100000Y52500000D02*
X6960000Y52500000D01*
D11*
X7105000Y36070000D02*
X8705000Y36070000D01*
D10*
X28706667Y32714999D02*
X30706667Y32714999D01*
D12*
X33296667Y38054997D02*
X33516667Y38054997D01*
D10*
X43010000Y40760000D02*
X46540000Y40760000D01*
D10*
X12065000Y30730000D02*
X12065000Y28565000D01*
D10*
X11460000Y48000000D02*
X9500000Y49960000D01*
D10*
X7825000Y28480000D02*
X7825000Y29725000D01*
D10*
X38856667Y40594997D02*
X40964997Y40594997D01*
D13*
X10080000Y21480000D02*
X10080000Y26840000D01*
D10*
X42800000Y34000000D02*
X51000000Y34000000D01*
D10*
X28706667Y35894999D02*
X28706667Y32714999D01*
D10*
X37881667Y38054997D02*
X38856667Y38054997D01*
D10*
X15820000Y53800000D02*
X14580000Y55040000D01*
D10*
X36980000Y35430000D02*
X36980000Y36220000D01*
D10*
X16725000Y38350000D02*
X14845000Y38350000D01*
D10*
X19100000Y50940000D02*
X20100000Y51940000D01*
D10*
X11940000Y26560000D02*
X11940000Y28440000D01*
D10*
X41800000Y33000000D02*
X42800000Y34000000D01*
D12*
X16695000Y30730000D02*
X14605000Y30730000D01*
D10*
X19100000Y49900000D02*
X17700000Y49900000D01*
D10*
X13335000Y36070000D02*
X14605000Y36070000D01*
D10*
X13335000Y28645000D02*
X13540000Y28440000D01*
D10*
X10080000Y28440000D02*
X11940000Y28440000D01*
D10*
X6960000Y52500000D02*
X4420000Y49960000D01*
D10*
X19000000Y55400000D02*
X17100000Y57300000D01*
D10*
X36800000Y33000000D02*
X36800000Y35250000D01*
D10*
X17100000Y57300000D02*
X11760000Y57300000D01*
D10*
X51000000Y34000000D02*
X53500000Y36500000D01*
D10*
X5895000Y19697654D02*
X22502917Y3089737D01*
D10*
X41130000Y39160000D02*
X43010000Y39160000D01*
D10*
X31500000Y62500000D02*
X26500000Y62500000D01*
D10*
X3965000Y26880000D02*
X5895000Y26880000D01*
D10*
X13335000Y32635000D02*
X14600000Y33900000D01*
D10*
X36980000Y36220000D02*
X35200000Y38000000D01*
D10*
X13540000Y26560000D02*
X13540000Y28440000D01*
D10*
X13335000Y30730000D02*
X13335000Y32635000D01*
D10*
X48500000Y62500000D02*
X45700000Y62500000D01*
D10*
X48500000Y38800000D02*
X48500000Y36500000D01*
D10*
X23150000Y39950000D02*
X16725000Y39950000D01*
D10*
X43100000Y18721666D02*
X43100000Y5686820D01*
D11*
X18295000Y30730000D02*
X16695000Y30730000D01*
D10*
X35200000Y38000000D02*
X35200000Y38620000D01*
D10*
X41130000Y40760000D02*
X43010000Y40760000D01*
D10*
X8525000Y30840000D02*
X10685000Y30840000D01*
D10*
X34495003Y39324997D02*
X33516667Y39324997D01*
D10*
X43100000Y5686820D02*
X40502917Y3089737D01*
D12*
X33296667Y35964997D02*
X33296667Y38054997D01*
D10*
X10685000Y30840000D02*
X10795000Y30730000D01*
D10*
X21700000Y51940000D02*
X21700000Y51340000D01*
D10*
X11760000Y57300000D02*
X9500000Y55040000D01*
D10*
X14845000Y38350000D02*
X12945000Y38350000D01*
D10*
X30706667Y31114999D02*
X43100000Y18721666D01*
D10*
X36800000Y35250000D02*
X36980000Y35430000D01*
D10*
X19100000Y48000000D02*
X22900000Y48000000D01*
D10*
X43010000Y39160000D02*
X43010000Y37360000D01*
D10*
X17730000Y65730000D02*
X55270000Y65730000D01*
D10*
X14500000Y62500000D02*
X17730000Y65730000D01*
D10*
X21700000Y53800000D02*
X21700000Y51940000D01*
D10*
X4500000Y62500000D02*
X9500000Y62500000D01*
D10*
X55270000Y65730000D02*
X58500000Y62500000D01*
D10*
X19100000Y49900000D02*
X21100000Y49900000D01*
D10*
X40200000Y33000000D02*
X40200000Y35210000D01*
D10*
X19100000Y48000000D02*
X11460000Y48000000D01*
D10*
X37000000Y41400000D02*
X37000000Y38936664D01*
D13*
X5895000Y30470000D02*
X5525000Y30840000D01*
D10*
X24130000Y55400000D02*
X21700000Y55400000D01*
D12*
X8705000Y36070000D02*
X10795000Y36070000D01*
D10*
X21700000Y51340000D02*
X22900000Y50140000D01*
D10*
X40964997Y40594997D02*
X41130000Y40760000D01*
D10*
X14845000Y39950000D02*
X14845000Y42460000D01*
D10*
X37000000Y38936664D02*
X37881667Y38054997D01*
D10*
X33516667Y41864997D02*
X33516667Y40594997D01*
D11*
X33296667Y34364997D02*
X33296667Y35964997D01*
D11*
X38856667Y45554997D02*
X38856667Y43954997D01*
D10*
X15715000Y33900000D02*
X16725000Y34910000D01*
D10*
X38856667Y39324997D02*
X40965003Y39324997D01*
D10*
X13335000Y30730000D02*
X13335000Y28645000D01*
D10*
X14600000Y33900000D02*
X15715000Y33900000D01*
D10*
X7825000Y29725000D02*
X8525000Y30425000D01*
D10*
X28706667Y40594997D02*
X33516667Y40594997D01*
D10*
X40965003Y39324997D02*
X41130000Y39160000D01*
D10*
X35200000Y38620000D02*
X34495003Y39324997D01*
D10*
X45700000Y62500000D02*
X23150000Y39950000D01*
D10*
X17700000Y49900000D02*
X15100000Y52500000D01*
D10*
X16725000Y36510000D02*
X16725000Y38350000D01*
D10*
X12065000Y28565000D02*
X11940000Y28440000D01*
D12*
X38856667Y43954997D02*
X38856667Y41864997D01*
D10*
X21700000Y55400000D02*
X19000000Y55400000D01*
D10*
X12945000Y42460000D02*
X12945000Y45200000D01*
D10*
X37000000Y41400000D02*
X34400000Y44000000D01*
D10*
X19100000Y49900000D02*
X19100000Y50940000D01*
D10*
X22900000Y48000000D02*
X25100000Y48000000D01*
D10*
X12945000Y40230000D02*
X12945000Y42460000D01*
D10*
X5895000Y26880000D02*
X5895000Y19697654D01*
D10*
X8525000Y30425000D02*
X8525000Y30840000D01*
D10*
X14845000Y42460000D02*
X14845000Y46300000D01*
D10*
X21700000Y53800000D02*
X15820000Y53800000D01*
D13*
X5895000Y28480000D02*
X5895000Y30470000D01*
D10*
X46540000Y40760000D02*
X48500000Y38800000D01*
D10*
X40200000Y35210000D02*
X39980000Y35430000D01*
D10*
X22900000Y50140000D02*
X22900000Y49600000D01*
G75*
D14*
X41130000Y40760000D03*
D15*
X41130000Y39160000D03*
D16*
X14580000Y49960000D03*
D16*
X9500000Y49960000D03*
D16*
X4420000Y55040000D03*
D16*
X9500000Y55040000D03*
D16*
X14580000Y55040000D03*
D16*
X4420000Y49960000D03*
D15*
X16725000Y38350000D03*
D14*
X16725000Y39950000D03*
D17*
X38400000Y33000000D03*
D18*
X36800000Y33000000D03*
D19*
X10477083Y6521263D03*
D19*
X8477083Y6521263D03*
D17*
X13540000Y26560000D03*
D18*
X11940000Y26560000D03*
D15*
X7825000Y26880000D03*
D14*
X7825000Y28480000D03*
D15*
X30706667Y31114999D03*
D14*
X30706667Y32714999D03*
D14*
X21700000Y55400000D03*
D15*
X21700000Y53800000D03*
D20*
X38856667Y41864997D03*
D20*
X38856667Y39324997D03*
D20*
X38856667Y38054997D03*
D21*
X33516667Y38054997D03*
D21*
X33516667Y40594997D03*
D20*
X38856667Y40594997D03*
D21*
X33516667Y41864997D03*
D21*
X33516667Y39324997D03*
D22*
X39980000Y35430000D03*
D23*
X36980000Y35430000D03*
D14*
X16725000Y36510000D03*
D15*
X16725000Y34910000D03*
D24*
X28706667Y40594997D03*
D25*
X28706667Y35894999D03*
D17*
X34896667Y35964997D03*
D18*
X33296667Y35964997D03*
D26*
X39400000Y14800000D03*
D27*
X34400000Y14800000D03*
D14*
X3965000Y28480000D03*
D15*
X3965000Y26880000D03*
D15*
X10080000Y26840000D03*
D14*
X10080000Y28440000D03*
D17*
X21700000Y51940000D03*
D18*
X20100000Y51940000D03*
D28*
X12945000Y42460000D03*
D29*
X14845000Y42460000D03*
D14*
X14845000Y39950000D03*
D15*
X14845000Y38350000D03*
D30*
X19100000Y49900000D03*
D31*
X19100000Y48000000D03*
D14*
X16695000Y32330000D03*
D15*
X16695000Y30730000D03*
D32*
X24130000Y52400000D03*
D33*
X24130000Y55400000D03*
D15*
X8705000Y34470000D03*
D14*
X8705000Y36070000D03*
D34*
X14605000Y30730000D03*
D34*
X12065000Y30730000D03*
D34*
X10795000Y30730000D03*
D35*
X10795000Y36070000D03*
D35*
X13335000Y36070000D03*
D34*
X13335000Y30730000D03*
D35*
X14605000Y36070000D03*
D35*
X12065000Y36070000D03*
D23*
X5525000Y30840000D03*
D22*
X8525000Y30840000D03*
D15*
X43010000Y35760000D03*
D14*
X43010000Y37360000D03*
D14*
X22900000Y49600000D03*
D15*
X22900000Y48000000D03*
D18*
X11345000Y38350000D03*
D17*
X12945000Y38350000D03*
D18*
X11345000Y40230000D03*
D17*
X12945000Y40230000D03*
D18*
X37256667Y43954997D03*
D17*
X38856667Y43954997D03*
D19*
X54477083Y6531263D03*
D19*
X52477083Y6531263D03*
D22*
X37400000Y9200000D03*
D23*
X34400000Y9200000D03*
D22*
X26900000Y9200000D03*
D23*
X23900000Y9200000D03*
D36*
X48500000Y36500000D03*
D36*
X58500000Y36500000D03*
D36*
X53500000Y36500000D03*
D36*
X26500000Y62500000D03*
D36*
X36500000Y62500000D03*
D36*
X31500000Y62500000D03*
D27*
X23900000Y14800000D03*
D26*
X28900000Y14800000D03*
D14*
X5895000Y28480000D03*
D15*
X5895000Y26880000D03*
D15*
X28706667Y31114999D03*
D14*
X28706667Y32714999D03*
D18*
X40200000Y33000000D03*
D17*
X41800000Y33000000D03*
D36*
X48500000Y62500000D03*
D36*
X58500000Y62500000D03*
D36*
X53500000Y62500000D03*
D17*
X13540000Y28440000D03*
D18*
X11940000Y28440000D03*
D14*
X43010000Y40760000D03*
D15*
X43010000Y39160000D03*
D37*
X24502917Y3089737D03*
D37*
X38502917Y3089737D03*
D37*
X30502917Y3089737D03*
D37*
X28502917Y3089737D03*
D37*
X22502917Y3089737D03*
D37*
X36502917Y3089737D03*
D37*
X26502917Y3089737D03*
D37*
X32502917Y3089737D03*
D37*
X34502917Y3089737D03*
D37*
X40502917Y3089737D03*
D36*
X4500000Y62500000D03*
D36*
X14500000Y62500000D03*
D36*
X9500000Y62500000D03*
D26*
X15080000Y21480000D03*
D27*
X10080000Y21480000D03*
D38*
X41710000Y35760000D03*
D39*
X1000000Y26200000D03*
D39*
X62000000Y64600000D03*
D39*
X54375000Y71000000D03*
D39*
X46750000Y1000000D03*
D38*
X7405000Y34470000D03*
D38*
X28706667Y29814999D03*
D40*
X12945000Y45200000D03*
D38*
X54375000Y39000000D03*
D38*
X23875000Y45400000D03*
D41*
X23900000Y17400000D03*
D38*
X31500000Y51800000D03*
D39*
X1000000Y51800000D03*
D38*
X46750000Y39000000D03*
D38*
X46750000Y26200000D03*
D39*
X1000000Y32600000D03*
D38*
X8625000Y19800000D03*
D41*
X7105000Y36070000D03*
D38*
X38400000Y31700000D03*
D39*
X62000000Y13400000D03*
D38*
X54375000Y26200000D03*
D39*
X46750000Y71000000D03*
D39*
X62000000Y51800000D03*
D39*
X62000000Y1000000D03*
D39*
X8625000Y71000000D03*
D38*
X28900000Y16540000D03*
D38*
X8625000Y64600000D03*
D38*
X31500000Y19800000D03*
D38*
X54375000Y19800000D03*
D38*
X54375000Y51800000D03*
D39*
X1000000Y19800000D03*
D39*
X62000000Y7000000D03*
D39*
X16250000Y1000000D03*
D38*
X54375000Y58200000D03*
D41*
X18295000Y30730000D03*
D38*
X46750000Y19800000D03*
D38*
X46750000Y64600000D03*
D39*
X62000000Y32600000D03*
D39*
X31500000Y1000000D03*
D39*
X62000000Y45400000D03*
D38*
X8625000Y13400000D03*
D38*
X16250000Y58200000D03*
D39*
X1000000Y71000000D03*
D38*
X54375000Y64600000D03*
D39*
X39125000Y71000000D03*
D39*
X62000000Y19800000D03*
D38*
X16250000Y13400000D03*
D39*
X31500000Y71000000D03*
D39*
X62000000Y26200000D03*
D38*
X31340000Y14800000D03*
D38*
X54375000Y45400000D03*
D38*
X8625000Y45400000D03*
D38*
X46750000Y7000000D03*
D38*
X34896667Y34664997D03*
D39*
X62000000Y39000000D03*
D38*
X16250000Y7000000D03*
D38*
X31500000Y58200000D03*
D38*
X39125000Y7000000D03*
D38*
X37256667Y45254997D03*
D39*
X62000000Y58200000D03*
D39*
X1000000Y1000000D03*
D39*
X8625000Y1000000D03*
D39*
X1000000Y7000000D03*
D39*
X1000000Y45400000D03*
D38*
X7825000Y25580000D03*
D38*
X28900000Y13060000D03*
D38*
X46750000Y51800000D03*
D38*
X3965000Y29780000D03*
D39*
X1000000Y58200000D03*
D40*
X21100000Y49900000D03*
D39*
X23875000Y71000000D03*
D38*
X16250000Y26200000D03*
D38*
X39125000Y58200000D03*
D41*
X38856667Y45554997D03*
D38*
X31500000Y26200000D03*
D38*
X39400000Y13060000D03*
D39*
X54375000Y1000000D03*
D38*
X31500000Y45400000D03*
D39*
X23875000Y1000000D03*
D38*
X39400000Y16540000D03*
D39*
X1000000Y39000000D03*
D38*
X15080000Y19740000D03*
D40*
X34400000Y44000000D03*
D39*
X1000000Y13400000D03*
D38*
X24200000Y50900000D03*
D38*
X16250000Y45400000D03*
D38*
X39125000Y64600000D03*
D39*
X16250000Y71000000D03*
D40*
X14845000Y46300000D03*
D38*
X54375000Y32600000D03*
D40*
X25100000Y48000000D03*
D38*
X39125000Y51800000D03*
D38*
X46750000Y13400000D03*
D38*
X39125000Y26200000D03*
D41*
X33296667Y34364997D03*
D38*
X46750000Y58200000D03*
D38*
X39125000Y19800000D03*
D38*
X17995000Y32330000D03*
D38*
X46750000Y32600000D03*
D38*
X41840000Y14800000D03*
D39*
X39125000Y1000000D03*
D38*
X23875000Y7000000D03*
D38*
X46750000Y45400000D03*
D39*
X62000000Y71000000D03*
D38*
X10045000Y40230000D03*
D38*
X10045000Y38350000D03*
D38*
X31500000Y64600000D03*
D38*
X54375000Y13400000D03*
D38*
X8625000Y58200000D03*
D41*
X34400000Y17400000D03*
D38*
X23875000Y58200000D03*
D39*
X1000000Y64600000D03*
M02*
