%FSLAX46Y46*%
%MOMM*%
%ADD13C,0.200000*%
%ADD10C,0.300000*%
%ADD11C,0.550000*%
%ADD12C,0.800000*%
%AMPS35*
1,1,2.100000,0.000000,0.000000*
%
%ADD35PS35*%
%AMPS34*
1,1,1.700000,0.000000,0.000000*
%
%ADD34PS34*%
%AMPS33*
1,1,1.700000,0.000000,0.000000*
%
%ADD33PS33*%
%AMPS16*
1,1,2.200000,0.000000,0.000000*
%
%ADD16PS16*%
%AMPS20*
21,1,0.600000,1.550000,0.000000,0.000000,0.000000*
%
%ADD20PS20*%
%AMPS31*
21,1,0.600000,1.550000,0.000000,0.000000,90.000000*
%
%ADD31PS31*%
%AMPS19*
21,1,0.600000,1.550000,0.000000,0.000000,180.000000*
%
%ADD19PS19*%
%AMPS32*
21,1,0.600000,1.550000,0.000000,0.000000,270.000000*
%
%ADD32PS32*%
%AMPS26*
21,1,1.600000,3.200000,0.000000,0.000000,90.000000*
%
%ADD26PS26*%
%AMPS25*
21,1,1.600000,3.200000,0.000000,0.000000,270.000000*
%
%ADD25PS25*%
%AMPS27*
21,1,1.450000,1.000000,0.000000,0.000000,90.000000*
%
%ADD27PS27*%
%AMPS28*
21,1,1.450000,1.000000,0.000000,0.000000,270.000000*
%
%ADD28PS28*%
%AMPS24*
21,1,1.500000,2.800000,0.000000,0.000000,0.000000*
%
%ADD24PS24*%
%AMPS23*
21,1,1.500000,2.800000,0.000000,0.000000,180.000000*
%
%ADD23PS23*%
%AMPS21*
21,1,1.800000,1.100000,0.000000,0.000000,0.000000*
%
%ADD21PS21*%
%AMPS29*
21,1,1.800000,1.100000,0.000000,0.000000,90.000000*
%
%ADD29PS29*%
%AMPS22*
21,1,1.800000,1.100000,0.000000,0.000000,180.000000*
%
%ADD22PS22*%
%AMPS30*
21,1,1.800000,1.100000,0.000000,0.000000,270.000000*
%
%ADD30PS30*%
%AMPS18*
21,1,1.000000,0.900000,0.000000,0.000000,0.000000*
%
%ADD18PS18*%
%AMPS15*
21,1,1.000000,0.900000,0.000000,0.000000,90.000000*
%
%ADD15PS15*%
%AMPS17*
21,1,1.000000,0.900000,0.000000,0.000000,180.000000*
%
%ADD17PS17*%
%AMPS14*
21,1,1.000000,0.900000,0.000000,0.000000,270.000000*
%
%ADD14PS14*%
%AMPS38*
1,1,1.400000,0.000000,0.000000*
%
%ADD38PS38*%
%AMPS37*
1,1,0.700000,0.000000,0.000000*
%
%ADD37PS37*%
%AMPS39*
1,1,0.900000,0.000000,0.000000*
%
%ADD39PS39*%
%AMPS36*
1,1,0.700000,0.000000,0.000000*
%
%ADD36PS36*%
G01*
%LPD*%
G36*
X62640000Y360000D02*
X62640000Y71640000D01*
X360000Y71640000D01*
X360000Y360000D01*
X62640000Y360000D01*
D02*
G37*
%LPC*%
G36*
X16955000Y50395000D02*
X15645000Y50395000D01*
X15645000Y51805000D01*
X15945000Y51805000D01*
X15945000Y52400000D01*
X15595000Y52400000D01*
X15595000Y54260000D01*
X15945000Y54260000D01*
X15945000Y56552953D01*
X14256215Y58241738D01*
X14248372Y58248155D01*
X14204003Y58302223D01*
X14171106Y58363770D01*
X14150849Y58430548D01*
X14145000Y58489935D01*
X14145000Y61295448D01*
X14019640Y61340302D01*
X13908282Y61392970D01*
X13802623Y61456300D01*
X13703681Y61529681D01*
X13612406Y61612406D01*
X13529681Y61703681D01*
X13456300Y61802623D01*
X13392970Y61908282D01*
X13340302Y62019640D01*
X13298803Y62135622D01*
X13268874Y62255108D01*
X13250798Y62376973D01*
X13244752Y62500000D01*
X13250798Y62623027D01*
X13268874Y62744892D01*
X13298803Y62864378D01*
X13340302Y62980360D01*
X13392970Y63091718D01*
X13456300Y63197377D01*
X13529681Y63296319D01*
X13612406Y63387594D01*
X13703681Y63470319D01*
X13802623Y63543700D01*
X13908282Y63607030D01*
X14019640Y63659698D01*
X14135622Y63701197D01*
X14255108Y63731126D01*
X14376973Y63749202D01*
X14500000Y63755248D01*
X14623027Y63749202D01*
X14744892Y63731126D01*
X14864378Y63701197D01*
X14980360Y63659698D01*
X15100724Y63602771D01*
X17472401Y65974448D01*
X17478877Y65982220D01*
X17532222Y66025996D01*
X17593770Y66058893D01*
X17660548Y66079151D01*
X17719923Y66085000D01*
X55280077Y66085000D01*
X55339451Y66079151D01*
X55406229Y66058893D01*
X55467776Y66025996D01*
X55513897Y65988148D01*
X57899275Y63602771D01*
X58019644Y63659699D01*
X58135622Y63701197D01*
X58255108Y63731126D01*
X58376973Y63749202D01*
X58500000Y63755248D01*
X58623027Y63749202D01*
X58744892Y63731126D01*
X58864378Y63701197D01*
X58980360Y63659698D01*
X59091718Y63607030D01*
X59197377Y63543700D01*
X59296319Y63470319D01*
X59387594Y63387594D01*
X59470319Y63296319D01*
X59543700Y63197377D01*
X59607030Y63091718D01*
X59659698Y62980360D01*
X59701197Y62864378D01*
X59731126Y62744892D01*
X59749202Y62623027D01*
X59755248Y62500000D01*
X59749202Y62376973D01*
X59731126Y62255108D01*
X59701197Y62135622D01*
X59659698Y62019640D01*
X59607030Y61908282D01*
X59543700Y61802623D01*
X59470319Y61703681D01*
X59387594Y61612406D01*
X59296319Y61529681D01*
X59197377Y61456300D01*
X59091718Y61392970D01*
X58980360Y61340302D01*
X58864378Y61298803D01*
X58744892Y61268874D01*
X58623027Y61250798D01*
X58500000Y61244752D01*
X58376973Y61250798D01*
X58255108Y61268874D01*
X58135622Y61298803D01*
X58019640Y61340302D01*
X57908282Y61392970D01*
X57802623Y61456300D01*
X57703681Y61529681D01*
X57612406Y61612406D01*
X57529681Y61703681D01*
X57456300Y61802623D01*
X57392970Y61908282D01*
X57340302Y62019640D01*
X57298803Y62135622D01*
X57268874Y62255108D01*
X57250798Y62376973D01*
X57244752Y62500000D01*
X57250798Y62623027D01*
X57268874Y62744892D01*
X57298803Y62864378D01*
X57340302Y62980360D01*
X57397229Y63100724D01*
X55122953Y65375000D01*
X17877047Y65375000D01*
X15602771Y63100724D01*
X15659698Y62980360D01*
X15701197Y62864378D01*
X15731126Y62744892D01*
X15749202Y62623027D01*
X15755248Y62500000D01*
X15749202Y62376973D01*
X15731126Y62255108D01*
X15701197Y62135622D01*
X15659698Y62019640D01*
X15607030Y61908282D01*
X15543700Y61802623D01*
X15470319Y61703681D01*
X15387594Y61612406D01*
X15296319Y61529681D01*
X15197377Y61456300D01*
X15091718Y61392970D01*
X14980360Y61340302D01*
X14855000Y61295448D01*
X14855000Y58647047D01*
X16558148Y56943897D01*
X16595996Y56897776D01*
X16628893Y56836229D01*
X16649151Y56769451D01*
X16655000Y56710077D01*
X16655000Y54260000D01*
X17005000Y54260000D01*
X17005000Y52400000D01*
X16655000Y52400000D01*
X16655000Y51805000D01*
X16955000Y51805000D01*
X16955000Y50395000D01*
D02*
G37*
%LPC*%
G36*
X42510066Y46145000D02*
X34949935Y46145000D01*
X34890548Y46150849D01*
X34823770Y46171106D01*
X34762223Y46204003D01*
X34708155Y46248372D01*
X34701738Y46256215D01*
X32138230Y48819724D01*
X31999494Y48754108D01*
X31878893Y48710956D01*
X31754648Y48679835D01*
X31627937Y48661039D01*
X31500000Y48654753D01*
X31372063Y48661039D01*
X31245352Y48679835D01*
X31121107Y48710956D01*
X31000506Y48754108D01*
X30884712Y48808874D01*
X30774844Y48874727D01*
X30671961Y48951031D01*
X30577051Y49037051D01*
X30491031Y49131961D01*
X30414727Y49234844D01*
X30348874Y49344712D01*
X30294108Y49460506D01*
X30250956Y49581107D01*
X30219835Y49705352D01*
X30201039Y49832063D01*
X30194753Y49960000D01*
X30201039Y50087937D01*
X30219835Y50214648D01*
X30250956Y50338893D01*
X30294108Y50459494D01*
X30348874Y50575288D01*
X30414727Y50685156D01*
X30491031Y50788039D01*
X30577051Y50882949D01*
X30671961Y50968969D01*
X30774844Y51045273D01*
X30884712Y51111126D01*
X31000506Y51165892D01*
X31121107Y51209044D01*
X31245352Y51240165D01*
X31372063Y51258961D01*
X31500000Y51265247D01*
X31627937Y51258961D01*
X31754648Y51240165D01*
X31878893Y51209044D01*
X31999494Y51165892D01*
X32115288Y51111126D01*
X32225156Y51045273D01*
X32328039Y50968969D01*
X32422949Y50882949D01*
X32508969Y50788039D01*
X32585273Y50685156D01*
X32651126Y50575288D01*
X32705892Y50459494D01*
X32749044Y50338893D01*
X32780165Y50214648D01*
X32798961Y50087937D01*
X32805247Y49960000D01*
X32798961Y49832063D01*
X32780165Y49705352D01*
X32749044Y49581107D01*
X32705892Y49460506D01*
X32640276Y49321770D01*
X35107047Y46855000D01*
X42352953Y46855000D01*
X43365000Y47867047D01*
X43365000Y48710000D01*
X43015000Y48710000D01*
X43015000Y50570000D01*
X43375000Y50570000D01*
X43375000Y51145000D01*
X43025000Y51145000D01*
X43025000Y52455000D01*
X44435000Y52455000D01*
X44435000Y52155000D01*
X45052953Y52155000D01*
X53145000Y60247047D01*
X53145000Y61295448D01*
X53019640Y61340302D01*
X52908282Y61392970D01*
X52802623Y61456300D01*
X52703681Y61529681D01*
X52612406Y61612406D01*
X52529681Y61703681D01*
X52456300Y61802623D01*
X52392970Y61908282D01*
X52340302Y62019640D01*
X52298803Y62135622D01*
X52268874Y62255108D01*
X52250798Y62376973D01*
X52244752Y62500000D01*
X52250798Y62623027D01*
X52268874Y62744892D01*
X52298803Y62864378D01*
X52340302Y62980360D01*
X52392970Y63091718D01*
X52456300Y63197377D01*
X52529681Y63296319D01*
X52612406Y63387594D01*
X52703681Y63470319D01*
X52802623Y63543700D01*
X52908282Y63607030D01*
X53019640Y63659698D01*
X53135622Y63701197D01*
X53255108Y63731126D01*
X53376973Y63749202D01*
X53500000Y63755248D01*
X53623027Y63749202D01*
X53744892Y63731126D01*
X53864378Y63701197D01*
X53980360Y63659698D01*
X54091718Y63607030D01*
X54197377Y63543700D01*
X54296319Y63470319D01*
X54387594Y63387594D01*
X54470319Y63296319D01*
X54543700Y63197377D01*
X54607030Y63091718D01*
X54659698Y62980360D01*
X54701197Y62864378D01*
X54731126Y62744892D01*
X54749202Y62623027D01*
X54755248Y62500000D01*
X54749202Y62376973D01*
X54731126Y62255108D01*
X54701197Y62135622D01*
X54659698Y62019640D01*
X54607030Y61908282D01*
X54543700Y61802623D01*
X54470319Y61703681D01*
X54387594Y61612406D01*
X54296319Y61529681D01*
X54197377Y61456300D01*
X54091718Y61392970D01*
X53980360Y61340302D01*
X53855000Y61295448D01*
X53855000Y60089923D01*
X53849151Y60030548D01*
X53828893Y59963770D01*
X53795996Y59902222D01*
X53752220Y59848877D01*
X53744448Y59842401D01*
X45457598Y51555551D01*
X45451122Y51547779D01*
X45397777Y51504003D01*
X45336229Y51471106D01*
X45269451Y51450849D01*
X45210066Y51445000D01*
X44435000Y51445000D01*
X44435000Y51145000D01*
X44085000Y51145000D01*
X44085000Y50570000D01*
X44425000Y50570000D01*
X44425000Y48710000D01*
X44075000Y48710000D01*
X44075000Y47709923D01*
X44069151Y47650548D01*
X44048893Y47583770D01*
X44015996Y47522222D01*
X43972220Y47468877D01*
X43964448Y47462401D01*
X42757598Y46255551D01*
X42751122Y46247779D01*
X42697777Y46204003D01*
X42636229Y46171106D01*
X42569451Y46150849D01*
X42510066Y46145000D01*
D02*
G37*
%LPC*%
G36*
X22395000Y50395000D02*
X21085000Y50395000D01*
X21085000Y51805000D01*
X21942954Y51805000D01*
X23845000Y53707047D01*
X23845000Y56710066D01*
X23850849Y56769451D01*
X23871106Y56836229D01*
X23904003Y56897777D01*
X23947779Y56951122D01*
X23955551Y56957598D01*
X27542401Y60544448D01*
X27548877Y60552220D01*
X27602222Y60595996D01*
X27663770Y60628893D01*
X27730548Y60649151D01*
X27789923Y60655000D01*
X46152953Y60655000D01*
X47397229Y61899276D01*
X47340302Y62019640D01*
X47298803Y62135622D01*
X47268874Y62255108D01*
X47250798Y62376973D01*
X47244752Y62500000D01*
X47250798Y62623027D01*
X47268874Y62744892D01*
X47298803Y62864378D01*
X47340302Y62980360D01*
X47392970Y63091718D01*
X47456300Y63197377D01*
X47529681Y63296319D01*
X47612406Y63387594D01*
X47703681Y63470319D01*
X47802623Y63543700D01*
X47908282Y63607030D01*
X48019640Y63659698D01*
X48135622Y63701197D01*
X48255108Y63731126D01*
X48376973Y63749202D01*
X48500000Y63755248D01*
X48623027Y63749202D01*
X48744892Y63731126D01*
X48864378Y63701197D01*
X48980360Y63659698D01*
X49091718Y63607030D01*
X49197377Y63543700D01*
X49296319Y63470319D01*
X49387594Y63387594D01*
X49470319Y63296319D01*
X49543700Y63197377D01*
X49607030Y63091718D01*
X49659698Y62980360D01*
X49701197Y62864378D01*
X49731126Y62744892D01*
X49749202Y62623027D01*
X49755248Y62500000D01*
X49749202Y62376973D01*
X49731126Y62255108D01*
X49701197Y62135622D01*
X49659698Y62019640D01*
X49607030Y61908282D01*
X49543700Y61802623D01*
X49470319Y61703681D01*
X49387594Y61612406D01*
X49296319Y61529681D01*
X49197377Y61456300D01*
X49091718Y61392970D01*
X48980360Y61340302D01*
X48864378Y61298803D01*
X48744892Y61268874D01*
X48623027Y61250798D01*
X48500000Y61244752D01*
X48376973Y61250798D01*
X48255108Y61268874D01*
X48135622Y61298803D01*
X48019640Y61340302D01*
X47899276Y61397229D01*
X46557598Y60055551D01*
X46551122Y60047779D01*
X46497777Y60004003D01*
X46436229Y59971106D01*
X46369451Y59950849D01*
X46310066Y59945000D01*
X27947047Y59945000D01*
X24555000Y56552953D01*
X24555000Y53549923D01*
X24549151Y53490548D01*
X24528893Y53423770D01*
X24495996Y53362222D01*
X24452220Y53308877D01*
X24444448Y53302401D01*
X22395000Y51252954D01*
X22395000Y50395000D01*
D02*
G37*
%LPC*%
G36*
X31500000Y61244752D02*
X31376973Y61250798D01*
X31255108Y61268874D01*
X31135622Y61298803D01*
X31019640Y61340302D01*
X30908282Y61392970D01*
X30802623Y61456300D01*
X30703681Y61529681D01*
X30612406Y61612406D01*
X30529681Y61703681D01*
X30456300Y61802623D01*
X30392970Y61908282D01*
X30340302Y62019640D01*
X30295448Y62145000D01*
X27704552Y62145000D01*
X27659698Y62019640D01*
X27607030Y61908282D01*
X27543700Y61802623D01*
X27470319Y61703681D01*
X27387594Y61612406D01*
X27296319Y61529681D01*
X27197377Y61456300D01*
X27091718Y61392970D01*
X26980360Y61340302D01*
X26864378Y61298803D01*
X26744892Y61268874D01*
X26623027Y61250798D01*
X26500000Y61244752D01*
X26376973Y61250798D01*
X26255108Y61268874D01*
X26135622Y61298803D01*
X26019640Y61340302D01*
X25908282Y61392970D01*
X25802623Y61456300D01*
X25703681Y61529681D01*
X25612406Y61612406D01*
X25529681Y61703681D01*
X25456300Y61802623D01*
X25392970Y61908282D01*
X25340302Y62019640D01*
X25298803Y62135622D01*
X25268874Y62255108D01*
X25250798Y62376973D01*
X25244752Y62500000D01*
X25250798Y62623027D01*
X25268874Y62744892D01*
X25298803Y62864378D01*
X25340302Y62980360D01*
X25392970Y63091718D01*
X25456300Y63197377D01*
X25529681Y63296319D01*
X25612406Y63387594D01*
X25703681Y63470319D01*
X25802623Y63543700D01*
X25908282Y63607030D01*
X26019640Y63659698D01*
X26135622Y63701197D01*
X26255108Y63731126D01*
X26376973Y63749202D01*
X26500000Y63755248D01*
X26623027Y63749202D01*
X26744892Y63731126D01*
X26864378Y63701197D01*
X26980360Y63659698D01*
X27091718Y63607030D01*
X27197377Y63543700D01*
X27296319Y63470319D01*
X27387594Y63387594D01*
X27470319Y63296319D01*
X27543700Y63197377D01*
X27607030Y63091718D01*
X27659698Y62980360D01*
X27704552Y62855000D01*
X30295448Y62855000D01*
X30340302Y62980360D01*
X30392970Y63091718D01*
X30456300Y63197377D01*
X30529681Y63296319D01*
X30612406Y63387594D01*
X30703681Y63470319D01*
X30802623Y63543700D01*
X30908282Y63607030D01*
X31019640Y63659698D01*
X31135622Y63701197D01*
X31255108Y63731126D01*
X31376973Y63749202D01*
X31500000Y63755248D01*
X31623027Y63749202D01*
X31744892Y63731126D01*
X31864378Y63701197D01*
X31980360Y63659698D01*
X32091718Y63607030D01*
X32197377Y63543700D01*
X32296319Y63470319D01*
X32387594Y63387594D01*
X32470319Y63296319D01*
X32543700Y63197377D01*
X32607030Y63091718D01*
X32659698Y62980360D01*
X32701197Y62864378D01*
X32731126Y62744892D01*
X32749202Y62623027D01*
X32755248Y62500000D01*
X32749202Y62376973D01*
X32731126Y62255108D01*
X32701197Y62135622D01*
X32659698Y62019640D01*
X32607030Y61908282D01*
X32543700Y61802623D01*
X32470319Y61703681D01*
X32387594Y61612406D01*
X32296319Y61529681D01*
X32197377Y61456300D01*
X32091718Y61392970D01*
X31980360Y61340302D01*
X31864378Y61298803D01*
X31744892Y61268874D01*
X31623027Y61250798D01*
X31500000Y61244752D01*
D02*
G37*
%LPC*%
G36*
X9500000Y61244752D02*
X9376973Y61250798D01*
X9255108Y61268874D01*
X9135622Y61298803D01*
X9019640Y61340302D01*
X8908282Y61392970D01*
X8802623Y61456300D01*
X8703681Y61529681D01*
X8612406Y61612406D01*
X8529681Y61703681D01*
X8456300Y61802623D01*
X8392970Y61908282D01*
X8340302Y62019640D01*
X8295448Y62145000D01*
X5704552Y62145000D01*
X5659698Y62019640D01*
X5607030Y61908282D01*
X5543700Y61802623D01*
X5470319Y61703681D01*
X5387594Y61612406D01*
X5296319Y61529681D01*
X5197377Y61456300D01*
X5091718Y61392970D01*
X4980360Y61340302D01*
X4864378Y61298803D01*
X4744892Y61268874D01*
X4623027Y61250798D01*
X4500000Y61244752D01*
X4376973Y61250798D01*
X4255108Y61268874D01*
X4135622Y61298803D01*
X4019640Y61340302D01*
X3908282Y61392970D01*
X3802623Y61456300D01*
X3703681Y61529681D01*
X3612406Y61612406D01*
X3529681Y61703681D01*
X3456300Y61802623D01*
X3392970Y61908282D01*
X3340302Y62019640D01*
X3298803Y62135622D01*
X3268874Y62255108D01*
X3250798Y62376973D01*
X3244752Y62500000D01*
X3250798Y62623027D01*
X3268874Y62744892D01*
X3298803Y62864378D01*
X3340302Y62980360D01*
X3392970Y63091718D01*
X3456300Y63197377D01*
X3529681Y63296319D01*
X3612406Y63387594D01*
X3703681Y63470319D01*
X3802623Y63543700D01*
X3908282Y63607030D01*
X4019640Y63659698D01*
X4135622Y63701197D01*
X4255108Y63731126D01*
X4376973Y63749202D01*
X4500000Y63755248D01*
X4623027Y63749202D01*
X4744892Y63731126D01*
X4864378Y63701197D01*
X4980360Y63659698D01*
X5091718Y63607030D01*
X5197377Y63543700D01*
X5296319Y63470319D01*
X5387594Y63387594D01*
X5470319Y63296319D01*
X5543700Y63197377D01*
X5607030Y63091718D01*
X5659698Y62980360D01*
X5704552Y62855000D01*
X8295448Y62855000D01*
X8340302Y62980360D01*
X8392970Y63091718D01*
X8456300Y63197377D01*
X8529681Y63296319D01*
X8612406Y63387594D01*
X8703681Y63470319D01*
X8802623Y63543700D01*
X8908282Y63607030D01*
X9019640Y63659698D01*
X9135622Y63701197D01*
X9255108Y63731126D01*
X9376973Y63749202D01*
X9500000Y63755248D01*
X9623027Y63749202D01*
X9744892Y63731126D01*
X9864378Y63701197D01*
X9980360Y63659698D01*
X10091718Y63607030D01*
X10197377Y63543700D01*
X10296319Y63470319D01*
X10387594Y63387594D01*
X10470319Y63296319D01*
X10543700Y63197377D01*
X10607030Y63091718D01*
X10659698Y62980360D01*
X10701197Y62864378D01*
X10731126Y62744892D01*
X10749202Y62623027D01*
X10755248Y62500000D01*
X10749202Y62376973D01*
X10731126Y62255108D01*
X10701197Y62135622D01*
X10659698Y62019640D01*
X10607030Y61908282D01*
X10543700Y61802623D01*
X10470319Y61703681D01*
X10387594Y61612406D01*
X10296319Y61529681D01*
X10197377Y61456300D01*
X10091718Y61392970D01*
X9980360Y61340302D01*
X9864378Y61298803D01*
X9744892Y61268874D01*
X9623027Y61250798D01*
X9500000Y61244752D01*
D02*
G37*
%LPC*%
G36*
X36350000Y62650000D02*
X35259853Y62650000D01*
X35273783Y62743912D01*
X35303595Y62862927D01*
X35344927Y62978444D01*
X35397385Y63089358D01*
X35460463Y63194596D01*
X35533551Y63293143D01*
X35615946Y63384054D01*
X35706857Y63466449D01*
X35805404Y63539537D01*
X35910642Y63602615D01*
X36021556Y63655073D01*
X36137073Y63696405D01*
X36256088Y63726217D01*
X36350000Y63740147D01*
X36350000Y62650000D01*
D02*
G37*
%LPC*%
G36*
X37740147Y62650000D02*
X36650000Y62650000D01*
X36650000Y63740147D01*
X36743912Y63726217D01*
X36862927Y63696405D01*
X36978444Y63655073D01*
X37089358Y63602615D01*
X37194596Y63539537D01*
X37293143Y63466449D01*
X37384054Y63384054D01*
X37466449Y63293143D01*
X37539537Y63194596D01*
X37602615Y63089358D01*
X37655073Y62978444D01*
X37696405Y62862927D01*
X37726217Y62743912D01*
X37740147Y62650000D01*
D02*
G37*
%LPC*%
G36*
X36650000Y61259853D02*
X36650000Y62350000D01*
X37740147Y62350000D01*
X37726217Y62256088D01*
X37696405Y62137073D01*
X37655073Y62021556D01*
X37602615Y61910642D01*
X37539537Y61805404D01*
X37466449Y61706857D01*
X37384054Y61615946D01*
X37293143Y61533551D01*
X37194596Y61460463D01*
X37089358Y61397385D01*
X36978444Y61344927D01*
X36862927Y61303595D01*
X36743912Y61273783D01*
X36650000Y61259853D01*
D02*
G37*
%LPC*%
G36*
X36350000Y61259853D02*
X36256088Y61273783D01*
X36137073Y61303595D01*
X36021556Y61344927D01*
X35910642Y61397385D01*
X35805404Y61460463D01*
X35706857Y61533551D01*
X35615946Y61615946D01*
X35533551Y61706857D01*
X35460463Y61805404D01*
X35397385Y61910642D01*
X35344927Y62021556D01*
X35303595Y62137073D01*
X35273783Y62256088D01*
X35259853Y62350000D01*
X36350000Y62350000D01*
X36350000Y61259853D01*
D02*
G37*
%LPC*%
G36*
X31500000Y53734753D02*
X31372063Y53741039D01*
X31245352Y53759835D01*
X31121107Y53790956D01*
X31000506Y53834108D01*
X30884712Y53888874D01*
X30774844Y53954727D01*
X30671961Y54031031D01*
X30577051Y54117051D01*
X30491031Y54211961D01*
X30414727Y54314844D01*
X30348874Y54424712D01*
X30294108Y54540506D01*
X30250956Y54661107D01*
X30219835Y54785352D01*
X30201039Y54912063D01*
X30194753Y55040000D01*
X30201039Y55167937D01*
X30219835Y55294648D01*
X30250956Y55418893D01*
X30294108Y55539494D01*
X30348874Y55655288D01*
X30414727Y55765156D01*
X30491031Y55868039D01*
X30577051Y55962949D01*
X30671961Y56048969D01*
X30774844Y56125273D01*
X30884712Y56191126D01*
X31000506Y56245892D01*
X31121107Y56289044D01*
X31245352Y56320165D01*
X31372063Y56338961D01*
X31500000Y56345247D01*
X31627937Y56338961D01*
X31754648Y56320165D01*
X31878893Y56289044D01*
X31999494Y56245892D01*
X32138229Y56180276D01*
X33912401Y57954448D01*
X33918877Y57962220D01*
X33972222Y58005996D01*
X34033770Y58038893D01*
X34100548Y58059151D01*
X34159923Y58065000D01*
X41045000Y58065000D01*
X41045000Y58815000D01*
X42555000Y58815000D01*
X42555000Y57457046D01*
X43828148Y56183897D01*
X43865996Y56137776D01*
X43898893Y56076230D01*
X43926569Y55985000D01*
X44225000Y55985000D01*
X44225000Y54575000D01*
X42915000Y54575000D01*
X42915000Y56092953D01*
X42402953Y56605000D01*
X41045000Y56605000D01*
X41045000Y57355000D01*
X34317047Y57355000D01*
X32640276Y55678229D01*
X32705892Y55539494D01*
X32749044Y55418893D01*
X32780165Y55294648D01*
X32798961Y55167937D01*
X32805247Y55040000D01*
X32798961Y54912063D01*
X32780165Y54785352D01*
X32749044Y54661107D01*
X32705892Y54540506D01*
X32651126Y54424712D01*
X32585273Y54314844D01*
X32508969Y54211961D01*
X32422949Y54117051D01*
X32328039Y54031031D01*
X32225156Y53954727D01*
X32115288Y53888874D01*
X31999494Y53834108D01*
X31878893Y53790956D01*
X31754648Y53759835D01*
X31627937Y53741039D01*
X31500000Y53734753D01*
D02*
G37*
%LPC*%
G36*
X45550000Y57860000D02*
X44950000Y57860000D01*
X44950000Y58810000D01*
X45550000Y58810000D01*
X45550000Y57860000D01*
D02*
G37*
%LPC*%
G36*
X44650000Y57860000D02*
X44050000Y57860000D01*
X44050000Y58810000D01*
X44650000Y58810000D01*
X44650000Y57860000D01*
D02*
G37*
%LPC*%
G36*
X45550000Y56610000D02*
X44950000Y56610000D01*
X44950000Y57560000D01*
X45550000Y57560000D01*
X45550000Y56610000D01*
D02*
G37*
%LPC*%
G36*
X44650000Y56610000D02*
X44050000Y56610000D01*
X44050000Y57560000D01*
X44650000Y57560000D01*
X44650000Y56610000D01*
D02*
G37*
%LPC*%
G36*
X42505000Y52745000D02*
X41095000Y52745000D01*
X41095000Y54055000D01*
X41615000Y54055000D01*
X41615000Y54575000D01*
X41315000Y54575000D01*
X41315000Y54925000D01*
X37880881Y54925000D01*
X37860165Y54785351D01*
X37829044Y54661107D01*
X37785892Y54540506D01*
X37731126Y54424712D01*
X37665273Y54314844D01*
X37588969Y54211961D01*
X37502949Y54117051D01*
X37408039Y54031031D01*
X37305156Y53954727D01*
X37195288Y53888874D01*
X37079494Y53834108D01*
X36958893Y53790956D01*
X36834648Y53759835D01*
X36707937Y53741039D01*
X36580000Y53734753D01*
X36452063Y53741039D01*
X36325352Y53759835D01*
X36201107Y53790956D01*
X36080506Y53834108D01*
X35964712Y53888874D01*
X35854844Y53954727D01*
X35751961Y54031031D01*
X35657051Y54117051D01*
X35571031Y54211961D01*
X35494727Y54314844D01*
X35428874Y54424712D01*
X35374108Y54540506D01*
X35330956Y54661107D01*
X35299835Y54785352D01*
X35281039Y54912063D01*
X35274753Y55040000D01*
X35281039Y55167937D01*
X35299835Y55294648D01*
X35330956Y55418893D01*
X35374108Y55539494D01*
X35428874Y55655288D01*
X35494727Y55765156D01*
X35571031Y55868039D01*
X35657051Y55962949D01*
X35751961Y56048969D01*
X35854844Y56125273D01*
X35964712Y56191126D01*
X36080506Y56245892D01*
X36201107Y56289044D01*
X36325352Y56320165D01*
X36452063Y56338961D01*
X36580000Y56345247D01*
X36707937Y56338961D01*
X36834648Y56320165D01*
X36958893Y56289044D01*
X37079494Y56245892D01*
X37195288Y56191126D01*
X37305156Y56125273D01*
X37408039Y56048969D01*
X37502949Y55962949D01*
X37588969Y55868039D01*
X37665273Y55765156D01*
X37743286Y55635000D01*
X41315000Y55635000D01*
X41315000Y55985000D01*
X42625000Y55985000D01*
X42625000Y54575000D01*
X42325000Y54575000D01*
X42325000Y54055000D01*
X42505000Y54055000D01*
X42505000Y53755000D01*
X43025000Y53755000D01*
X43025000Y54055000D01*
X44435000Y54055000D01*
X44435000Y52745000D01*
X43025000Y52745000D01*
X43025000Y53045000D01*
X42505000Y53045000D01*
X42505000Y52745000D01*
D02*
G37*
%LPC*%
G36*
X26420000Y53734753D02*
X26292063Y53741039D01*
X26165352Y53759835D01*
X26041107Y53790956D01*
X25920506Y53834108D01*
X25804712Y53888874D01*
X25694844Y53954727D01*
X25591961Y54031031D01*
X25497051Y54117051D01*
X25411031Y54211961D01*
X25334727Y54314844D01*
X25268874Y54424712D01*
X25214108Y54540506D01*
X25170956Y54661107D01*
X25139835Y54785352D01*
X25121039Y54912063D01*
X25114753Y55040000D01*
X25121039Y55167937D01*
X25139835Y55294648D01*
X25170956Y55418893D01*
X25214108Y55539494D01*
X25268874Y55655288D01*
X25334727Y55765156D01*
X25411031Y55868039D01*
X25497051Y55962949D01*
X25591961Y56048969D01*
X25694844Y56125273D01*
X25804712Y56191126D01*
X25920506Y56245892D01*
X26041107Y56289044D01*
X26165352Y56320165D01*
X26292063Y56338961D01*
X26420000Y56345247D01*
X26547937Y56338961D01*
X26674648Y56320165D01*
X26798893Y56289044D01*
X26919494Y56245892D01*
X27035288Y56191126D01*
X27145156Y56125273D01*
X27248039Y56048969D01*
X27342949Y55962949D01*
X27428969Y55868039D01*
X27505273Y55765156D01*
X27571126Y55655288D01*
X27625892Y55539494D01*
X27669044Y55418893D01*
X27700165Y55294648D01*
X27718961Y55167937D01*
X27725247Y55040000D01*
X27718961Y54912063D01*
X27700165Y54785352D01*
X27669044Y54661107D01*
X27625892Y54540506D01*
X27571126Y54424712D01*
X27505273Y54314844D01*
X27428969Y54211961D01*
X27342949Y54117051D01*
X27248039Y54031031D01*
X27145156Y53954727D01*
X27035288Y53888874D01*
X26919494Y53834108D01*
X26798893Y53790956D01*
X26674648Y53759835D01*
X26547937Y53741039D01*
X26420000Y53734753D01*
D02*
G37*
%LPC*%
G36*
X18905000Y52400000D02*
X17495000Y52400000D01*
X17495000Y54260000D01*
X18905000Y54260000D01*
X18905000Y53685000D01*
X19505000Y53685000D01*
X19505000Y54035000D01*
X19805000Y54035000D01*
X19805000Y54558483D01*
X19744319Y54603485D01*
X19696670Y54646670D01*
X19653488Y54694316D01*
X19615182Y54745966D01*
X19582123Y54801122D01*
X19554634Y54859243D01*
X19532968Y54919790D01*
X19517345Y54982167D01*
X19507909Y55045774D01*
X19504753Y55110000D01*
X19507909Y55174226D01*
X19517345Y55237833D01*
X19532968Y55300210D01*
X19554634Y55360757D01*
X19582123Y55418878D01*
X19615182Y55474034D01*
X19653488Y55525684D01*
X19696670Y55573330D01*
X19744316Y55616512D01*
X19795966Y55654818D01*
X19851122Y55687877D01*
X19909243Y55715366D01*
X19969790Y55737032D01*
X20032167Y55752655D01*
X20095774Y55762091D01*
X20160000Y55765247D01*
X20224226Y55762091D01*
X20287833Y55752655D01*
X20350210Y55737032D01*
X20410757Y55715366D01*
X20468878Y55687877D01*
X20524034Y55654818D01*
X20575684Y55616512D01*
X20623330Y55573330D01*
X20666512Y55525684D01*
X20704818Y55474034D01*
X20737877Y55418878D01*
X20765366Y55360757D01*
X20787032Y55300210D01*
X20802655Y55237833D01*
X20812091Y55174226D01*
X20815247Y55110000D01*
X20812091Y55045774D01*
X20802655Y54982167D01*
X20787032Y54919790D01*
X20765366Y54859243D01*
X20737877Y54801122D01*
X20704818Y54745966D01*
X20666512Y54694316D01*
X20623330Y54646670D01*
X20575681Y54603485D01*
X20515000Y54558483D01*
X20515000Y54035000D01*
X20815000Y54035000D01*
X20815000Y52625000D01*
X19505000Y52625000D01*
X19505000Y52975000D01*
X18905000Y52975000D01*
X18905000Y52400000D01*
D02*
G37*
%LPC*%
G36*
X22410000Y53480000D02*
X21910000Y53480000D01*
X21910000Y54030000D01*
X22410000Y54030000D01*
X22410000Y53480000D01*
D02*
G37*
%LPC*%
G36*
X21610000Y53480000D02*
X21110000Y53480000D01*
X21110000Y54030000D01*
X21610000Y54030000D01*
X21610000Y53480000D01*
D02*
G37*
%LPC*%
G36*
X22410000Y52630000D02*
X21910000Y52630000D01*
X21910000Y53180000D01*
X22410000Y53180000D01*
X22410000Y52630000D01*
D02*
G37*
%LPC*%
G36*
X21610000Y52630000D02*
X21110000Y52630000D01*
X21110000Y53180000D01*
X21610000Y53180000D01*
X21610000Y52630000D01*
D02*
G37*
%LPC*%
G36*
X41820000Y47104753D02*
X41755774Y47107909D01*
X41692167Y47117345D01*
X41629790Y47132968D01*
X41569243Y47154634D01*
X41511122Y47182123D01*
X41455966Y47215182D01*
X41404316Y47253488D01*
X41356670Y47296670D01*
X41313488Y47344316D01*
X41275182Y47395966D01*
X41242123Y47451122D01*
X41214634Y47509243D01*
X41192968Y47569790D01*
X41177345Y47632167D01*
X41167909Y47695774D01*
X41164753Y47760000D01*
X41167909Y47824226D01*
X41177345Y47887833D01*
X41192968Y47950210D01*
X41214634Y48010757D01*
X41242123Y48068878D01*
X41275182Y48124034D01*
X41313488Y48175684D01*
X41356670Y48223330D01*
X41404319Y48266515D01*
X41465000Y48311517D01*
X41465000Y48710000D01*
X41115000Y48710000D01*
X41115000Y50570000D01*
X41445000Y50570000D01*
X41445000Y51145000D01*
X41095000Y51145000D01*
X41095000Y51445000D01*
X38689935Y51445000D01*
X38630548Y51450849D01*
X38563770Y51471106D01*
X38502223Y51504003D01*
X38448158Y51548370D01*
X38441741Y51556213D01*
X37552953Y52445000D01*
X29407047Y52445000D01*
X27560276Y50598229D01*
X27625892Y50459494D01*
X27669044Y50338893D01*
X27700165Y50214648D01*
X27718961Y50087937D01*
X27725247Y49960000D01*
X27718961Y49832063D01*
X27700165Y49705352D01*
X27669044Y49581107D01*
X27625892Y49460506D01*
X27571126Y49344712D01*
X27505273Y49234844D01*
X27428969Y49131961D01*
X27342949Y49037051D01*
X27248039Y48951031D01*
X27145156Y48874727D01*
X27035288Y48808874D01*
X26919494Y48754108D01*
X26798893Y48710956D01*
X26674648Y48679835D01*
X26547937Y48661039D01*
X26420000Y48654753D01*
X26292063Y48661039D01*
X26165352Y48679835D01*
X26041107Y48710956D01*
X25920506Y48754108D01*
X25804712Y48808874D01*
X25694844Y48874727D01*
X25591961Y48951031D01*
X25497051Y49037051D01*
X25411031Y49131961D01*
X25334727Y49234844D01*
X25268874Y49344712D01*
X25214108Y49460506D01*
X25170956Y49581107D01*
X25139835Y49705352D01*
X25121039Y49832063D01*
X25114753Y49960000D01*
X25121039Y50087937D01*
X25139835Y50214648D01*
X25170956Y50338893D01*
X25214108Y50459494D01*
X25268874Y50575288D01*
X25334727Y50685156D01*
X25411031Y50788039D01*
X25497051Y50882949D01*
X25591961Y50968969D01*
X25694844Y51045273D01*
X25804712Y51111126D01*
X25920506Y51165892D01*
X26041107Y51209044D01*
X26165352Y51240165D01*
X26292063Y51258961D01*
X26420000Y51265247D01*
X26547937Y51258961D01*
X26674648Y51240165D01*
X26798893Y51209044D01*
X26919494Y51165892D01*
X27058230Y51100276D01*
X29002401Y53044448D01*
X29008877Y53052220D01*
X29062222Y53095996D01*
X29123770Y53128893D01*
X29190548Y53149151D01*
X29249923Y53155000D01*
X37710077Y53155000D01*
X37769451Y53149151D01*
X37836229Y53128893D01*
X37897776Y53095996D01*
X37943897Y53058148D01*
X38847047Y52155000D01*
X41095000Y52155000D01*
X41095000Y52455000D01*
X42505000Y52455000D01*
X42505000Y51145000D01*
X42155000Y51145000D01*
X42155000Y50570000D01*
X42525000Y50570000D01*
X42525000Y48710000D01*
X42175000Y48710000D01*
X42175000Y48311517D01*
X42235681Y48266515D01*
X42283330Y48223330D01*
X42326512Y48175684D01*
X42364818Y48124034D01*
X42397877Y48068878D01*
X42425366Y48010757D01*
X42447032Y47950210D01*
X42462655Y47887833D01*
X42472091Y47824226D01*
X42475247Y47760000D01*
X42472091Y47695774D01*
X42462655Y47632167D01*
X42447032Y47569790D01*
X42425366Y47509243D01*
X42397877Y47451122D01*
X42364818Y47395966D01*
X42326512Y47344316D01*
X42283330Y47296670D01*
X42235684Y47253488D01*
X42184034Y47215182D01*
X42128878Y47182123D01*
X42070757Y47154634D01*
X42010210Y47132968D01*
X41947833Y47117345D01*
X41884226Y47107909D01*
X41820000Y47104753D01*
D02*
G37*
%LPC*%
G36*
X8555000Y45145000D02*
X7145000Y45145000D01*
X7145000Y46455000D01*
X7545000Y46455000D01*
X7545000Y49825000D01*
X6045000Y49825000D01*
X6045000Y51835000D01*
X9655000Y51835000D01*
X9655000Y49825000D01*
X8155000Y49825000D01*
X8155000Y46455000D01*
X8555000Y46455000D01*
X8555000Y45145000D01*
D02*
G37*
%LPC*%
G36*
X14650000Y50980000D02*
X13000000Y50980000D01*
X13000000Y51830000D01*
X14650000Y51830000D01*
X14650000Y50980000D01*
D02*
G37*
%LPC*%
G36*
X12700000Y50980000D02*
X11050000Y50980000D01*
X11050000Y51830000D01*
X12700000Y51830000D01*
X12700000Y50980000D01*
D02*
G37*
%LPC*%
G36*
X18555000Y46625000D02*
X17245000Y46625000D01*
X17245000Y48035000D01*
X17545000Y48035000D01*
X17545000Y48515000D01*
X17245000Y48515000D01*
X17245000Y49925000D01*
X17545000Y49925000D01*
X17545000Y50395000D01*
X17245000Y50395000D01*
X17245000Y51805000D01*
X18555000Y51805000D01*
X18555000Y51455000D01*
X19485000Y51455000D01*
X19485000Y51805000D01*
X20795000Y51805000D01*
X20795000Y50395000D01*
X19485000Y50395000D01*
X19485000Y50745000D01*
X18555000Y50745000D01*
X18555000Y50395000D01*
X18255000Y50395000D01*
X18255000Y49925000D01*
X18555000Y49925000D01*
X18555000Y48515000D01*
X18255000Y48515000D01*
X18255000Y48035000D01*
X18555000Y48035000D01*
X18555000Y46625000D01*
D02*
G37*
%LPC*%
G36*
X36580000Y48654753D02*
X36452063Y48661039D01*
X36325352Y48679835D01*
X36201107Y48710956D01*
X36080506Y48754108D01*
X35964712Y48808874D01*
X35854844Y48874727D01*
X35751961Y48951031D01*
X35657051Y49037051D01*
X35571031Y49131961D01*
X35494727Y49234844D01*
X35428874Y49344712D01*
X35374108Y49460506D01*
X35330956Y49581107D01*
X35299835Y49705352D01*
X35281039Y49832063D01*
X35274753Y49960000D01*
X35281039Y50087937D01*
X35299835Y50214648D01*
X35330956Y50338893D01*
X35374108Y50459494D01*
X35428874Y50575288D01*
X35494727Y50685156D01*
X35571031Y50788039D01*
X35657051Y50882949D01*
X35751961Y50968969D01*
X35854844Y51045273D01*
X35964712Y51111126D01*
X36080506Y51165892D01*
X36201107Y51209044D01*
X36325352Y51240165D01*
X36452063Y51258961D01*
X36580000Y51265247D01*
X36707937Y51258961D01*
X36834648Y51240165D01*
X36958893Y51209044D01*
X37079494Y51165892D01*
X37195288Y51111126D01*
X37305156Y51045273D01*
X37408039Y50968969D01*
X37502949Y50882949D01*
X37588969Y50788039D01*
X37665273Y50685156D01*
X37731126Y50575288D01*
X37785892Y50459494D01*
X37829044Y50338893D01*
X37860165Y50214648D01*
X37878961Y50087937D01*
X37885247Y49960000D01*
X37878961Y49832063D01*
X37860165Y49705352D01*
X37829044Y49581107D01*
X37785892Y49460506D01*
X37731126Y49344712D01*
X37665273Y49234844D01*
X37588969Y49131961D01*
X37502949Y49037051D01*
X37408039Y48951031D01*
X37305156Y48874727D01*
X37195288Y48808874D01*
X37079494Y48754108D01*
X36958893Y48710956D01*
X36834648Y48679835D01*
X36707937Y48661039D01*
X36580000Y48654753D01*
D02*
G37*
%LPC*%
G36*
X14650000Y49830000D02*
X13000000Y49830000D01*
X13000000Y50680000D01*
X14650000Y50680000D01*
X14650000Y49830000D01*
D02*
G37*
%LPC*%
G36*
X12700000Y49830000D02*
X11050000Y49830000D01*
X11050000Y50680000D01*
X12700000Y50680000D01*
X12700000Y49830000D01*
D02*
G37*
%LPC*%
G36*
X16950000Y49370000D02*
X16450000Y49370000D01*
X16450000Y49920000D01*
X16950000Y49920000D01*
X16950000Y49370000D01*
D02*
G37*
%LPC*%
G36*
X16150000Y49370000D02*
X15650000Y49370000D01*
X15650000Y49920000D01*
X16150000Y49920000D01*
X16150000Y49370000D01*
D02*
G37*
%LPC*%
G36*
X16950000Y48520000D02*
X16450000Y48520000D01*
X16450000Y49070000D01*
X16950000Y49070000D01*
X16950000Y48520000D01*
D02*
G37*
%LPC*%
G36*
X16150000Y48520000D02*
X15650000Y48520000D01*
X15650000Y49070000D01*
X16150000Y49070000D01*
X16150000Y48520000D01*
D02*
G37*
%LPC*%
G36*
X14910000Y44700000D02*
X12950000Y44700000D01*
X12950000Y45545000D01*
X12325000Y45545000D01*
X12325000Y45145000D01*
X10915000Y45145000D01*
X10915000Y45445000D01*
X10445000Y45445000D01*
X10445000Y45145000D01*
X9035000Y45145000D01*
X9035000Y46455000D01*
X10445000Y46455000D01*
X10445000Y46155000D01*
X10915000Y46155000D01*
X10915000Y46455000D01*
X12325000Y46455000D01*
X12325000Y46255000D01*
X13245077Y46255000D01*
X13304451Y46249151D01*
X13371229Y46228893D01*
X13432776Y46195996D01*
X13478897Y46158148D01*
X13927047Y45710000D01*
X14910000Y45710000D01*
X14910000Y45560000D01*
X15117953Y45560000D01*
X15945000Y46387047D01*
X15945000Y46625000D01*
X15645000Y46625000D01*
X15645000Y48035000D01*
X16955000Y48035000D01*
X16955000Y46625000D01*
X16655000Y46625000D01*
X16655000Y46229923D01*
X16649151Y46170548D01*
X16628893Y46103770D01*
X16595996Y46042222D01*
X16552220Y45988877D01*
X16544448Y45982401D01*
X15522598Y44960551D01*
X15516122Y44952779D01*
X15462777Y44909003D01*
X15401229Y44876106D01*
X15334451Y44855849D01*
X15275066Y44850000D01*
X14910000Y44850000D01*
X14910000Y44700000D01*
D02*
G37*
%LPC*%
G36*
X23440000Y44299753D02*
X23351268Y44304113D01*
X23263388Y44317149D01*
X23177224Y44338731D01*
X23093579Y44368661D01*
X23013263Y44406648D01*
X22937079Y44452310D01*
X22865715Y44505237D01*
X22799896Y44564892D01*
X22768077Y44600000D01*
X22245000Y44600000D01*
X22245000Y44550000D01*
X20835000Y44550000D01*
X20835000Y44725000D01*
X20250000Y44725000D01*
X20250000Y44700000D01*
X18290000Y44700000D01*
X18290000Y45710000D01*
X20250000Y45710000D01*
X20250000Y45685000D01*
X20835000Y45685000D01*
X20835000Y45860000D01*
X22245000Y45860000D01*
X22245000Y45810000D01*
X22768077Y45810000D01*
X22799896Y45845108D01*
X22865715Y45904763D01*
X22937079Y45957690D01*
X23013263Y46003352D01*
X23093579Y46041339D01*
X23177224Y46071269D01*
X23263388Y46092851D01*
X23351268Y46105887D01*
X23440000Y46110247D01*
X23528732Y46105887D01*
X23616612Y46092851D01*
X23702776Y46071269D01*
X23786421Y46041339D01*
X23866737Y46003352D01*
X23942921Y45957690D01*
X24014285Y45904763D01*
X24080106Y45845106D01*
X24139763Y45779285D01*
X24192690Y45707921D01*
X24238352Y45631737D01*
X24276339Y45551421D01*
X24306269Y45467776D01*
X24327851Y45381612D01*
X24340887Y45293732D01*
X24345247Y45205000D01*
X24340887Y45116268D01*
X24327851Y45028388D01*
X24306269Y44942224D01*
X24276339Y44858579D01*
X24238352Y44778263D01*
X24192690Y44702079D01*
X24139763Y44630715D01*
X24080106Y44564894D01*
X24014285Y44505237D01*
X23942921Y44452310D01*
X23866737Y44406648D01*
X23786421Y44368661D01*
X23702776Y44338731D01*
X23616612Y44317149D01*
X23528732Y44304113D01*
X23440000Y44299753D01*
D02*
G37*
%LPC*%
G36*
X14910000Y43430000D02*
X12950000Y43430000D01*
X12950000Y43580000D01*
X12325000Y43580000D01*
X12325000Y43545000D01*
X10915000Y43545000D01*
X10915000Y43845000D01*
X10445000Y43845000D01*
X10445000Y43545000D01*
X9035000Y43545000D01*
X9035000Y43845000D01*
X8555000Y43845000D01*
X8555000Y43545000D01*
X7145000Y43545000D01*
X7145000Y44855000D01*
X8555000Y44855000D01*
X8555000Y44555000D01*
X9035000Y44555000D01*
X9035000Y44855000D01*
X10445000Y44855000D01*
X10445000Y44555000D01*
X10915000Y44555000D01*
X10915000Y44855000D01*
X12325000Y44855000D01*
X12325000Y44290000D01*
X12950000Y44290000D01*
X12950000Y44440000D01*
X14910000Y44440000D01*
X14910000Y43430000D01*
D02*
G37*
%LPC*%
G36*
X20250000Y42160000D02*
X18290000Y42160000D01*
X18290000Y43170000D01*
X18915000Y43170000D01*
X18915000Y43430000D01*
X18290000Y43430000D01*
X18290000Y44440000D01*
X20250000Y44440000D01*
X20250000Y43430000D01*
X19625000Y43430000D01*
X19625000Y43170000D01*
X20250000Y43170000D01*
X20250000Y42160000D01*
D02*
G37*
%LPC*%
G36*
X21390000Y43755000D02*
X20840000Y43755000D01*
X20840000Y44255000D01*
X21390000Y44255000D01*
X21390000Y43755000D01*
D02*
G37*
%LPC*%
G36*
X22240000Y43755000D02*
X21690000Y43755000D01*
X21690000Y44255000D01*
X22240000Y44255000D01*
X22240000Y43755000D01*
D02*
G37*
%LPC*%
G36*
X22240000Y42955000D02*
X21690000Y42955000D01*
X21690000Y43455000D01*
X22240000Y43455000D01*
X22240000Y42955000D01*
D02*
G37*
%LPC*%
G36*
X21390000Y42955000D02*
X20840000Y42955000D01*
X20840000Y43455000D01*
X21390000Y43455000D01*
X21390000Y42955000D01*
D02*
G37*
%LPC*%
G36*
X12215000Y41430000D02*
X10005000Y41430000D01*
X10005000Y41830000D01*
X9405000Y41830000D01*
X9405000Y41480000D01*
X8095000Y41480000D01*
X8095000Y42890000D01*
X9405000Y42890000D01*
X9405000Y42540000D01*
X10005000Y42540000D01*
X10005000Y42940000D01*
X12215000Y42940000D01*
X12215000Y42905000D01*
X12950000Y42905000D01*
X12950000Y43170000D01*
X14910000Y43170000D01*
X14910000Y42160000D01*
X12950000Y42160000D01*
X12950000Y42195000D01*
X12215000Y42195000D01*
X12215000Y41430000D01*
D02*
G37*
%LPC*%
G36*
X7800000Y42335000D02*
X7300000Y42335000D01*
X7300000Y42885000D01*
X7800000Y42885000D01*
X7800000Y42335000D01*
D02*
G37*
%LPC*%
G36*
X7000000Y42335000D02*
X6500000Y42335000D01*
X6500000Y42885000D01*
X7000000Y42885000D01*
X7000000Y42335000D01*
D02*
G37*
%LPC*%
G36*
X41040000Y36990000D02*
X40030000Y36990000D01*
X40030000Y38950000D01*
X40180000Y38950000D01*
X40180000Y39545000D01*
X40045000Y39545000D01*
X40045000Y40955000D01*
X40345000Y40955000D01*
X40345000Y41425000D01*
X40045000Y41425000D01*
X40045000Y42835000D01*
X41355000Y42835000D01*
X41355000Y42485000D01*
X41855000Y42485000D01*
X41855000Y42785000D01*
X43265000Y42785000D01*
X43265000Y41475000D01*
X41855000Y41475000D01*
X41855000Y41775000D01*
X41355000Y41775000D01*
X41355000Y41425000D01*
X41055000Y41425000D01*
X41055000Y40955000D01*
X41355000Y40955000D01*
X41355000Y39545000D01*
X40890000Y39545000D01*
X40890000Y38950000D01*
X41040000Y38950000D01*
X41040000Y36990000D01*
D02*
G37*
%LPC*%
G36*
X48500000Y35244752D02*
X48376973Y35250798D01*
X48255108Y35268874D01*
X48135622Y35298803D01*
X48019640Y35340302D01*
X47908282Y35392970D01*
X47802623Y35456300D01*
X47703681Y35529681D01*
X47612406Y35612406D01*
X47529681Y35703681D01*
X47499036Y35745000D01*
X40049935Y35745000D01*
X39990548Y35750849D01*
X39923770Y35771106D01*
X39862223Y35804003D01*
X39808158Y35848370D01*
X39801741Y35856213D01*
X39021214Y36636740D01*
X39013371Y36643157D01*
X38969003Y36697223D01*
X38936106Y36758770D01*
X38915849Y36825548D01*
X38910000Y36884935D01*
X38910000Y36990000D01*
X38760000Y36990000D01*
X38760000Y38950000D01*
X38910000Y38950000D01*
X38910000Y39545000D01*
X38445000Y39545000D01*
X38445000Y40955000D01*
X38745000Y40955000D01*
X38745000Y41425000D01*
X38445000Y41425000D01*
X38445000Y42835000D01*
X39755000Y42835000D01*
X39755000Y41425000D01*
X39455000Y41425000D01*
X39455000Y40955000D01*
X39755000Y40955000D01*
X39755000Y39545000D01*
X39620000Y39545000D01*
X39620000Y38950000D01*
X39770000Y38950000D01*
X39770000Y36892047D01*
X40207047Y36455000D01*
X47242542Y36455000D01*
X47250799Y36623036D01*
X47268874Y36744892D01*
X47298803Y36864378D01*
X47340302Y36980360D01*
X47392970Y37091718D01*
X47456300Y37197377D01*
X47529681Y37296319D01*
X47612406Y37387594D01*
X47703681Y37470319D01*
X47802623Y37543700D01*
X47908282Y37607030D01*
X48019640Y37659698D01*
X48135622Y37701197D01*
X48255108Y37731126D01*
X48376973Y37749202D01*
X48500000Y37755248D01*
X48623027Y37749202D01*
X48744892Y37731126D01*
X48864378Y37701197D01*
X48980360Y37659698D01*
X49091718Y37607030D01*
X49197377Y37543700D01*
X49296319Y37470319D01*
X49387594Y37387594D01*
X49470319Y37296319D01*
X49543700Y37197377D01*
X49607030Y37091718D01*
X49659698Y36980360D01*
X49701197Y36864378D01*
X49731126Y36744892D01*
X49749202Y36623027D01*
X49755248Y36500000D01*
X49749202Y36376973D01*
X49731126Y36255108D01*
X49701197Y36135622D01*
X49659698Y36019640D01*
X49607030Y35908282D01*
X49543700Y35802623D01*
X49470319Y35703681D01*
X49387594Y35612406D01*
X49296319Y35529681D01*
X49197377Y35456300D01*
X49091718Y35392970D01*
X48980360Y35340302D01*
X48864378Y35298803D01*
X48744892Y35268874D01*
X48623027Y35250798D01*
X48500000Y35244752D01*
D02*
G37*
%LPC*%
G36*
X7800000Y41485000D02*
X7300000Y41485000D01*
X7300000Y42035000D01*
X7800000Y42035000D01*
X7800000Y41485000D01*
D02*
G37*
%LPC*%
G36*
X7000000Y41485000D02*
X6500000Y41485000D01*
X6500000Y42035000D01*
X7000000Y42035000D01*
X7000000Y41485000D01*
D02*
G37*
%LPC*%
G36*
X13930000Y36399753D02*
X13841268Y36404113D01*
X13753388Y36417149D01*
X13667224Y36438731D01*
X13583579Y36468661D01*
X13503263Y36506648D01*
X13427079Y36552310D01*
X13355715Y36605237D01*
X13289894Y36664894D01*
X13230237Y36730715D01*
X13177310Y36802079D01*
X13131648Y36878263D01*
X13093661Y36958579D01*
X13063731Y37042224D01*
X13042149Y37128388D01*
X13029113Y37216268D01*
X13024753Y37305000D01*
X13029113Y37393732D01*
X13042149Y37481612D01*
X13063731Y37567776D01*
X13093661Y37651421D01*
X13131648Y37731737D01*
X13177310Y37807921D01*
X13230237Y37879285D01*
X13289892Y37945104D01*
X13325000Y37976923D01*
X13325000Y38600000D01*
X13275000Y38600000D01*
X13275000Y40010000D01*
X13450000Y40010000D01*
X13450000Y40890000D01*
X12950000Y40890000D01*
X12950000Y41900000D01*
X14910000Y41900000D01*
X14910000Y40890000D01*
X14410000Y40890000D01*
X14410000Y40010000D01*
X14585000Y40010000D01*
X14585000Y38600000D01*
X14535000Y38600000D01*
X14535000Y37976923D01*
X14570108Y37945104D01*
X14629763Y37879285D01*
X14682690Y37807921D01*
X14728352Y37731737D01*
X14766339Y37651421D01*
X14796269Y37567776D01*
X14817851Y37481612D01*
X14830887Y37393732D01*
X14835247Y37305000D01*
X14830887Y37216268D01*
X14817851Y37128388D01*
X14796269Y37042224D01*
X14766339Y36958579D01*
X14728352Y36878263D01*
X14682690Y36802079D01*
X14629763Y36730715D01*
X14570106Y36664894D01*
X14504285Y36605237D01*
X14432921Y36552310D01*
X14356737Y36506648D01*
X14276421Y36468661D01*
X14192776Y36438731D01*
X14106612Y36417149D01*
X14018732Y36404113D01*
X13930000Y36399753D01*
D02*
G37*
%LPC*%
G36*
X20245000Y41545000D02*
X19420000Y41545000D01*
X19420000Y41895000D01*
X20245000Y41895000D01*
X20245000Y41545000D01*
D02*
G37*
%LPC*%
G36*
X19120000Y41545000D02*
X18295000Y41545000D01*
X18295000Y41895000D01*
X19120000Y41895000D01*
X19120000Y41545000D01*
D02*
G37*
%LPC*%
G36*
X20245000Y40895000D02*
X19420000Y40895000D01*
X19420000Y41245000D01*
X20245000Y41245000D01*
X20245000Y40895000D01*
D02*
G37*
%LPC*%
G36*
X19120000Y40895000D02*
X18295000Y40895000D01*
X18295000Y41245000D01*
X19120000Y41245000D01*
X19120000Y40895000D01*
D02*
G37*
%LPC*%
G36*
X42410000Y40680000D02*
X41860000Y40680000D01*
X41860000Y41180000D01*
X42410000Y41180000D01*
X42410000Y40680000D01*
D02*
G37*
%LPC*%
G36*
X43260000Y40680000D02*
X42710000Y40680000D01*
X42710000Y41180000D01*
X43260000Y41180000D01*
X43260000Y40680000D01*
D02*
G37*
%LPC*%
G36*
X12215000Y38430000D02*
X10005000Y38430000D01*
X10005000Y39063665D01*
X9413665Y39655000D01*
X7980000Y39655000D01*
X7980000Y40965000D01*
X9390000Y40965000D01*
X9390000Y40541335D01*
X9991335Y39940000D01*
X12215000Y39940000D01*
X12215000Y38430000D01*
D02*
G37*
%LPC*%
G36*
X7455000Y40460000D02*
X6905000Y40460000D01*
X6905000Y40960000D01*
X7455000Y40960000D01*
X7455000Y40460000D01*
D02*
G37*
%LPC*%
G36*
X6605000Y40460000D02*
X6055000Y40460000D01*
X6055000Y40960000D01*
X6605000Y40960000D01*
X6605000Y40460000D01*
D02*
G37*
%LPC*%
G36*
X43260000Y39880000D02*
X42710000Y39880000D01*
X42710000Y40380000D01*
X43260000Y40380000D01*
X43260000Y39880000D01*
D02*
G37*
%LPC*%
G36*
X42410000Y39880000D02*
X41860000Y39880000D01*
X41860000Y40380000D01*
X42410000Y40380000D01*
X42410000Y39880000D01*
D02*
G37*
%LPC*%
G36*
X7455000Y39660000D02*
X6905000Y39660000D01*
X6905000Y40160000D01*
X7455000Y40160000D01*
X7455000Y39660000D01*
D02*
G37*
%LPC*%
G36*
X6605000Y39660000D02*
X6055000Y39660000D01*
X6055000Y40160000D01*
X6605000Y40160000D01*
X6605000Y39660000D01*
D02*
G37*
%LPC*%
G36*
X16180000Y39455000D02*
X15680000Y39455000D01*
X15680000Y40005000D01*
X16180000Y40005000D01*
X16180000Y39455000D01*
D02*
G37*
%LPC*%
G36*
X15380000Y39455000D02*
X14880000Y39455000D01*
X14880000Y40005000D01*
X15380000Y40005000D01*
X15380000Y39455000D01*
D02*
G37*
%LPC*%
G36*
X20249000Y2184753D02*
X20145567Y2189835D01*
X20043127Y2205031D01*
X19942680Y2230191D01*
X19845180Y2265078D01*
X19751554Y2309358D01*
X19662742Y2362591D01*
X19579556Y2424286D01*
X19502828Y2493828D01*
X19433286Y2570556D01*
X19371591Y2653742D01*
X19318358Y2742554D01*
X19274078Y2836180D01*
X19239191Y2933680D01*
X19214031Y3034127D01*
X19198835Y3136567D01*
X19193753Y3240000D01*
X19198835Y3343433D01*
X19214031Y3445873D01*
X19239191Y3546320D01*
X19274078Y3643820D01*
X19318358Y3737446D01*
X19371591Y3826258D01*
X19433286Y3909444D01*
X19502828Y3986172D01*
X19579556Y4055714D01*
X19662742Y4117409D01*
X19751554Y4170642D01*
X19894000Y4238012D01*
X19894000Y5603953D01*
X6511215Y18986738D01*
X6503372Y18993155D01*
X6459003Y19047223D01*
X6426106Y19108770D01*
X6405849Y19175548D01*
X6400000Y19234935D01*
X6400000Y38055000D01*
X6050000Y38055000D01*
X6050000Y39365000D01*
X7460000Y39365000D01*
X7460000Y39065000D01*
X7980000Y39065000D01*
X7980000Y39365000D01*
X9390000Y39365000D01*
X9390000Y38055000D01*
X7980000Y38055000D01*
X7980000Y38355000D01*
X7460000Y38355000D01*
X7460000Y38055000D01*
X7110000Y38055000D01*
X7110000Y19392047D01*
X20507148Y5994897D01*
X20544996Y5948776D01*
X20577893Y5887229D01*
X20598151Y5820451D01*
X20604000Y5761077D01*
X20604000Y4238012D01*
X20746446Y4170642D01*
X20835258Y4117409D01*
X20918444Y4055714D01*
X20995172Y3986172D01*
X21064714Y3909444D01*
X21126409Y3826258D01*
X21179642Y3737446D01*
X21223922Y3643820D01*
X21258809Y3546320D01*
X21283969Y3445873D01*
X21299165Y3343433D01*
X21304247Y3240000D01*
X21299165Y3136567D01*
X21283969Y3034127D01*
X21258809Y2933680D01*
X21223922Y2836180D01*
X21179642Y2742554D01*
X21126409Y2653742D01*
X21064714Y2570556D01*
X20995172Y2493828D01*
X20918444Y2424286D01*
X20835258Y2362591D01*
X20746446Y2309358D01*
X20652820Y2265078D01*
X20555320Y2230191D01*
X20454873Y2205031D01*
X20352433Y2189835D01*
X20249000Y2184753D01*
D02*
G37*
%LPC*%
G36*
X16180000Y38605000D02*
X15680000Y38605000D01*
X15680000Y39155000D01*
X16180000Y39155000D01*
X16180000Y38605000D01*
D02*
G37*
%LPC*%
G36*
X15380000Y38605000D02*
X14880000Y38605000D01*
X14880000Y39155000D01*
X15380000Y39155000D01*
X15380000Y38605000D01*
D02*
G37*
%LPC*%
G36*
X42310000Y36990000D02*
X41300000Y36990000D01*
X41300000Y38950000D01*
X42310000Y38950000D01*
X42310000Y38325000D01*
X42728483Y38325000D01*
X42773485Y38385681D01*
X42816670Y38433330D01*
X42864316Y38476512D01*
X42915966Y38514818D01*
X42971122Y38547877D01*
X43029243Y38575366D01*
X43089790Y38597032D01*
X43152167Y38612655D01*
X43215774Y38622091D01*
X43280000Y38625247D01*
X43344226Y38622091D01*
X43407833Y38612655D01*
X43470210Y38597032D01*
X43530757Y38575366D01*
X43588878Y38547877D01*
X43644034Y38514818D01*
X43695684Y38476512D01*
X43743330Y38433330D01*
X43786512Y38385684D01*
X43824818Y38334034D01*
X43857877Y38278878D01*
X43885366Y38220757D01*
X43907032Y38160210D01*
X43922655Y38097833D01*
X43932091Y38034226D01*
X43935247Y37970000D01*
X43932091Y37905774D01*
X43922655Y37842167D01*
X43907032Y37779790D01*
X43885366Y37719243D01*
X43857877Y37661122D01*
X43824818Y37605966D01*
X43786512Y37554316D01*
X43743330Y37506670D01*
X43695684Y37463488D01*
X43644034Y37425182D01*
X43588878Y37392123D01*
X43530757Y37364634D01*
X43470210Y37342968D01*
X43407833Y37327345D01*
X43344226Y37317909D01*
X43280000Y37314753D01*
X43215774Y37317909D01*
X43152167Y37327345D01*
X43089790Y37342968D01*
X43029243Y37364634D01*
X42971122Y37392123D01*
X42915966Y37425182D01*
X42864316Y37463488D01*
X42816670Y37506670D01*
X42773485Y37554319D01*
X42728483Y37615000D01*
X42310000Y37615000D01*
X42310000Y36990000D01*
D02*
G37*
%LPC*%
G36*
X38500000Y36990000D02*
X37490000Y36990000D01*
X37490000Y37490000D01*
X36610000Y37490000D01*
X36610000Y37315000D01*
X35200000Y37315000D01*
X35200000Y37365000D01*
X34676923Y37365000D01*
X34645104Y37329892D01*
X34579285Y37270237D01*
X34507921Y37217310D01*
X34431737Y37171648D01*
X34351421Y37133661D01*
X34267776Y37103731D01*
X34181612Y37082149D01*
X34093732Y37069113D01*
X34005000Y37064753D01*
X33916268Y37069113D01*
X33828388Y37082149D01*
X33742224Y37103731D01*
X33658579Y37133661D01*
X33578263Y37171648D01*
X33502079Y37217310D01*
X33430715Y37270237D01*
X33364894Y37329894D01*
X33305237Y37395715D01*
X33252310Y37467079D01*
X33206648Y37543263D01*
X33168661Y37623579D01*
X33138731Y37707224D01*
X33117149Y37793388D01*
X33104113Y37881268D01*
X33099753Y37970000D01*
X33104113Y38058732D01*
X33117149Y38146612D01*
X33138731Y38232776D01*
X33168661Y38316421D01*
X33206648Y38396737D01*
X33252310Y38472921D01*
X33305237Y38544285D01*
X33364894Y38610106D01*
X33430715Y38669763D01*
X33502079Y38722690D01*
X33578263Y38768352D01*
X33658579Y38806339D01*
X33742224Y38836269D01*
X33828388Y38857851D01*
X33916268Y38870887D01*
X34005000Y38875247D01*
X34093732Y38870887D01*
X34181612Y38857851D01*
X34267776Y38836269D01*
X34351421Y38806339D01*
X34431737Y38768352D01*
X34507921Y38722690D01*
X34579285Y38669763D01*
X34645104Y38610108D01*
X34676923Y38575000D01*
X35200000Y38575000D01*
X35200000Y38625000D01*
X36610000Y38625000D01*
X36610000Y38450000D01*
X37490000Y38450000D01*
X37490000Y38950000D01*
X38500000Y38950000D01*
X38500000Y36990000D01*
D02*
G37*
%LPC*%
G36*
X49060000Y29425000D02*
X47750000Y29425000D01*
X47750000Y30835000D01*
X49060000Y30835000D01*
X49060000Y30485000D01*
X49382953Y30485000D01*
X53145000Y34247047D01*
X53145000Y35295448D01*
X53019640Y35340302D01*
X52908282Y35392970D01*
X52802623Y35456300D01*
X52703681Y35529681D01*
X52612406Y35612406D01*
X52529681Y35703681D01*
X52456300Y35802623D01*
X52392970Y35908282D01*
X52340302Y36019640D01*
X52298803Y36135622D01*
X52268874Y36255108D01*
X52250798Y36376973D01*
X52244752Y36500000D01*
X52250798Y36623027D01*
X52268874Y36744892D01*
X52298803Y36864378D01*
X52340302Y36980360D01*
X52392970Y37091718D01*
X52456300Y37197377D01*
X52529681Y37296319D01*
X52612406Y37387594D01*
X52703681Y37470319D01*
X52802623Y37543700D01*
X52908282Y37607030D01*
X53019640Y37659698D01*
X53135622Y37701197D01*
X53255108Y37731126D01*
X53376973Y37749202D01*
X53500000Y37755248D01*
X53623027Y37749202D01*
X53744892Y37731126D01*
X53864378Y37701197D01*
X53980360Y37659698D01*
X54091718Y37607030D01*
X54197377Y37543700D01*
X54296319Y37470319D01*
X54387594Y37387594D01*
X54470319Y37296319D01*
X54543700Y37197377D01*
X54607030Y37091718D01*
X54659698Y36980360D01*
X54701197Y36864378D01*
X54731126Y36744892D01*
X54749202Y36623027D01*
X54755248Y36500000D01*
X54749202Y36376973D01*
X54731126Y36255108D01*
X54701197Y36135622D01*
X54659698Y36019640D01*
X54607030Y35908282D01*
X54543700Y35802623D01*
X54470319Y35703681D01*
X54387594Y35612406D01*
X54296319Y35529681D01*
X54197377Y35456300D01*
X54091718Y35392970D01*
X53980360Y35340302D01*
X53855000Y35295448D01*
X53855000Y34089923D01*
X53849151Y34030548D01*
X53828893Y33963770D01*
X53795996Y33902222D01*
X53752220Y33848877D01*
X53744448Y33842401D01*
X49787598Y29885551D01*
X49781122Y29877779D01*
X49727777Y29834003D01*
X49666229Y29801106D01*
X49599451Y29780849D01*
X49540066Y29775000D01*
X49060000Y29775000D01*
X49060000Y29425000D01*
D02*
G37*
%LPC*%
G36*
X58350000Y36650000D02*
X57259853Y36650000D01*
X57273783Y36743912D01*
X57303595Y36862927D01*
X57344927Y36978444D01*
X57397385Y37089358D01*
X57460463Y37194596D01*
X57533551Y37293143D01*
X57615946Y37384054D01*
X57706857Y37466449D01*
X57805404Y37539537D01*
X57910642Y37602615D01*
X58021556Y37655073D01*
X58137073Y37696405D01*
X58256088Y37726217D01*
X58350000Y37740147D01*
X58350000Y36650000D01*
D02*
G37*
%LPC*%
G36*
X59740147Y36650000D02*
X58650000Y36650000D01*
X58650000Y37740147D01*
X58743912Y37726217D01*
X58862927Y37696405D01*
X58978444Y37655073D01*
X59089358Y37602615D01*
X59194596Y37539537D01*
X59293143Y37466449D01*
X59384054Y37384054D01*
X59466449Y37293143D01*
X59539537Y37194596D01*
X59602615Y37089358D01*
X59655073Y36978444D01*
X59696405Y36862927D01*
X59726217Y36743912D01*
X59740147Y36650000D01*
D02*
G37*
%LPC*%
G36*
X36605000Y36520000D02*
X36055000Y36520000D01*
X36055000Y37020000D01*
X36605000Y37020000D01*
X36605000Y36520000D01*
D02*
G37*
%LPC*%
G36*
X35755000Y36520000D02*
X35205000Y36520000D01*
X35205000Y37020000D01*
X35755000Y37020000D01*
X35755000Y36520000D01*
D02*
G37*
%LPC*%
G36*
X58650000Y35259853D02*
X58650000Y36350000D01*
X59740147Y36350000D01*
X59726217Y36256088D01*
X59696405Y36137073D01*
X59655073Y36021556D01*
X59602615Y35910642D01*
X59539537Y35805404D01*
X59466449Y35706857D01*
X59384054Y35615946D01*
X59293143Y35533551D01*
X59194596Y35460463D01*
X59089358Y35397385D01*
X58978444Y35344927D01*
X58862927Y35303595D01*
X58743912Y35273783D01*
X58650000Y35259853D01*
D02*
G37*
%LPC*%
G36*
X58350000Y35259853D02*
X58256088Y35273783D01*
X58137073Y35303595D01*
X58021556Y35344927D01*
X57910642Y35397385D01*
X57805404Y35460463D01*
X57706857Y35533551D01*
X57615946Y35615946D01*
X57533551Y35706857D01*
X57460463Y35805404D01*
X57397385Y35910642D01*
X57344927Y36021556D01*
X57303595Y36137073D01*
X57273783Y36256088D01*
X57259853Y36350000D01*
X58350000Y36350000D01*
X58350000Y35259853D01*
D02*
G37*
%LPC*%
G36*
X36605000Y35720000D02*
X36055000Y35720000D01*
X36055000Y36220000D01*
X36605000Y36220000D01*
X36605000Y35720000D01*
D02*
G37*
%LPC*%
G36*
X35755000Y35720000D02*
X35205000Y35720000D01*
X35205000Y36220000D01*
X35755000Y36220000D01*
X35755000Y35720000D01*
D02*
G37*
%LPC*%
G36*
X47440000Y31425000D02*
X46130000Y31425000D01*
X46130000Y32085000D01*
X45530000Y32085000D01*
X45530000Y31875000D01*
X43320000Y31875000D01*
X43320000Y33077953D01*
X42352953Y34045000D01*
X41377047Y34045000D01*
X41040000Y33707953D01*
X41040000Y31650000D01*
X40030000Y31650000D01*
X40030000Y33610000D01*
X40180000Y33610000D01*
X40180000Y33715066D01*
X40185849Y33774451D01*
X40206106Y33841229D01*
X40239003Y33902777D01*
X40282779Y33956122D01*
X40290551Y33962598D01*
X40972401Y34644448D01*
X40978877Y34652220D01*
X41032222Y34695996D01*
X41093770Y34728893D01*
X41160548Y34749151D01*
X41219923Y34755000D01*
X42510077Y34755000D01*
X42569451Y34749151D01*
X42636229Y34728893D01*
X42697776Y34695996D01*
X42743897Y34658148D01*
X44017046Y33385000D01*
X45530000Y33385000D01*
X45530000Y32795000D01*
X46130000Y32795000D01*
X46130000Y32835000D01*
X47440000Y32835000D01*
X47440000Y31425000D01*
D02*
G37*
%LPC*%
G36*
X33520000Y31025000D02*
X31610000Y31025000D01*
X31610000Y34235000D01*
X33520000Y34235000D01*
X33520000Y32985000D01*
X37490000Y32985000D01*
X37490000Y33610000D01*
X38500000Y33610000D01*
X38500000Y32985000D01*
X38760000Y32985000D01*
X38760000Y33610000D01*
X39770000Y33610000D01*
X39770000Y31650000D01*
X38760000Y31650000D01*
X38760000Y32275000D01*
X38500000Y32275000D01*
X38500000Y31650000D01*
X37490000Y31650000D01*
X37490000Y32275000D01*
X33520000Y32275000D01*
X33520000Y31025000D01*
D02*
G37*
%LPC*%
G36*
X41805000Y27554753D02*
X41716268Y27559113D01*
X41628388Y27572149D01*
X41542224Y27593731D01*
X41458579Y27623661D01*
X41378263Y27661648D01*
X41302079Y27707310D01*
X41230715Y27760237D01*
X41164894Y27819894D01*
X41105237Y27885715D01*
X41052310Y27957079D01*
X41006648Y28033263D01*
X40968661Y28113579D01*
X40938731Y28197224D01*
X40917149Y28283388D01*
X40904113Y28371268D01*
X40899753Y28460000D01*
X40904113Y28548732D01*
X40917149Y28636612D01*
X40938731Y28722776D01*
X40968661Y28806421D01*
X41006648Y28886737D01*
X41052310Y28962921D01*
X41105237Y29034285D01*
X41164892Y29100104D01*
X41200000Y29131923D01*
X41200000Y29655000D01*
X41150000Y29655000D01*
X41150000Y31065000D01*
X41325000Y31065000D01*
X41325000Y31650000D01*
X41300000Y31650000D01*
X41300000Y33610000D01*
X42310000Y33610000D01*
X42310000Y31650000D01*
X42285000Y31650000D01*
X42285000Y31065000D01*
X42460000Y31065000D01*
X42460000Y29655000D01*
X42410000Y29655000D01*
X42410000Y29131923D01*
X42445108Y29100104D01*
X42504763Y29034285D01*
X42557690Y28962921D01*
X42603352Y28886737D01*
X42641339Y28806421D01*
X42671269Y28722776D01*
X42692851Y28636612D01*
X42705887Y28548732D01*
X42710247Y28460000D01*
X42705887Y28371268D01*
X42692851Y28283388D01*
X42671269Y28197224D01*
X42641339Y28113579D01*
X42603352Y28033263D01*
X42557690Y27957079D01*
X42504763Y27885715D01*
X42445106Y27819894D01*
X42379285Y27760237D01*
X42307921Y27707310D01*
X42231737Y27661648D01*
X42151421Y27623661D01*
X42067776Y27593731D01*
X41981612Y27572149D01*
X41893732Y27559113D01*
X41805000Y27554753D01*
D02*
G37*
%LPC*%
G36*
X48235000Y32280000D02*
X47735000Y32280000D01*
X47735000Y32830000D01*
X48235000Y32830000D01*
X48235000Y32280000D01*
D02*
G37*
%LPC*%
G36*
X49035000Y32280000D02*
X48535000Y32280000D01*
X48535000Y32830000D01*
X49035000Y32830000D01*
X49035000Y32280000D01*
D02*
G37*
%LPC*%
G36*
X49035000Y31430000D02*
X48535000Y31430000D01*
X48535000Y31980000D01*
X49035000Y31980000D01*
X49035000Y31430000D01*
D02*
G37*
%LPC*%
G36*
X48235000Y31430000D02*
X47735000Y31430000D01*
X47735000Y31980000D01*
X48235000Y31980000D01*
X48235000Y31430000D01*
D02*
G37*
%LPC*%
G36*
X40855000Y30510000D02*
X40355000Y30510000D01*
X40355000Y31060000D01*
X40855000Y31060000D01*
X40855000Y30510000D01*
D02*
G37*
%LPC*%
G36*
X40055000Y30510000D02*
X39555000Y30510000D01*
X39555000Y31060000D01*
X40055000Y31060000D01*
X40055000Y30510000D01*
D02*
G37*
%LPC*%
G36*
X45530000Y28875000D02*
X43320000Y28875000D01*
X43320000Y30385000D01*
X45530000Y30385000D01*
X45530000Y30185000D01*
X46150000Y30185000D01*
X46150000Y30835000D01*
X47460000Y30835000D01*
X47460000Y29425000D01*
X46150000Y29425000D01*
X46150000Y29475000D01*
X45530000Y29475000D01*
X45530000Y28875000D01*
D02*
G37*
%LPC*%
G36*
X40055000Y29660000D02*
X39555000Y29660000D01*
X39555000Y30210000D01*
X40055000Y30210000D01*
X40055000Y29660000D01*
D02*
G37*
%LPC*%
G36*
X40855000Y29660000D02*
X40355000Y29660000D01*
X40355000Y30210000D01*
X40855000Y30210000D01*
X40855000Y29660000D01*
D02*
G37*
%LPC*%
G36*
X37580000Y25295002D02*
X36270000Y25295002D01*
X36270000Y26705002D01*
X36570000Y26705002D01*
X36570000Y27225002D01*
X36270000Y27225002D01*
X36270000Y27575002D01*
X33520000Y27575002D01*
X33520000Y26325002D01*
X31610000Y26325002D01*
X31610000Y29535002D01*
X33520000Y29535002D01*
X33520000Y28285002D01*
X36270000Y28285002D01*
X36270000Y28635002D01*
X37580000Y28635002D01*
X37580000Y27225002D01*
X37280000Y27225002D01*
X37280000Y26705002D01*
X37580000Y26705002D01*
X37580000Y25295002D01*
D02*
G37*
%LPC*%
G36*
X39175000Y28080002D02*
X38675000Y28080002D01*
X38675000Y28630002D01*
X39175000Y28630002D01*
X39175000Y28080002D01*
D02*
G37*
%LPC*%
G36*
X38375000Y28080002D02*
X37875000Y28080002D01*
X37875000Y28630002D01*
X38375000Y28630002D01*
X38375000Y28080002D01*
D02*
G37*
%LPC*%
G36*
X39175000Y27230002D02*
X38675000Y27230002D01*
X38675000Y27780002D01*
X39175000Y27780002D01*
X39175000Y27230002D01*
D02*
G37*
%LPC*%
G36*
X38375000Y27230002D02*
X37875000Y27230002D01*
X37875000Y27780002D01*
X38375000Y27780002D01*
X38375000Y27230002D01*
D02*
G37*
%LPC*%
G36*
X42749000Y2184753D02*
X42645567Y2189835D01*
X42543127Y2205031D01*
X42442680Y2230191D01*
X42345180Y2265078D01*
X42251554Y2309358D01*
X42162742Y2362591D01*
X42079556Y2424286D01*
X42002828Y2493828D01*
X41933286Y2570556D01*
X41871591Y2653742D01*
X41818358Y2742554D01*
X41774078Y2836180D01*
X41739191Y2933680D01*
X41714031Y3034127D01*
X41698835Y3136567D01*
X41693753Y3240000D01*
X41698835Y3343433D01*
X41714031Y3445873D01*
X41739191Y3546320D01*
X41774078Y3643820D01*
X41818358Y3737446D01*
X41871591Y3826258D01*
X41933286Y3909444D01*
X42002828Y3986172D01*
X42079556Y4055714D01*
X42162742Y4117409D01*
X42251554Y4170642D01*
X42394000Y4238012D01*
X42394000Y5789066D01*
X42399849Y5848451D01*
X42420106Y5915229D01*
X42453003Y5976777D01*
X42496779Y6030122D01*
X42504551Y6036598D01*
X44445000Y7977047D01*
X44445000Y19577955D01*
X38727954Y25295002D01*
X37870000Y25295002D01*
X37870000Y26705002D01*
X39180000Y26705002D01*
X39180000Y25847048D01*
X45058148Y19968899D01*
X45095996Y19922778D01*
X45128893Y19861231D01*
X45149151Y19794453D01*
X45155000Y19735079D01*
X45155000Y7819923D01*
X45149151Y7760548D01*
X45128893Y7693770D01*
X45095996Y7632222D01*
X45052220Y7578877D01*
X45044448Y7572401D01*
X43104000Y5631953D01*
X43104000Y4238012D01*
X43246446Y4170642D01*
X43335258Y4117409D01*
X43418444Y4055714D01*
X43495172Y3986172D01*
X43564714Y3909444D01*
X43626409Y3826258D01*
X43679642Y3737446D01*
X43723922Y3643820D01*
X43758809Y3546320D01*
X43783969Y3445873D01*
X43799165Y3343433D01*
X43804247Y3240000D01*
X43799165Y3136567D01*
X43783969Y3034127D01*
X43758809Y2933680D01*
X43723922Y2836180D01*
X43679642Y2742554D01*
X43626409Y2653742D01*
X43564714Y2570556D01*
X43495172Y2493828D01*
X43418444Y2424286D01*
X43335258Y2362591D01*
X43246446Y2309358D01*
X43152820Y2265078D01*
X43055320Y2230191D01*
X42954873Y2205031D01*
X42852433Y2189835D01*
X42749000Y2184753D01*
D02*
G37*
%LPC*%
G36*
X35555000Y7745000D02*
X33245000Y7745000D01*
X33245000Y11345000D01*
X32245000Y11345000D01*
X32245000Y18955000D01*
X36755000Y18955000D01*
X36755000Y11345000D01*
X35555000Y11345000D01*
X35555000Y7745000D01*
D02*
G37*
%LPD*%
G36*
X35300000Y8000000D02*
X35300000Y11600000D01*
X36500000Y11600000D01*
X36500000Y18700000D01*
X32500000Y18700000D01*
X32500000Y11600000D01*
X33500000Y11600000D01*
X33500000Y8000000D01*
X35300000Y8000000D01*
D02*
G37*
%LPC*%
G36*
X25055000Y7745000D02*
X22745000Y7745000D01*
X22745000Y11345000D01*
X21745000Y11345000D01*
X21745000Y18955000D01*
X26255000Y18955000D01*
X26255000Y11345000D01*
X25055000Y11345000D01*
X25055000Y7745000D01*
D02*
G37*
%LPD*%
G36*
X24800000Y8000000D02*
X24800000Y11600000D01*
X26000000Y11600000D01*
X26000000Y18700000D01*
X22000000Y18700000D01*
X22000000Y11600000D01*
X23000000Y11600000D01*
X23000000Y8000000D01*
X24800000Y8000000D01*
D02*
G37*
%LPC*%
G36*
X28750000Y14950000D02*
X27100000Y14950000D01*
X27100000Y15800000D01*
X28750000Y15800000D01*
X28750000Y14950000D01*
D02*
G37*
%LPC*%
G36*
X41200000Y14950000D02*
X39550000Y14950000D01*
X39550000Y15800000D01*
X41200000Y15800000D01*
X41200000Y14950000D01*
D02*
G37*
%LPC*%
G36*
X39250000Y14950000D02*
X37600000Y14950000D01*
X37600000Y15800000D01*
X39250000Y15800000D01*
X39250000Y14950000D01*
D02*
G37*
%LPC*%
G36*
X30700000Y14950000D02*
X29050000Y14950000D01*
X29050000Y15800000D01*
X30700000Y15800000D01*
X30700000Y14950000D01*
D02*
G37*
%LPC*%
G36*
X30700000Y13800000D02*
X29050000Y13800000D01*
X29050000Y14650000D01*
X30700000Y14650000D01*
X30700000Y13800000D01*
D02*
G37*
%LPC*%
G36*
X41200000Y13800000D02*
X39550000Y13800000D01*
X39550000Y14650000D01*
X41200000Y14650000D01*
X41200000Y13800000D01*
D02*
G37*
%LPC*%
G36*
X39250000Y13800000D02*
X37600000Y13800000D01*
X37600000Y14650000D01*
X39250000Y14650000D01*
X39250000Y13800000D01*
D02*
G37*
%LPC*%
G36*
X28750000Y13800000D02*
X27100000Y13800000D01*
X27100000Y14650000D01*
X28750000Y14650000D01*
X28750000Y13800000D01*
D02*
G37*
%LPC*%
G36*
X36485000Y1745000D02*
X31515000Y1745000D01*
X31515000Y5045000D01*
X25745000Y5045000D01*
X25745000Y10655000D01*
X28055000Y10655000D01*
X28055000Y7255000D01*
X36245000Y7255000D01*
X36245000Y10655000D01*
X38555000Y10655000D01*
X38555000Y5045000D01*
X36485000Y5045000D01*
X36485000Y1745000D01*
D02*
G37*
%LPD*%
G36*
X33875000Y2000000D02*
X33875000Y7000000D01*
X27800000Y7000000D01*
X27800000Y10400000D01*
X26000000Y10400000D01*
X26000000Y5300000D01*
X31770000Y5300000D01*
X31770000Y2000000D01*
X33875000Y2000000D01*
D02*
G37*
%LPD*%
G36*
X36230000Y2000000D02*
X36230000Y5300000D01*
X38300000Y5300000D01*
X38300000Y10400000D01*
X36500000Y10400000D01*
X36500000Y7000000D01*
X34130000Y7000000D01*
X34130000Y2000000D01*
X36230000Y2000000D01*
D02*
G37*
%LPC*%
G36*
X54727083Y6636016D02*
X54623650Y6641098D01*
X54521210Y6656294D01*
X54420763Y6681454D01*
X54323263Y6716341D01*
X54229637Y6760621D01*
X54140825Y6813854D01*
X54057639Y6875549D01*
X53980911Y6945091D01*
X53911369Y7021819D01*
X53849674Y7105005D01*
X53796441Y7193817D01*
X53752161Y7287443D01*
X53717274Y7384943D01*
X53692114Y7485390D01*
X53676918Y7587830D01*
X53671836Y7691263D01*
X53676918Y7794696D01*
X53692114Y7897136D01*
X53717274Y7997583D01*
X53752161Y8095083D01*
X53796441Y8188709D01*
X53849674Y8277521D01*
X53911369Y8360707D01*
X53980911Y8437435D01*
X54057639Y8506977D01*
X54140825Y8568672D01*
X54229637Y8621905D01*
X54323263Y8666185D01*
X54420763Y8701072D01*
X54521210Y8726232D01*
X54623650Y8741428D01*
X54727083Y8746510D01*
X54830516Y8741428D01*
X54932956Y8726232D01*
X55033403Y8701072D01*
X55130903Y8666185D01*
X55224529Y8621905D01*
X55313341Y8568672D01*
X55396527Y8506977D01*
X55473255Y8437435D01*
X55542797Y8360707D01*
X55604492Y8277521D01*
X55657725Y8188709D01*
X55702005Y8095083D01*
X55736892Y7997583D01*
X55762052Y7897136D01*
X55777248Y7794696D01*
X55782330Y7691263D01*
X55777248Y7587830D01*
X55762052Y7485390D01*
X55736892Y7384943D01*
X55702005Y7287443D01*
X55657725Y7193817D01*
X55604492Y7105005D01*
X55542797Y7021819D01*
X55473255Y6945091D01*
X55396527Y6875549D01*
X55313341Y6813854D01*
X55224529Y6760621D01*
X55130903Y6716341D01*
X55033403Y6681454D01*
X54932956Y6656294D01*
X54830516Y6641098D01*
X54727083Y6636016D01*
D02*
G37*
%LPC*%
G36*
X10727083Y6636016D02*
X10623650Y6641098D01*
X10521210Y6656294D01*
X10420763Y6681454D01*
X10323263Y6716341D01*
X10229637Y6760621D01*
X10140825Y6813854D01*
X10057639Y6875549D01*
X9980911Y6945091D01*
X9911369Y7021819D01*
X9849674Y7105005D01*
X9796441Y7193817D01*
X9752161Y7287443D01*
X9717274Y7384943D01*
X9692114Y7485390D01*
X9676918Y7587830D01*
X9671836Y7691263D01*
X9676918Y7794696D01*
X9692114Y7897136D01*
X9717274Y7997583D01*
X9752161Y8095083D01*
X9796441Y8188709D01*
X9849674Y8277521D01*
X9911369Y8360707D01*
X9980911Y8437435D01*
X10057639Y8506977D01*
X10140825Y8568672D01*
X10229637Y8621905D01*
X10323263Y8666185D01*
X10420763Y8701072D01*
X10521210Y8726232D01*
X10623650Y8741428D01*
X10727083Y8746510D01*
X10830516Y8741428D01*
X10932956Y8726232D01*
X11033403Y8701072D01*
X11130903Y8666185D01*
X11224529Y8621905D01*
X11313341Y8568672D01*
X11396527Y8506977D01*
X11473255Y8437435D01*
X11542797Y8360707D01*
X11604492Y8277521D01*
X11657725Y8188709D01*
X11702005Y8095083D01*
X11736892Y7997583D01*
X11762052Y7897136D01*
X11777248Y7794696D01*
X11782330Y7691263D01*
X11777248Y7587830D01*
X11762052Y7485390D01*
X11736892Y7384943D01*
X11702005Y7287443D01*
X11657725Y7193817D01*
X11604492Y7105005D01*
X11542797Y7021819D01*
X11473255Y6945091D01*
X11396527Y6875549D01*
X11313341Y6813854D01*
X11224529Y6760621D01*
X11130903Y6716341D01*
X11033403Y6681454D01*
X10932956Y6656294D01*
X10830516Y6641098D01*
X10727083Y6636016D01*
D02*
G37*
%LPC*%
G36*
X8077083Y7841263D02*
X7188881Y7841263D01*
X7197024Y7896160D01*
X7222066Y7996134D01*
X7256788Y8093174D01*
X7300847Y8186333D01*
X7353846Y8274754D01*
X7415233Y8357525D01*
X7484451Y8433895D01*
X7560821Y8503113D01*
X7643592Y8564500D01*
X7732013Y8617499D01*
X7825172Y8661558D01*
X7922212Y8696280D01*
X8022186Y8721322D01*
X8077083Y8729465D01*
X8077083Y7841263D01*
D02*
G37*
%LPC*%
G36*
X9265285Y7841263D02*
X8377083Y7841263D01*
X8377083Y8729465D01*
X8431980Y8721322D01*
X8531954Y8696280D01*
X8628994Y8661558D01*
X8722153Y8617499D01*
X8810574Y8564500D01*
X8893345Y8503113D01*
X8969715Y8433895D01*
X9038933Y8357525D01*
X9100320Y8274754D01*
X9153319Y8186333D01*
X9197378Y8093174D01*
X9232100Y7996134D01*
X9257142Y7896160D01*
X9265285Y7841263D01*
D02*
G37*
%LPC*%
G36*
X52077083Y7841263D02*
X51188881Y7841263D01*
X51197024Y7896160D01*
X51222066Y7996134D01*
X51256788Y8093174D01*
X51300847Y8186333D01*
X51353846Y8274754D01*
X51415233Y8357525D01*
X51484451Y8433895D01*
X51560821Y8503113D01*
X51643592Y8564500D01*
X51732013Y8617499D01*
X51825172Y8661558D01*
X51922212Y8696280D01*
X52022186Y8721322D01*
X52077083Y8729465D01*
X52077083Y7841263D01*
D02*
G37*
%LPC*%
G36*
X53265285Y7841263D02*
X52377083Y7841263D01*
X52377083Y8729465D01*
X52431980Y8721322D01*
X52531954Y8696280D01*
X52628994Y8661558D01*
X52722153Y8617499D01*
X52810574Y8564500D01*
X52893345Y8503113D01*
X52969715Y8433895D01*
X53038933Y8357525D01*
X53100320Y8274754D01*
X53153319Y8186333D01*
X53197378Y8093174D01*
X53232100Y7996134D01*
X53257142Y7896160D01*
X53265285Y7841263D01*
D02*
G37*
%LPC*%
G36*
X8377083Y6653061D02*
X8377083Y7541263D01*
X9265285Y7541263D01*
X9257142Y7486366D01*
X9232100Y7386392D01*
X9197378Y7289352D01*
X9153319Y7196193D01*
X9100320Y7107772D01*
X9038933Y7025001D01*
X8969715Y6948631D01*
X8893345Y6879413D01*
X8810574Y6818026D01*
X8722153Y6765027D01*
X8628994Y6720968D01*
X8531954Y6686246D01*
X8431980Y6661204D01*
X8377083Y6653061D01*
D02*
G37*
%LPC*%
G36*
X52377083Y6653061D02*
X52377083Y7541263D01*
X53265285Y7541263D01*
X53257142Y7486366D01*
X53232100Y7386392D01*
X53197378Y7289352D01*
X53153319Y7196193D01*
X53100320Y7107772D01*
X53038933Y7025001D01*
X52969715Y6948631D01*
X52893345Y6879413D01*
X52810574Y6818026D01*
X52722153Y6765027D01*
X52628994Y6720968D01*
X52531954Y6686246D01*
X52431980Y6661204D01*
X52377083Y6653061D01*
D02*
G37*
%LPC*%
G36*
X52077083Y6653061D02*
X52022186Y6661204D01*
X51922212Y6686246D01*
X51825172Y6720968D01*
X51732013Y6765027D01*
X51643592Y6818026D01*
X51560821Y6879413D01*
X51484451Y6948631D01*
X51415233Y7025001D01*
X51353846Y7107772D01*
X51300847Y7196193D01*
X51256788Y7289352D01*
X51222066Y7386392D01*
X51197024Y7486366D01*
X51188881Y7541263D01*
X52077083Y7541263D01*
X52077083Y6653061D01*
D02*
G37*
%LPC*%
G36*
X8077083Y6653061D02*
X8022186Y6661204D01*
X7922212Y6686246D01*
X7825172Y6720968D01*
X7732013Y6765027D01*
X7643592Y6818026D01*
X7560821Y6879413D01*
X7484451Y6948631D01*
X7415233Y7025001D01*
X7353846Y7107772D01*
X7300847Y7196193D01*
X7256788Y7289352D01*
X7222066Y7386392D01*
X7197024Y7486366D01*
X7188881Y7541263D01*
X8077083Y7541263D01*
X8077083Y6653061D01*
D02*
G37*
%LPC*%
G36*
X37749000Y2184753D02*
X37645567Y2189835D01*
X37543127Y2205031D01*
X37442680Y2230191D01*
X37345180Y2265078D01*
X37251554Y2309358D01*
X37162742Y2362591D01*
X37079556Y2424286D01*
X37002828Y2493828D01*
X36933286Y2570556D01*
X36871591Y2653742D01*
X36818358Y2742554D01*
X36774078Y2836180D01*
X36739191Y2933680D01*
X36714031Y3034127D01*
X36698835Y3136567D01*
X36693753Y3240000D01*
X36698835Y3343433D01*
X36714031Y3445873D01*
X36739191Y3546320D01*
X36774078Y3643820D01*
X36818358Y3737446D01*
X36871591Y3826258D01*
X36933286Y3909444D01*
X37002828Y3986172D01*
X37079556Y4055714D01*
X37162742Y4117409D01*
X37251554Y4170642D01*
X37345180Y4214922D01*
X37442680Y4249809D01*
X37543127Y4274969D01*
X37645567Y4290165D01*
X37749000Y4295247D01*
X37852433Y4290165D01*
X37954873Y4274969D01*
X38055320Y4249809D01*
X38152820Y4214922D01*
X38246446Y4170642D01*
X38335258Y4117409D01*
X38418444Y4055714D01*
X38495172Y3986172D01*
X38564714Y3909444D01*
X38626409Y3826258D01*
X38679642Y3737446D01*
X38723922Y3643820D01*
X38758809Y3546320D01*
X38783969Y3445873D01*
X38799165Y3343433D01*
X38804247Y3240000D01*
X38799165Y3136567D01*
X38783969Y3034127D01*
X38758809Y2933680D01*
X38723922Y2836180D01*
X38679642Y2742554D01*
X38626409Y2653742D01*
X38564714Y2570556D01*
X38495172Y2493828D01*
X38418444Y2424286D01*
X38335258Y2362591D01*
X38246446Y2309358D01*
X38152820Y2265078D01*
X38055320Y2230191D01*
X37954873Y2205031D01*
X37852433Y2189835D01*
X37749000Y2184753D01*
D02*
G37*
%LPC*%
G36*
X25249000Y2184753D02*
X25145567Y2189835D01*
X25043127Y2205031D01*
X24942680Y2230191D01*
X24845180Y2265078D01*
X24751554Y2309358D01*
X24662742Y2362591D01*
X24579556Y2424286D01*
X24502828Y2493828D01*
X24433286Y2570556D01*
X24371591Y2653742D01*
X24318358Y2742554D01*
X24274078Y2836180D01*
X24239191Y2933680D01*
X24214031Y3034127D01*
X24198835Y3136567D01*
X24193753Y3240000D01*
X24198835Y3343433D01*
X24214031Y3445873D01*
X24239191Y3546320D01*
X24274078Y3643820D01*
X24318358Y3737446D01*
X24371591Y3826258D01*
X24433286Y3909444D01*
X24502828Y3986172D01*
X24579556Y4055714D01*
X24662742Y4117409D01*
X24751554Y4170642D01*
X24845180Y4214922D01*
X24942680Y4249809D01*
X25043127Y4274969D01*
X25145567Y4290165D01*
X25249000Y4295247D01*
X25352433Y4290165D01*
X25454873Y4274969D01*
X25555320Y4249809D01*
X25652820Y4214922D01*
X25746446Y4170642D01*
X25835258Y4117409D01*
X25918444Y4055714D01*
X25995172Y3986172D01*
X26064714Y3909444D01*
X26126409Y3826258D01*
X26179642Y3737446D01*
X26223922Y3643820D01*
X26258809Y3546320D01*
X26283969Y3445873D01*
X26299165Y3343433D01*
X26304247Y3240000D01*
X26299165Y3136567D01*
X26283969Y3034127D01*
X26258809Y2933680D01*
X26223922Y2836180D01*
X26179642Y2742554D01*
X26126409Y2653742D01*
X26064714Y2570556D01*
X25995172Y2493828D01*
X25918444Y2424286D01*
X25835258Y2362591D01*
X25746446Y2309358D01*
X25652820Y2265078D01*
X25555320Y2230191D01*
X25454873Y2205031D01*
X25352433Y2189835D01*
X25249000Y2184753D01*
D02*
G37*
%LPC*%
G36*
X30249000Y2184753D02*
X30145567Y2189835D01*
X30043127Y2205031D01*
X29942680Y2230191D01*
X29845180Y2265078D01*
X29751554Y2309358D01*
X29662742Y2362591D01*
X29579556Y2424286D01*
X29502828Y2493828D01*
X29433286Y2570556D01*
X29371591Y2653742D01*
X29318358Y2742554D01*
X29274078Y2836180D01*
X29239191Y2933680D01*
X29214031Y3034127D01*
X29198835Y3136567D01*
X29193753Y3240000D01*
X29198835Y3343433D01*
X29214031Y3445873D01*
X29239191Y3546320D01*
X29274078Y3643820D01*
X29318358Y3737446D01*
X29371591Y3826258D01*
X29433286Y3909444D01*
X29502828Y3986172D01*
X29579556Y4055714D01*
X29662742Y4117409D01*
X29751554Y4170642D01*
X29845180Y4214922D01*
X29942680Y4249809D01*
X30043127Y4274969D01*
X30145567Y4290165D01*
X30249000Y4295247D01*
X30352433Y4290165D01*
X30454873Y4274969D01*
X30555320Y4249809D01*
X30652820Y4214922D01*
X30746446Y4170642D01*
X30835258Y4117409D01*
X30918444Y4055714D01*
X30995172Y3986172D01*
X31064714Y3909444D01*
X31126409Y3826258D01*
X31179642Y3737446D01*
X31223922Y3643820D01*
X31258809Y3546320D01*
X31283969Y3445873D01*
X31299165Y3343433D01*
X31304247Y3240000D01*
X31299165Y3136567D01*
X31283969Y3034127D01*
X31258809Y2933680D01*
X31223922Y2836180D01*
X31179642Y2742554D01*
X31126409Y2653742D01*
X31064714Y2570556D01*
X30995172Y2493828D01*
X30918444Y2424286D01*
X30835258Y2362591D01*
X30746446Y2309358D01*
X30652820Y2265078D01*
X30555320Y2230191D01*
X30454873Y2205031D01*
X30352433Y2189835D01*
X30249000Y2184753D01*
D02*
G37*
%LPC*%
G36*
X22599000Y3390000D02*
X21710798Y3390000D01*
X21718941Y3444897D01*
X21743983Y3544871D01*
X21778705Y3641911D01*
X21822764Y3735070D01*
X21875763Y3823491D01*
X21937150Y3906262D01*
X22006368Y3982632D01*
X22082738Y4051850D01*
X22165509Y4113237D01*
X22253930Y4166236D01*
X22347089Y4210295D01*
X22444129Y4245017D01*
X22544103Y4270059D01*
X22599000Y4278202D01*
X22599000Y3390000D01*
D02*
G37*
%LPC*%
G36*
X41287202Y3390000D02*
X40399000Y3390000D01*
X40399000Y4278202D01*
X40453897Y4270059D01*
X40553871Y4245017D01*
X40650911Y4210295D01*
X40744070Y4166236D01*
X40832491Y4113237D01*
X40915262Y4051850D01*
X40991632Y3982632D01*
X41060850Y3906262D01*
X41122237Y3823491D01*
X41175236Y3735070D01*
X41219295Y3641911D01*
X41254017Y3544871D01*
X41279059Y3444897D01*
X41287202Y3390000D01*
D02*
G37*
%LPC*%
G36*
X40099000Y3390000D02*
X39210798Y3390000D01*
X39218941Y3444897D01*
X39243983Y3544871D01*
X39278705Y3641911D01*
X39322764Y3735070D01*
X39375763Y3823491D01*
X39437150Y3906262D01*
X39506368Y3982632D01*
X39582738Y4051850D01*
X39665509Y4113237D01*
X39753930Y4166236D01*
X39847089Y4210295D01*
X39944129Y4245017D01*
X40044103Y4270059D01*
X40099000Y4278202D01*
X40099000Y3390000D01*
D02*
G37*
%LPC*%
G36*
X28787202Y3390000D02*
X27899000Y3390000D01*
X27899000Y4278202D01*
X27953897Y4270059D01*
X28053871Y4245017D01*
X28150911Y4210295D01*
X28244070Y4166236D01*
X28332491Y4113237D01*
X28415262Y4051850D01*
X28491632Y3982632D01*
X28560850Y3906262D01*
X28622237Y3823491D01*
X28675236Y3735070D01*
X28719295Y3641911D01*
X28754017Y3544871D01*
X28779059Y3444897D01*
X28787202Y3390000D01*
D02*
G37*
%LPC*%
G36*
X27599000Y3390000D02*
X26710798Y3390000D01*
X26718941Y3444897D01*
X26743983Y3544871D01*
X26778705Y3641911D01*
X26822764Y3735070D01*
X26875763Y3823491D01*
X26937150Y3906262D01*
X27006368Y3982632D01*
X27082738Y4051850D01*
X27165509Y4113237D01*
X27253930Y4166236D01*
X27347089Y4210295D01*
X27444129Y4245017D01*
X27544103Y4270059D01*
X27599000Y4278202D01*
X27599000Y3390000D01*
D02*
G37*
%LPC*%
G36*
X23787202Y3390000D02*
X22899000Y3390000D01*
X22899000Y4278202D01*
X22953897Y4270059D01*
X23053871Y4245017D01*
X23150911Y4210295D01*
X23244070Y4166236D01*
X23332491Y4113237D01*
X23415262Y4051850D01*
X23491632Y3982632D01*
X23560850Y3906262D01*
X23622237Y3823491D01*
X23675236Y3735070D01*
X23719295Y3641911D01*
X23754017Y3544871D01*
X23779059Y3444897D01*
X23787202Y3390000D01*
D02*
G37*
%LPC*%
G36*
X40399000Y2201798D02*
X40399000Y3090000D01*
X41287202Y3090000D01*
X41279059Y3035103D01*
X41254017Y2935129D01*
X41219295Y2838089D01*
X41175236Y2744930D01*
X41122237Y2656509D01*
X41060850Y2573738D01*
X40991632Y2497368D01*
X40915262Y2428150D01*
X40832491Y2366763D01*
X40744070Y2313764D01*
X40650911Y2269705D01*
X40553871Y2234983D01*
X40453897Y2209941D01*
X40399000Y2201798D01*
D02*
G37*
%LPC*%
G36*
X40099000Y2201798D02*
X40044103Y2209941D01*
X39944129Y2234983D01*
X39847089Y2269705D01*
X39753930Y2313764D01*
X39665509Y2366763D01*
X39582738Y2428150D01*
X39506368Y2497368D01*
X39437150Y2573738D01*
X39375763Y2656509D01*
X39322764Y2744930D01*
X39278705Y2838089D01*
X39243983Y2935129D01*
X39218941Y3035103D01*
X39210798Y3090000D01*
X40099000Y3090000D01*
X40099000Y2201798D01*
D02*
G37*
%LPC*%
G36*
X27899000Y2201798D02*
X27899000Y3090000D01*
X28787202Y3090000D01*
X28779059Y3035103D01*
X28754017Y2935129D01*
X28719295Y2838089D01*
X28675236Y2744930D01*
X28622237Y2656509D01*
X28560850Y2573738D01*
X28491632Y2497368D01*
X28415262Y2428150D01*
X28332491Y2366763D01*
X28244070Y2313764D01*
X28150911Y2269705D01*
X28053871Y2234983D01*
X27953897Y2209941D01*
X27899000Y2201798D01*
D02*
G37*
%LPC*%
G36*
X27599000Y2201798D02*
X27544103Y2209941D01*
X27444129Y2234983D01*
X27347089Y2269705D01*
X27253930Y2313764D01*
X27165509Y2366763D01*
X27082738Y2428150D01*
X27006368Y2497368D01*
X26937150Y2573738D01*
X26875763Y2656509D01*
X26822764Y2744930D01*
X26778705Y2838089D01*
X26743983Y2935129D01*
X26718941Y3035103D01*
X26710798Y3090000D01*
X27599000Y3090000D01*
X27599000Y2201798D01*
D02*
G37*
%LPC*%
G36*
X22899000Y2201798D02*
X22899000Y3090000D01*
X23787202Y3090000D01*
X23779059Y3035103D01*
X23754017Y2935129D01*
X23719295Y2838089D01*
X23675236Y2744930D01*
X23622237Y2656509D01*
X23560850Y2573738D01*
X23491632Y2497368D01*
X23415262Y2428150D01*
X23332491Y2366763D01*
X23244070Y2313764D01*
X23150911Y2269705D01*
X23053871Y2234983D01*
X22953897Y2209941D01*
X22899000Y2201798D01*
D02*
G37*
%LPC*%
G36*
X22599000Y2201798D02*
X22544103Y2209941D01*
X22444129Y2234983D01*
X22347089Y2269705D01*
X22253930Y2313764D01*
X22165509Y2366763D01*
X22082738Y2428150D01*
X22006368Y2497368D01*
X21937150Y2573738D01*
X21875763Y2656509D01*
X21822764Y2744930D01*
X21778705Y2838089D01*
X21743983Y2935129D01*
X21718941Y3035103D01*
X21710798Y3090000D01*
X22599000Y3090000D01*
X22599000Y2201798D01*
D02*
G37*
%LPD*%
G01*
%LPD*%
D10*
X19270000Y43935000D02*
X19270000Y42665000D01*
D10*
X40535000Y33705000D02*
X40535000Y32630000D01*
D10*
X41800000Y57710000D02*
X34170000Y57710000D01*
D10*
X46785000Y32130000D02*
X46475000Y32440000D01*
D10*
X17900000Y47330000D02*
X17900000Y49220000D01*
D10*
X48405000Y30130000D02*
X49530000Y30130000D01*
D10*
X53500000Y62500000D02*
X53500000Y60100000D01*
D10*
X37995000Y32630000D02*
X32565000Y32630000D01*
D10*
X11620000Y44200000D02*
X9740000Y44200000D01*
D10*
X32565000Y27930002D02*
X36925000Y27930002D01*
D10*
X34170000Y57710000D02*
X31500000Y55040000D01*
D10*
X42500000Y46500000D02*
X43720000Y47720000D01*
D10*
X39265000Y36895000D02*
X39265000Y37970000D01*
D11*
X35905000Y37970000D02*
X37995000Y37970000D01*
D10*
X40535000Y37970000D02*
X40535000Y40085000D01*
D10*
X41970000Y55280000D02*
X36820000Y55280000D01*
D10*
X40535000Y40085000D02*
X40700000Y40250000D01*
D10*
X16300000Y46240000D02*
X16300000Y47330000D01*
D10*
X13235000Y45900000D02*
X13930000Y45205000D01*
D10*
X46505000Y29830000D02*
X46805000Y30130000D01*
D10*
X43730000Y49650000D02*
X43720000Y49640000D01*
D10*
X29260000Y52800000D02*
X26420000Y49960000D01*
D10*
X41820000Y49640000D02*
X41820000Y47760000D01*
D10*
X40060000Y36100000D02*
X39265000Y36895000D01*
D10*
X44625000Y29830000D02*
X46505000Y29830000D01*
D10*
X36925000Y27930002D02*
X36925000Y26000002D01*
D10*
X41800000Y51800000D02*
X41800000Y49660000D01*
D10*
X43730000Y53400000D02*
X41800000Y53400000D01*
D10*
X15265000Y45205000D02*
X16300000Y46240000D01*
D10*
X44800000Y19725002D02*
X44800000Y7830000D01*
D10*
X39100000Y40250000D02*
X39100000Y42130000D01*
D10*
X39265000Y40085000D02*
X39100000Y40250000D01*
D10*
X13930000Y45205000D02*
X15265000Y45205000D01*
D10*
X36820000Y55280000D02*
X36580000Y55040000D01*
D10*
X39265000Y37970000D02*
X39265000Y40085000D01*
D10*
X44425000Y29630000D02*
X44625000Y29830000D01*
D10*
X31500000Y62500000D02*
X26500000Y62500000D01*
D10*
X16300000Y56700000D02*
X14500000Y58500000D01*
D10*
X13930000Y43935000D02*
X11885000Y43935000D01*
D10*
X20160000Y53330000D02*
X20160000Y55110000D01*
D10*
X43730000Y51800000D02*
X43730000Y49650000D01*
D10*
X13930000Y42665000D02*
X13815000Y42550000D01*
D10*
X16300000Y51100000D02*
X16300000Y53330000D01*
D11*
X41805000Y30360000D02*
X41805000Y32630000D01*
D10*
X11720000Y45900000D02*
X13235000Y45900000D01*
D10*
X20249000Y5751000D02*
X20249000Y3240000D01*
D10*
X43570000Y55940000D02*
X41800000Y57710000D01*
D10*
X11475000Y42550000D02*
X11110000Y42185000D01*
D10*
X6755000Y38710000D02*
X8685000Y38710000D01*
D12*
X41805000Y28460000D02*
X41805000Y30360000D01*
D10*
X53500000Y60100000D02*
X45200000Y51800000D01*
D10*
X48500000Y36500000D02*
X48100000Y36100000D01*
D10*
X13815000Y42550000D02*
X11475000Y42550000D01*
D10*
X43570000Y55280000D02*
X43570000Y55940000D01*
D10*
X11885000Y43935000D02*
X11620000Y44200000D01*
D10*
X17900000Y49220000D02*
X17900000Y51100000D01*
D10*
X38700000Y51800000D02*
X37700000Y52800000D01*
D10*
X44270000Y32630000D02*
X42500000Y34400000D01*
D12*
X34005000Y37970000D02*
X35905000Y37970000D01*
D10*
X45200000Y51800000D02*
X43730000Y51800000D01*
D10*
X41970000Y55280000D02*
X41970000Y53570000D01*
D10*
X31500000Y49960000D02*
X34960000Y46500000D01*
D10*
X34960000Y46500000D02*
X42500000Y46500000D01*
D10*
X41800000Y51800000D02*
X38700000Y51800000D01*
D10*
X8750000Y42185000D02*
X11110000Y42185000D01*
D10*
X17730000Y65730000D02*
X55270000Y65730000D01*
D10*
X14500000Y62500000D02*
X17730000Y65730000D01*
D10*
X41970000Y53570000D02*
X41800000Y53400000D01*
D10*
X18200000Y53330000D02*
X20160000Y53330000D01*
D10*
X44800000Y19725002D02*
X38525000Y26000002D01*
D10*
X4500000Y62500000D02*
X9500000Y62500000D01*
D12*
X13930000Y37305000D02*
X13930000Y39305000D01*
D10*
X55270000Y65730000D02*
X58500000Y62500000D01*
D13*
X10315000Y39185000D02*
X11110000Y39185000D01*
D10*
X48100000Y36100000D02*
X40060000Y36100000D01*
D10*
X42749000Y3240000D02*
X42749000Y5779000D01*
D10*
X14500000Y58500000D02*
X14500000Y62500000D01*
D10*
X53500000Y34100000D02*
X53500000Y36500000D01*
D10*
X42500000Y34400000D02*
X41230000Y34400000D01*
D13*
X7850000Y50830000D02*
X7850000Y45800000D01*
D11*
X13930000Y39305000D02*
X13930000Y41395000D01*
D10*
X40700000Y42130000D02*
X40700000Y40250000D01*
D10*
X41805000Y37970000D02*
X43280000Y37970000D01*
D10*
X24200000Y56700000D02*
X27800000Y60300000D01*
D10*
X44800000Y7830000D02*
X42749000Y5779000D01*
D10*
X6755000Y38710000D02*
X6755000Y19245000D01*
D13*
X8685000Y40310000D02*
X9190000Y40310000D01*
D11*
X21540000Y45205000D02*
X19270000Y45205000D01*
D10*
X40700000Y42130000D02*
X42560000Y42130000D01*
D10*
X44615000Y32440000D02*
X44425000Y32630000D01*
D10*
X41230000Y34400000D02*
X40535000Y33705000D01*
D10*
X27800000Y60300000D02*
X46300000Y60300000D01*
D10*
X20140000Y51100000D02*
X17900000Y51100000D01*
D10*
X49530000Y30130000D02*
X53500000Y34100000D01*
D10*
X9740000Y45800000D02*
X11620000Y45800000D01*
D10*
X24200000Y53560000D02*
X24200000Y56700000D01*
D12*
X23440000Y45205000D02*
X21540000Y45205000D01*
D10*
X39265000Y32630000D02*
X37995000Y32630000D01*
D10*
X43720000Y47720000D02*
X43720000Y49640000D01*
D10*
X21740000Y51100000D02*
X24200000Y53560000D01*
D13*
X9190000Y40310000D02*
X10315000Y39185000D01*
D10*
X46300000Y60300000D02*
X48500000Y62500000D01*
D10*
X46475000Y32440000D02*
X44615000Y32440000D01*
D10*
X16300000Y53330000D02*
X16300000Y56700000D01*
D10*
X44425000Y32630000D02*
X44270000Y32630000D01*
D10*
X6755000Y19245000D02*
X20249000Y5751000D01*
D10*
X7850000Y44200000D02*
X9740000Y44200000D01*
D10*
X41800000Y49660000D02*
X41820000Y49640000D01*
D10*
X37700000Y52800000D02*
X29260000Y52800000D01*
D10*
X11620000Y45800000D02*
X11720000Y45900000D01*
G75*
D14*
X39100000Y40250000D03*
D15*
X40700000Y40250000D03*
D16*
X36580000Y49960000D03*
D16*
X31500000Y49960000D03*
D16*
X26420000Y55040000D03*
D16*
X31500000Y55040000D03*
D16*
X36580000Y55040000D03*
D16*
X26420000Y49960000D03*
D14*
X20140000Y51100000D03*
D15*
X21740000Y51100000D03*
D15*
X48385000Y32130000D03*
D14*
X46785000Y32130000D03*
D17*
X11620000Y45800000D03*
D18*
X11620000Y44200000D03*
D14*
X7150000Y42185000D03*
D15*
X8750000Y42185000D03*
D15*
X38525000Y26000002D03*
D14*
X36925000Y26000002D03*
D15*
X43570000Y55280000D03*
D14*
X41970000Y55280000D03*
D19*
X37995000Y37970000D03*
D19*
X40535000Y37970000D03*
D19*
X41805000Y37970000D03*
D20*
X41805000Y32630000D03*
D20*
X39265000Y32630000D03*
D19*
X39265000Y37970000D03*
D20*
X37995000Y32630000D03*
D20*
X40535000Y32630000D03*
D21*
X44425000Y29630000D03*
D22*
X44425000Y32630000D03*
D15*
X17900000Y47330000D03*
D14*
X16300000Y47330000D03*
D23*
X32565000Y32630000D03*
D24*
X32565000Y27930002D03*
D14*
X40205000Y30360000D03*
D15*
X41805000Y30360000D03*
D25*
X23900000Y14800000D03*
D26*
X28900000Y14800000D03*
D17*
X6755000Y40310000D03*
D18*
X6755000Y38710000D03*
D17*
X7850000Y45800000D03*
D18*
X7850000Y44200000D03*
D17*
X41800000Y53400000D03*
D18*
X41800000Y51800000D03*
D27*
X18200000Y53330000D03*
D28*
X16300000Y53330000D03*
D14*
X16300000Y51100000D03*
D15*
X17900000Y51100000D03*
D28*
X41820000Y49640000D03*
D27*
X43720000Y49640000D03*
D18*
X21540000Y43605000D03*
D17*
X21540000Y45205000D03*
D29*
X44800000Y57710000D03*
D30*
X41800000Y57710000D03*
D15*
X15530000Y39305000D03*
D14*
X13930000Y39305000D03*
D31*
X19270000Y45205000D03*
D31*
X19270000Y42665000D03*
D31*
X19270000Y41395000D03*
D32*
X13930000Y41395000D03*
D32*
X13930000Y43935000D03*
D31*
X19270000Y43935000D03*
D32*
X13930000Y45205000D03*
D32*
X13930000Y42665000D03*
D33*
X54727083Y7691263D03*
D33*
X52227083Y7691263D03*
D21*
X11110000Y39185000D03*
D22*
X11110000Y42185000D03*
D18*
X42560000Y40530000D03*
D17*
X42560000Y42130000D03*
D17*
X43730000Y53400000D03*
D18*
X43730000Y51800000D03*
D34*
X20249000Y3240000D03*
D34*
X37749000Y3240000D03*
D34*
X35249000Y3240000D03*
D34*
X32749000Y3240000D03*
D34*
X27749000Y3240000D03*
D34*
X42749000Y3240000D03*
D34*
X22749000Y3240000D03*
D34*
X25249000Y3240000D03*
D34*
X40249000Y3240000D03*
D34*
X30249000Y3240000D03*
D14*
X16300000Y49220000D03*
D15*
X17900000Y49220000D03*
D15*
X21760000Y53330000D03*
D14*
X20160000Y53330000D03*
D18*
X35905000Y36370000D03*
D17*
X35905000Y37970000D03*
D29*
X26900000Y9200000D03*
D30*
X23900000Y9200000D03*
D29*
X37400000Y9200000D03*
D30*
X34400000Y9200000D03*
D35*
X48500000Y36500000D03*
D35*
X58500000Y36500000D03*
D35*
X53500000Y36500000D03*
D35*
X26500000Y62500000D03*
D35*
X36500000Y62500000D03*
D35*
X31500000Y62500000D03*
D25*
X34400000Y14800000D03*
D26*
X39400000Y14800000D03*
D17*
X8685000Y40310000D03*
D18*
X8685000Y38710000D03*
D15*
X38525000Y27930002D03*
D14*
X36925000Y27930002D03*
D14*
X46805000Y30130000D03*
D15*
X48405000Y30130000D03*
D35*
X48500000Y62500000D03*
D35*
X58500000Y62500000D03*
D35*
X53500000Y62500000D03*
D17*
X9740000Y45800000D03*
D18*
X9740000Y44200000D03*
D14*
X39100000Y42130000D03*
D15*
X40700000Y42130000D03*
D35*
X4500000Y62500000D03*
D35*
X14500000Y62500000D03*
D35*
X9500000Y62500000D03*
D33*
X10727083Y7691263D03*
D33*
X8227083Y7691263D03*
D26*
X12850000Y50830000D03*
D25*
X7850000Y50830000D03*
D36*
X23875000Y51800000D03*
D36*
X39400000Y16450000D03*
D37*
X1000000Y26200000D03*
D37*
X62000000Y64600000D03*
D36*
X22840000Y43605000D03*
D37*
X54375000Y71000000D03*
D38*
X34005000Y37970000D03*
D37*
X46750000Y1000000D03*
D36*
X16250000Y26200000D03*
D36*
X8625000Y26200000D03*
D36*
X39400000Y13160000D03*
D36*
X54375000Y39000000D03*
D36*
X12850000Y49180000D03*
D36*
X41840000Y14800000D03*
D37*
X1000000Y51800000D03*
D36*
X15000000Y48920000D03*
D36*
X46750000Y39000000D03*
D36*
X46750000Y26200000D03*
D37*
X1000000Y32600000D03*
D36*
X43850000Y40530000D03*
D37*
X62000000Y13400000D03*
D36*
X54375000Y26200000D03*
D39*
X41820000Y47760000D03*
D36*
X48385000Y33430000D03*
D37*
X46750000Y71000000D03*
D37*
X62000000Y51800000D03*
D36*
X23875000Y58200000D03*
D36*
X39500000Y45050000D03*
D37*
X62000000Y1000000D03*
D37*
X8625000Y71000000D03*
D36*
X16250000Y58200000D03*
D36*
X8625000Y64600000D03*
D36*
X46750000Y51800000D03*
D36*
X31500000Y51800000D03*
D36*
X54375000Y19800000D03*
D38*
X13930000Y37305000D03*
D36*
X8625000Y19800000D03*
D36*
X54375000Y51800000D03*
D37*
X1000000Y19800000D03*
D37*
X62000000Y7000000D03*
D37*
X16250000Y1000000D03*
D36*
X54375000Y58200000D03*
D36*
X15530000Y38005000D03*
D36*
X46750000Y19800000D03*
D36*
X46750000Y64600000D03*
D37*
X62000000Y32600000D03*
D37*
X31500000Y1000000D03*
D37*
X62000000Y45400000D03*
D36*
X34605000Y36370000D03*
D36*
X8625000Y13400000D03*
D37*
X1000000Y71000000D03*
D36*
X54375000Y64600000D03*
D36*
X5455000Y40310000D03*
D37*
X39125000Y71000000D03*
D36*
X19270000Y40045000D03*
D36*
X8625000Y58200000D03*
D37*
X62000000Y19800000D03*
D36*
X16250000Y13400000D03*
D36*
X31500000Y45400000D03*
D37*
X31500000Y71000000D03*
D37*
X62000000Y26200000D03*
D36*
X54375000Y45400000D03*
D36*
X46750000Y7000000D03*
D36*
X23875000Y39900000D03*
D36*
X8625000Y32600000D03*
D37*
X62000000Y39000000D03*
D36*
X16250000Y7000000D03*
D39*
X43280000Y37970000D03*
D36*
X39125000Y7000000D03*
D37*
X62000000Y58200000D03*
D37*
X1000000Y1000000D03*
D37*
X8625000Y1000000D03*
D37*
X1000000Y7000000D03*
D37*
X1000000Y45400000D03*
D38*
X34400000Y17500000D03*
D38*
X41805000Y28460000D03*
D38*
X23900000Y17500000D03*
D37*
X1000000Y58200000D03*
D36*
X5850000Y42185000D03*
D36*
X30800000Y32600000D03*
D37*
X23875000Y71000000D03*
D36*
X16250000Y32600000D03*
D36*
X31500000Y19800000D03*
D36*
X31500000Y39900000D03*
D36*
X16250000Y19800000D03*
D36*
X21760000Y54630000D03*
D37*
X54375000Y1000000D03*
D37*
X23875000Y1000000D03*
D36*
X31340000Y14800000D03*
D37*
X1000000Y39000000D03*
D36*
X40205000Y29060000D03*
D37*
X1000000Y13400000D03*
D36*
X28900000Y16450000D03*
D36*
X39125000Y64600000D03*
D37*
X16250000Y71000000D03*
D36*
X54375000Y32600000D03*
D36*
X28900000Y13160000D03*
D36*
X46750000Y13400000D03*
D36*
X46750000Y58200000D03*
D36*
X39125000Y19800000D03*
D38*
X23440000Y45205000D03*
D37*
X39125000Y1000000D03*
D36*
X23875000Y7000000D03*
D36*
X46750000Y45400000D03*
D36*
X30800000Y26200000D03*
D37*
X62000000Y71000000D03*
D36*
X38525000Y29230002D03*
D36*
X31500000Y58200000D03*
D36*
X31500000Y64600000D03*
D36*
X54375000Y13400000D03*
D39*
X20160000Y55110000D03*
D37*
X1000000Y64600000D03*
M02*
