%FSLAX46Y46*%
%MOMM*%
%ADD11C,0.050000*%
%ADD10C,0.150000*%
G01*
%LPD*%
G01*
%LPD*%
D10*
X10809524Y59348808D02*
X10809524Y60348808D01*
D10*
X10380952Y60348808D02*
X10809524Y60348808D01*
D10*
X10238095Y60301192D02*
X10380952Y60348808D01*
D10*
X10190476Y60253572D02*
X10238095Y60301192D01*
D10*
X10142857Y60158332D02*
X10190476Y60253572D01*
D10*
X10142857Y60063096D02*
X10142857Y60158332D01*
D10*
X10190476Y59967856D02*
X10142857Y60063096D01*
D10*
X10238095Y59920240D02*
X10190476Y59967856D01*
D10*
X10380952Y59872620D02*
X10238095Y59920240D01*
D10*
X10380952Y59872620D02*
X10809524Y59872620D01*
D10*
X10238095Y59825000D02*
X10380952Y59872620D01*
D10*
X10190476Y59777380D02*
X10238095Y59825000D01*
D10*
X10142857Y59682144D02*
X10190476Y59777380D01*
D10*
X10142857Y59539284D02*
X10142857Y59682144D01*
D10*
X10190476Y59444048D02*
X10142857Y59539284D01*
D10*
X10238095Y59396428D02*
X10190476Y59444048D01*
D10*
X10380952Y59348808D02*
X10238095Y59396428D01*
D10*
X10809524Y59348808D02*
X10380952Y59348808D01*
D10*
X9952381Y59348808D02*
X9571429Y60348808D01*
D10*
X9190476Y59348808D02*
X9571429Y60348808D01*
D10*
X9333333Y59682144D02*
X9809524Y59682144D01*
D10*
X8428572Y60301192D02*
X8333333Y60205952D01*
D10*
X8571428Y60348808D02*
X8428572Y60301192D01*
D10*
X8761905Y60348808D02*
X8571428Y60348808D01*
D10*
X8904762Y60301192D02*
X8761905Y60348808D01*
D10*
X9000000Y60205952D02*
X8904762Y60301192D01*
D10*
X9000000Y60110716D02*
X9000000Y60205952D01*
D10*
X8952381Y60015476D02*
X9000000Y60110716D01*
D10*
X8904762Y59967856D02*
X8952381Y60015476D01*
D10*
X8809524Y59920240D02*
X8904762Y59967856D01*
D10*
X8523810Y59825000D02*
X8809524Y59920240D01*
D10*
X8428572Y59777380D02*
X8523810Y59825000D01*
D10*
X8380952Y59729760D02*
X8428572Y59777380D01*
D10*
X8333333Y59634524D02*
X8380952Y59729760D01*
D10*
X8333333Y59491668D02*
X8333333Y59634524D01*
D10*
X8428572Y59396428D02*
X8333333Y59491668D01*
D10*
X8571428Y59348808D02*
X8428572Y59396428D01*
D10*
X8761905Y59348808D02*
X8571428Y59348808D01*
D10*
X8904762Y59396428D02*
X8761905Y59348808D01*
D10*
X9000000Y59491668D02*
X8904762Y59396428D01*
D10*
X7476190Y60301192D02*
X7380952Y60205952D01*
D10*
X7619048Y60348808D02*
X7476190Y60301192D01*
D10*
X7809524Y60348808D02*
X7619048Y60348808D01*
D10*
X7952381Y60301192D02*
X7809524Y60348808D01*
D10*
X8047619Y60205952D02*
X7952381Y60301192D01*
D10*
X8047619Y60110716D02*
X8047619Y60205952D01*
D10*
X8000000Y60015476D02*
X8047619Y60110716D01*
D10*
X7952381Y59967856D02*
X8000000Y60015476D01*
D10*
X7857143Y59920240D02*
X7952381Y59967856D01*
D10*
X7571428Y59825000D02*
X7857143Y59920240D01*
D10*
X7476190Y59777380D02*
X7571428Y59825000D01*
D10*
X7428571Y59729760D02*
X7476190Y59777380D01*
D10*
X7380952Y59634524D02*
X7428571Y59729760D01*
D10*
X7380952Y59491668D02*
X7380952Y59634524D01*
D10*
X7476190Y59396428D02*
X7380952Y59491668D01*
D10*
X7619048Y59348808D02*
X7476190Y59396428D01*
D10*
X7809524Y59348808D02*
X7619048Y59348808D01*
D10*
X7952381Y59396428D02*
X7809524Y59348808D01*
D10*
X8047619Y59491668D02*
X7952381Y59396428D01*
D10*
X32809524Y59348808D02*
X32809524Y60348808D01*
D10*
X32428572Y59348808D02*
X32809524Y60348808D01*
D10*
X32428572Y59348808D02*
X32047620Y60348808D01*
D10*
X32047620Y59348808D02*
X32047620Y60348808D01*
D10*
X31666666Y59348808D02*
X31666666Y60348808D01*
D10*
X31285714Y59348808D02*
X31285714Y60348808D01*
D10*
X30952380Y60348808D02*
X31285714Y60348808D01*
D10*
X30809524Y60301192D02*
X30952380Y60348808D01*
D10*
X30714286Y60205952D02*
X30809524Y60301192D01*
D10*
X30666666Y60110716D02*
X30714286Y60205952D01*
D10*
X30619048Y59967856D02*
X30666666Y60110716D01*
D10*
X30619048Y59729760D02*
X30619048Y59967856D01*
D10*
X30666666Y59586904D02*
X30619048Y59729760D01*
D10*
X30714286Y59491668D02*
X30666666Y59586904D01*
D10*
X30809524Y59396428D02*
X30714286Y59491668D01*
D10*
X30952380Y59348808D02*
X30809524Y59396428D01*
D10*
X31285714Y59348808D02*
X30952380Y59348808D01*
D10*
X54619048Y59348808D02*
X54619048Y60348808D01*
D10*
X54285716Y60348808D02*
X54952380Y60348808D01*
D10*
X54047620Y59348808D02*
X54047620Y60348808D01*
D10*
X53619048Y60348808D02*
X54047620Y60348808D01*
D10*
X53476192Y60301192D02*
X53619048Y60348808D01*
D10*
X53428572Y60253572D02*
X53476192Y60301192D01*
D10*
X53380952Y60158332D02*
X53428572Y60253572D01*
D10*
X53380952Y60063096D02*
X53380952Y60158332D01*
D10*
X53428572Y59967856D02*
X53380952Y60063096D01*
D10*
X53476192Y59920240D02*
X53428572Y59967856D01*
D10*
X53619048Y59872620D02*
X53476192Y59920240D01*
D10*
X54047620Y59872620D02*
X53619048Y59872620D01*
D10*
X53380952Y59348808D02*
X53714284Y59872620D01*
D10*
X53047620Y59348808D02*
X53047620Y60348808D01*
D10*
X52428572Y60348808D02*
X53047620Y60348808D01*
D10*
X52666668Y59872620D02*
X53047620Y59872620D01*
D10*
X52428572Y59348808D02*
X53047620Y59348808D01*
D10*
X52142856Y59348808D02*
X52142856Y60348808D01*
D10*
X51714284Y60348808D02*
X52142856Y60348808D01*
D10*
X51571428Y60301192D02*
X51714284Y60348808D01*
D10*
X51523808Y60253572D02*
X51571428Y60301192D01*
D10*
X51476192Y60158332D02*
X51523808Y60253572D01*
D10*
X51476192Y60063096D02*
X51476192Y60158332D01*
D10*
X51523808Y59967856D02*
X51476192Y60063096D01*
D10*
X51571428Y59920240D02*
X51523808Y59967856D01*
D10*
X51714284Y59872620D02*
X51571428Y59920240D01*
D10*
X51714284Y59872620D02*
X52142856Y59872620D01*
D10*
X51571428Y59825000D02*
X51714284Y59872620D01*
D10*
X51523808Y59777380D02*
X51571428Y59825000D01*
D10*
X51476192Y59682144D02*
X51523808Y59777380D01*
D10*
X51476192Y59539284D02*
X51476192Y59682144D01*
D10*
X51523808Y59444048D02*
X51476192Y59539284D01*
D10*
X51571428Y59396428D02*
X51523808Y59444048D01*
D10*
X51714284Y59348808D02*
X51571428Y59396428D01*
D10*
X52142856Y59348808D02*
X51714284Y59348808D01*
D10*
X51142856Y59348808D02*
X51142856Y60348808D01*
D10*
X50571428Y59348808D02*
X51142856Y59348808D01*
D10*
X50333332Y59348808D02*
X50333332Y60348808D01*
D10*
X49714288Y60348808D02*
X50333332Y60348808D01*
D10*
X49952380Y59872620D02*
X50333332Y59872620D01*
D10*
X49714288Y59348808D02*
X50333332Y59348808D01*
D10*
X54571428Y33348810D02*
X54952380Y34348808D01*
D10*
X54571428Y33348810D02*
X54190476Y34348808D01*
D10*
X53809524Y34301192D02*
X53714284Y34348808D01*
D10*
X53904760Y34205952D02*
X53809524Y34301192D01*
D10*
X53952380Y34110716D02*
X53904760Y34205952D01*
D10*
X54000000Y33967856D02*
X53952380Y34110716D01*
D10*
X54000000Y33729760D02*
X54000000Y33967856D01*
D10*
X53952380Y33586904D02*
X54000000Y33729760D01*
D10*
X53904760Y33491666D02*
X53952380Y33586904D01*
D10*
X53809524Y33396428D02*
X53904760Y33491666D01*
D10*
X53714284Y33348810D02*
X53809524Y33396428D01*
D10*
X53523808Y33348810D02*
X53714284Y33348810D01*
D10*
X53428572Y33396428D02*
X53523808Y33348810D01*
D10*
X53333332Y33491666D02*
X53428572Y33396428D01*
D10*
X53285716Y33586904D02*
X53333332Y33491666D01*
D10*
X53238096Y33729760D02*
X53285716Y33586904D01*
D10*
X53238096Y33967856D02*
X53238096Y33729760D01*
D10*
X53285716Y34110716D02*
X53238096Y33967856D01*
D10*
X53333332Y34205952D02*
X53285716Y34110716D01*
D10*
X53428572Y34301192D02*
X53333332Y34205952D01*
D10*
X53523808Y34348808D02*
X53428572Y34301192D01*
D10*
X53714284Y34348808D02*
X53523808Y34348808D01*
D10*
X52904760Y33348810D02*
X52904760Y34348808D01*
D10*
X52333332Y33348810D02*
X52904760Y33348810D01*
D10*
X23599810Y48068952D02*
X24599810Y48068952D01*
D10*
X24599810Y48402284D02*
X24599810Y48068952D01*
D10*
X24552190Y48545144D02*
X24599810Y48402284D01*
D10*
X24456952Y48640380D02*
X24552190Y48545144D01*
D10*
X24361714Y48688000D02*
X24456952Y48640380D01*
D10*
X24218858Y48735620D02*
X24361714Y48688000D01*
D10*
X23980762Y48735620D02*
X24218858Y48735620D01*
D10*
X23837904Y48688000D02*
X23980762Y48735620D01*
D10*
X23742666Y48640380D02*
X23837904Y48688000D01*
D10*
X23647428Y48545144D02*
X23742666Y48640380D01*
D10*
X23599810Y48402284D02*
X23647428Y48545144D01*
D10*
X23599810Y48068952D02*
X23599810Y48402284D01*
D10*
X23599810Y49068952D02*
X24599810Y49068952D01*
D10*
X24599810Y49688000D02*
X24599810Y49068952D01*
D10*
X24123620Y49449904D02*
X24123620Y49068952D01*
D10*
X23599810Y49688000D02*
X23599810Y49068952D01*
D10*
X23599810Y49973716D02*
X24599810Y49973716D01*
D10*
X24599810Y50592760D02*
X24599810Y49973716D01*
D10*
X24123620Y50354668D02*
X24123620Y49973716D01*
D10*
X23599810Y50592760D02*
X23599810Y49973716D01*
D10*
X23599810Y50878476D02*
X24599810Y50878476D01*
D10*
X24599810Y51307048D02*
X24599810Y50878476D01*
D10*
X24552190Y51449904D02*
X24599810Y51307048D01*
D10*
X24504572Y51497524D02*
X24552190Y51449904D01*
D10*
X24409334Y51545144D02*
X24504572Y51497524D01*
D10*
X24266476Y51545144D02*
X24409334Y51545144D01*
D10*
X24171238Y51497524D02*
X24266476Y51545144D01*
D10*
X24123620Y51449904D02*
X24171238Y51497524D01*
D10*
X24076000Y51307048D02*
X24123620Y51449904D01*
D10*
X24076000Y50878476D02*
X24076000Y51307048D01*
D11*
X37925000Y58325000D02*
X25075000Y58325000D01*
D11*
X37925000Y46675000D02*
X37925000Y58325000D01*
D11*
X25075000Y46675000D02*
X37925000Y46675000D01*
D11*
X25075000Y58325000D02*
X25075000Y46675000D01*
D11*
X60025000Y40475000D02*
X46975000Y40475000D01*
D11*
X60025000Y47000000D02*
X60025000Y40475000D01*
D11*
X40500000Y43500000D02*
X40500000Y43500000D01*
D11*
X46975000Y40475000D02*
X46975000Y47000000D01*
D11*
X38025000Y66475000D02*
X24975000Y66475000D01*
D11*
X38025000Y73000000D02*
X38025000Y66475000D01*
D11*
X18500000Y69500000D02*
X18500000Y69500000D01*
D11*
X24975000Y66475000D02*
X24975000Y73000000D01*
D11*
X60025000Y66475000D02*
X46975000Y66475000D01*
D11*
X60025000Y73000000D02*
X60025000Y66475000D01*
D11*
X40500000Y69500000D02*
X40500000Y69500000D01*
D11*
X46975000Y66475000D02*
X46975000Y73000000D01*
D11*
X16025000Y66475000D02*
X2975000Y66475000D01*
D11*
X16025000Y73000000D02*
X16025000Y66475000D01*
D11*
X-3500000Y69500000D02*
X-3500000Y69500000D01*
D11*
X2975000Y66475000D02*
X2975000Y73000000D01*
G75*
D11*
G02*
X44975000Y52500000D02*
X62025000Y52500000I8525000J0D01*
D11*
G02*
X62025000Y52500000D02*
X60018276Y47005668I-8525000J1D01*
D11*
G02*
X47000000Y47000000D02*
X44985307Y52500000I6500000J5499999D01*
D11*
G02*
X22975000Y78500000D02*
X40025000Y78500000I8525000J0D01*
D11*
G02*
X40025000Y78500000D02*
X38018276Y73005668I-8525000J1D01*
D11*
G02*
X25000000Y73000000D02*
X22985307Y78500000I6500000J5499999D01*
D11*
G02*
X44975000Y78500000D02*
X62025000Y78500000I8525000J0D01*
D11*
G02*
X62025000Y78500000D02*
X60018276Y73005668I-8525000J1D01*
D11*
G02*
X47000000Y73000000D02*
X44985307Y78500000I6500000J5499999D01*
D11*
G02*
X975000Y78500000D02*
X18025000Y78500000I8525000J0D01*
D11*
G02*
X18025000Y78500000D02*
X16018276Y73005668I-8525000J1D01*
D11*
G02*
X3000000Y73000000D02*
X985307Y78500000I6500000J5499999D01*
M02*
