%FSLAX46Y46*%
%MOMM*%
%AMPS19*
21,1,0.900000,1.000000,0.000000,0.000000,0.000000*
%
%ADD19PS19*%
%AMPS28*
21,1,0.900000,1.000000,0.000000,0.000000,90.000000*
%
%ADD28PS28*%
%AMPS18*
21,1,0.900000,1.000000,0.000000,0.000000,180.000000*
%
%ADD18PS18*%
%AMPS29*
21,1,0.900000,1.000000,0.000000,0.000000,270.000000*
%
%ADD29PS29*%
%AMPS21*
21,1,1.600000,3.200000,0.000000,0.000000,90.000000*
%
%ADD21PS21*%
%AMPS20*
21,1,1.600000,3.200000,0.000000,0.000000,270.000000*
%
%ADD20PS20*%
%AMPS23*
21,1,1.500000,2.800000,0.000000,0.000000,0.000000*
%
%ADD23PS23*%
%AMPS15*
21,1,1.500000,2.800000,0.000000,0.000000,90.000000*
%
%ADD15PS15*%
%AMPS22*
21,1,1.500000,2.800000,0.000000,0.000000,180.000000*
%
%ADD22PS22*%
%AMPS14*
21,1,1.500000,2.800000,0.000000,0.000000,270.000000*
%
%ADD14PS14*%
%AMPS24*
21,1,0.700000,0.900000,0.000000,0.000000,0.000000*
%
%ADD24PS24*%
%AMPS25*
21,1,0.700000,0.900000,0.000000,0.000000,180.000000*
%
%ADD25PS25*%
%AMPS17*
21,1,1.800000,1.100000,0.000000,0.000000,0.000000*
%
%ADD17PS17*%
%AMPS26*
21,1,1.800000,1.100000,0.000000,0.000000,90.000000*
%
%ADD26PS26*%
%AMPS16*
21,1,1.800000,1.100000,0.000000,0.000000,180.000000*
%
%ADD16PS16*%
%AMPS27*
21,1,1.800000,1.100000,0.000000,0.000000,270.000000*
%
%ADD27PS27*%
%AMPS10*
21,1,1.000000,0.900000,0.000000,0.000000,0.000000*
%
%ADD10PS10*%
%AMPS12*
21,1,1.000000,0.900000,0.000000,0.000000,90.000000*
%
%ADD12PS12*%
%AMPS11*
21,1,1.000000,0.900000,0.000000,0.000000,180.000000*
%
%ADD11PS11*%
%AMPS13*
21,1,1.000000,0.900000,0.000000,0.000000,270.000000*
%
%ADD13PS13*%
G01*
%LPD*%
G36*
X12171116Y83899306D02*
X12350000Y83000000D01*
X12350000Y83000000D01*
X12171116Y82100693D01*
X11661700Y81338299D01*
X10899306Y80828883D01*
X10000000Y80650000D01*
X9100693Y80828883D01*
X8338299Y81338299D01*
X7828883Y82100693D01*
X7650000Y83000000D01*
X7828883Y83899306D01*
X8338299Y84661700D01*
X9100693Y85171116D01*
X10000000Y85350000D01*
X10899306Y85171116D01*
X11661700Y84661700D01*
X12171116Y83899306D01*
D02*
G37*
G36*
X102171116Y25899306D02*
X102350000Y25000000D01*
X102350000Y25000000D01*
X102171116Y24100693D01*
X101661700Y23338299D01*
X100899306Y22828883D01*
X100000000Y22650000D01*
X99100693Y22828883D01*
X98338299Y23338299D01*
X97828883Y24100693D01*
X97650000Y25000000D01*
X97828883Y25899306D01*
X98338299Y26661700D01*
X99100693Y27171116D01*
X100000000Y27350000D01*
X100899306Y27171116D01*
X101661700Y26661700D01*
X102171116Y25899306D01*
D02*
G37*
G36*
X12171116Y25899306D02*
X12350000Y25000000D01*
X12350000Y25000000D01*
X12171116Y24100693D01*
X11661700Y23338299D01*
X10899306Y22828883D01*
X10000000Y22650000D01*
X9100693Y22828883D01*
X8338299Y23338299D01*
X7828883Y24100693D01*
X7650000Y25000000D01*
X7828883Y25899306D01*
X8338299Y26661700D01*
X9100693Y27171116D01*
X10000000Y27350000D01*
X10899306Y27171116D01*
X11661700Y26661700D01*
X12171116Y25899306D01*
D02*
G37*
G36*
X102171116Y83899306D02*
X102350000Y83000000D01*
X102350000Y83000000D01*
X102171116Y82100693D01*
X101661700Y81338299D01*
X100899306Y80828883D01*
X100000000Y80650000D01*
X99100693Y80828883D01*
X98338299Y81338299D01*
X97828883Y82100693D01*
X97650000Y83000000D01*
X97828883Y83899306D01*
X98338299Y84661700D01*
X99100693Y85171116D01*
X100000000Y85350000D01*
X100899306Y85171116D01*
X101661700Y84661700D01*
X102171116Y83899306D01*
D02*
G37*
G01*
%LPD*%
G75*
D10*
X32450000Y66280000D03*
D11*
X32450000Y67880000D03*
D12*
X74120000Y56585000D03*
D13*
X72520000Y56585000D03*
D12*
X39750000Y70430000D03*
D13*
X38150000Y70430000D03*
D11*
X34380000Y67880000D03*
D10*
X34380000Y66280000D03*
D14*
X74120000Y61105000D03*
D15*
X78819998Y61105000D03*
D16*
X42480000Y71480000D03*
D17*
X42480000Y68480000D03*
D18*
X38150000Y68480000D03*
D19*
X39100000Y66280000D03*
D18*
X40050000Y68480000D03*
D11*
X28680000Y67880000D03*
D10*
X28680000Y66280000D03*
D14*
X52010000Y65889996D03*
D15*
X56709998Y65889996D03*
D13*
X72520000Y54655000D03*
D12*
X74120000Y54655000D03*
D12*
X45500000Y82600000D03*
D13*
X43900000Y82600000D03*
D13*
X75750000Y50675000D03*
D12*
X77350000Y50675000D03*
D13*
X75750000Y52605000D03*
D12*
X77350000Y52605000D03*
D20*
X52500000Y36500000D03*
D21*
X57500000Y36500000D03*
D20*
X29800000Y72900000D03*
D21*
X34800000Y72900000D03*
D10*
X30560000Y66280000D03*
D11*
X30560000Y67880000D03*
D22*
X71370000Y51279999D03*
D23*
X71370000Y46580001D03*
D21*
X57120000Y75430000D03*
D20*
X52120000Y75430000D03*
D12*
X77336500Y48745000D03*
D13*
X75736500Y48745000D03*
D24*
X76050000Y54655000D03*
D24*
X77350000Y54655000D03*
D25*
X76700000Y56555000D03*
D26*
X55500000Y30900000D03*
D27*
X52500000Y30900000D03*
D12*
X52230000Y70350000D03*
D13*
X50630000Y70350000D03*
D12*
X73520000Y67200000D03*
D13*
X71920000Y67200000D03*
D13*
X80480000Y67200000D03*
D12*
X82080000Y67200000D03*
D28*
X48740000Y70350000D03*
D29*
X46540000Y69400000D03*
D28*
X48740000Y68450000D03*
D11*
X36270000Y67880000D03*
D10*
X36270000Y66280000D03*
M02*
