%FSLAX46Y46*%
%MOMM*%
%AMPS28*
21,1,0.600000,1.550000,0.000000,0.000000,0.000000*
%
%ADD28PS28*%
%AMPS14*
21,1,0.600000,1.550000,0.000000,0.000000,90.000000*
%
%ADD14PS14*%
%AMPS29*
21,1,0.600000,1.550000,0.000000,0.000000,180.000000*
%
%ADD29PS29*%
%AMPS15*
21,1,0.600000,1.550000,0.000000,0.000000,270.000000*
%
%ADD15PS15*%
%AMPS20*
21,1,1.600000,3.200000,0.000000,0.000000,90.000000*
%
%ADD20PS20*%
%AMPS21*
21,1,1.600000,3.200000,0.000000,0.000000,270.000000*
%
%ADD21PS21*%
%AMPS25*
21,1,1.450000,1.000000,0.000000,0.000000,0.000000*
%
%ADD25PS25*%
%AMPS23*
21,1,1.450000,1.000000,0.000000,0.000000,90.000000*
%
%ADD23PS23*%
%AMPS24*
21,1,1.450000,1.000000,0.000000,0.000000,180.000000*
%
%ADD24PS24*%
%AMPS22*
21,1,1.450000,1.000000,0.000000,0.000000,270.000000*
%
%ADD22PS22*%
%AMPS19*
21,1,1.500000,2.800000,0.000000,0.000000,0.000000*
%
%ADD19PS19*%
%AMPS18*
21,1,1.500000,2.800000,0.000000,0.000000,180.000000*
%
%ADD18PS18*%
%AMPS26*
21,1,1.800000,1.100000,0.000000,0.000000,0.000000*
%
%ADD26PS26*%
%AMPS16*
21,1,1.800000,1.100000,0.000000,0.000000,90.000000*
%
%ADD16PS16*%
%AMPS27*
21,1,1.800000,1.100000,0.000000,0.000000,180.000000*
%
%ADD27PS27*%
%AMPS17*
21,1,1.800000,1.100000,0.000000,0.000000,270.000000*
%
%ADD17PS17*%
%AMPS11*
21,1,1.000000,0.900000,0.000000,0.000000,0.000000*
%
%ADD11PS11*%
%AMPS12*
21,1,1.000000,0.900000,0.000000,0.000000,90.000000*
%
%ADD12PS12*%
%AMPS10*
21,1,1.000000,0.900000,0.000000,0.000000,180.000000*
%
%ADD10PS10*%
%AMPS13*
21,1,1.000000,0.900000,0.000000,0.000000,270.000000*
%
%ADD13PS13*%
G01*
%LPD*%
G36*
X12171116Y83899306D02*
X12350000Y83000000D01*
X12350000Y83000000D01*
X12171116Y82100693D01*
X11661700Y81338299D01*
X10899306Y80828883D01*
X10000000Y80650000D01*
X9100693Y80828883D01*
X8338299Y81338299D01*
X7828883Y82100693D01*
X7650000Y83000000D01*
X7828883Y83899306D01*
X8338299Y84661700D01*
X9100693Y85171116D01*
X10000000Y85350000D01*
X10899306Y85171116D01*
X11661700Y84661700D01*
X12171116Y83899306D01*
D02*
G37*
G36*
X102171116Y25899306D02*
X102350000Y25000000D01*
X102350000Y25000000D01*
X102171116Y24100693D01*
X101661700Y23338299D01*
X100899306Y22828883D01*
X100000000Y22650000D01*
X99100693Y22828883D01*
X98338299Y23338299D01*
X97828883Y24100693D01*
X97650000Y25000000D01*
X97828883Y25899306D01*
X98338299Y26661700D01*
X99100693Y27171116D01*
X100000000Y27350000D01*
X100899306Y27171116D01*
X101661700Y26661700D01*
X102171116Y25899306D01*
D02*
G37*
G36*
X12171116Y25899306D02*
X12350000Y25000000D01*
X12350000Y25000000D01*
X12171116Y24100693D01*
X11661700Y23338299D01*
X10899306Y22828883D01*
X10000000Y22650000D01*
X9100693Y22828883D01*
X8338299Y23338299D01*
X7828883Y24100693D01*
X7650000Y25000000D01*
X7828883Y25899306D01*
X8338299Y26661700D01*
X9100693Y27171116D01*
X10000000Y27350000D01*
X10899306Y27171116D01*
X11661700Y26661700D01*
X12171116Y25899306D01*
D02*
G37*
G36*
X102171116Y83899306D02*
X102350000Y83000000D01*
X102350000Y83000000D01*
X102171116Y82100693D01*
X101661700Y81338299D01*
X100899306Y80828883D01*
X100000000Y80650000D01*
X99100693Y80828883D01*
X98338299Y81338299D01*
X97828883Y82100693D01*
X97650000Y83000000D01*
X97828883Y83899306D01*
X98338299Y84661700D01*
X99100693Y85171116D01*
X100000000Y85350000D01*
X100899306Y85171116D01*
X101661700Y84661700D01*
X102171116Y83899306D01*
D02*
G37*
G01*
%LPD*%
G75*
D10*
X64630000Y60860000D03*
D11*
X64630000Y59260000D03*
D11*
X40225000Y58450000D03*
D10*
X40225000Y60050000D03*
D12*
X61900000Y53100000D03*
D13*
X60300000Y53100000D03*
D12*
X37040000Y46660000D03*
D13*
X35440000Y46660000D03*
D11*
X31325000Y46980000D03*
D10*
X31325000Y48580000D03*
D11*
X54206667Y51214999D03*
D10*
X54206667Y52814999D03*
D10*
X45200000Y75500000D03*
D11*
X45200000Y73900000D03*
D14*
X62356667Y61964997D03*
D14*
X62356667Y59424997D03*
D14*
X62356667Y58154997D03*
D15*
X57016667Y58154997D03*
D15*
X57016667Y60694997D03*
D14*
X62356667Y60694997D03*
D15*
X57016667Y61964997D03*
D15*
X57016667Y59424997D03*
D16*
X63480000Y55530000D03*
D17*
X60480000Y55530000D03*
D10*
X40225000Y56610000D03*
D11*
X40225000Y55010000D03*
D18*
X52206667Y60694997D03*
D19*
X52206667Y55994999D03*
D12*
X58396667Y56064997D03*
D13*
X56796667Y56064997D03*
D20*
X62900000Y34900000D03*
D21*
X57900000Y34900000D03*
D10*
X27465000Y48580000D03*
D11*
X27465000Y46980000D03*
D11*
X33580000Y46940000D03*
D10*
X33580000Y48540000D03*
D12*
X45200000Y72040000D03*
D13*
X43600000Y72040000D03*
D22*
X36445000Y62560000D03*
D23*
X38345000Y62560000D03*
D10*
X38345000Y60050000D03*
D11*
X38345000Y58450000D03*
D24*
X42600000Y70000000D03*
D25*
X42600000Y68100000D03*
D10*
X40195000Y52430000D03*
D11*
X40195000Y50830000D03*
D26*
X47630000Y72500000D03*
D27*
X47630000Y75500000D03*
D11*
X32205000Y54570000D03*
D10*
X32205000Y56170000D03*
D28*
X38105000Y50830000D03*
D28*
X35565000Y50830000D03*
D28*
X34295000Y50830000D03*
D29*
X34295000Y56170000D03*
D29*
X36835000Y56170000D03*
D28*
X36835000Y50830000D03*
D29*
X38105000Y56170000D03*
D29*
X35565000Y56170000D03*
D17*
X29025000Y50940000D03*
D16*
X32025000Y50940000D03*
D11*
X66510000Y55860000D03*
D10*
X66510000Y57460000D03*
D10*
X46400000Y69700000D03*
D11*
X46400000Y68100000D03*
D13*
X34845000Y58450000D03*
D12*
X36445000Y58450000D03*
D13*
X34845000Y60330000D03*
D12*
X36445000Y60330000D03*
D13*
X60756667Y64054997D03*
D12*
X62356667Y64054997D03*
D16*
X60900000Y29300000D03*
D17*
X57900000Y29300000D03*
D16*
X50400000Y29300000D03*
D17*
X47400000Y29300000D03*
D21*
X47400000Y34900000D03*
D20*
X52400000Y34900000D03*
D10*
X29395000Y48580000D03*
D11*
X29395000Y46980000D03*
D11*
X52206667Y51214999D03*
D10*
X52206667Y52814999D03*
D13*
X63700000Y53100000D03*
D12*
X65300000Y53100000D03*
D12*
X37040000Y48540000D03*
D13*
X35440000Y48540000D03*
D10*
X66510000Y60860000D03*
D11*
X66510000Y59260000D03*
D20*
X38580000Y41580000D03*
D21*
X33580000Y41580000D03*
M02*
